<?xml version="1.0" standalone="no"?>
<!DOCTYPE svg PUBLIC "-//W3C//DTD SVG 1.1//EN" "http://www.w3.org/Graphics/SVG/1.1/DTD/svg11.dtd" >
<svg xmlns="http://www.w3.org/2000/svg" xmlns:xlink="http://www.w3.org/1999/xlink" version="1.1">
<metadata></metadata>
<defs>
<font id="SpotMono-Light" horiz-adv-x="600" >
  <font-face 
    font-family="SpotMono"
    font-weight="300"
    font-stretch="normal"
    units-per-em="1000"
    panose-1="0 0 8 0 0 0 0 0 0 0"
    ascent="800"
    descent="-200"
    x-height="426"
    cap-height="571"
    bbox="-7 -309 701 892"
    underline-thickness="50"
    underline-position="-200"
    unicode-range="U+0020-FB02"
  />
<missing-glyph 
d="M526 598h-452v-744h452v744zM17 -166v784q0 32 32 32h502q32 0 32 -32v-784q0 -32 -32 -32h-502q-32 0 -32 32zM314 365q-62 0 -117 -48q-13 -12 -25 -12q-14 0 -23 8.5t-9 22.5q0 17 23 37q64 49 151 49q64 0 100.5 -27t36.5 -77q0 -44 -34 -72.5t-95 -36.5l-3 -25
q-3 -27 -26 -27q-27 0 -28 27q0 8 -1 21t-1 28q0 25 25 26q101 5 101 59q0 47 -75 47zM238 75q0 23 15 37t39 14q55 0 55 -51q0 -50 -55 -50q-23 0 -38.5 14t-15.5 36z" />
    <glyph glyph-name=".notdef" 
d="M526 598h-452v-744h452v744zM17 -166v784q0 32 32 32h502q32 0 32 -32v-784q0 -32 -32 -32h-502q-32 0 -32 32zM314 365q-62 0 -117 -48q-13 -12 -25 -12q-14 0 -23 8.5t-9 22.5q0 17 23 37q64 49 151 49q64 0 100.5 -27t36.5 -77q0 -44 -34 -72.5t-95 -36.5l-3 -25
q-3 -27 -26 -27q-27 0 -28 27q0 8 -1 21t-1 28q0 25 25 26q101 5 101 59q0 47 -75 47zM238 75q0 23 15 37t39 14q55 0 55 -51q0 -50 -55 -50q-23 0 -38.5 14t-15.5 36z" />
    <glyph glyph-name=".null" horiz-adv-x="0" 
 />
    <glyph glyph-name="nonmarkingreturn" horiz-adv-x="333" 
 />
    <glyph glyph-name="space" unicode=" " horiz-adv-x="601" 
 />
    <glyph glyph-name="exclam" unicode="!" 
d="M278 226l-13 243q-2 34 -2 57q0 31 8 45t29 14t29 -14q13 -22 6 -102l-13 -243q-3 -25 -22 -25t-22 25zM249 8q-20 19 -20 47t20 47q21 19 51 19t50 -19q21 -19 21 -47t-21 -47q-20 -19 -50 -19t-51 19z" />
    <glyph glyph-name="quotedbl" unicode="&#x22;" 
d="M191 376l-16 102q-5 38 -5 52q-2 34 22 48.5t48 0t21 -48.5q0 -27 -4 -52l-16 -102q-3 -32 -25 -32t-25 32zM360 376l-16 102q-5 38 -5 52q-2 34 22 48.5t48 0t21 -48.5q0 -27 -4 -52l-16 -102q-3 -32 -25 -32t-25 32z" />
    <glyph glyph-name="numbersign" unicode="#" 
d="M325 33l25 126h-151l-28 -141q-5 -29 -28 -29q-27 0 -27 27q0 3 2 17l25 126h-77q-31 0 -31 27t31 27h87l32 159h-82q-31 0 -31 27t31 27h93l26 130q5 29 28 29q27 0 27 -27q0 -3 -2 -17l-23 -115h151l26 130q5 29 28 29q27 0 27 -27q0 -3 -2 -17l-23 -115h78
q31 0 31 -27t-31 -27h-89l-32 -159h84q31 0 31 -27t-31 -27h-94l-28 -141q-5 -29 -28 -29q-27 0 -27 27q0 3 2 17zM392 372h-151l-32 -159h151z" />
    <glyph glyph-name="dollar" unicode="$" 
d="M275 -89v76q-91 4 -156 47q-22 15 -30 24t-8 23q0 11 8.5 19t19.5 8q14 0 49 -24q63 -42 142 -42q71 0 113 27t42 74q0 42 -35.5 64t-118.5 37q-114 21 -163 54q-50 33 -50 100t53 106q55 40 134 41v84q0 31 28 31t28 -31v-87q84 -9 140 -52q20 -15 20 -31
q0 -21 -16.5 -27t-48.5 13q-70 44 -144 44q-61 0 -97.5 -24.5t-36.5 -65.5q0 -38 37 -59.5t121 -36.5q99 -17 151 -49q58 -33 58 -110q0 -67 -49.5 -108.5t-134.5 -48.5v-76q0 -31 -28 -31t-28 31z" />
    <glyph glyph-name="percent" unicode="%" 
d="M159 285q-59 0 -92.5 42t-33.5 109t33.5 108t92.5 41t92.5 -41t33.5 -108q0 -68 -33.5 -109.5t-92.5 -41.5zM159 334q34 0 52 28t18 74t-18 73t-52 27q-33 0 -51 -28t-18 -72q0 -46 18 -74t51 -28zM441 -6q-59 0 -92.5 42t-33.5 109t33.5 108t92.5 41t92.5 -41t33.5 -108
q0 -68 -33.5 -109.5t-92.5 -41.5zM441 43q34 0 52 28t18 74t-18 73t-52 27q-33 0 -51 -28t-18 -72q0 -46 18 -74t51 -28zM341 399l107 170q9 16 24 16q12 0 19.5 -7t7.5 -18q0 -8 -5 -16l-106 -170q-9 -16 -25 -16q-12 0 -19.5 7t-7.5 18q0 8 5 16zM106 30l107 170
q9 16 24 16q12 0 19.5 -7t7.5 -18q0 -8 -5 -16l-106 -170q-9 -16 -25 -16q-12 0 -19.5 7t-7.5 18q0 8 5 16z" />
    <glyph glyph-name="ampersand" unicode="&#x26;" 
d="M231 -14q-79 0 -126 39t-47 105q0 47 32.5 88t98.5 85q-44 44 -62 77t-18 73q0 58 41.5 95t105.5 37t105 -37t41 -95q0 -45 -28 -78.5t-95 -77.5l146 -145q37 56 49 141q4 33 30 33q29 0 29 -32q0 -41 -18.5 -92.5t-47.5 -90.5l62 -60q24 -23 24 -39q0 -11 -7 -18.5
t-18 -7.5q-16 0 -35 18l-66 64q-88 -82 -196 -82zM119 129q0 -41 32 -64.5t84 -23.5q87 0 153 66l-160 157q-56 -35 -82.5 -66.5t-26.5 -68.5zM341 453q0 35 -24 56t-61 21t-61.5 -21t-24.5 -56q0 -44 70 -117q56 35 78.5 60.5t22.5 56.5z" />
    <glyph glyph-name="quotesingle" unicode="'" 
d="M274 376l-16 102q-5 38 -5 52q-2 34 22 48.5t48 0t21 -48.5q0 -27 -4 -52l-16 -102q-3 -32 -25 -32t-25 32z" />
    <glyph glyph-name="parenleft" unicode="(" 
d="M231 226q0 -275 202 -384q17 -9 17 -26q0 -25 -25 -25q-9 0 -27 8q-87 44 -155 144q-75 113 -75 283t75 283q68 99 155 143q18 8 27 8q25 0 25 -25q0 -17 -17 -26q-202 -109 -202 -383z" />
    <glyph glyph-name="parenright" unicode=")" 
d="M349 226q0 274 -202 383q-17 9 -17 26q0 25 25 25q9 0 27 -8q90 -46 154 -143q76 -110 76 -283t-76 -283q-64 -98 -154 -144q-18 -8 -27 -8q-25 0 -25 25q0 17 17 26q202 109 202 384z" />
    <glyph glyph-name="asterisk" unicode="*" 
d="M332 620l-11 -138l124 54q7 4 19 4q13 0 23 -10.5t10 -24.5q0 -29 -28 -33l-133 -32l90 -99q11 -17 11 -28q0 -13 -11 -22.5t-24 -9.5q-19 0 -31 19l-72 115l-68 -116q-12 -20 -32 -20q-23 0 -31 20t8 39l88 104l-131 29q-30 6 -30 32q0 15 9.5 25.5t24.5 10.5q7 0 16 -3
l125 -51l-14 134q-6 30 22 38q27 9 41 -11q8 -10 5 -26z" />
    <glyph glyph-name="plus" unicode="+" 
d="M272 95v133h-133q-32 0 -32 28t32 28h133v133q0 32 28 32t28 -32v-133h133q32 0 32 -28t-32 -28h-133v-133q0 -32 -28 -32t-28 32z" />
    <glyph glyph-name="comma" unicode="," 
d="M276 -173q-18 -9 -24 -9q-18 0 -18 18q0 11 15 23q33 23 56 64q22 39 17 69q-40 -9 -66.5 10.5t-26.5 54.5q0 28 19.5 46.5t48.5 18.5q82 0 82 -100q0 -60 -31 -116q-30 -56 -72 -79z" />
    <glyph glyph-name="hyphen" unicode="-" 
d="M411 250h-223q-32 0 -32 28q0 30 32 30h223q20 0 28.5 -14.5t0 -29t-28.5 -14.5z" />
    <glyph glyph-name="period" unicode="." 
d="M249 8q-20 19 -20 47t20 47q21 19 51 19t50 -19q21 -19 21 -47t-21 -47q-20 -19 -50 -19t-51 19z" />
    <glyph glyph-name="slash" unicode="/" 
d="M35 -164l480 807q9 17 26 17q13 0 20.5 -7.5t7.5 -19.5q0 -10 -5 -18l-480 -807q-9 -17 -26 -17q-13 0 -20.5 7.5t-7.5 19.5q0 10 5 18z" />
    <glyph glyph-name="zero" unicode="0" 
d="M74 286q0 130 59 215q59 84 166 84q108 0 166 -84q59 -85 59 -215q0 -131 -59 -216q-58 -84 -166 -84q-107 0 -166 84q-59 85 -59 216zM179 111q44 -68 120 -68q75 0 119 68t44 175q0 106 -44 174t-119 68q-76 0 -120 -68q-43 -67 -43 -174q0 -108 43 -175zM336 251
q-15 -14 -37 -14t-37 14t-15 35t15 35t37 14t37 -14t15 -35t-15 -35z" />
    <glyph glyph-name="one" unicode="1" 
d="M496 0h-375q-33 0 -33 29t33 29q42 0 177 -4v461l-151 -82q-31 -15 -47 -9t-16 27q0 19 25 32l179 88q30 14 43 14q28 0 28 -35v-496q107 4 137 4q33 0 33 -29t-33 -29z" />
    <glyph glyph-name="two" unicode="2" 
d="M113 488q85 97 202 97q84 0 138 -45q55 -45 55 -123q0 -58 -40 -116q-14 -23 -48 -54q-20 -18 -54 -47q-27 -23 -65 -51l-123 -95q239 4 339 4q33 0 33 -29t-33 -29h-401q-13 0 -22 8t-9 22q0 16 21 33l171 137q90 72 129 117q39 47 39 98q0 52 -36.5 82.5t-94.5 30.5
q-85 0 -150 -77q-15 -18 -32 -18q-12 0 -20.5 7.5t-8.5 19.5q0 18 10 28z" />
    <glyph glyph-name="three" unicode="3" 
d="M124 442q-13 0 -21 7.5t-8 20.5q0 16 14 30q82 85 205 85q77 0 133 -44t56 -114q0 -48 -28.5 -83.5t-78.5 -48.5q57 -7 93.5 -44.5t36.5 -90.5q0 -75 -61 -124q-62 -50 -162 -50q-131 0 -208 83q-18 19 -18 35q0 12 8.5 20.5t20.5 8.5q16 0 35 -21q61 -69 162 -69
q66 0 113 32t47 84q0 49 -42.5 75t-113.5 27q-36 0 -36 29q0 24 35 29q134 17 134 108q0 46 -37.5 73.5t-91.5 27.5q-89 0 -156 -70q-16 -16 -31 -16z" />
    <glyph glyph-name="four" unicode="4" 
d="M437 553v-378h83q33 0 33 -27t-33 -27h-83v-98q0 -37 -32 -37q-30 0 -30 37v98h-305q-14 0 -22.5 9t-8.5 21q0 14 15 32l321 383q16 19 31 19q31 0 31 -32zM116 175h262v309z" />
    <glyph glyph-name="five" unicode="5" 
d="M482 513q-75 0 -282 4l-31 -194q83 48 157 48q91 0 150 -53t59 -136q0 -84 -62 -140t-164 -56q-67 0 -123.5 23t-90.5 60q-18 19 -18 35q0 12 8.5 20.5t20.5 8.5q16 0 35 -21q62 -69 167 -69q74 0 119 38.5t45 100.5q0 60 -43 97q-41 37 -103 37q-74 0 -145 -42
q-29 -19 -44 -19q-12 0 -20.5 8t-8.5 20q0 5 4 30l37 231q5 27 32 27h301q33 0 33 -29t-33 -29z" />
    <glyph glyph-name="six" unicode="6" 
d="M317 -14q-113 0 -177 84q-63 86 -63 218q0 143 67 219q68 78 176 78q107 0 170 -63q21 -21 21 -36q0 -29 -30 -29q-15 0 -38 23q-49 49 -125 49q-80 0 -130 -63.5t-50 -174.5q33 36 84 57.5t103 21.5q84 0 143 -53q58 -52 58 -134q0 -83 -60 -140t-149 -57zM324 315
q-100 0 -183 -84q12 -89 59 -139t117 -50q62 0 105 41q42 42 42 100q0 57 -41 95q-40 37 -99 37z" />
    <glyph glyph-name="seven" unicode="7" 
d="M123 571h391q32 0 32 -29q0 -13 -14 -39l-278 -484q-19 -33 -41 -33q-13 0 -21 8t-8 20q0 13 13 35l279 468q-65 0 -118 -1q-56 -1 -137 -2t-98 -1q-33 0 -33 29t33 29z" />
    <glyph glyph-name="eight" unicode="8" 
d="M193 499q-40 -28 -40 -76q0 -47 39 -76q41 -29 108 -29t107 29q40 28 40 76t-40 76q-40 30 -107 30q-66 0 -107 -30zM176 231q-45 -30 -45 -79q0 -48 45 -80q47 -30 124 -30q78 0 123 30q46 31 46 80t-46 79q-44 31 -123 31q-78 0 -124 -31zM68 151q0 53 34.5 91.5
t89.5 50.5q-48 17 -75 53t-27 79q0 65 54 112q56 48 156 48q101 0 155 -48q55 -46 55 -112q0 -43 -27 -79t-75 -53q55 -12 89.5 -50.5t34.5 -91.5q0 -73 -63 -119t-169 -46t-169 46t-63 119z" />
    <glyph glyph-name="nine" unicode="9" 
d="M283 585q113 0 176 -85q64 -83 64 -217q0 -143 -67 -220q-68 -77 -176 -77q-107 0 -170 63q-21 21 -21 36q0 29 30 29q15 0 38 -23q49 -49 125 -49q77 0 128 62q50 61 52 176q-35 -36 -85.5 -57.5t-101.5 -21.5q-85 0 -143 52t-58 135t60 140t149 57zM276 256
q48 0 96.5 22.5t85.5 60.5q-12 90 -58.5 140t-116.5 50q-63 0 -105 -42q-42 -41 -42 -99t40 -95t100 -37z" />
    <glyph glyph-name="colon" unicode=":" 
d="M249 8q-20 19 -20 47t20 47q21 19 51 19t50 -19q21 -19 21 -47t-21 -47q-20 -19 -50 -19t-51 19zM249 324q-20 19 -20 47t20 47q21 19 51 19t50 -19q21 -19 21 -47t-21 -47q-20 -19 -50 -19t-51 19z" />
    <glyph glyph-name="semicolon" unicode=";" 
d="M276 -173q-18 -9 -24 -9q-18 0 -18 18q0 11 15 23q33 23 56 64q22 39 17 69q-40 -9 -66.5 10.5t-26.5 54.5q0 28 19.5 46.5t48.5 18.5q82 0 82 -100q0 -60 -31 -116q-30 -56 -72 -79zM249 324q-20 19 -20 47t20 47q21 19 51 19t50 -19q21 -19 21 -47t-21 -47
q-20 -19 -50 -19t-51 19z" />
    <glyph glyph-name="less" unicode="&#x3c;" 
d="M452 384l-265 -116l265 -116q22 -10 22 -27q0 -12 -8.5 -20t-19.5 -8q-6 0 -17 4l-308 139q-21 10 -21 28t21 28l308 139q11 4 17 4q11 0 19.5 -8t8.5 -20q0 -17 -22 -27z" />
    <glyph glyph-name="equal" unicode="=" 
d="M461 324h-322q-32 0 -32 28t32 28h322q32 0 32 -28t-32 -28zM461 132h-322q-32 0 -32 28t32 28h322q32 0 32 -28t-32 -28z" />
    <glyph glyph-name="greater" unicode="&#x3e;" 
d="M148 152l265 116l-265 116q-22 9 -22 27q0 12 8.5 20t19.5 8q6 0 17 -4l308 -139q21 -10 21 -28t-21 -28l-308 -139q-11 -4 -17 -4q-11 0 -19.5 8t-8.5 20q0 18 22 27z" />
    <glyph glyph-name="question" unicode="?" 
d="M333 529q-113 0 -190 -80q-15 -17 -30 -17q-30 0 -30 29q0 18 21 36q101 88 229 88q90 0 143.5 -39t53.5 -107q0 -123 -201 -157l-4 -55q-2 -26 -25 -26q-25 0 -28 26q-4 23 -4 71q0 15 6 22t22 9q171 24 171 111q0 43 -35 66t-99 23zM248 8q-20 19 -20 47t20 47
q21 19 51 19t50 -19q21 -19 21 -47t-21 -47q-20 -19 -50 -19t-51 19z" />
    <glyph glyph-name="at" unicode="@" 
d="M337 -207q-129 0 -198 104t-69 299q0 182 63 285q65 104 185 104q98 0 150.5 -63t52.5 -174v-325q0 -15 -8.5 -24t-20.5 -9q-11 0 -20.5 9t-9.5 24v13q-33 -46 -94 -46q-65 0 -102 56t-37 150t37 150t102 56q64 0 94 -47q0 87 -38.5 131t-105.5 44q-91 0 -141.5 -88.5
t-50.5 -245.5q0 -167 55.5 -257.5t155.5 -90.5q45 0 91 27q19 11 33 11q12 0 20 -7t8 -17q0 -17 -23 -31q-62 -38 -129 -38zM373 345q-40 0 -63.5 -38.5t-23.5 -110.5t23.5 -110.5t63.5 -38.5q49 0 73 35t24 114q0 149 -97 149z" />
    <glyph glyph-name="A" unicode="A" 
d="M138 -14q-31 0 -31 34v346q0 104 49 161.5t144 57.5t144 -57.5t49 -161.5v-346q0 -34 -31 -34q-30 0 -30 34v176h-264v-176q0 -34 -30 -34zM168 365v-114h264v114q0 164 -132 164t-132 -164z" />
    <glyph glyph-name="B" unicode="B" 
d="M297 0h-144q-32 0 -32 32v507q0 32 32 32h136q100 0 155 -40.5t55 -107.5q0 -89 -87 -124q109 -36 109 -135q0 -79 -60 -121.5t-164 -42.5zM296 263h-114v-207h115q161 0 161 107q0 100 -162 100zM289 515h-107v-196h107q70 0 108.5 25t38.5 73t-38.5 73t-108.5 25z" />
    <glyph glyph-name="C" unicode="C" 
d="M315 43q85 0 142 67q14 17 32 17q12 0 20.5 -7.5t8.5 -19.5q0 -14 -11 -28q-75 -86 -192 -86q-110 0 -175 81q-64 82 -64 219q0 138 64 218q65 81 175 81q117 0 192 -86q11 -14 11 -28q0 -12 -8.5 -19.5t-20.5 -7.5q-18 0 -32 17q-57 67 -142 67q-82 0 -129 -63.5
t-47 -178.5t47.5 -179t128.5 -64z" />
    <glyph glyph-name="D" unicode="D" 
d="M255 0h-105q-32 0 -32 32v507q0 32 32 32h105q130 0 197 -79q68 -79 68 -207q0 -126 -69 -206q-67 -79 -196 -79zM248 515h-69v-459h69q105 0 157 64t52 165t-52 165q-53 65 -157 65z" />
    <glyph glyph-name="E" unicode="E" 
d="M476 0h-329q-32 0 -32 32v507q0 32 32 32h329q33 0 33 -29t-33 -29q-55 0 -300 4v-199q207 3 222 3q33 0 33 -29t-33 -29h-52l-91 2q-36 1 -79 1v-212q46 0 95 1q97 3 205 3q33 0 33 -29t-33 -29z" />
    <glyph glyph-name="F" unicode="F" 
d="M153 571h339q33 0 33 -29t-33 -29q-41 0 -79 1l-130 2q-49 1 -101 1v-235q49 0 86 1q27 0 63.5 0.5t55.5 1t27 0.5q33 0 33 -29t-33 -29h-53l-93 2q-37 1 -86 1v-210q0 -34 -31 -34q-30 0 -30 34v519q0 32 32 32z" />
    <glyph glyph-name="G" unicode="G" 
d="M320 -14q-114 0 -181 81q-66 83 -66 219q0 139 64 219t178 80q50 0 97 -17.5t76 -43.5q21 -20 23 -36t-7.5 -23t-22.5 -7t-27 13q-62 57 -139 57q-85 0 -132 -65t-47 -177q0 -110 49 -177t135 -67q82 0 132 33v165q-3 0 -47 -2q-22 -1 -50 -1q-33 0 -33 29t33 29h124
q32 0 32 -32v-197q0 -26 -18 -36q-73 -44 -173 -44z" />
    <glyph glyph-name="H" unicode="H" 
d="M134 -14q-30 0 -30 34v531q0 34 30 34q31 0 31 -34v-228h270v228q0 34 30 34q31 0 31 -34v-531q0 -34 -31 -34q-30 0 -30 34v247h-270v-247q0 -34 -31 -34z" />
    <glyph glyph-name="I" unicode="I" 
d="M268 54v463q-121 -4 -137 -4q-33 0 -33 29t33 29h335q33 0 33 -29t-33 -29h-39l-56 2q-8 0 -18 0.5t-15.5 1t-8.5 0.5v-463q21 0 42 1q41 3 95 3q33 0 33 -29t-33 -29h-335q-33 0 -33 29t33 29q16 0 137 -4z" />
    <glyph glyph-name="J" unicode="J" 
d="M77 221q0 42 32 42q30 0 30 -40q0 -89 37 -134.5t107 -45.5q69 0 106 43.5t37 121.5v343q0 34 30 34q31 0 31 -34v-343q0 -105 -53 -163.5t-151 -58.5q-99 0 -152.5 60.5t-53.5 174.5z" />
    <glyph glyph-name="K" unicode="K" 
d="M509 -14q-16 0 -34 24l-212 280l-83 -84v-186q0 -34 -31 -34q-30 0 -30 34v531q0 34 30 34q31 0 31 -34v-271l266 283q19 22 38 22q12 0 20 -7.5t8 -20.5t-17 -33l-191 -193l223 -286q13 -16 13 -31q0 -11 -9 -19.5t-22 -8.5z" />
    <glyph glyph-name="L" unicode="L" 
d="M119 32v519q0 34 30 34q31 0 31 -34v-497q249 4 300 4q33 0 33 -29t-33 -29h-329q-32 0 -32 32z" />
    <glyph glyph-name="M" unicode="M" 
d="M80 20v530q0 35 30 35q20 0 37 -33l153 -291l153 291q17 33 37 33q30 0 30 -35v-530q0 -34 -30 -34q-31 0 -31 34v426l-126 -242q-14 -26 -33 -26t-33 26l-126 242v-426q0 -34 -30 -34q-31 0 -31 34z" />
    <glyph glyph-name="N" unicode="N" 
d="M497 551v-530q0 -35 -27 -35q-20 0 -36 28l-270 436v-430q0 -34 -31 -34q-30 0 -30 34v530q0 35 27 35q20 0 36 -28l270 -437v431q0 34 31 34q30 0 30 -34z" />
    <glyph glyph-name="O" unicode="O" 
d="M181 111q44 -68 119 -68q74 0 118 68t44 175t-43 174q-44 68 -119 68t-119 -68q-43 -67 -43 -174q0 -108 43 -175zM75 286q0 130 59 215q58 84 166 84q107 0 166 -84q59 -85 59 -215q0 -131 -59 -216q-59 -84 -166 -84q-108 0 -166 84q-59 85 -59 216z" />
    <glyph glyph-name="P" unicode="P" 
d="M121 20v519q0 32 32 32h140q99 0 163 -44q63 -43 63 -140q0 -95 -64 -140q-63 -45 -162 -45h-111v-182q0 -34 -31 -34q-30 0 -30 34zM295 515h-113v-257h113q74 0 117.5 33t43.5 96q0 64 -43 96t-118 32z" />
    <glyph glyph-name="Q" unicode="Q" 
d="M447 -41l-41 55q-49 -28 -106 -28q-108 0 -166 84q-59 85 -59 216q0 130 59 215q58 84 166 84q107 0 166 -84q59 -85 59 -215q0 -152 -74 -235l45 -57q12 -13 12 -28q0 -12 -8.5 -20.5t-20.5 -8.5q-16 0 -32 22zM300 42q41 0 71 18l-52 66q-12 14 -12 28q0 12 8.5 20.5
t20.5 8.5q16 0 32 -22l46 -62q50 65 50 187q0 106 -44 174t-120 68q-75 0 -119 -68q-43 -67 -43 -174q0 -108 43 -176q44 -68 119 -68z" />
    <glyph glyph-name="R" unicode="R" 
d="M121 20v519q0 32 32 32h141q90 0 152 -42t62 -127q0 -67 -40 -108.5t-109 -54.5l135 -192q13 -19 13 -34q0 -12 -8 -19.5t-20 -7.5q-18 0 -36 26l-149 221h-112v-213q0 -34 -31 -34q-30 0 -30 34zM294 515h-112v-226h112q70 0 110.5 30t40.5 83t-40.5 83t-110.5 30z" />
    <glyph glyph-name="S" unicode="S" 
d="M297 -14q-105 0 -178 48q-22 15 -30 24t-8 23q0 11 8.5 19t19.5 8q14 0 49 -24q61 -41 138 -41q65 0 111 28t46 81q0 43 -36.5 67.5t-120.5 45.5q-109 27 -157 65t-48 106q0 66 56 107q57 42 140 42q112 0 182 -55q20 -15 20 -31q0 -21 -16.5 -27t-48.5 13
q-62 43 -138 43q-61 0 -96.5 -25.5t-35.5 -68.5q0 -42 35 -65.5t115 -43.5q113 -29 161 -64q51 -34 51 -107q0 -79 -62 -124q-62 -44 -157 -44z" />
    <glyph glyph-name="T" unicode="T" 
d="M270 20v497q-135 -4 -182 -4q-33 0 -33 29t33 29h425q33 0 33 -29t-33 -29q-43 0 -182 4v-497q0 -34 -31 -34q-30 0 -30 34z" />
    <glyph glyph-name="U" unicode="U" 
d="M299 -14q-94 0 -143 57t-49 162v346q0 34 30 34q31 0 31 -34v-346q0 -162 131 -162q133 0 133 162v346q0 34 30 34q31 0 31 -34v-346q0 -105 -49.5 -162t-144.5 -57z" />
    <glyph glyph-name="V" unicode="V" 
d="M123 548l177 -462l177 462q8 21 16 29t21 8q12 0 20 -8.5t8 -20.5q0 -10 -8 -32l-196 -499q-9 -23 -16.5 -31t-21.5 -8t-21.5 8t-16.5 31l-196 499q-8 22 -8 32q0 12 8 20.5t20 8.5q13 0 21 -8t16 -29z" />
    <glyph glyph-name="W" unicode="W" 
d="M331 386l91 -273l76 431q8 41 33 41q28 0 28 -31q0 -2 -2 -24l-95 -515q-5 -29 -30 -29q-23 0 -33 25l-99 294l-99 -294q-10 -25 -33 -25q-25 0 -30 29l-95 515q-2 22 -2 24q0 31 28 31q25 0 33 -41l76 -431l91 273q10 27 31 27t31 -27z" />
    <glyph glyph-name="X" unicode="X" 
d="M95 -14q-13 0 -21.5 8.5t-8.5 21.5t17 35l182 234l-182 235q-17 22 -17 35t8.5 21.5t21.5 8.5q15 0 29 -17l176 -237l176 237q14 17 29 17q13 0 21.5 -8.5t8.5 -21.5t-17 -35l-183 -235l183 -234q17 -22 17 -35t-8.5 -21.5t-21.5 -8.5q-15 0 -29 17l-176 235l-176 -235
q-14 -17 -29 -17z" />
    <glyph glyph-name="Y" unicode="Y" 
d="M300 -14q-30 0 -30 34v188l-206 313q-13 19 -13 35q0 13 8.5 21t20.5 8q16 0 31 -22l190 -296l189 296q15 22 31 22q12 0 20.5 -8t8.5 -21q0 -16 -13 -35l-206 -313v-188q0 -34 -31 -34z" />
    <glyph glyph-name="Z" unicode="Z" 
d="M492 0h-375q-14 0 -23 9t-9 21q0 15 19 41l334 446q-267 -4 -311 -4q-33 0 -33 29t33 29h361q13 0 22 -8.5t9 -21.5q0 -15 -19 -41l-334 -446q199 4 326 4q33 0 33 -29t-33 -29z" />
    <glyph glyph-name="bracketleft" unicode="[" 
d="M196 -171v794q0 27 31 27h193q30 0 30 -26t-31 -26q-74 0 -163 4v-752q89 4 163 4q31 0 31 -26t-30 -26h-193q-31 0 -31 27z" />
    <glyph glyph-name="backslash" unicode="\" 
d="M85 643l480 -807q5 -8 5 -18q0 -12 -7.5 -19.5t-20.5 -7.5q-17 0 -26 17l-480 807q-5 8 -5 18q0 12 7.5 19.5t20.5 7.5q17 0 26 -17z" />
    <glyph glyph-name="bracketright" unicode="]" 
d="M404 623v-794q0 -27 -31 -27h-193q-30 0 -30 26t31 26q74 0 163 -4v752q-89 -4 -163 -4q-31 0 -31 26t30 26h193q31 0 31 -27z" />
    <glyph glyph-name="asciicircum" unicode="^" 
d="M415 233l-116 265l-116 -265q-9 -22 -27 -22q-12 0 -20 8.5t-8 19.5q0 6 4 17l139 308q10 21 28 21t28 -21l139 -308q4 -11 4 -17q0 -11 -8 -19.5t-20 -8.5q-18 0 -27 22z" />
    <glyph glyph-name="underscore" unicode="_" 
d="M498 -168h-397q-14 0 -23.5 8t-9.5 20q0 13 9.5 21.5t23.5 8.5h397q19 0 27 -14.5t0 -29t-27 -14.5z" />
    <glyph glyph-name="grave" unicode="`" 
d="M326 502l-122 103q-16 13 -16 30q0 14 10 23.5t24 9.5q19 0 32 -16l103 -115q12 -13 12 -25q0 -8 -6 -14t-14 -6q-10 0 -23 10z" />
    <glyph glyph-name="a" unicode="a" 
d="M278 -11q-80 0 -133 37q-53 38 -53 100q0 61 53 99q55 38 133 38q95 0 154 -42v37q0 58 -37.5 91t-105.5 33q-57 0 -106 -25q-31 -16 -41 -16q-13 0 -21 8t-8 21q0 19 31 35q59 32 145 32q201 0 201 -178v-238q0 -32 -29 -32q-13 0 -21 8.5t-8 23.5v10q-59 -42 -154 -42z
M192 64q39 -24 103 -24q65 0 102 24q39 25 39 62t-39 61q-37 25 -102 25t-103 -25q-38 -24 -38 -61t38 -62z" />
    <glyph glyph-name="b" unicode="b" 
d="M322 -11q-100 0 -143 70v-38q0 -32 -30 -32q-13 0 -21 8.5t-8 23.5v607q0 32 30 32q13 0 21 -8.5t8 -23.5v-261q46 70 143 70q92 0 147 -63q57 -62 57 -161t-57 -162q-56 -62 -147 -62zM213 90q40 -46 106 -46q65 0 105 46q41 47 41 123q0 75 -41 122t-105 47
q-65 0 -106 -47q-40 -46 -40 -122q0 -77 40 -123z" />
    <glyph glyph-name="c" unicode="c" 
d="M307 44q74 0 137 54q22 19 38 19q11 0 19 -8t8 -18q0 -18 -22 -36q-79 -66 -180 -66q-99 0 -163 63q-65 63 -65 161t65 161q64 63 163 63q101 0 180 -66q22 -18 22 -36q0 -10 -8 -18t-19 -8q-16 0 -38 19q-63 54 -137 54q-67 0 -117 -47t-50 -122t50 -122t117 -47z" />
    <glyph glyph-name="d" unicode="d" 
d="M278 -11q-91 0 -148 62q-56 64 -56 162q0 99 56 161q57 63 148 63q97 0 143 -70v261q0 15 8 23.5t21 8.5q30 0 30 -32v-607q0 -15 -8 -23.5t-21 -8.5q-30 0 -30 32v38q-43 -70 -143 -70zM175 90q40 -46 106 -46q65 0 105 46q41 47 41 123q0 75 -41 122t-105 47
q-65 0 -106 -47q-40 -46 -40 -122q0 -77 40 -123z" />
    <glyph glyph-name="e" unicode="e" 
d="M311 -11q-101 0 -168 62q-65 62 -65 161t65 162t162 63q95 0 157 -58q63 -58 63 -148q0 -32 -33 -32h-353q5 -68 53 -112q47 -43 122 -43t143 47q25 16 34 16q12 0 20 -8t8 -19q0 -18 -23 -35q-71 -56 -185 -56zM305 382q-59 0 -104 -36t-58 -94h319q-4 57 -51 93
q-46 37 -106 37z" />
    <glyph glyph-name="f" unicode="f" 
d="M467 371q-31 0 -170 4v-324q32 0 58 1q23 0 48.5 1t42 1.5t21.5 0.5q33 0 33 -27q0 -28 -33 -28h-346q-33 0 -33 28q0 27 33 27q17 0 117 -4v324q-103 -4 -117 -4q-33 0 -33 28q0 27 33 27h117v35q0 199 164 199q50 0 89 -13q29 -11 29 -32q0 -12 -8 -19t-20 -7
q-7 0 -31 6q-36 10 -60 10q-54 0 -79 -34.5t-25 -109.5v-35h170q33 0 33 -27q0 -28 -33 -28z" />
    <glyph glyph-name="g" unicode="g" 
d="M161 99q0 -33 30 -46q43 10 93 10q104 0 163 -37q61 -37 61 -99t-61 -99q-59 -37 -163 -37q-103 0 -163.5 37t-60.5 99q0 71 77 109q-31 22 -31 63q0 46 41 69q-71 45 -71 118q0 66 57 108q58 43 140 43q41 0 85 -15q139 4 170 4q33 0 33 -27q0 -28 -33 -28q-36 0 -94 3
q36 -38 36 -88q0 -66 -58 -109q-57 -42 -139 -42q-38 0 -77 11q-35 -12 -35 -47zM165 -133q45 -24 119 -24t119 24q45 23 45 60t-45 61q-46 23 -119 23t-119 -23q-45 -24 -45 -61t45 -60zM174 214q39 -27 99 -27q61 0 98 27q39 28 39 72t-39 71q-37 28 -98 28t-99 -28
q-38 -27 -38 -71q0 -43 38 -72z" />
    <glyph glyph-name="h" unicode="h" 
d="M184 243v-222q0 -32 -30 -32q-13 0 -21 8.5t-8 23.5v607q0 32 30 32q13 0 21 -8.5t8 -23.5v-252q42 61 136 61q78 0 122 -46.5t44 -133.5v-236q0 -32 -30 -32q-13 0 -21 8.5t-8 23.5v223q0 69 -31 103.5t-86 34.5q-59 0 -92.5 -34.5t-33.5 -104.5z" />
    <glyph glyph-name="i" unicode="i" 
d="M363 537q-17 -15 -44 -15t-45 15q-17 15 -17 40t17 40q18 15 45 15t44 -15q18 -15 18 -40t-18 -40zM477 55q33 0 33 -27q0 -28 -33 -28h-355q-33 0 -33 28q0 27 33 27q22 0 43 -1q123 -3 127 -3v324q-30 0 -56 -1q-22 0 -46.5 -1t-39.5 -1.5t-18 -0.5q-33 0 -33 28
q0 27 33 27h187q32 0 32 -32v-343q96 4 126 4z" />
    <glyph glyph-name="j" unicode="j" 
d="M414 537q-17 -15 -44 -15t-45 15q-17 15 -17 40t17 40q18 15 45 15t44 -15q18 -15 18 -40t-18 -40zM142 426h227q32 0 32 -32v-401q0 -100 -47 -151t-135 -51q-60 0 -103 17q-27 10 -27 32q0 11 8 18.5t20 7.5q8 0 29 -7q42 -13 74 -13q65 0 93.5 37t28.5 113v379
l-114 -3q-49 -1 -86 -1q-33 0 -33 28q0 27 33 27z" />
    <glyph glyph-name="k" unicode="k" 
d="M498 -11q-17 0 -31 17l-182 215l-101 -75v-125q0 -32 -30 -32q-13 0 -21 8.5t-8 23.5v607q0 32 30 32q13 0 21 -8.5t8 -23.5v-415l272 206q40 29 56 10q21 -31 -18 -56l-161 -117l176 -205q22 -30 16 -46t-27 -16z" />
    <glyph glyph-name="l" unicode="l" 
d="M274 51v548q-3 0 -9.5 -0.5t-18.5 -1t-22 -0.5q-20 0 -46 -0.5t-39 -1t-17 -0.5q-33 0 -33 28q0 27 33 27h179q32 0 32 -32v-567q132 4 156 4q33 0 33 -27q0 -28 -33 -28h-377q-33 0 -33 28q0 27 33 27q51 0 162 -4z" />
    <glyph glyph-name="m" unicode="m" 
d="M271 21v266q0 95 -78 95q-79 0 -79 -95v-266q0 -32 -29 -32q-28 0 -28 32v384q0 32 29 32q28 0 28 -32v-16q32 48 94 48q71 0 103 -59q38 59 106 59q125 0 125 -156v-260q0 -32 -29 -32q-28 0 -28 32v257q0 104 -79 104q-78 0 -78 -95v-266q0 -32 -29 -32q-28 0 -28 32z
" />
    <glyph glyph-name="n" unicode="n" 
d="M456 -11q-13 0 -21 8.5t-8 23.5v223q0 69 -31 103.5t-86 34.5q-59 0 -92.5 -34.5t-33.5 -104.5v-222q0 -32 -30 -32q-13 0 -21 8.5t-8 23.5v384q0 32 30 32q13 0 21 -8.5t8 -23.5v-29q42 61 136 61q78 0 122 -46.5t44 -133.5v-236q0 -32 -30 -32z" />
    <glyph glyph-name="o" unicode="o" 
d="M462 52q-64 -63 -162 -63q-97 0 -163 63q-65 65 -65 161q0 97 65 160q65 64 163 64t162 -64q66 -63 66 -160t-66 -161zM182 92q50 -48 118 -48q69 0 118 48t49 121t-49 121t-118 48q-68 0 -118 -48q-49 -48 -49 -121t49 -121z" />
    <glyph glyph-name="p" unicode="p" 
d="M322 437q92 0 147 -63q57 -62 57 -161t-57 -162q-56 -62 -147 -62q-97 0 -143 70v-236q0 -15 -8 -23.5t-21 -8.5q-30 0 -30 32v582q0 15 8 23.5t21 8.5q30 0 30 -32v-38q43 70 143 70zM424 335q-41 47 -105 47q-65 0 -106 -47q-40 -46 -40 -122q0 -77 40 -123t106 -46
q65 0 105 46q41 47 41 123q0 75 -41 122z" />
    <glyph glyph-name="q" unicode="q" 
d="M278 437q100 0 143 -70v38q0 32 30 32q13 0 21 -8.5t8 -23.5v-582q0 -32 -30 -32q-13 0 -21 8.5t-8 23.5v236q-46 -70 -143 -70q-91 0 -148 62q-56 64 -56 162q0 99 56 161q57 63 148 63zM386 335q-41 47 -105 47q-65 0 -106 -47q-40 -46 -40 -122q0 -77 40 -123t106 -46
q65 0 105 46q41 47 41 123q0 75 -41 122z" />
    <glyph glyph-name="r" unicode="r" 
d="M482 55q33 0 33 -27q0 -28 -33 -28h-358q-33 0 -33 28q0 27 33 27q5 0 59 -2q12 0 23.5 -0.5t17 -1t6.5 -0.5v324l-44 -2q-60 -2 -62 -2q-33 0 -33 28q0 27 33 27h133q32 0 32 -32v-29q17 34 54 53t81 19q63 0 101 -28q19 -13 19 -32q0 -12 -8 -20t-19 -8q-17 0 -39 13
q-34 20 -71 20q-53 0 -85.5 -42.5t-32.5 -110.5v-178q160 4 193 4z" />
    <glyph glyph-name="s" unicode="s" 
d="M311 -11q-104 0 -183 43q-31 16 -31 38q0 12 8 20t20 8q8 0 15 -2.5t17.5 -9t15.5 -9.5q61 -34 138 -34q64 0 99 20t35 53t-31 48.5t-113 27.5q-98 13 -143.5 41t-45.5 84q0 62 52 90q52 30 129 30q88 0 160 -35q22 -10 22 -30q0 -12 -8 -20t-20 -8q-11 0 -31 9
q-66 30 -125 30q-55 0 -87.5 -17.5t-32.5 -47.5t33.5 -46t108.5 -26q106 -16 148.5 -42.5t42.5 -83.5q0 -62 -52.5 -96.5t-140.5 -34.5z" />
    <glyph glyph-name="t" unicode="t" 
d="M268 576v-150h197q33 0 33 -27q0 -28 -33 -28q-41 0 -197 4v-188q0 -75 25 -109t79 -34q40 0 70 13q33 13 44 13q25 0 25 -25q0 -21 -36 -38q-42 -18 -103 -18q-86 0 -124.5 47t-38.5 150v189q-10 0 -59 -2t-59 -2q-33 0 -33 28q0 27 33 27h118v150q0 32 30 32
q13 0 21 -8.5t8 -23.5z" />
    <glyph glyph-name="u" unicode="u" 
d="M144 437q13 0 21 -8.5t8 -23.5v-220q0 -75 32 -108t94 -33q51 0 84 36t33 103v222q0 32 30 32q13 0 21 -8.5t8 -23.5v-384q0 -32 -30 -32q-13 0 -21 8.5t-8 23.5v29q-46 -61 -136 -61q-78 0 -122 46.5t-44 133.5v236q0 32 30 32z" />
    <glyph glyph-name="v" unicode="v" 
d="M142 407l158 -345l158 345q14 30 33 30q30 0 30 -27q0 -10 -12 -35l-166 -349q-7 -14 -11 -20.5t-12.5 -11.5t-19.5 -5q-15 0 -24 8.5t-19 28.5l-166 349q-12 26 -12 35q0 27 30 27q19 0 33 -30z" />
    <glyph glyph-name="w" unicode="w" 
d="M338 295l82 -213l74 324q7 31 30 31q29 0 29 -31q0 -4 -6 -30l-85 -352q-5 -20 -13 -27.5t-22 -7.5q-21 0 -35 32l-92 232l-92 -232q-14 -32 -35 -32q-14 0 -22 7.5t-13 27.5l-85 352q-6 26 -6 30q0 31 29 31q23 0 30 -31l74 -324l82 213q13 35 38 35t38 -35z" />
    <glyph glyph-name="x" unicode="x" 
d="M102 50l160 163l-160 163q-19 19 -19 34q0 18 16.5 25t42.5 -15l157 -169l158 169q25 22 42 15t17 -25q0 -15 -19 -34l-161 -163l161 -163q19 -19 19 -34q0 -18 -17 -25t-42 15l-158 168l-157 -168q-26 -22 -42.5 -15t-16.5 25q0 15 19 34z" />
    <glyph glyph-name="y" unicode="y" 
d="M105 -209q-90 0 -90 39q0 41 61 22q20 -6 39 -6q45 0 77 24q23 17 46.5 52t35.5 66l-178 387q-12 26 -12 35q0 27 30 27q20 0 33 -30l158 -358l158 358q13 30 33 30q30 0 30 -27q0 -10 -12 -35l-177 -385q-47 -105 -99 -152q-50 -47 -133 -47z" />
    <glyph glyph-name="z" unicode="z" 
d="M473 55q33 0 33 -27q0 -28 -33 -28h-338q-35 0 -35 32q0 20 35 55l285 288q-156 -4 -282 -4q-33 0 -33 28q0 27 33 27h325q35 0 35 -32q0 -20 -35 -55l-285 -288q153 4 295 4z" />
    <glyph glyph-name="braceleft" unicode="{" 
d="M217 226q36 -6 59 -38.5t23 -80.5v-153q0 -100 82 -100h71q30 0 30 -26t-30 -26h-69q-145 0 -145 150v150q0 81 -73 91q-36 6 -36 33t36 33q73 10 73 91v150q0 150 145 150h69q30 0 30 -26t-30 -26h-71q-82 0 -82 -100v-153q0 -48 -23 -80.5t-59 -38.5z" />
    <glyph glyph-name="bar" unicode="|" 
d="M328 629v-807q0 -31 -28 -31t-28 31v807q0 31 28 31t28 -31z" />
    <glyph glyph-name="braceright" unicode="}" 
d="M394 226q-36 6 -59 38.5t-23 80.5v153q0 100 -82 100h-71q-30 0 -30 26t30 26h69q145 0 145 -150v-150q0 -81 73 -91q36 -6 36 -33t-36 -33q-73 -10 -73 -91v-150q0 -150 -145 -150h-69q-30 0 -30 26t30 26h71q82 0 82 100v153q0 48 23 80.5t59 38.5z" />
    <glyph glyph-name="asciitilde" unicode="~" 
d="M377 209q-31 0 -97 29t-78 29q-17 0 -27.5 -9.5t-20.5 -32.5q-8 -18 -24 -18q-22 0 -22 22q0 12 8 36q22 60 79 60q30 0 96 -29t79 -29q17 0 27.5 9.5t20.5 32.5q8 18 24 18q22 0 22 -22q0 -12 -8 -36q-22 -60 -79 -60z" />
    <glyph glyph-name="uni00A0" unicode="&#xa0;" 
 />
    <glyph glyph-name="exclamdown" unicode="&#xa1;" 
d="M322 200l13 -243q2 -34 2 -57q0 -31 -8 -45t-29 -14t-29 14q-13 22 -6 102l13 243q3 25 22 25t22 -25zM249 324q-20 19 -20 47t20 47q21 19 51 19t50 -19q21 -19 21 -47t-21 -47q-20 -19 -50 -19t-51 19z" />
    <glyph glyph-name="cent" unicode="&#xa2;" 
d="M278 -35v86q-89 11 -143 71q-56 62 -56 152q0 89 56 151q54 60 143 71v87q0 31 28 31t28 -31v-87q86 -9 153 -64q22 -18 22 -36q0 -10 -8 -18t-19 -8q-16 0 -38 19q-63 54 -137 54q-67 0 -117 -47t-50 -122t50 -122t117 -47q74 0 137 54q22 19 38 19q11 0 19 -8t8 -18
q0 -18 -22 -36q-70 -56 -153 -65v-86q0 -31 -28 -31t-28 31z" />
    <glyph glyph-name="sterling" unicode="&#xa3;" 
d="M78 310h92v61q0 101 44 157.5t128 56.5q105 0 178 -88q11 -17 11 -28q0 -26 -29 -26q-20 0 -36 19q-33 36 -61 51.5t-63 15.5q-110 0 -110 -168v-51h133q33 0 33 -27q0 -28 -33 -28h-133v-201q196 4 258 4q33 0 33 -29t-33 -29h-413q-33 0 -33 29t33 29q25 0 93 -4v201
h-92q-33 0 -33 28q0 27 33 27z" />
    <glyph glyph-name="currency" unicode="&#xa4;" 
d="M437 108l-50 49q-38 -26 -87 -26q-50 0 -88 26l-49 -49q-12 -12 -25 -12q-11 0 -18 7.5t-7 17.5q0 13 12 25l49 49q-26 38 -26 89t26 89l-49 49q-12 12 -12 25q0 10 7 17.5t18 7.5q13 0 25 -12l49 -50q40 27 88 27q46 0 87 -27l50 50q12 12 25 12q11 0 18 -7.5t7 -17.5
q0 -13 -12 -25l-49 -49q26 -41 26 -89q0 -49 -26 -89l49 -49q12 -12 12 -25q0 -10 -7 -17.5t-18 -7.5q-13 0 -25 12zM232 209q27 -28 68 -28q42 0 67 28q27 29 27 75t-27 74q-26 29 -67 29t-68 -29q-26 -29 -26 -74q0 -46 26 -75z" />
    <glyph glyph-name="yen" unicode="&#xa5;" 
d="M131 145h139v63h-139q-33 0 -33 28q0 27 33 27h103l-170 258q-13 19 -13 35q0 13 8.5 21t20.5 8q16 0 31 -22l190 -296l189 296q15 22 31 22q12 0 20.5 -8t8.5 -21q0 -16 -13 -35l-170 -258h110q33 0 33 -27q0 -28 -33 -28h-146v-63h146q33 0 33 -27q0 -28 -33 -28h-146
v-70q0 -34 -31 -34q-30 0 -30 34v70h-139q-33 0 -33 28q0 27 33 27z" />
    <glyph glyph-name="brokenbar" unicode="&#xa6;" 
d="M328 628v-302q0 -32 -28 -32t-28 32v302q0 32 28 32t28 -32zM328 125v-302q0 -32 -28 -32t-28 32v302q0 32 28 32t28 -32z" />
    <glyph glyph-name="section" unicode="&#xa7;" 
d="M504 180q0 -69 -74 -132q66 -38 66 -108q0 -66 -57 -107q-55 -42 -139 -42q-112 0 -182 55q-20 15 -20 31q0 21 16.5 27t48.5 -13q62 -43 138 -43q61 0 96.5 25.5t35.5 68.5q0 37 -32.5 56t-117.5 39q-108 25 -155 61q-45 34 -45 98q0 68 73 132q-65 38 -65 108
q0 66 56 107q57 42 140 42q112 0 182 -55q20 -15 20 -31q0 -21 -16.5 -27t-48.5 13q-62 43 -138 43q-61 0 -96.5 -25.5t-35.5 -68.5q0 -37 32.5 -56t117.5 -39q108 -25 155 -61q45 -34 45 -98zM296 279q-44 11 -86 25q-64 -43 -64 -100q0 -41 31.5 -63.5t113.5 -43.5
q44 -11 86 -25q64 43 64 100q0 41 -31.5 63.5t-113.5 43.5z" />
    <glyph glyph-name="dieresis" unicode="&#xa8;" 
d="M248 518q-17 -14 -41 -14t-42 14q-17 15 -17 40t17 39q18 15 42 15t41 -15q18 -14 18 -39t-18 -40zM433 518q-17 -14 -41 -14t-42 14q-17 15 -17 40t17 39q18 15 42 15t41 -15q18 -14 18 -39t-18 -40z" />
    <glyph glyph-name="copyright" unicode="&#xa9;" 
d="M302 410q61 0 90 -35q9 -11 9 -20q0 -24 -25 -24q-7 0 -23 11q-23 20 -51 20q-31 0 -51 -20.5t-20 -55.5t20 -55.5t51 -20.5q28 0 51 20q16 11 23 11q25 0 25 -24q0 -9 -9 -20q-29 -35 -90 -35q-52 0 -87 34t-35 90t35 90t87 34zM135 120q-67 64 -67 166t67 166
q68 65 165 65t165 -65q67 -64 67 -166t-67 -166q-68 -65 -165 -65t-165 65zM433 152q50 50 50 134t-50 134t-133 50q-84 0 -134 -50q-49 -49 -49 -134t49 -134q50 -50 134 -50q83 0 133 50z" />
    <glyph glyph-name="ordfeminine" unicode="&#xaa;" 
d="M282 224q-64 0 -108 30q-44 32 -44 81q0 50 44 80t108 30q72 0 119 -30v26q0 44 -28 68t-82 24q-50 0 -87 -20q-27 -13 -42 -8t-15 26q0 15 25 28q50 26 119 26q79 0 121 -36.5t42 -106.5v-192q0 -26 -25 -26q-12 0 -20 7t-8 19v3q-49 -29 -119 -29zM295 398
q-48 0 -78.5 -18t-30.5 -45q0 -28 29 -46q30 -18 80 -18t80 18q28 21 30 46t-30 45.5t-80 17.5zM427 108h-255q-32 0 -32 26q0 28 32 28h255q33 0 33 -27t-33 -27z" />
    <glyph glyph-name="guillemotleft" unicode="&#xab;" 
d="M293 369l-101 -137l101 -137q15 -24 11 -36.5t-20 -12.5q-13 0 -32 22l-112 130q-31 34 0 68l112 130q19 22 32 22q16 0 20 -12.5t-11 -36.5zM472 369l-101 -137l101 -137q15 -24 11 -36.5t-20 -12.5q-13 0 -32 22l-112 130q-31 34 0 68l112 130q19 22 32 22
q16 0 20 -12.5t-11 -36.5z" />
    <glyph glyph-name="logicalnot" unicode="&#xac;" 
d="M465 -11q-28 0 -28 32v207h-298q-32 0 -32 28t32 28h319q33 0 33 -33v-230q0 -32 -26 -32z" />
    <glyph glyph-name="uni00AD" unicode="&#xad;" 
d="M411 250h-223q-32 0 -32 28q0 30 32 30h223q20 0 28.5 -14.5t0 -29t-28.5 -14.5z" />
    <glyph glyph-name="registered" unicode="&#xae;" 
d="M135 275q-67 64 -67 166t67 166q68 65 165 65t165 -65q67 -64 67 -166t-67 -166q-68 -65 -165 -65t-165 65zM433 307q50 50 50 134t-50 134t-133 50q-84 0 -134 -50q-49 -49 -49 -134t49 -134q50 -50 134 -50q83 0 133 50zM344 337l-43 73h-35v-64q0 -27 -25 -27
q-24 0 -24 27v191q0 27 29 27h60q42 0 67.5 -20.5t25.5 -56.5q0 -51 -49 -69l35 -57q10 -16 5 -29t-21 -13q-15 0 -25 18zM306 521h-40v-68h40q45 0 45 34t-45 34z" />
    <glyph glyph-name="overscore" unicode="&#xaf;" 
d="M189 585h221q34 0 34 -28q0 -30 -34 -30h-221q-34 0 -34 30q0 28 34 28z" />
    <glyph glyph-name="degree" unicode="&#xb0;" 
d="M300 281q-64 0 -108 43q-44 44 -44 109q0 66 44 110q43 43 108 43t108 -43q44 -44 44 -110q0 -65 -44 -109q-43 -43 -108 -43zM300 329q43 0 69.5 29t26.5 75q0 47 -26.5 76t-69.5 29q-42 0 -69 -29.5t-27 -75.5t27 -75t69 -29z" />
    <glyph glyph-name="plusminus" unicode="&#xb1;" 
d="M272 211v133h-133q-32 0 -32 28t32 28h133v133q0 32 28 32t28 -32v-133h133q32 0 32 -28t-32 -28h-133v-133q0 -32 -28 -32t-28 32zM461 0h-322q-32 0 -32 28t32 28h322q32 0 32 -28t-32 -28z" />
    <glyph glyph-name="twosuperior" unicode="&#xb2;" 
d="M419 318q0 -24 -29 -24h-181q-28 0 -28 26q0 13 22 29l74 53q73 54 73 89q0 42 -51 42q-33 0 -58 -25q-17 -14 -28 -14q-16 0 -22 14t8 30q38 39 101 39q49 0 76.5 -22t27.5 -60q0 -37 -25.5 -66t-86.5 -71l-27 -19q70 2 126 2q28 0 28 -23z" />
    <glyph glyph-name="threesuperior" unicode="&#xb3;" 
d="M300 288q-70 0 -108 39q-9 11 -9 20q0 10 7 16.5t17 6.5q11 0 28 -14q23 -23 67 -23q27 0 44.5 11.5t17.5 30.5q0 37 -60 38q-28 1 -28 22t27 23q51 4 51 37q0 18 -15 28t-37 10q-33 0 -59 -25q-17 -14 -27 -14t-17 6.5t-7 16.5q0 9 9 21q39 39 101 39q50 0 78 -22
t28 -56q0 -21 -13 -38t-35 -24q24 -5 40.5 -23t16.5 -42q0 -38 -30.5 -61t-86.5 -23z" />
    <glyph glyph-name="acute" unicode="&#xb4;" 
d="M400 605l-122 -103q-13 -10 -23 -10q-8 0 -14 6t-6 14q0 12 12 25l103 115q13 16 32 16q14 0 24 -9.5t10 -23.5q0 -17 -16 -30z" />
    <glyph glyph-name="mu" unicode="&#xb5;" 
d="M114 -177v582q0 32 30 32q13 0 21 -8.5t8 -23.5v-220q0 -75 32 -108t94 -33q51 0 84 36t33 103v222q0 32 30 32q13 0 21 -8.5t8 -23.5v-384q0 -32 -30 -32q-13 0 -21 8.5t-8 23.5v29q-20 -27 -55 -44t-73 -17q-80 0 -115 42v-208q0 -15 -8 -23.5t-21 -8.5q-30 0 -30 32z
" />
    <glyph glyph-name="paragraph" unicode="&#xb6;" 
d="M291 -178v380h-9q-99 0 -160 43t-61 139q0 99 61 142q61 45 160 45h37q28 0 28 -31v-718q0 -31 -28 -31t-28 31zM445 -178v718q0 31 28 31t28 -31v-718q0 -31 -28 -31t-28 31zM120 384q0 -62 40.5 -94t109.5 -32h21v257h-21q-68 0 -109 -33.5t-41 -97.5z" />
    <glyph glyph-name="middot" unicode="&#xb7;" 
d="M247 246q-20 19 -20 47t20 47q21 19 51 19t50 -19q21 -19 21 -47t-21 -47q-20 -19 -50 -19t-51 19z" />
    <glyph glyph-name="cedilla" unicode="&#xb8;" 
d="M275 12l35 6q75 -40 75 -102q0 -36 -25.5 -57.5t-67.5 -21.5q-34 0 -57 11t-23 29q0 23 24 23q4 0 24.5 -6t29.5 -6q45 0 45 39q0 41 -60 85z" />
    <glyph glyph-name="onesuperior" unicode="&#xb9;" 
d="M383 294h-167q-30 0 -30 23q0 24 30 24q14 0 34 -1q21 -1 34 -1v181l-40 -23q-22 -13 -34 -13q-10 0 -17 6.5t-7 16.5q0 17 19 24l75 37q20 9 30 9q26 0 26 -25v-213q38 2 48 2q29 0 29 -24q0 -23 -30 -23z" />
    <glyph glyph-name="ordmasculine" unicode="&#xba;" 
d="M116 404q0 79 52 130t132 51q78 0 131 -51t53 -130q0 -78 -53 -129t-131 -51q-80 0 -132 51t-52 129zM300 275q52 0 90 36q38 38 38 93q0 56 -37 93t-91 37q-55 0 -92 -37t-37 -93t37 -93q38 -36 92 -36zM427 108h-255q-32 0 -32 26q0 28 32 28h255q33 0 33 -27t-33 -27z
" />
    <glyph glyph-name="guillemotright" unicode="&#xbb;" 
d="M321 95l101 137l-101 137q-15 24 -11 36.5t20 12.5q13 0 32 -22l112 -130q31 -34 0 -68l-112 -130q-19 -22 -32 -22q-16 0 -20 12.5t11 36.5zM142 95l101 137l-101 137q-15 24 -11 36.5t20 12.5q13 0 32 -22l112 -130q31 -34 0 -68l-112 -130q-19 -22 -32 -22
q-16 0 -20 12.5t11 36.5z" />
    <glyph glyph-name="onequarter" unicode="&#xbc;" 
d="M233 294h-167q-30 0 -30 23q0 24 30 24q14 0 34 -1q21 -1 34 -1v181l-40 -23q-22 -13 -34 -13q-10 0 -17 6.5t-7 16.5q0 17 19 24l75 37q20 9 30 9q26 0 26 -25v-213q38 2 48 2q29 0 29 -24q0 -23 -30 -23zM341 399l107 170q9 16 24 16q12 0 19.5 -7t7.5 -18q0 -8 -5 -16
l-106 -170q-9 -16 -25 -16q-12 0 -19.5 7t-7.5 18q0 8 5 16zM106 30l107 170q9 16 24 16q12 0 19.5 -7t7.5 -18q0 -8 -5 -16l-106 -170q-9 -16 -25 -16q-12 0 -19.5 7t-7.5 18q0 8 5 16zM506 -6q-25 0 -25 27v35h-138q-20 0 -25.5 13t13.5 37l140 158q16 19 34 19
q27 0 27 -28v-155h12q12 1 14 1q12 0 19 -6.5t7 -16.5q0 -22 -26 -22h-26v-35q0 -27 -26 -27zM379 99h103v113z" />
    <glyph glyph-name="onehalf" unicode="&#xbd;" 
d="M233 294h-167q-30 0 -30 23q0 24 30 24q14 0 34 -1q21 -1 34 -1v181l-40 -23q-22 -13 -34 -13q-10 0 -17 6.5t-7 16.5q0 17 19 24l75 37q20 9 30 9q26 0 26 -25v-213q38 2 48 2q29 0 29 -24q0 -23 -30 -23zM569 24q0 -24 -29 -24h-181q-28 0 -28 26q0 13 22 29l74 53
q73 54 73 89q0 42 -51 42q-33 0 -58 -25q-17 -14 -28 -14q-16 0 -22 14t8 30q37 39 101 39q49 0 76.5 -22t27.5 -60q0 -37 -25.5 -66t-86.5 -71l-27 -19q70 2 126 2q28 0 28 -23zM341 399l107 170q9 16 24 16q12 0 19.5 -7t7.5 -18q0 -8 -5 -16l-106 -170q-9 -16 -25 -16
q-12 0 -19.5 7t-7.5 18q0 8 5 16zM106 30l107 170q9 16 24 16q12 0 19.5 -7t7.5 -18q0 -8 -5 -16l-106 -170q-9 -16 -25 -16q-12 0 -19.5 7t-7.5 18q0 8 5 16z" />
    <glyph glyph-name="threequarters" unicode="&#xbe;" 
d="M341 399l107 170q9 16 24 16q12 0 19.5 -7t7.5 -18q0 -8 -5 -16l-106 -170q-9 -16 -25 -16q-12 0 -19.5 7t-7.5 18q0 8 5 16zM106 30l107 170q9 16 24 16q12 0 19.5 -7t7.5 -18q0 -8 -5 -16l-106 -170q-9 -16 -25 -16q-12 0 -19.5 7t-7.5 18q0 8 5 16zM506 -6
q-25 0 -25 27v35h-138q-20 0 -25.5 13t13.5 37l140 158q16 19 34 19q27 0 27 -28v-155h12q12 1 14 1q12 0 19 -6.5t7 -16.5q0 -22 -26 -22h-26v-35q0 -27 -26 -27zM379 99h103v113zM150 288q-70 0 -108 39q-9 11 -9 20q0 10 7 16.5t17 6.5q11 0 28 -14q23 -23 67 -23
q27 0 44.5 11.5t17.5 30.5q0 37 -60 38q-28 1 -28 22t27 23q51 4 51 37q0 18 -15 28t-37 10q-33 0 -59 -25q-17 -14 -27 -14t-17 6.5t-7 16.5q0 9 9 21q39 39 101 39q50 0 78 -22t28 -56q0 -21 -13 -38t-35 -24q24 -5 40.5 -23t16.5 -42q0 -38 -30.5 -61t-86.5 -23z" />
    <glyph glyph-name="questiondown" unicode="&#xbf;" 
d="M282 -103q113 0 190 80q15 17 30 17q30 0 30 -29q0 -18 -21 -36q-101 -88 -229 -88q-90 0 -143.5 39t-53.5 107q0 123 201 157l4 55q2 26 25 26q25 0 28 -26q4 -23 4 -71q0 -15 -6 -22t-22 -9q-171 -24 -171 -111q0 -43 35 -66t99 -23zM266 324q-20 19 -20 47t20 47
q21 19 51 19t50 -19q21 -19 21 -47t-21 -47q-20 -19 -50 -19t-51 19z" />
    <glyph glyph-name="Agrave" unicode="&#xc0;" 
d="M138 -14q-31 0 -31 34v346q0 104 49 161.5t144 57.5t144 -57.5t49 -161.5v-346q0 -34 -31 -34q-30 0 -30 34v176h-264v-176q0 -34 -30 -34zM168 365v-114h264v114q0 164 -132 164t-132 -164zM321 647l-122 103q-16 13 -16 30q0 14 10 23.5t24 9.5q19 0 32 -16l103 -115
q12 -14 12 -25q0 -8 -6 -14t-14 -6q-10 0 -23 10z" />
    <glyph glyph-name="Aacute" unicode="&#xc1;" 
d="M138 -14q-31 0 -31 34v346q0 104 49 161.5t144 57.5t144 -57.5t49 -161.5v-346q0 -34 -31 -34q-30 0 -30 34v176h-264v-176q0 -34 -30 -34zM168 365v-114h264v114q0 164 -132 164t-132 -164zM401 750l-122 -103q-13 -10 -23 -10q-8 0 -14 6t-6 14q0 11 12 25l103 115
q13 16 32 16q14 0 24 -9.5t10 -23.5q0 -17 -16 -30z" />
    <glyph glyph-name="Acircumflex" unicode="&#xc2;" 
d="M138 -14q-31 0 -31 34v346q0 104 49 161.5t144 57.5t144 -57.5t49 -161.5v-346q0 -34 -31 -34q-30 0 -30 34v176h-264v-176q0 -34 -30 -34zM168 365v-114h264v114q0 164 -132 164t-132 -164zM405 635l-106 91l-106 -91q-10 -7 -19 -7q-19 0 -19 20q0 11 16 27l102 108
q26 26 52 0l102 -108q16 -16 16 -27q0 -20 -19 -20q-9 0 -19 7z" />
    <glyph glyph-name="Atilde" unicode="&#xc3;" 
d="M138 -14q-31 0 -31 34v346q0 104 49 161.5t144 57.5t144 -57.5t49 -161.5v-346q0 -34 -31 -34q-30 0 -30 34v176h-264v-176q0 -34 -30 -34zM168 365v-114h264v114q0 164 -132 164t-132 -164zM369 647q-25 0 -74 30q-49 31 -61 31q-21 0 -36 -38q-7 -19 -21 -19
q-21 0 -21 22q0 33 21 62q23 29 54 29q25 0 74 -31q50 -30 61 -30q21 0 36 38q7 19 21 19q21 0 21 -22q0 -35 -22 -63q-21 -28 -53 -28z" />
    <glyph glyph-name="Adieresis" unicode="&#xc4;" 
d="M138 -14q-31 0 -31 34v346q0 104 49 161.5t144 57.5t144 -57.5t49 -161.5v-346q0 -34 -31 -34q-30 0 -30 34v176h-264v-176q0 -34 -30 -34zM168 365v-114h264v114q0 164 -132 164t-132 -164zM249 663q-17 -14 -41 -14t-42 14q-17 15 -17 40t17 39q18 15 42 15t41 -15
q18 -14 18 -39t-18 -40zM434 663q-17 -14 -41 -14t-42 14q-17 15 -17 40t17 39q18 15 42 15t41 -15q18 -14 18 -39t-18 -40z" />
    <glyph glyph-name="Aring" unicode="&#xc5;" 
d="M138 -14q-31 0 -31 34v346q0 104 49 161.5t144 57.5t144 -57.5t49 -161.5v-346q0 -34 -31 -34q-30 0 -30 34v176h-264v-176q0 -34 -30 -34zM168 365v-114h264v114q0 164 -132 164t-132 -164zM375 780q30 -26 30 -71t-30 -72q-31 -26 -75 -26t-75 26q-30 27 -30 72t30 71
q30 27 75 27t75 -27zM339 670q16 16 16 39t-16 38q-16 16 -39 16t-39 -16q-16 -15 -16 -38t16 -39q16 -15 39 -15t39 15z" />
    <glyph glyph-name="AE" unicode="&#xc6;" 
d="M78 -14q-31 0 -31 34v333q0 104 49 161t144 57h307q33 0 33 -29t-33 -29q-44 0 -200 4v-199q102 3 142 3q33 0 33 -29t-33 -29q-40 0 -142 3v-212q121 4 200 4q33 0 33 -29t-33 -29h-231q-30 0 -30 34v162h-178v-176q0 -34 -30 -34zM108 352v-101h178v265h-46
q-132 0 -132 -164z" />
    <glyph glyph-name="Ccedilla" unicode="&#xc7;" 
d="M315 43q85 0 142 67q14 17 32 17q12 0 20.5 -7.5t8.5 -19.5q0 -14 -11 -28q-71 -82 -180 -86q36 -25 36 -70q0 -36 -25.5 -57.5t-67.5 -21.5q-34 0 -57 11t-23 29q0 23 24 23q4 0 24.5 -6t29.5 -6q45 0 45 39q0 47 -50 61q-90 25 -138.5 102.5t-48.5 195.5q0 138 64 218
q65 81 175 81q117 0 192 -86q11 -14 11 -28q0 -12 -8.5 -19.5t-20.5 -7.5q-18 0 -32 17q-57 67 -142 67q-82 0 -129 -63.5t-47 -178.5t47.5 -179t128.5 -64z" />
    <glyph glyph-name="Egrave" unicode="&#xc8;" 
d="M476 0h-329q-32 0 -32 32v507q0 32 32 32h329q33 0 33 -29t-33 -29q-55 0 -300 4v-199q207 3 222 3q33 0 33 -29t-33 -29h-52l-91 2q-36 1 -79 1v-212q46 0 95 1q97 3 205 3q33 0 33 -29t-33 -29zM335 647l-122 103q-16 13 -16 30q0 14 10 23.5t24 9.5q19 0 32 -16
l103 -115q12 -14 12 -25q0 -8 -6 -14t-14 -6q-10 0 -23 10z" />
    <glyph glyph-name="Eacute" unicode="&#xc9;" 
d="M476 0h-329q-32 0 -32 32v507q0 32 32 32h329q33 0 33 -29t-33 -29q-55 0 -300 4v-199q207 3 222 3q33 0 33 -29t-33 -29h-52l-91 2q-36 1 -79 1v-212q46 0 95 1q97 3 205 3q33 0 33 -29t-33 -29zM413 750l-122 -103q-13 -10 -23 -10q-8 0 -14 6t-6 14q0 11 12 25
l103 115q13 16 32 16q14 0 24 -9.5t10 -23.5q0 -17 -16 -30z" />
    <glyph glyph-name="Ecircumflex" unicode="&#xca;" 
d="M476 0h-329q-32 0 -32 32v507q0 32 32 32h329q33 0 33 -29t-33 -29q-55 0 -300 4v-199q207 3 222 3q33 0 33 -29t-33 -29h-52l-91 2q-36 1 -79 1v-212q46 0 95 1q97 3 205 3q33 0 33 -29t-33 -29zM418 635l-106 91l-106 -91q-10 -7 -19 -7q-19 0 -19 20q0 11 16 27
l102 108q26 26 52 0l102 -108q16 -16 16 -27q0 -20 -19 -20q-9 0 -19 7z" />
    <glyph glyph-name="Edieresis" unicode="&#xcb;" 
d="M476 0h-329q-32 0 -32 32v507q0 32 32 32h329q33 0 33 -29t-33 -29q-55 0 -300 4v-199q207 3 222 3q33 0 33 -29t-33 -29h-52l-91 2q-36 1 -79 1v-212q46 0 95 1q97 3 205 3q33 0 33 -29t-33 -29zM261 663q-17 -14 -41 -14t-42 14q-17 15 -17 40t17 39q18 15 42 15
t41 -15q18 -14 18 -39t-18 -40zM446 663q-17 -14 -41 -14t-42 14q-17 15 -17 40t17 39q18 15 42 15t41 -15q18 -14 18 -39t-18 -40z" />
    <glyph glyph-name="Igrave" unicode="&#xcc;" 
d="M268 54v463q-121 -4 -137 -4q-33 0 -33 29t33 29h335q33 0 33 -29t-33 -29h-39l-56 2q-8 0 -18 0.5t-15.5 1t-8.5 0.5v-463q21 0 42 1q41 3 95 3q33 0 33 -29t-33 -29h-335q-33 0 -33 29t33 29q16 0 137 -4zM320 647l-122 103q-16 13 -16 30q0 14 10 23.5t24 9.5
q19 0 32 -16l103 -115q12 -14 12 -25q0 -8 -6 -14t-14 -6q-10 0 -23 10z" />
    <glyph glyph-name="Iacute" unicode="&#xcd;" 
d="M268 54v463q-121 -4 -137 -4q-33 0 -33 29t33 29h335q33 0 33 -29t-33 -29h-39l-56 2q-8 0 -18 0.5t-15.5 1t-8.5 0.5v-463q21 0 42 1q41 3 95 3q33 0 33 -29t-33 -29h-335q-33 0 -33 29t33 29q16 0 137 -4zM400 750l-122 -103q-13 -10 -23 -10q-8 0 -14 6t-6 14
q0 11 12 25l103 115q13 16 32 16q14 0 24 -9.5t10 -23.5q0 -17 -16 -30z" />
    <glyph glyph-name="Icircumflex" unicode="&#xce;" 
d="M268 54v463q-121 -4 -137 -4q-33 0 -33 29t33 29h335q33 0 33 -29t-33 -29h-39l-56 2q-8 0 -18 0.5t-15.5 1t-8.5 0.5v-463q21 0 42 1q41 3 95 3q33 0 33 -29t-33 -29h-335q-33 0 -33 29t33 29q16 0 137 -4zM405 635l-106 91l-106 -91q-10 -7 -19 -7q-19 0 -19 20
q0 11 16 27l102 108q26 26 52 0l102 -108q16 -16 16 -27q0 -20 -19 -20q-9 0 -19 7z" />
    <glyph glyph-name="Idieresis" unicode="&#xcf;" 
d="M268 54v463q-121 -4 -137 -4q-33 0 -33 29t33 29h335q33 0 33 -29t-33 -29h-39l-56 2q-8 0 -18 0.5t-15.5 1t-8.5 0.5v-463q21 0 42 1q41 3 95 3q33 0 33 -29t-33 -29h-335q-33 0 -33 29t33 29q16 0 137 -4zM247 663q-17 -14 -41 -14t-42 14q-17 15 -17 40t17 39
q18 15 42 15t41 -15q18 -14 18 -39t-18 -40zM432 663q-17 -14 -41 -14t-42 14q-17 15 -17 40t17 39q18 15 42 15t41 -15q18 -14 18 -39t-18 -40z" />
    <glyph glyph-name="Eth" unicode="&#xd0;" 
d="M255 0h-105q-32 0 -32 32v227h-46q-31 0 -31 26t31 26h46v228q0 32 32 32h105q130 0 197 -79q68 -79 68 -207q0 -126 -69 -206q-67 -79 -196 -79zM279 259h-100v-203h69q105 0 157 64t52 165t-52 165q-53 65 -157 65h-69v-204h100q31 0 31 -26t-31 -26z" />
    <glyph glyph-name="Ntilde" unicode="&#xd1;" 
d="M497 551v-530q0 -35 -27 -35q-20 0 -36 28l-270 436v-430q0 -34 -31 -34q-30 0 -30 34v530q0 35 27 35q20 0 36 -28l270 -437v431q0 34 31 34q30 0 30 -34zM369 647q-25 0 -74 30q-49 31 -61 31q-21 0 -36 -38q-7 -19 -21 -19q-21 0 -21 22q0 33 21 62q23 29 54 29
q25 0 74 -31q50 -30 61 -30q21 0 36 38q7 19 21 19q21 0 21 -22q0 -35 -22 -63q-21 -28 -53 -28z" />
    <glyph glyph-name="Ograve" unicode="&#xd2;" 
d="M181 111q44 -68 119 -68q74 0 118 68t44 175t-43 174q-44 68 -119 68t-119 -68q-43 -67 -43 -174q0 -108 43 -175zM75 286q0 130 59 215q58 84 166 84q107 0 166 -84q59 -85 59 -215q0 -131 -59 -216q-59 -84 -166 -84q-108 0 -166 84q-59 85 -59 216zM322 647l-122 103
q-16 13 -16 30q0 14 10 23.5t24 9.5q19 0 32 -16l103 -115q12 -14 12 -25q0 -8 -6 -14t-14 -6q-10 0 -23 10z" />
    <glyph glyph-name="Oacute" unicode="&#xd3;" 
d="M181 111q44 -68 119 -68q74 0 118 68t44 175t-43 174q-44 68 -119 68t-119 -68q-43 -67 -43 -174q0 -108 43 -175zM75 286q0 130 59 215q58 84 166 84q107 0 166 -84q59 -85 59 -215q0 -131 -59 -216q-59 -84 -166 -84q-108 0 -166 84q-59 85 -59 216zM401 750l-122 -103
q-13 -10 -23 -10q-8 0 -14 6t-6 14q0 11 12 25l103 115q13 16 32 16q14 0 24 -9.5t10 -23.5q0 -17 -16 -30z" />
    <glyph glyph-name="Ocircumflex" unicode="&#xd4;" 
d="M181 111q44 -68 119 -68q74 0 118 68t44 175t-43 174q-44 68 -119 68t-119 -68q-43 -67 -43 -174q0 -108 43 -175zM75 286q0 130 59 215q58 84 166 84q107 0 166 -84q59 -85 59 -215q0 -131 -59 -216q-59 -84 -166 -84q-108 0 -166 84q-59 85 -59 216zM406 635l-106 91
l-106 -91q-10 -7 -19 -7q-19 0 -19 20q0 11 16 27l102 108q26 26 52 0l102 -108q16 -16 16 -27q0 -20 -19 -20q-9 0 -19 7z" />
    <glyph glyph-name="Otilde" unicode="&#xd5;" 
d="M181 111q44 -68 119 -68q74 0 118 68t44 175t-43 174q-44 68 -119 68t-119 -68q-43 -67 -43 -174q0 -108 43 -175zM75 286q0 130 59 215q58 84 166 84q107 0 166 -84q59 -85 59 -215q0 -131 -59 -216q-59 -84 -166 -84q-108 0 -166 84q-59 85 -59 216zM369 647
q-25 0 -74 30q-49 31 -61 31q-21 0 -36 -38q-7 -19 -21 -19q-21 0 -21 22q0 33 21 62q23 29 54 29q25 0 74 -31q50 -30 61 -30q21 0 36 38q7 19 21 19q21 0 21 -22q0 -35 -22 -63q-21 -28 -53 -28z" />
    <glyph glyph-name="Odieresis" unicode="&#xd6;" 
d="M181 111q44 -68 119 -68q74 0 118 68t44 175t-43 174q-44 68 -119 68t-119 -68q-43 -67 -43 -174q0 -108 43 -175zM75 286q0 130 59 215q58 84 166 84q107 0 166 -84q59 -85 59 -215q0 -131 -59 -216q-59 -84 -166 -84q-108 0 -166 84q-59 85 -59 216zM249 663
q-17 -14 -41 -14t-42 14q-17 15 -17 40t17 39q18 15 42 15t41 -15q18 -14 18 -39t-18 -40zM434 663q-17 -14 -41 -14t-42 14q-17 15 -17 40t17 39q18 15 42 15t41 -15q18 -14 18 -39t-18 -40z" />
    <glyph glyph-name="multiply" unicode="&#xd7;" 
d="M430 98q-12 0 -23 11l-109 109l-108 -108q-12 -12 -25 -12q-25 0 -25 25q0 13 12 25l108 108l-108 108q-12 12 -12 25q0 25 25 25q13 0 25 -12l108 -108l109 109q12 12 24 12q9 0 17 -9t8 -18q0 -12 -11 -23l-109 -109l109 -109q12 -12 12 -24q0 -9 -9 -17t-18 -8z" />
    <glyph glyph-name="Oslash" unicode="&#xd8;" 
d="M300 43q74 0 118 68t44 175q0 75 -22 132l-256 -312q44 -63 116 -63zM73 -14q-12 0 -19.5 7.5t-7.5 18.5q0 10 7 20l60 72q-38 74 -38 182q0 130 59 215q58 84 166 84q95 0 154 -69l48 57q12 12 23 12q12 0 19.5 -7.5t7.5 -18.5q0 -10 -7 -20l-59 -71q39 -75 39 -182
q0 -131 -59 -216q-59 -84 -166 -84q-97 0 -155 70l-49 -58q-12 -12 -23 -12zM138 286q0 -75 21 -132l256 312q-45 62 -115 62q-75 0 -119 -68q-43 -67 -43 -174z" />
    <glyph glyph-name="Ugrave" unicode="&#xd9;" 
d="M299 -14q-94 0 -143 57t-49 162v346q0 34 30 34q31 0 31 -34v-346q0 -162 131 -162q133 0 133 162v346q0 34 30 34q31 0 31 -34v-346q0 -105 -49.5 -162t-144.5 -57zM322 647l-122 103q-16 13 -16 30q0 14 10 23.5t24 9.5q19 0 32 -16l103 -115q12 -14 12 -25
q0 -8 -6 -14t-14 -6q-10 0 -23 10z" />
    <glyph glyph-name="Uacute" unicode="&#xda;" 
d="M299 -14q-94 0 -143 57t-49 162v346q0 34 30 34q31 0 31 -34v-346q0 -162 131 -162q133 0 133 162v346q0 34 30 34q31 0 31 -34v-346q0 -105 -49.5 -162t-144.5 -57zM401 750l-122 -103q-13 -10 -23 -10q-8 0 -14 6t-6 14q0 11 12 25l103 115q13 16 32 16q14 0 24 -9.5
t10 -23.5q0 -17 -16 -30z" />
    <glyph glyph-name="Ucircumflex" unicode="&#xdb;" 
d="M299 -14q-94 0 -143 57t-49 162v346q0 34 30 34q31 0 31 -34v-346q0 -162 131 -162q133 0 133 162v346q0 34 30 34q31 0 31 -34v-346q0 -105 -49.5 -162t-144.5 -57zM406 635l-106 91l-106 -91q-10 -7 -19 -7q-19 0 -19 20q0 11 16 27l102 108q26 26 52 0l102 -108
q16 -16 16 -27q0 -20 -19 -20q-9 0 -19 7z" />
    <glyph glyph-name="Udieresis" unicode="&#xdc;" 
d="M299 -14q-94 0 -143 57t-49 162v346q0 34 30 34q31 0 31 -34v-346q0 -162 131 -162q133 0 133 162v346q0 34 30 34q31 0 31 -34v-346q0 -105 -49.5 -162t-144.5 -57zM247 663q-17 -14 -41 -14t-42 14q-17 15 -17 40t17 39q18 15 42 15t41 -15q18 -14 18 -39t-18 -40z
M432 663q-17 -14 -41 -14t-42 14q-17 15 -17 40t17 39q18 15 42 15t41 -15q18 -14 18 -39t-18 -40z" />
    <glyph glyph-name="Yacute" unicode="&#xdd;" 
d="M300 -14q-30 0 -30 34v188l-206 313q-13 19 -13 35q0 13 8.5 21t20.5 8q16 0 31 -22l190 -296l189 296q15 22 31 22q12 0 20.5 -8t8.5 -21q0 -16 -13 -35l-206 -313v-188q0 -34 -31 -34zM400 750l-122 -103q-13 -10 -23 -10q-8 0 -14 6t-6 14q0 11 12 25l103 115
q13 16 32 16q14 0 24 -9.5t10 -23.5q0 -17 -16 -30z" />
    <glyph glyph-name="Thorn" unicode="&#xde;" 
d="M151 -14q-30 0 -30 34v531q0 34 30 34q31 0 31 -34v-81h111q99 0 163 -44q63 -44 63 -140q0 -95 -64 -140q-63 -45 -162 -45h-111v-81q0 -34 -31 -34zM295 414h-113v-257h113q74 0 117.5 33t43.5 96q0 64 -43 96t-118 32z" />
    <glyph glyph-name="germandbls" unicode="&#xdf;" 
d="M117 21v410q0 103 49 159t141 56q87 0 136 -46t49 -118q0 -64 -31.5 -106.5t-82.5 -55.5q56 -16 101 -61q44 -44 44 -116q0 -69 -40 -111.5t-110 -42.5q-60 0 -100 23q-19 10 -19 29q0 12 7 20t18 8q8 0 20 -5q37 -20 70 -20q45 0 69 26t24 71q0 60 -45.5 99.5
t-122.5 51.5q-30 5 -30 28q0 27 34 30q61 5 97 41t36 90q0 51 -33.5 80.5t-91.5 29.5q-130 0 -130 -158v-412q0 -32 -30 -32q-13 0 -21 8.5t-8 23.5z" />
    <glyph glyph-name="agrave" unicode="&#xe0;" 
d="M278 -11q-80 0 -133 37q-53 38 -53 100q0 61 53 99q55 38 133 38q95 0 154 -42v37q0 58 -37.5 91t-105.5 33q-57 0 -106 -25q-31 -16 -41 -16q-13 0 -21 8t-8 21q0 19 31 35q59 32 145 32q201 0 201 -178v-238q0 -32 -29 -32q-13 0 -21 8.5t-8 23.5v10q-59 -42 -154 -42z
M192 64q39 -24 103 -24q65 0 102 24q39 25 39 62t-39 61q-37 25 -102 25t-103 -25q-38 -24 -38 -61t38 -62zM332 502l-122 103q-16 13 -16 30q0 14 10 23.5t24 9.5q19 0 32 -16l103 -115q12 -13 12 -25q0 -8 -6 -14t-14 -6q-10 0 -23 10z" />
    <glyph glyph-name="aacute" unicode="&#xe1;" 
d="M278 -11q-80 0 -133 37q-53 38 -53 100q0 61 53 99q55 38 133 38q95 0 154 -42v37q0 58 -37.5 91t-105.5 33q-57 0 -106 -25q-31 -16 -41 -16q-13 0 -21 8t-8 21q0 19 31 35q59 32 145 32q201 0 201 -178v-238q0 -32 -29 -32q-13 0 -21 8.5t-8 23.5v10q-59 -42 -154 -42z
M192 64q39 -24 103 -24q65 0 102 24q39 25 39 62t-39 61q-37 25 -102 25t-103 -25q-38 -24 -38 -61t38 -62zM396 605l-122 -103q-13 -10 -23 -10q-8 0 -14 6t-6 14q0 12 12 25l103 115q13 16 32 16q14 0 24 -9.5t10 -23.5q0 -17 -16 -30z" />
    <glyph glyph-name="acircumflex" unicode="&#xe2;" 
d="M278 -11q-80 0 -133 37q-53 38 -53 100q0 61 53 99q55 38 133 38q95 0 154 -42v37q0 58 -37.5 91t-105.5 33q-57 0 -106 -25q-31 -16 -41 -16q-13 0 -21 8t-8 21q0 19 31 35q59 32 145 32q201 0 201 -178v-238q0 -32 -29 -32q-13 0 -21 8.5t-8 23.5v10q-59 -42 -154 -42z
M192 64q39 -24 103 -24q65 0 102 24q39 25 39 62t-39 61q-37 25 -102 25t-103 -25q-38 -24 -38 -61t38 -62zM401 490l-106 91l-106 -91q-10 -7 -19 -7q-19 0 -19 20q0 11 16 27l102 108q26 26 52 0l102 -108q16 -16 16 -27q0 -20 -19 -20q-9 0 -19 7z" />
    <glyph glyph-name="atilde" unicode="&#xe3;" 
d="M278 -11q-80 0 -133 37q-53 38 -53 100q0 61 53 99q55 38 133 38q95 0 154 -42v37q0 58 -37.5 91t-105.5 33q-57 0 -106 -25q-31 -16 -41 -16q-13 0 -21 8t-8 21q0 19 31 35q59 32 145 32q201 0 201 -178v-238q0 -32 -29 -32q-13 0 -21 8.5t-8 23.5v10q-59 -42 -154 -42z
M192 64q39 -24 103 -24q65 0 102 24q39 25 39 62t-39 61q-37 25 -102 25t-103 -25q-38 -24 -38 -61t38 -62zM364 502q-24 0 -74 30q-49 31 -61 31q-21 0 -36 -38q-7 -19 -21 -19q-21 0 -21 22q0 34 21 62q23 29 54 29q25 0 74 -31q49 -30 61 -30q21 0 36 38q7 19 21 19
q21 0 21 -22q0 -35 -22 -63q-21 -28 -53 -28z" />
    <glyph glyph-name="adieresis" unicode="&#xe4;" 
d="M278 -11q-80 0 -133 37q-53 38 -53 100q0 61 53 99q55 38 133 38q95 0 154 -42v37q0 58 -37.5 91t-105.5 33q-57 0 -106 -25q-31 -16 -41 -16q-13 0 -21 8t-8 21q0 19 31 35q59 32 145 32q201 0 201 -178v-238q0 -32 -29 -32q-13 0 -21 8.5t-8 23.5v10q-59 -42 -154 -42z
M192 64q39 -24 103 -24q65 0 102 24q39 25 39 62t-39 61q-37 25 -102 25t-103 -25q-38 -24 -38 -61t38 -62zM243 518q-17 -14 -41 -14t-42 14q-17 15 -17 40t17 39q18 15 42 15t41 -15q18 -14 18 -39t-18 -40zM428 518q-17 -14 -41 -14t-42 14q-17 15 -17 40t17 39
q18 15 42 15t41 -15q18 -14 18 -39t-18 -40z" />
    <glyph glyph-name="aring" unicode="&#xe5;" 
d="M278 -11q-80 0 -133 37q-53 38 -53 100q0 61 53 99q55 38 133 38q95 0 154 -42v37q0 58 -37.5 91t-105.5 33q-57 0 -106 -25q-31 -16 -41 -16q-13 0 -21 8t-8 21q0 19 31 35q59 32 145 32q201 0 201 -178v-238q0 -32 -29 -32q-13 0 -21 8.5t-8 23.5v10q-59 -42 -154 -42z
M192 64q39 -24 103 -24q65 0 102 24q39 25 39 62t-39 61q-37 25 -102 25t-103 -25q-38 -24 -38 -61t38 -62zM370 635q30 -26 30 -71t-30 -72q-31 -26 -75 -26t-75 26q-30 27 -30 72q0 46 30 71q30 27 75 27t75 -27zM334 525q16 16 16 39t-16 38q-16 16 -39 16t-39 -16
q-16 -15 -16 -38t16 -39q16 -15 39 -15t39 15z" />
    <glyph glyph-name="ae" unicode="&#xe6;" 
d="M168 -11q-63 0 -106 37t-43 100q0 62 43 99q44 38 106 38q65 0 105 -32v27q0 124 -106 124q-36 0 -73 -20q-22 -13 -39 -13q-11 0 -18 7.5t-7 18.5q0 20 26 34q53 28 113 28q105 0 136 -75q42 75 122 75q73 0 114 -54.5t41 -151.5q0 -32 -24 -32h-231q5 -155 105 -155
q50 0 92 47q16 16 29 16q11 0 18.5 -7t7.5 -19q0 -15 -18 -36q-50 -56 -129 -56q-84 0 -124 67q-42 -67 -140 -67zM175 40q47 0 74 23.5t27 62.5t-27 62.5t-74 23.5q-44 0 -69.5 -23.5t-25.5 -62.5t25.5 -62.5t69.5 -23.5zM427 382q-86 0 -98 -130h192q-7 130 -94 130z" />
    <glyph glyph-name="ccedilla" unicode="&#xe7;" 
d="M307 44q74 0 137 54q22 19 38 19q11 0 19 -8t8 -18q0 -18 -22 -36q-68 -56 -156 -65q37 -28 37 -74q0 -36 -25.5 -57.5t-67.5 -21.5q-34 0 -57 11t-23 29q0 23 24 23q4 0 24.5 -6t29.5 -6q45 0 45 40q0 48 -63 64q-79 22 -127.5 80.5t-48.5 140.5q0 98 65 161
q64 63 163 63q101 0 180 -66q22 -18 22 -36q0 -10 -8 -18t-19 -8q-16 0 -38 19q-63 54 -137 54q-67 0 -117 -47t-50 -122t50 -122t117 -47z" />
    <glyph glyph-name="egrave" unicode="&#xe8;" 
d="M311 -11q-101 0 -168 62q-65 62 -65 161t65 162t162 63q95 0 157 -58q63 -58 63 -148q0 -32 -33 -32h-353q5 -68 53 -112q47 -43 122 -43t143 47q25 16 34 16q12 0 20 -8t8 -19q0 -18 -23 -35q-71 -56 -185 -56zM305 382q-59 0 -104 -36t-58 -94h319q-4 57 -51 93
q-46 37 -106 37zM321 502l-122 103q-16 13 -16 30q0 14 10 23.5t24 9.5q19 0 32 -16l103 -115q12 -13 12 -25q0 -8 -6 -14t-14 -6q-10 0 -23 10z" />
    <glyph glyph-name="eacute" unicode="&#xe9;" 
d="M311 -11q-101 0 -168 62q-65 62 -65 161t65 162t162 63q95 0 157 -58q63 -58 63 -148q0 -32 -33 -32h-353q5 -68 53 -112q47 -43 122 -43t143 47q25 16 34 16q12 0 20 -8t8 -19q0 -18 -23 -35q-71 -56 -185 -56zM305 382q-59 0 -104 -36t-58 -94h319q-4 57 -51 93
q-46 37 -106 37zM401 605l-122 -103q-13 -10 -23 -10q-8 0 -14 6t-6 14q0 12 12 25l103 115q13 16 32 16q14 0 24 -9.5t10 -23.5q0 -17 -16 -30z" />
    <glyph glyph-name="ecircumflex" unicode="&#xea;" 
d="M311 -11q-101 0 -168 62q-65 62 -65 161t65 162t162 63q95 0 157 -58q63 -58 63 -148q0 -32 -33 -32h-353q5 -68 53 -112q47 -43 122 -43t143 47q25 16 34 16q12 0 20 -8t8 -19q0 -18 -23 -35q-71 -56 -185 -56zM305 382q-59 0 -104 -36t-58 -94h319q-4 57 -51 93
q-46 37 -106 37zM411 490l-106 91l-106 -91q-10 -7 -19 -7q-19 0 -19 20q0 11 16 27l102 108q26 26 52 0l102 -108q16 -16 16 -27q0 -20 -19 -20q-9 0 -19 7z" />
    <glyph glyph-name="edieresis" unicode="&#xeb;" 
d="M311 -11q-101 0 -168 62q-65 62 -65 161t65 162t162 63q95 0 157 -58q63 -58 63 -148q0 -32 -33 -32h-353q5 -68 53 -112q47 -43 122 -43t143 47q25 16 34 16q12 0 20 -8t8 -19q0 -18 -23 -35q-71 -56 -185 -56zM305 382q-59 0 -104 -36t-58 -94h319q-4 57 -51 93
q-46 37 -106 37zM253 518q-17 -14 -41 -14t-42 14q-17 15 -17 40t17 39q18 15 42 15t41 -15q18 -14 18 -39t-18 -40zM438 518q-17 -14 -41 -14t-42 14q-17 15 -17 40t17 39q18 15 42 15t41 -15q18 -14 18 -39t-18 -40z" />
    <glyph glyph-name="igrave" unicode="&#xec;" 
d="M477 55q33 0 33 -27q0 -28 -33 -28h-355q-33 0 -33 28q0 27 33 27q27 0 170 -4v324q-121 -4 -160 -4q-33 0 -33 28q0 27 33 27h187q32 0 32 -32v-343q107 4 126 4zM360 502l-122 103q-16 13 -16 30q0 14 10 23.5t24 9.5q19 0 32 -16l103 -115q12 -13 12 -25q0 -8 -6 -14
t-14 -6q-10 0 -23 10z" />
    <glyph glyph-name="iacute" unicode="&#xed;" 
d="M477 55q33 0 33 -27q0 -28 -33 -28h-355q-33 0 -33 28q0 27 33 27q27 0 170 -4v324q-121 -4 -160 -4q-33 0 -33 28q0 27 33 27h187q32 0 32 -32v-343q107 4 126 4zM424 605l-122 -103q-13 -10 -23 -10q-8 0 -14 6t-6 14q0 12 12 25l103 115q13 16 32 16q14 0 24 -9.5
t10 -23.5q0 -17 -16 -30z" />
    <glyph glyph-name="icircumflex" unicode="&#xee;" 
d="M477 55q33 0 33 -27q0 -28 -33 -28h-355q-33 0 -33 28q0 27 33 27q27 0 170 -4v324q-121 -4 -160 -4q-33 0 -33 28q0 27 33 27h187q32 0 32 -32v-343q107 4 126 4zM429 490l-106 91l-106 -91q-10 -7 -19 -7q-19 0 -19 20q0 11 16 27l102 108q26 26 52 0l102 -108
q16 -16 16 -27q0 -20 -19 -20q-9 0 -19 7z" />
    <glyph glyph-name="idieresis" unicode="&#xef;" 
d="M477 55q33 0 33 -27q0 -28 -33 -28h-355q-33 0 -33 28q0 27 33 27q27 0 170 -4v324q-121 -4 -160 -4q-33 0 -33 28q0 27 33 27h187q32 0 32 -32v-343q107 4 126 4zM271 518q-17 -14 -41 -14t-42 14q-17 15 -17 40t17 39q18 15 42 15t41 -15q18 -14 18 -39t-18 -40z
M456 518q-17 -14 -41 -14t-42 14q-17 15 -17 40t17 39q18 15 42 15t41 -15q18 -14 18 -39t-18 -40z" />
    <glyph glyph-name="eth" unicode="&#xf0;" 
d="M440 548l-55 -15l108 -197q35 -67 35 -123q0 -97 -66 -161q-64 -63 -162 -63q-97 0 -163 63q-65 65 -65 161q0 97 65 160q65 64 163 64q52 0 89 -23l-61 105l-76 -20q-10 -2 -15 -2q-10 0 -17.5 7t-7.5 18q0 20 25 27l64 17l-28 49q-5 12 -5 18q0 11 8.5 19t21.5 8
q16 0 27 -17l34 -62l66 17q10 2 15 2q10 0 17.5 -7t7.5 -18q0 -20 -25 -27zM182 92q50 -48 118 -48q69 0 118 48t49 121t-49 121t-118 48q-68 0 -118 -48q-49 -48 -49 -121t49 -121z" />
    <glyph glyph-name="ntilde" unicode="&#xf1;" 
d="M456 -11q-13 0 -21 8.5t-8 23.5v223q0 69 -31 103.5t-86 34.5q-59 0 -92.5 -34.5t-33.5 -104.5v-222q0 -32 -30 -32q-13 0 -21 8.5t-8 23.5v384q0 32 30 32q13 0 21 -8.5t8 -23.5v-29q42 61 136 61q78 0 122 -46.5t44 -133.5v-236q0 -32 -30 -32zM375 502q-25 0 -74 30
q-49 31 -61 31q-21 0 -36 -38q-7 -19 -21 -19q-21 0 -21 22q0 34 21 62q23 29 54 29q25 0 74 -31q49 -30 61 -30q21 0 36 38q7 19 21 19q21 0 21 -22q0 -35 -22 -63q-21 -28 -53 -28z" />
    <glyph glyph-name="ograve" unicode="&#xf2;" 
d="M462 52q-64 -63 -162 -63q-97 0 -163 63q-65 65 -65 161q0 97 65 160q65 64 163 64t162 -64q66 -63 66 -160t-66 -161zM182 92q50 -48 118 -48q69 0 118 48t49 121t-49 121t-118 48q-68 0 -118 -48q-49 -48 -49 -121t49 -121zM322 502l-122 103q-16 13 -16 30
q0 14 10 23.5t24 9.5q19 0 32 -16l103 -115q12 -13 12 -25q0 -8 -6 -14t-14 -6q-10 0 -23 10z" />
    <glyph glyph-name="oacute" unicode="&#xf3;" 
d="M462 52q-64 -63 -162 -63q-97 0 -163 63q-65 65 -65 161q0 97 65 160q65 64 163 64t162 -64q66 -63 66 -160t-66 -161zM182 92q50 -48 118 -48q69 0 118 48t49 121t-49 121t-118 48q-68 0 -118 -48q-49 -48 -49 -121t49 -121zM401 605l-122 -103q-13 -10 -23 -10
q-8 0 -14 6t-6 14q0 12 12 25l103 115q13 16 32 16q14 0 24 -9.5t10 -23.5q0 -17 -16 -30z" />
    <glyph glyph-name="ocircumflex" unicode="&#xf4;" 
d="M462 52q-64 -63 -162 -63q-97 0 -163 63q-65 65 -65 161q0 97 65 160q65 64 163 64t162 -64q66 -63 66 -160t-66 -161zM182 92q50 -48 118 -48q69 0 118 48t49 121t-49 121t-118 48q-68 0 -118 -48q-49 -48 -49 -121t49 -121zM406 490l-106 91l-106 -91q-10 -7 -19 -7
q-19 0 -19 20q0 11 16 27l102 108q26 26 52 0l102 -108q16 -16 16 -27q0 -20 -19 -20q-9 0 -19 7z" />
    <glyph glyph-name="otilde" unicode="&#xf5;" 
d="M462 52q-64 -63 -162 -63q-97 0 -163 63q-65 65 -65 161q0 97 65 160q65 64 163 64t162 -64q66 -63 66 -160t-66 -161zM182 92q50 -48 118 -48q69 0 118 48t49 121t-49 121t-118 48q-68 0 -118 -48q-49 -48 -49 -121t49 -121zM369 502q-25 0 -74 30q-49 31 -61 31
q-21 0 -36 -38q-7 -19 -21 -19q-21 0 -21 22q0 34 21 62q23 29 54 29q25 0 74 -31q50 -30 61 -30q21 0 36 38q7 19 21 19q21 0 21 -22q0 -35 -22 -63q-21 -28 -53 -28z" />
    <glyph glyph-name="odieresis" unicode="&#xf6;" 
d="M462 52q-64 -63 -162 -63q-97 0 -163 63q-65 65 -65 161q0 97 65 160q65 64 163 64t162 -64q66 -63 66 -160t-66 -161zM182 92q50 -48 118 -48q69 0 118 48t49 121t-49 121t-118 48q-68 0 -118 -48q-49 -48 -49 -121t49 -121zM249 518q-17 -14 -41 -14t-42 14
q-17 15 -17 40t17 39q18 15 42 15t41 -15q18 -14 18 -39t-18 -40zM434 518q-17 -14 -41 -14t-42 14q-17 15 -17 40t17 39q18 15 42 15t41 -15q18 -14 18 -39t-18 -40z" />
    <glyph glyph-name="divide" unicode="&#xf7;" 
d="M461 228h-322q-32 0 -32 28t32 28h322q32 0 32 -28t-32 -28zM346 6q-18 -17 -45 -17t-45 17t-18 43t18 43t45 17t45 -17t18 -43t-18 -43zM346 420q-18 -17 -45 -17t-45 17t-18 43t18 43t45 17t45 -17t18 -43t-18 -43z" />
    <glyph glyph-name="oslash" unicode="&#xf8;" 
d="M300 -11q-88 0 -152 54l-53 -46q-8 -8 -19 -8q-10 0 -19 7.5t-9 18.5q0 14 12 25l50 44q-38 58 -38 129q0 97 65 160q65 64 163 64q88 0 152 -54l53 46q8 8 19 8q10 0 19 -7.5t9 -18.5q0 -15 -12 -25l-51 -45q39 -55 39 -128q0 -97 -66 -161q-64 -63 -162 -63zM133 213
q0 -52 25 -92l251 221q-46 40 -109 40q-68 0 -118 -48q-49 -48 -49 -121zM300 44q69 0 118 48t49 121q0 49 -25 90l-251 -219q46 -40 109 -40z" />
    <glyph glyph-name="ugrave" unicode="&#xf9;" 
d="M144 437q13 0 21 -8.5t8 -23.5v-220q0 -75 32 -108t94 -33q51 0 84 36t33 103v222q0 32 30 32q13 0 21 -8.5t8 -23.5v-384q0 -32 -30 -32q-13 0 -21 8.5t-8 23.5v29q-46 -61 -136 -61q-78 0 -122 46.5t-44 133.5v236q0 32 30 32zM317 502l-122 103q-16 13 -16 30
q0 14 10 23.5t24 9.5q19 0 32 -16l103 -115q12 -13 12 -25q0 -8 -6 -14t-14 -6q-10 0 -23 10z" />
    <glyph glyph-name="uacute" unicode="&#xfa;" 
d="M144 437q13 0 21 -8.5t8 -23.5v-220q0 -75 32 -108t94 -33q51 0 84 36t33 103v222q0 32 30 32q13 0 21 -8.5t8 -23.5v-384q0 -32 -30 -32q-13 0 -21 8.5t-8 23.5v29q-46 -61 -136 -61q-78 0 -122 46.5t-44 133.5v236q0 32 30 32zM396 605l-122 -103q-13 -10 -23 -10
q-8 0 -14 6t-6 14q0 12 12 25l103 115q13 16 32 16q14 0 24 -9.5t10 -23.5q0 -17 -16 -30z" />
    <glyph glyph-name="ucircumflex" unicode="&#xfb;" 
d="M144 437q13 0 21 -8.5t8 -23.5v-220q0 -75 32 -108t94 -33q51 0 84 36t33 103v222q0 32 30 32q13 0 21 -8.5t8 -23.5v-384q0 -32 -30 -32q-13 0 -21 8.5t-8 23.5v29q-46 -61 -136 -61q-78 0 -122 46.5t-44 133.5v236q0 32 30 32zM401 490l-106 91l-106 -91q-10 -7 -19 -7
q-19 0 -19 20q0 11 16 27l102 108q26 26 52 0l102 -108q16 -16 16 -27q0 -20 -19 -20q-9 0 -19 7z" />
    <glyph glyph-name="udieresis" unicode="&#xfc;" 
d="M144 437q13 0 21 -8.5t8 -23.5v-220q0 -75 32 -108t94 -33q51 0 84 36t33 103v222q0 32 30 32q13 0 21 -8.5t8 -23.5v-384q0 -32 -30 -32q-13 0 -21 8.5t-8 23.5v29q-46 -61 -136 -61q-78 0 -122 46.5t-44 133.5v236q0 32 30 32zM243 518q-17 -14 -41 -14t-42 14
q-17 15 -17 40t17 39q18 15 42 15t41 -15q18 -14 18 -39t-18 -40zM428 518q-17 -14 -41 -14t-42 14q-17 15 -17 40t17 39q18 15 42 15t41 -15q18 -14 18 -39t-18 -40z" />
    <glyph glyph-name="yacute" unicode="&#xfd;" 
d="M105 -209q-90 0 -90 39q0 41 61 22q20 -6 39 -6q45 0 77 24q23 17 46.5 52t35.5 66l-178 387q-12 26 -12 35q0 27 30 27q20 0 33 -30l158 -358l158 358q13 30 33 30q30 0 30 -27q0 -10 -12 -35l-177 -385q-47 -105 -99 -152q-50 -47 -133 -47zM406 605l-122 -103
q-13 -10 -23 -10q-8 0 -14 6t-6 14q0 12 12 25l103 115q13 16 32 16q14 0 24 -9.5t10 -23.5q0 -17 -16 -30z" />
    <glyph glyph-name="thorn" unicode="&#xfe;" 
d="M322 437q92 0 147 -63q57 -62 57 -161t-57 -162q-56 -62 -147 -62q-97 0 -143 70v-236q0 -15 -8 -23.5t-21 -8.5q-30 0 -30 32v805q0 32 30 32q13 0 21 -8.5t8 -23.5v-261q43 70 143 70zM424 335q-41 47 -105 47q-65 0 -106 -47q-40 -46 -40 -122q0 -77 40 -123t106 -46
q65 0 105 46q41 47 41 123q0 75 -41 122z" />
    <glyph glyph-name="ydieresis" unicode="&#xff;" 
d="M105 -209q-90 0 -90 39q0 41 61 22q20 -6 39 -6q45 0 77 24q23 17 46.5 52t35.5 66l-178 387q-12 26 -12 35q0 27 30 27q20 0 33 -30l158 -358l158 358q13 30 33 30q30 0 30 -27q0 -10 -12 -35l-177 -385q-47 -105 -99 -152q-50 -47 -133 -47zM254 518q-17 -14 -41 -14
t-42 14q-17 15 -17 40t17 39q18 15 42 15t41 -15q18 -14 18 -39t-18 -40zM439 518q-17 -14 -41 -14t-42 14q-17 15 -17 40t17 39q18 15 42 15t41 -15q18 -14 18 -39t-18 -40z" />
    <glyph glyph-name="Amacron" unicode="&#x100;" 
d="M138 -14q-31 0 -31 34v346q0 104 49 161.5t144 57.5t144 -57.5t49 -161.5v-346q0 -34 -31 -34q-30 0 -30 34v176h-264v-176q0 -34 -30 -34zM168 365v-114h264v114q0 164 -132 164t-132 -164zM190 730h221q34 0 34 -28q0 -30 -34 -30h-221q-34 0 -34 30q0 28 34 28z" />
    <glyph glyph-name="amacron" unicode="&#x101;" 
d="M278 -11q-80 0 -133 37q-53 38 -53 100q0 61 53 99q55 38 133 38q95 0 154 -42v37q0 58 -37.5 91t-105.5 33q-57 0 -106 -25q-31 -16 -41 -16q-13 0 -21 8t-8 21q0 19 31 35q59 32 145 32q201 0 201 -178v-238q0 -32 -29 -32q-13 0 -21 8.5t-8 23.5v10q-59 -42 -154 -42z
M192 64q39 -24 103 -24q65 0 102 24q39 25 39 62t-39 61q-37 25 -102 25t-103 -25q-38 -24 -38 -61t38 -62zM185 585h221q34 0 34 -28q0 -30 -34 -30h-221q-34 0 -34 30q0 28 34 28z" />
    <glyph glyph-name="Abreve" unicode="&#x102;" 
d="M138 -14q-31 0 -31 34v346q0 104 49 161.5t144 57.5t144 -57.5t49 -161.5v-346q0 -34 -31 -34q-30 0 -30 34v176h-264v-176q0 -34 -30 -34zM168 365v-114h264v114q0 164 -132 164t-132 -164zM399 761q7 18 21 18q20 0 20 -24t-13 -47q-40 -73 -127 -73t-127 73
q-13 23 -13 47t20 24q14 0 21 -18q27 -67 99 -67t99 67z" />
    <glyph glyph-name="abreve" unicode="&#x103;" 
d="M278 -11q-80 0 -133 37q-53 38 -53 100q0 61 53 99q55 38 133 38q95 0 154 -42v37q0 58 -37.5 91t-105.5 33q-57 0 -106 -25q-31 -16 -41 -16q-13 0 -21 8t-8 21q0 19 31 35q59 32 145 32q201 0 201 -178v-238q0 -32 -29 -32q-13 0 -21 8.5t-8 23.5v10q-59 -42 -154 -42z
M192 64q39 -24 103 -24q65 0 102 24q39 25 39 62t-39 61q-37 25 -102 25t-103 -25q-38 -24 -38 -61t38 -62zM394 616q8 18 21 18q20 0 20 -24t-13 -47q-40 -73 -127 -73t-127 73q-13 23 -13 47t20 24q13 0 21 -18q27 -67 99 -67t99 67z" />
    <glyph glyph-name="Aogonek" unicode="&#x104;" 
d="M138 -14q-31 0 -31 34v346q0 104 49 161.5t144 57.5t144 -57.5t49 -161.5v-346q0 -14 -6 -21t-23 -17q-36 -19 -36 -55q0 -39 45 -39q9 0 29.5 6t24.5 6q24 0 24 -23q0 -18 -23 -29t-57 -11q-42 0 -67.5 21.5t-25.5 57.5q0 50 54 84v196h-264v-176q0 -34 -30 -34z
M168 365v-114h264v114q0 164 -132 164t-132 -164z" />
    <glyph glyph-name="aogonek" unicode="&#x105;" 
d="M278 -11q-80 0 -133 37q-53 38 -53 100q0 61 53 99q55 38 133 38q95 0 154 -42v37q0 58 -37.5 91t-105.5 33q-57 0 -106 -25q-31 -16 -41 -16q-13 0 -21 8t-8 21q0 19 31 35q59 32 145 32q201 0 201 -178v-238q0 -14 -5.5 -21.5t-21.5 -16.5q-38 -20 -38 -56
q0 -39 45 -39q9 0 29.5 6t24.5 6q24 0 24 -23q0 -18 -23 -29t-57 -11q-42 0 -67.5 21.5t-25.5 57.5q0 48 57 86v29q-59 -42 -154 -42zM192 64q39 -24 103 -24q65 0 102 24q39 25 39 62t-39 61q-37 25 -102 25t-103 -25q-38 -24 -38 -61t38 -62z" />
    <glyph glyph-name="Cacute" unicode="&#x106;" 
d="M315 43q85 0 142 67q14 17 32 17q12 0 20.5 -7.5t8.5 -19.5q0 -14 -11 -28q-75 -86 -192 -86q-110 0 -175 81q-64 82 -64 219q0 138 64 218q65 81 175 81q117 0 192 -86q11 -14 11 -28q0 -12 -8.5 -19.5t-20.5 -7.5q-18 0 -32 17q-57 67 -142 67q-82 0 -129 -63.5
t-47 -178.5t47.5 -179t128.5 -64zM416 750l-122 -103q-13 -10 -23 -10q-8 0 -14 6t-6 14q0 11 12 25l103 115q13 16 32 16q14 0 24 -9.5t10 -23.5q0 -17 -16 -30z" />
    <glyph glyph-name="cacute" unicode="&#x107;" 
d="M307 44q74 0 137 54q22 19 38 19q11 0 19 -8t8 -18q0 -18 -22 -36q-79 -66 -180 -66q-99 0 -163 63q-65 63 -65 161t65 161q64 63 163 63q101 0 180 -66q22 -18 22 -36q0 -10 -8 -18t-19 -8q-16 0 -38 19q-63 54 -137 54q-67 0 -117 -47t-50 -122t50 -122t117 -47z
M408 605l-122 -103q-13 -10 -23 -10q-8 0 -14 6t-6 14q0 12 12 25l103 115q13 16 32 16q14 0 24 -9.5t10 -23.5q0 -17 -16 -30z" />
    <glyph glyph-name="Ccircumflex" unicode="&#x108;" 
d="M315 43q85 0 142 67q14 17 32 17q12 0 20.5 -7.5t8.5 -19.5q0 -14 -11 -28q-75 -86 -192 -86q-110 0 -175 81q-64 82 -64 219q0 138 64 218q65 81 175 81q117 0 192 -86q11 -14 11 -28q0 -12 -8.5 -19.5t-20.5 -7.5q-18 0 -32 17q-57 67 -142 67q-82 0 -129 -63.5
t-47 -178.5t47.5 -179t128.5 -64zM421 635l-106 91l-106 -91q-10 -7 -19 -7q-19 0 -19 20q0 11 16 27l102 108q26 26 52 0l102 -108q16 -16 16 -27q0 -20 -19 -20q-9 0 -19 7z" />
    <glyph glyph-name="ccircumflex" unicode="&#x109;" 
d="M307 44q74 0 137 54q22 19 38 19q11 0 19 -8t8 -18q0 -18 -22 -36q-79 -66 -180 -66q-99 0 -163 63q-65 63 -65 161t65 161q64 63 163 63q101 0 180 -66q22 -18 22 -36q0 -10 -8 -18t-19 -8q-16 0 -38 19q-63 54 -137 54q-67 0 -117 -47t-50 -122t50 -122t117 -47z
M413 490l-106 91l-106 -91q-10 -7 -19 -7q-19 0 -19 20q0 11 16 27l102 108q26 26 52 0l102 -108q16 -16 16 -27q0 -20 -19 -20q-9 0 -19 7z" />
    <glyph glyph-name="Cdotaccent" unicode="&#x10a;" 
d="M315 43q85 0 142 67q14 17 32 17q12 0 20.5 -7.5t8.5 -19.5q0 -14 -11 -28q-75 -86 -192 -86q-110 0 -175 81q-64 82 -64 219q0 138 64 218q65 81 175 81q117 0 192 -86q11 -14 11 -28q0 -12 -8.5 -19.5t-20.5 -7.5q-18 0 -32 17q-57 67 -142 67q-82 0 -129 -63.5
t-47 -178.5t47.5 -179t128.5 -64zM359 664q-17 -15 -44 -15t-45 15q-17 15 -17 40t17 40q18 15 45 15t44 -15q18 -15 18 -40t-18 -40z" />
    <glyph glyph-name="cdotaccent" unicode="&#x10b;" 
d="M307 44q74 0 137 54q22 19 38 19q11 0 19 -8t8 -18q0 -18 -22 -36q-79 -66 -180 -66q-99 0 -163 63q-65 63 -65 161t65 161q64 63 163 63q101 0 180 -66q22 -18 22 -36q0 -10 -8 -18t-19 -8q-16 0 -38 19q-63 54 -137 54q-67 0 -117 -47t-50 -122t50 -122t117 -47z
M351 519q-17 -15 -44 -15t-45 15q-17 15 -17 40t17 40q18 15 45 15t44 -15q18 -15 18 -40t-18 -40z" />
    <glyph glyph-name="Ccaron" unicode="&#x10c;" 
d="M315 43q85 0 142 67q14 17 32 17q12 0 20.5 -7.5t8.5 -19.5q0 -14 -11 -28q-75 -86 -192 -86q-110 0 -175 81q-64 82 -64 219q0 138 64 218q65 81 175 81q117 0 192 -86q11 -14 11 -28q0 -12 -8.5 -19.5t-20.5 -7.5q-18 0 -32 17q-57 67 -142 67q-82 0 -129 -63.5
t-47 -178.5t47.5 -179t128.5 -64zM209 788l106 -91l106 91q10 7 19 7q19 0 19 -20q0 -11 -16 -27l-102 -108q-26 -26 -52 0l-102 108q-16 16 -16 27q0 20 19 20q9 0 19 -7z" />
    <glyph glyph-name="ccaron" unicode="&#x10d;" 
d="M307 44q74 0 137 54q22 19 38 19q11 0 19 -8t8 -18q0 -18 -22 -36q-79 -66 -180 -66q-99 0 -163 63q-65 63 -65 161t65 161q64 63 163 63q101 0 180 -66q22 -18 22 -36q0 -10 -8 -18t-19 -8q-16 0 -38 19q-63 54 -137 54q-67 0 -117 -47t-50 -122t50 -122t117 -47z
M201 643l106 -91l106 91q10 7 19 7q19 0 19 -20q0 -11 -16 -27l-102 -108q-26 -26 -52 0l-102 108q-16 16 -16 27q0 20 19 20q9 0 19 -7z" />
    <glyph glyph-name="Dcaron" unicode="&#x10e;" 
d="M255 0h-105q-32 0 -32 32v507q0 32 32 32h105q130 0 197 -79q68 -79 68 -207q0 -126 -69 -206q-67 -79 -196 -79zM248 515h-69v-459h69q105 0 157 64t52 165t-52 165q-53 65 -157 65zM179 788l106 -91l106 91q10 7 19 7q19 0 19 -20q0 -11 -16 -27l-102 -108
q-26 -26 -52 0l-102 108q-16 16 -16 27q0 20 19 20q9 0 19 -7z" />
    <glyph glyph-name="dcaron" unicode="&#x10f;" 
d="M263 -11q-88 0 -144 62q-55 62 -55 162t55 161q55 63 144 63q93 0 138 -70v261q0 15 8 23.5t21 8.5q30 0 30 -32v-607q0 -15 -8 -23.5t-21 -8.5q-30 0 -30 32v38q-42 -70 -138 -70zM164 90q39 -46 102 -46t102 46t39 123q0 75 -39 122t-102 47t-102 -47t-39 -122
q0 -77 39 -123zM621 613l-44 -143q-8 -26 -25 -26q-23 0 -23 24l1 2q0 2 0.5 6t0.5 8l23 143q3 15 12.5 24t21.5 9q16 0 26 -8.5t10 -22.5q0 -7 -3 -16z" />
    <glyph glyph-name="Dcroat" unicode="&#x110;" 
d="M255 0h-105q-32 0 -32 32v227h-46q-31 0 -31 26t31 26h46v228q0 32 32 32h105q130 0 197 -79q68 -79 68 -207q0 -126 -69 -206q-67 -79 -196 -79zM279 259h-100v-203h69q105 0 157 64t52 165t-52 165q-53 65 -157 65h-69v-204h100q31 0 31 -26t-31 -26z" />
    <glyph glyph-name="dslash" unicode="&#x111;" 
d="M315 555h106v73q0 15 8 23.5t21 8.5q30 0 30 -32v-73h36q29 0 29 -25t-29 -25h-36v-484q0 -15 -8 -23.5t-21 -8.5q-30 0 -30 32v38q-43 -70 -143 -70q-91 0 -148 62q-56 64 -56 162q0 99 56 161q57 63 148 63q97 0 143 -70v138h-106q-29 0 -29 25t29 25zM175 90
q40 -46 106 -46q65 0 105 46q41 47 41 123q0 75 -41 122t-105 47q-65 0 -106 -47q-40 -46 -40 -122q0 -77 40 -123z" />
    <glyph glyph-name="Emacron" unicode="&#x112;" 
d="M476 0h-329q-32 0 -32 32v507q0 32 32 32h329q33 0 33 -29t-33 -29q-55 0 -300 4v-199q207 3 222 3q33 0 33 -29t-33 -29h-52l-91 2q-36 1 -79 1v-212q46 0 95 1q97 3 205 3q33 0 33 -29t-33 -29zM202 730h221q34 0 34 -28q0 -30 -34 -30h-221q-34 0 -34 30q0 28 34 28z
" />
    <glyph glyph-name="emacron" unicode="&#x113;" 
d="M311 -11q-101 0 -168 62q-65 62 -65 161t65 162t162 63q95 0 157 -58q63 -58 63 -148q0 -32 -33 -32h-353q5 -68 53 -112q47 -43 122 -43t143 47q25 16 34 16q12 0 20 -8t8 -19q0 -18 -23 -35q-71 -56 -185 -56zM305 382q-59 0 -104 -36t-58 -94h319q-4 57 -51 93
q-46 37 -106 37zM195 585h221q34 0 34 -28q0 -30 -34 -30h-221q-34 0 -34 30q0 28 34 28z" />
    <glyph glyph-name="Ebreve" unicode="&#x114;" 
d="M476 0h-329q-32 0 -32 32v507q0 32 32 32h329q33 0 33 -29t-33 -29q-55 0 -300 4v-199q207 3 222 3q33 0 33 -29t-33 -29h-52l-91 2q-36 1 -79 1v-212q46 0 95 1q97 3 205 3q33 0 33 -29t-33 -29zM411 761q7 18 21 18q20 0 20 -24t-13 -47q-40 -73 -127 -73t-127 73
q-13 23 -13 47t20 24q14 0 21 -18q27 -67 99 -67t99 67z" />
    <glyph glyph-name="ebreve" unicode="&#x115;" 
d="M311 -11q-101 0 -168 62q-65 62 -65 161t65 162t162 63q95 0 157 -58q63 -58 63 -148q0 -32 -33 -32h-353q5 -68 53 -112q47 -43 122 -43t143 47q25 16 34 16q12 0 20 -8t8 -19q0 -18 -23 -35q-71 -56 -185 -56zM305 382q-59 0 -104 -36t-58 -94h319q-4 57 -51 93
q-46 37 -106 37zM404 616q8 18 21 18q20 0 20 -24t-13 -47q-40 -73 -127 -73t-127 73q-13 23 -13 47t20 24q13 0 21 -18q27 -67 99 -67t99 67z" />
    <glyph glyph-name="Edotaccent" unicode="&#x116;" 
d="M476 0h-329q-32 0 -32 32v507q0 32 32 32h329q33 0 33 -29t-33 -29q-55 0 -300 4v-199q207 3 222 3q33 0 33 -29t-33 -29h-52l-91 2q-36 1 -79 1v-212q46 0 95 1q97 3 205 3q33 0 33 -29t-33 -29zM356 664q-17 -15 -44 -15t-45 15q-17 15 -17 40t17 40q18 15 45 15
t44 -15q18 -15 18 -40t-18 -40z" />
    <glyph glyph-name="edotaccent" unicode="&#x117;" 
d="M311 -11q-101 0 -168 62q-65 62 -65 161t65 162t162 63q95 0 157 -58q63 -58 63 -148q0 -32 -33 -32h-353q5 -68 53 -112q47 -43 122 -43t143 47q25 16 34 16q12 0 20 -8t8 -19q0 -18 -23 -35q-71 -56 -185 -56zM305 382q-59 0 -104 -36t-58 -94h319q-4 57 -51 93
q-46 37 -106 37zM349 519q-17 -15 -44 -15t-45 15q-17 15 -17 40t17 40q18 15 45 15t44 -15q18 -15 18 -40t-18 -40z" />
    <glyph glyph-name="Eogonek" unicode="&#x118;" 
d="M390 0h-243q-32 0 -32 32v507q0 32 32 32h329q33 0 33 -29t-33 -29q-40 0 -300 4v-199q219 3 222 3q33 0 33 -29t-33 -29q-3 0 -222 3v-212q260 4 300 4q33 0 33 -29t-33 -29h-9q-33 0 -57 -21t-24 -52q0 -39 45 -39q9 0 29.5 6t24.5 6q24 0 24 -23q0 -18 -23 -29
t-57 -11q-42 0 -67.5 21.5t-25.5 57.5q0 58 54 84z" />
    <glyph glyph-name="eogonek" unicode="&#x119;" 
d="M311 -11q-101 0 -168 62q-65 62 -65 161t65 162t162 63q95 0 157 -58q63 -58 63 -148q0 -32 -33 -32h-353q5 -68 53 -112q47 -43 122 -43t143 47q25 16 34 16q12 0 20 -8t8 -19q0 -18 -23 -35q-4 -4 -21.5 -16.5t-24.5 -18.5q-54 -44 -54 -83t45 -39q9 0 29.5 6t24.5 6
q24 0 24 -23q0 -18 -23 -29t-57 -11q-42 0 -67.5 21.5t-25.5 57.5q0 48 43 82q-36 -9 -78 -9zM305 382q-59 0 -104 -36t-58 -94h319q-4 57 -51 93q-46 37 -106 37z" />
    <glyph glyph-name="Ecaron" unicode="&#x11a;" 
d="M476 0h-329q-32 0 -32 32v507q0 32 32 32h329q33 0 33 -29t-33 -29q-55 0 -300 4v-199q207 3 222 3q33 0 33 -29t-33 -29h-52l-91 2q-36 1 -79 1v-212q46 0 95 1q97 3 205 3q33 0 33 -29t-33 -29zM206 788l106 -91l106 91q10 7 19 7q19 0 19 -20q0 -11 -16 -27l-102 -108
q-26 -26 -52 0l-102 108q-16 16 -16 27q0 20 19 20q9 0 19 -7z" />
    <glyph glyph-name="ecaron" unicode="&#x11b;" 
d="M311 -11q-101 0 -168 62q-65 62 -65 161t65 162t162 63q95 0 157 -58q63 -58 63 -148q0 -32 -33 -32h-353q5 -68 53 -112q47 -43 122 -43t143 47q25 16 34 16q12 0 20 -8t8 -19q0 -18 -23 -35q-71 -56 -185 -56zM305 382q-59 0 -104 -36t-58 -94h319q-4 57 -51 93
q-46 37 -106 37zM199 643l106 -91l106 91q10 7 19 7q19 0 19 -20q0 -11 -16 -27l-102 -108q-26 -26 -52 0l-102 108q-16 16 -16 27q0 20 19 20q9 0 19 -7z" />
    <glyph glyph-name="Gcircumflex" unicode="&#x11c;" 
d="M320 -14q-114 0 -181 81q-66 83 -66 219q0 139 64 219t178 80q50 0 97 -17.5t76 -43.5q21 -20 23 -36t-7.5 -23t-22.5 -7t-27 13q-62 57 -139 57q-85 0 -132 -65t-47 -177q0 -110 49 -177t135 -67q82 0 132 33v165q-3 0 -47 -2q-22 -1 -50 -1q-33 0 -33 29t33 29h124
q32 0 32 -32v-197q0 -26 -18 -36q-73 -44 -173 -44zM425 635l-106 91l-106 -91q-10 -7 -19 -7q-19 0 -19 20q0 11 16 27l102 108q26 26 52 0l102 -108q16 -16 16 -27q0 -20 -19 -20q-9 0 -19 7z" />
    <glyph glyph-name="gcircumflex" unicode="&#x11d;" 
d="M161 99q0 -33 30 -46q43 10 93 10q104 0 163 -37q61 -37 61 -99t-61 -99q-59 -37 -163 -37q-103 0 -163.5 37t-60.5 99q0 71 77 109q-31 22 -31 63q0 46 41 69q-71 45 -71 118q0 66 57 108q58 43 140 43q41 0 85 -15q139 4 170 4q33 0 33 -27q0 -28 -33 -28q-36 0 -94 3
q36 -38 36 -88q0 -66 -58 -109q-57 -42 -139 -42q-38 0 -77 11q-35 -12 -35 -47zM165 -133q45 -24 119 -24t119 24q45 23 45 60t-45 61q-46 23 -119 23t-119 -23q-45 -24 -45 -61t45 -60zM174 214q39 -27 99 -27q61 0 98 27q39 28 39 72t-39 71q-37 28 -98 28t-99 -28
q-38 -27 -38 -71q0 -43 38 -72zM390 490l-106 91l-106 -91q-10 -7 -19 -7q-19 0 -19 20q0 11 16 27l102 108q26 26 52 0l102 -108q16 -16 16 -27q0 -20 -19 -20q-9 0 -19 7z" />
    <glyph glyph-name="Gbreve" unicode="&#x11e;" 
d="M320 -14q-114 0 -181 81q-66 83 -66 219q0 139 64 219t178 80q50 0 97 -17.5t76 -43.5q21 -20 23 -36t-7.5 -23t-22.5 -7t-27 13q-62 57 -139 57q-85 0 -132 -65t-47 -177q0 -110 49 -177t135 -67q82 0 132 33v165q-3 0 -47 -2q-22 -1 -50 -1q-33 0 -33 29t33 29h124
q32 0 32 -32v-197q0 -26 -18 -36q-73 -44 -173 -44zM415 761q7 18 21 18q20 0 20 -24t-13 -47q-40 -73 -127 -73t-127 73q-13 23 -13 47t20 24q14 0 21 -18q27 -67 99 -67t99 67z" />
    <glyph glyph-name="gbreve" unicode="&#x11f;" 
d="M161 99q0 -33 30 -46q43 10 93 10q104 0 163 -37q61 -37 61 -99t-61 -99q-59 -37 -163 -37q-103 0 -163.5 37t-60.5 99q0 71 77 109q-31 22 -31 63q0 46 41 69q-71 45 -71 118q0 66 57 108q58 43 140 43q41 0 85 -15q139 4 170 4q33 0 33 -27q0 -28 -33 -28q-36 0 -94 3
q36 -38 36 -88q0 -66 -58 -109q-57 -42 -139 -42q-38 0 -77 11q-35 -12 -35 -47zM165 -133q45 -24 119 -24t119 24q45 23 45 60t-45 61q-46 23 -119 23t-119 -23q-45 -24 -45 -61t45 -60zM174 214q39 -27 99 -27q61 0 98 27q39 28 39 72t-39 71q-37 28 -98 28t-99 -28
q-38 -27 -38 -71q0 -43 38 -72zM383 616q7 18 21 18q20 0 20 -24t-13 -47q-40 -73 -127 -73t-127 73q-13 23 -13 47t20 24q14 0 21 -18q27 -67 99 -67t99 67z" />
    <glyph glyph-name="Gdotaccent" unicode="&#x120;" 
d="M320 -14q-114 0 -181 81q-66 83 -66 219q0 139 64 219t178 80q50 0 97 -17.5t76 -43.5q21 -20 23 -36t-7.5 -23t-22.5 -7t-27 13q-62 57 -139 57q-85 0 -132 -65t-47 -177q0 -110 49 -177t135 -67q82 0 132 33v165q-3 0 -47 -2q-22 -1 -50 -1q-33 0 -33 29t33 29h124
q32 0 32 -32v-197q0 -26 -18 -36q-73 -44 -173 -44zM365 664q-17 -15 -44 -15t-45 15q-17 15 -17 40t17 40q18 15 45 15t44 -15q18 -15 18 -40t-18 -40z" />
    <glyph glyph-name="gdotaccent" unicode="&#x121;" 
d="M161 99q0 -33 30 -46q43 10 93 10q104 0 163 -37q61 -37 61 -99t-61 -99q-59 -37 -163 -37q-103 0 -163.5 37t-60.5 99q0 71 77 109q-31 22 -31 63q0 46 41 69q-71 45 -71 118q0 66 57 108q58 43 140 43q41 0 85 -15q139 4 170 4q33 0 33 -27q0 -28 -33 -28q-36 0 -94 3
q36 -38 36 -88q0 -66 -58 -109q-57 -42 -139 -42q-38 0 -77 11q-35 -12 -35 -47zM165 -133q45 -24 119 -24t119 24q45 23 45 60t-45 61q-46 23 -119 23t-119 -23q-45 -24 -45 -61t45 -60zM174 214q39 -27 99 -27q61 0 98 27q39 28 39 72t-39 71q-37 28 -98 28t-99 -28
q-38 -27 -38 -71q0 -43 38 -72zM328 519q-17 -15 -44 -15t-45 15q-17 15 -17 40t17 40q18 15 45 15t44 -15q18 -15 18 -40t-18 -40z" />
    <glyph glyph-name="Gcommaaccent" unicode="&#x122;" 
d="M320 -14q-114 0 -181 81q-66 83 -66 219q0 139 64 219t178 80q50 0 97 -17.5t76 -43.5q21 -20 23 -36t-7.5 -23t-22.5 -7t-27 13q-62 57 -139 57q-85 0 -132 -65t-47 -177q0 -110 49 -177t135 -67q82 0 132 33v165q-3 0 -47 -2q-22 -1 -50 -1q-33 0 -33 29t33 29h124
q32 0 32 -32v-197q0 -26 -18 -36q-73 -44 -173 -44zM283 -302q-11 -7 -20 -7q-5 0 -9 4.5t-4 9.5q0 9 12 18q27 19 41.5 46t10.5 50q-31 -8 -52.5 7.5t-21.5 43.5q0 22 15.5 36.5t38.5 14.5q65 0 65 -79q0 -45 -21.5 -85t-54.5 -59z" />
    <glyph glyph-name="gcommaaccent" unicode="&#x123;" 
d="M161 99q0 -33 30 -46q43 10 93 10q104 0 163 -37q61 -37 61 -99t-61 -99q-59 -37 -163 -37q-103 0 -163.5 37t-60.5 99q0 71 77 109q-31 22 -31 63q0 46 41 69q-71 45 -71 118q0 66 57 108q58 43 140 43q41 0 85 -15q139 4 170 4q33 0 33 -27q0 -28 -33 -28q-36 0 -94 3
q36 -38 36 -88q0 -66 -58 -109q-57 -42 -139 -42q-38 0 -77 11q-35 -12 -35 -47zM165 -133q45 -24 119 -24t119 24q45 23 45 60t-45 61q-46 23 -119 23t-119 -23q-45 -24 -45 -61t45 -60zM174 214q39 -27 99 -27q61 0 98 27q39 28 39 72t-39 71q-37 28 -98 28t-99 -28
q-38 -27 -38 -71q0 -43 38 -72zM298 714q11 7 20 7q5 0 9 -4.5t4 -9.5q0 -9 -12 -18q-27 -19 -41.5 -46t-10.5 -50q31 8 52.5 -7.5t21.5 -43.5q0 -22 -15.5 -36.5t-38.5 -14.5q-65 0 -65 79q0 45 21.5 85t54.5 59z" />
    <glyph glyph-name="Hcircumflex" unicode="&#x124;" 
d="M134 -14q-30 0 -30 34v531q0 34 30 34q31 0 31 -34v-228h270v228q0 34 30 34q31 0 31 -34v-531q0 -34 -31 -34q-30 0 -30 34v247h-270v-247q0 -34 -31 -34zM405 635l-106 91l-106 -91q-10 -7 -19 -7q-19 0 -19 20q0 11 16 27l102 108q26 26 52 0l102 -108q16 -16 16 -27
q0 -20 -19 -20q-9 0 -19 7z" />
    <glyph glyph-name="hcircumflex" unicode="&#x125;" 
d="M184 243v-222q0 -32 -30 -32q-13 0 -21 8.5t-8 23.5v607q0 32 30 32q13 0 21 -8.5t8 -23.5v-252q42 61 136 61q78 0 122 -46.5t44 -133.5v-236q0 -32 -30 -32q-13 0 -21 8.5t-8 23.5v223q0 69 -31 103.5t-86 34.5q-59 0 -92.5 -34.5t-33.5 -104.5zM260 674l-106 91
l-106 -91q-10 -7 -19 -7q-19 0 -19 20q0 11 16 27l102 108q26 26 52 0l102 -108q16 -16 16 -27q0 -20 -19 -20q-9 0 -19 7z" />
    <glyph glyph-name="Hbar" unicode="&#x126;" 
d="M134 -14q-30 0 -30 34v398h-29q-31 0 -31 26t31 26h29v81q0 34 30 34q31 0 31 -34v-81h270v81q0 34 30 34q31 0 31 -34v-81h29q31 0 31 -26t-31 -26h-29v-398q0 -34 -31 -34q-30 0 -30 34v247h-270v-247q0 -34 -31 -34zM165 418v-95h270v95h-270z" />
    <glyph glyph-name="hbar" unicode="&#x127;" 
d="M89 555h36v73q0 32 30 32q13 0 21 -8.5t8 -23.5v-73h106q29 0 29 -25t-29 -25h-106v-129q42 61 136 61q78 0 122 -46.5t44 -133.5v-236q0 -32 -30 -32q-13 0 -21 8.5t-8 23.5v223q0 69 -31 103.5t-86 34.5q-59 0 -92.5 -34.5t-33.5 -104.5v-222q0 -32 -30 -32
q-13 0 -21 8.5t-8 23.5v484h-36q-29 0 -29 25t29 25z" />
    <glyph glyph-name="Itilde" unicode="&#x128;" 
d="M268 54v463q-121 -4 -137 -4q-33 0 -33 29t33 29h335q33 0 33 -29t-33 -29h-39l-56 2q-8 0 -18 0.5t-15.5 1t-8.5 0.5v-463q21 0 42 1q41 3 95 3q33 0 33 -29t-33 -29h-335q-33 0 -33 29t33 29q16 0 137 -4zM368 647q-24 0 -74 30q-49 31 -61 31q-21 0 -36 -38
q-7 -19 -21 -19q-21 0 -21 22q0 33 21 62q23 29 54 29q25 0 74 -31q50 -30 61 -30q21 0 36 38q7 19 21 19q21 0 21 -22q0 -35 -22 -63q-21 -28 -53 -28z" />
    <glyph glyph-name="itilde" unicode="&#x129;" 
d="M477 55q33 0 33 -27q0 -28 -33 -28h-355q-33 0 -33 28q0 27 33 27q27 0 170 -4v324q-121 -4 -160 -4q-33 0 -33 28q0 27 33 27h187q32 0 32 -32v-343q107 4 126 4zM392 502q-24 0 -74 30q-49 31 -61 31q-21 0 -36 -38q-7 -19 -21 -19q-21 0 -21 22q0 34 21 62
q23 29 54 29q25 0 74 -31q49 -30 61 -30q21 0 36 38q7 19 21 19q21 0 21 -22q0 -35 -22 -63q-21 -28 -53 -28z" />
    <glyph glyph-name="Imacron" unicode="&#x12a;" 
d="M268 54v463q-121 -4 -137 -4q-33 0 -33 29t33 29h335q33 0 33 -29t-33 -29h-39l-56 2q-8 0 -18 0.5t-15.5 1t-8.5 0.5v-463q21 0 42 1q41 3 95 3q33 0 33 -29t-33 -29h-335q-33 0 -33 29t33 29q16 0 137 -4zM186 730h221q34 0 34 -28q0 -30 -34 -30h-221q-34 0 -34 30
q0 28 34 28z" />
    <glyph glyph-name="imacron" unicode="&#x12b;" 
d="M477 55q33 0 33 -27q0 -28 -33 -28h-355q-33 0 -33 28q0 27 33 27q27 0 170 -4v324q-121 -4 -160 -4q-33 0 -33 28q0 27 33 27h187q32 0 32 -32v-343q107 4 126 4zM210 585h221q34 0 34 -28q0 -30 -34 -30h-221q-34 0 -34 30q0 28 34 28z" />
    <glyph glyph-name="Ibreve" unicode="&#x12c;" 
d="M268 54v463q-121 -4 -137 -4q-33 0 -33 29t33 29h335q33 0 33 -29t-33 -29h-39l-56 2q-8 0 -18 0.5t-15.5 1t-8.5 0.5v-463q21 0 42 1q41 3 95 3q33 0 33 -29t-33 -29h-335q-33 0 -33 29t33 29q16 0 137 -4zM394 761q8 18 21 18q20 0 20 -24t-13 -47q-40 -73 -127 -73
t-127 73q-13 23 -13 47t20 24q13 0 21 -18q27 -67 99 -67t99 67z" />
    <glyph glyph-name="ibreve" unicode="&#x12d;" 
d="M477 55q33 0 33 -27q0 -28 -33 -28h-355q-33 0 -33 28q0 27 33 27q27 0 170 -4v324q-121 -4 -160 -4q-33 0 -33 28q0 27 33 27h187q32 0 32 -32v-343q107 4 126 4zM418 616q8 18 21 18q20 0 20 -24t-13 -47q-40 -73 -127 -73t-127 73q-13 23 -13 47t20 24q13 0 21 -18
q27 -67 99 -67t99 67z" />
    <glyph glyph-name="Iogonek" unicode="&#x12e;" 
d="M268 54v463q-117 -4 -137 -4q-33 0 -33 29t33 29h335q33 0 33 -29t-33 -29q-20 0 -137 4v-463q81 4 137 4q33 0 33 -29t-33 -29h-145q-45 -34 -45 -73t45 -39q9 0 29.5 6t24.5 6q24 0 24 -23q0 -18 -23 -29t-57 -11q-42 0 -67.5 21.5t-25.5 57.5q0 49 47 84h-142
q-33 0 -33 29t33 29q56 0 137 -4z" />
    <glyph glyph-name="iogonek" unicode="&#x12f;" 
d="M477 55q33 0 33 -27q0 -28 -33 -28h-145q-45 -34 -45 -73t45 -39q9 0 29.5 6t24.5 6q24 0 24 -23q0 -18 -23 -29t-57 -11q-42 0 -67.5 21.5t-25.5 57.5q0 49 47 84h-162q-33 0 -33 28q0 27 33 27q53 0 170 -4v324q-117 -4 -160 -4q-33 0 -33 28q0 27 33 27h187
q32 0 32 -32v-343q13 0 65.5 2t60.5 2zM363 537q-17 -15 -44 -15t-45 15q-17 15 -17 40t17 40q18 15 45 15t44 -15q18 -15 18 -40t-18 -40z" />
    <glyph glyph-name="Idot" unicode="&#x130;" 
d="M268 54v463q-121 -4 -137 -4q-33 0 -33 29t33 29h335q33 0 33 -29t-33 -29h-39l-56 2q-8 0 -18 0.5t-15.5 1t-8.5 0.5v-463q21 0 42 1q41 3 95 3q33 0 33 -29t-33 -29h-335q-33 0 -33 29t33 29q16 0 137 -4zM344 664q-17 -15 -44 -15t-45 15q-17 15 -17 40t17 40
q18 15 45 15t44 -15q18 -15 18 -40t-18 -40z" />
    <glyph glyph-name="dotlessi" unicode="&#x131;" 
d="M477 55q33 0 33 -27q0 -28 -33 -28h-355q-33 0 -33 28q0 27 33 27q27 0 170 -4v324q-121 -4 -160 -4q-33 0 -33 28q0 27 33 27h187q32 0 32 -32v-343q107 4 126 4z" />
    <glyph glyph-name="IJ" unicode="&#x132;" 
d="M300 -14q-93 0 -142.5 57.5t-49.5 165.5q0 34 30 34q31 0 31 -34q0 -166 131 -166q132 0 132 162v346q0 34 30 34q31 0 31 -34v-346q0 -103 -50.5 -161t-142.5 -58zM138 333q-30 0 -30 34v184q0 34 30 34q31 0 31 -34v-184q0 -34 -31 -34z" />
    <glyph glyph-name="ij" unicode="&#x133;" 
d="M204 537q-17 -15 -44 -15t-45 15q-17 15 -17 40t17 40q18 15 45 15t44 -15q18 -15 18 -40t-18 -40zM476 537q-17 -15 -44 -15t-45 15q-17 15 -17 40t17 40q18 15 45 15t44 -15q18 -15 18 -40t-18 -40zM133 21v384q0 15 8 23.5t21 8.5q30 0 30 -32v-384q0 -32 -30 -32
q-13 0 -21 8.5t-8 23.5zM404 -4v409q0 15 8 23.5t21 8.5q30 0 30 -32v-412q0 -100 -47 -151t-135 -51q-58 0 -103 17q-27 10 -27 32q0 11 8 18.5t20 7.5q8 0 29 -7q42 -13 74 -13q65 0 93.5 37t28.5 113z" />
    <glyph glyph-name="Jcircumflex" unicode="&#x134;" 
d="M77 221q0 42 32 42q30 0 30 -40q0 -89 37 -134.5t107 -45.5q69 0 106 43.5t37 121.5v343q0 34 30 34q31 0 31 -34v-343q0 -105 -53 -163.5t-151 -58.5q-99 0 -152.5 60.5t-53.5 174.5zM561 635l-106 91l-106 -91q-10 -7 -19 -7q-19 0 -19 20q0 11 16 27l102 108
q26 26 52 0l102 -108q16 -16 16 -27q0 -20 -19 -20q-9 0 -19 7z" />
    <glyph glyph-name="jcircumflex" unicode="&#x135;" 
d="M142 426h227q32 0 32 -32v-401q0 -100 -47 -151t-135 -51q-60 0 -103 17q-27 10 -27 32q0 11 8 18.5t20 7.5q8 0 29 -7q42 -13 74 -13q65 0 93.5 37t28.5 113v379q-143 -4 -200 -4q-33 0 -33 28q0 27 33 27zM477 490l-106 91l-106 -91q-10 -7 -19 -7q-19 0 -19 20
q0 11 16 27l102 108q26 26 52 0l102 -108q16 -16 16 -27q0 -20 -19 -20q-9 0 -19 7z" />
    <glyph glyph-name="Kcommaaccent" unicode="&#x136;" 
d="M509 -14q-16 0 -34 24l-212 280l-83 -84v-186q0 -34 -31 -34q-30 0 -30 34v531q0 34 30 34q31 0 31 -34v-271l266 283q19 22 38 22q12 0 20 -7.5t8 -20.5t-17 -33l-191 -193l223 -286q13 -16 13 -31q0 -11 -9 -19.5t-22 -8.5zM309 -302q-11 -7 -20 -7q-5 0 -9 4.5t-4 9.5
q0 9 12 18q27 19 41.5 46t10.5 50q-31 -8 -52.5 7.5t-21.5 43.5q0 22 15.5 36.5t38.5 14.5q65 0 65 -79q0 -45 -21.5 -85t-54.5 -59z" />
    <glyph glyph-name="kcommaaccent" unicode="&#x137;" 
d="M498 -11q-17 0 -31 17l-182 215l-101 -75v-125q0 -32 -30 -32q-13 0 -21 8.5t-8 23.5v607q0 32 30 32q13 0 21 -8.5t8 -23.5v-415l272 206q40 29 56 10q21 -31 -18 -56l-161 -117l176 -205q22 -30 16 -46t-27 -16zM289 -302q-11 -7 -20 -7q-5 0 -9 4.5t-4 9.5q0 9 12 18
q27 19 41.5 46t10.5 50q-31 -8 -52.5 7.5t-21.5 43.5q0 22 15.5 36.5t38.5 14.5q65 0 65 -79q0 -45 -21.5 -85t-54.5 -59z" />
    <glyph glyph-name="kgreenlandic" unicode="&#x138;" 
d="M498 -11q-17 0 -31 17l-182 215l-101 -75v-125q0 -32 -30 -32q-13 0 -21 8.5t-8 23.5v384q0 32 30 32q13 0 21 -8.5t8 -23.5v-192l272 206q40 29 56 10q21 -31 -18 -56l-161 -117l176 -205q22 -30 16 -46t-27 -16z" />
    <glyph glyph-name="Lacute" unicode="&#x139;" 
d="M119 32v519q0 34 30 34q31 0 31 -34v-497q249 4 300 4q33 0 33 -29t-33 -29h-329q-32 0 -32 32zM250 750l-122 -103q-13 -10 -23 -10q-8 0 -14 6t-6 14q0 11 12 25l103 115q13 16 32 16q14 0 24 -9.5t10 -23.5q0 -17 -16 -30z" />
    <glyph glyph-name="lacute" unicode="&#x13a;" 
d="M274 51v548q-3 0 -9.5 -0.5t-18.5 -1t-22 -0.5q-20 0 -46 -0.5t-39 -1t-17 -0.5q-33 0 -33 28q0 27 33 27h179q32 0 32 -32v-567q132 4 156 4q33 0 33 -27q0 -28 -33 -28h-377q-33 0 -33 28q0 27 33 27q51 0 162 -4zM400 829l-122 -103q-13 -10 -23 -10q-8 0 -14 6t-6 14
q0 12 12 25l103 115q13 16 32 16q14 0 24 -9.5t10 -23.5q0 -17 -16 -30z" />
    <glyph glyph-name="Lcommaaccent" unicode="&#x13b;" 
d="M119 32v519q0 34 30 34q31 0 31 -34v-497q249 4 300 4q33 0 33 -29t-33 -29h-329q-32 0 -32 32zM298 -302q-11 -7 -20 -7q-5 0 -9 4.5t-4 9.5q0 9 12 18q27 19 41.5 46t10.5 50q-31 -8 -52.5 7.5t-21.5 43.5q0 22 15.5 36.5t38.5 14.5q65 0 65 -79q0 -45 -21.5 -85
t-54.5 -59z" />
    <glyph glyph-name="lcommaaccent" unicode="&#x13c;" 
d="M274 51v548q-3 0 -9.5 -0.5t-18.5 -1t-22 -0.5q-20 0 -46 -0.5t-39 -1t-17 -0.5q-33 0 -33 28q0 27 33 27h179q32 0 32 -32v-567q132 4 156 4q33 0 33 -27q0 -28 -33 -28h-377q-33 0 -33 28q0 27 33 27q51 0 162 -4zM274 -302q-11 -7 -20 -7q-5 0 -9 4.5t-4 9.5
q0 9 12 18q27 19 41.5 46t10.5 50q-31 -8 -52.5 7.5t-21.5 43.5q0 22 15.5 36.5t38.5 14.5q65 0 65 -79q0 -45 -21.5 -85t-54.5 -59z" />
    <glyph glyph-name="Lcaron" unicode="&#x13d;" 
d="M119 32v519q0 34 30 34q31 0 31 -34v-497q249 4 300 4q33 0 33 -29t-33 -29h-329q-32 0 -32 32zM451 535l-44 -143q-8 -26 -25 -26q-23 0 -23 24l1 2q0 2 0.5 6t0.5 8l23 143q3 15 12.5 24t21.5 9q16 0 26 -8.5t10 -22.5q0 -7 -3 -16z" />
    <glyph glyph-name="lcaron" unicode="&#x13e;" 
d="M269 51v548q-103 -4 -147 -4q-33 0 -33 28q0 27 33 27h174q32 0 32 -32v-567q121 4 146 4q33 0 33 -27q0 -28 -33 -28h-362q-33 0 -33 28q0 27 33 27q50 0 157 -4zM533 613l-44 -143q-8 -26 -25 -26q-23 0 -23 24l1 2q0 2 0.5 6t0.5 8l23 143q3 15 12.5 24t21.5 9
q16 0 26 -8.5t10 -22.5q0 -7 -3 -16z" />
    <glyph glyph-name="Ldot" unicode="&#x13f;" 
d="M119 32v519q0 34 30 34q31 0 31 -34v-497q249 4 300 4q33 0 33 -29t-33 -29h-329q-32 0 -32 32zM452 247q-17 -15 -44 -15t-45 15q-17 15 -17 40t17 40q18 15 45 15t44 -15q18 -15 18 -40t-18 -40z" />
    <glyph glyph-name="ldot" unicode="&#x140;" 
d="M244 51v548q-3 0 -9.5 -0.5t-18.5 -1t-22 -0.5q-20 0 -46 -0.5t-39 -1t-17 -0.5q-33 0 -33 28q0 27 33 27h179q32 0 32 -32v-567q132 4 156 4q33 0 33 -27q0 -28 -33 -28h-377q-33 0 -33 28q0 27 33 27q51 0 162 -4zM530 238q-17 -15 -44 -15t-45 15q-17 15 -17 40t17 40
q18 15 45 15t44 -15q18 -15 18 -40t-18 -40z" />
    <glyph glyph-name="Lslash" unicode="&#x141;" 
d="M480 0h-329q-32 0 -32 32v236l-51 -12q-14 -2 -15 -2q-26 0 -26 25q0 21 26 27l66 16v229q0 34 30 34q31 0 31 -34v-214l105 27q14 2 15 2q26 0 26 -25q0 -21 -26 -27l-120 -30v-230q213 4 300 4q33 0 33 -29t-33 -29z" />
    <glyph glyph-name="lslash" unicode="&#x142;" 
d="M274 51v226l-83 -20q-14 -2 -15 -2q-25 0 -25 24q0 19 25 26l98 24v270q-96 -4 -152 -4q-33 0 -33 28q0 27 33 27h179q32 0 32 -32v-274l76 19q3 0 6 0.5t5 1t3 0.5q27 0 27 -25q0 -17 -26 -25l-91 -23v-241l156 4q33 0 33 -27q0 -28 -33 -28h-377q-33 0 -33 28
q0 27 33 27q18 0 38 -1l69 -2q27 -1 55 -1z" />
    <glyph glyph-name="Nacute" unicode="&#x143;" 
d="M497 551v-530q0 -35 -27 -35q-20 0 -36 28l-270 436v-430q0 -34 -31 -34q-30 0 -30 34v530q0 35 27 35q20 0 36 -28l270 -437v431q0 34 31 34q30 0 30 -34zM401 750l-122 -103q-13 -10 -23 -10q-8 0 -14 6t-6 14q0 11 12 25l103 115q13 16 32 16q14 0 24 -9.5t10 -23.5
q0 -17 -16 -30z" />
    <glyph glyph-name="nacute" unicode="&#x144;" 
d="M456 -11q-13 0 -21 8.5t-8 23.5v223q0 69 -31 103.5t-86 34.5q-59 0 -92.5 -34.5t-33.5 -104.5v-222q0 -32 -30 -32q-13 0 -21 8.5t-8 23.5v384q0 32 30 32q13 0 21 -8.5t8 -23.5v-29q42 61 136 61q78 0 122 -46.5t44 -133.5v-236q0 -32 -30 -32zM407 605l-122 -103
q-13 -10 -23 -10q-8 0 -14 6t-6 14q0 12 12 25l103 115q13 16 32 16q14 0 24 -9.5t10 -23.5q0 -17 -16 -30z" />
    <glyph glyph-name="Ncommaaccent" unicode="&#x145;" 
d="M497 551v-530q0 -35 -27 -35q-20 0 -36 28l-270 436v-430q0 -34 -31 -34q-30 0 -30 34v530q0 35 27 35q20 0 36 -28l270 -437v431q0 34 31 34q30 0 30 -34zM284 -302q-11 -7 -20 -7q-5 0 -9 4.5t-4 9.5q0 9 12 18q27 19 41.5 46t10.5 50q-31 -8 -52.5 7.5t-21.5 43.5
q0 22 15.5 36.5t38.5 14.5q65 0 65 -79q0 -45 -21.5 -85t-54.5 -59z" />
    <glyph glyph-name="ncommaaccent" unicode="&#x146;" 
d="M456 -11q-13 0 -21 8.5t-8 23.5v223q0 69 -31 103.5t-86 34.5q-59 0 -92.5 -34.5t-33.5 -104.5v-222q0 -32 -30 -32q-13 0 -21 8.5t-8 23.5v384q0 32 30 32q13 0 21 -8.5t8 -23.5v-29q42 61 136 61q78 0 122 -46.5t44 -133.5v-236q0 -32 -30 -32zM289 -302q-11 -7 -20 -7
q-5 0 -9 4.5t-4 9.5q0 9 12 18q27 19 41.5 46t10.5 50q-31 -8 -52.5 7.5t-21.5 43.5q0 22 15.5 36.5t38.5 14.5q65 0 65 -79q0 -45 -21.5 -85t-54.5 -59z" />
    <glyph glyph-name="Ncaron" unicode="&#x147;" 
d="M497 551v-530q0 -35 -27 -35q-20 0 -36 28l-270 436v-430q0 -34 -31 -34q-30 0 -30 34v530q0 35 27 35q20 0 36 -28l270 -437v431q0 34 31 34q30 0 30 -34zM192 788l106 -91l106 91q10 7 19 7q19 0 19 -20q0 -11 -16 -27l-102 -108q-26 -26 -52 0l-102 108q-16 16 -16 27
q0 20 19 20q9 0 19 -7z" />
    <glyph glyph-name="ncaron" unicode="&#x148;" 
d="M456 -11q-13 0 -21 8.5t-8 23.5v223q0 69 -31 103.5t-86 34.5q-59 0 -92.5 -34.5t-33.5 -104.5v-222q0 -32 -30 -32q-13 0 -21 8.5t-8 23.5v384q0 32 30 32q13 0 21 -8.5t8 -23.5v-29q42 61 136 61q78 0 122 -46.5t44 -133.5v-236q0 -32 -30 -32zM198 643l106 -91l106 91
q10 7 19 7q19 0 19 -20q0 -11 -16 -27l-102 -108q-26 -26 -52 0l-102 108q-16 16 -16 27q0 20 19 20q9 0 19 -7z" />
    <glyph glyph-name="napostrophe" unicode="&#x149;" 
d="M456 -11q-13 0 -21 8.5t-8 23.5v223q0 69 -31 103.5t-86 34.5q-59 0 -92.5 -34.5t-33.5 -104.5v-222q0 -32 -30 -32q-13 0 -21 8.5t-8 23.5v384q0 32 30 32q13 0 21 -8.5t8 -23.5v-29q42 61 136 61q78 0 122 -46.5t44 -133.5v-236q0 -32 -30 -32zM125 509q-11 -7 -20 -7
q-5 0 -9 4.5t-4 9.5q0 9 12 18q27 19 41.5 46t10.5 50q-31 -8 -52.5 7.5t-21.5 43.5q0 22 15.5 36.5t38.5 14.5q65 0 65 -79q0 -45 -21.5 -85t-54.5 -59z" />
    <glyph glyph-name="Eng" unicode="&#x14a;" 
d="M313 -209q-60 0 -103 17q-27 10 -27 32q0 12 8 20t20 8q8 0 29 -7q42 -13 74 -13q65 0 93.5 36.5t28.5 111.5v14l-272 440v-430q0 -34 -31 -34q-30 0 -30 34v530q0 35 27 35q20 0 36 -28l270 -437v431q0 34 31 34q30 0 30 -34v-558q0 -100 -48 -151t-136 -51z" />
    <glyph glyph-name="eng" unicode="&#x14b;" 
d="M427 -4v248q0 69 -31 103.5t-86 34.5q-59 0 -92.5 -34.5t-33.5 -104.5v-222q0 -32 -30 -32q-13 0 -21 8.5t-8 23.5v384q0 32 30 32q13 0 21 -8.5t8 -23.5v-29q42 61 136 61q78 0 122 -46.5t44 -133.5v-264q0 -100 -47 -151t-135 -51q-58 0 -103 17q-27 10 -27 32
q0 11 8 18.5t20 7.5q8 0 29 -7q42 -13 74 -13q65 0 93.5 37t28.5 113z" />
    <glyph glyph-name="Omacron" unicode="&#x14c;" 
d="M181 111q44 -68 119 -68q74 0 118 68t44 175t-43 174q-44 68 -119 68t-119 -68q-43 -67 -43 -174q0 -108 43 -175zM75 286q0 130 59 215q58 84 166 84q107 0 166 -84q59 -85 59 -215q0 -131 -59 -216q-59 -84 -166 -84q-108 0 -166 84q-59 85 -59 216zM190 730h221
q34 0 34 -28q0 -30 -34 -30h-221q-34 0 -34 30q0 28 34 28z" />
    <glyph glyph-name="omacron" unicode="&#x14d;" 
d="M462 52q-64 -63 -162 -63q-97 0 -163 63q-65 65 -65 161q0 97 65 160q65 64 163 64t162 -64q66 -63 66 -160t-66 -161zM182 92q50 -48 118 -48q69 0 118 48t49 121t-49 121t-118 48q-68 0 -118 -48q-49 -48 -49 -121t49 -121zM190 585h221q34 0 34 -28q0 -30 -34 -30
h-221q-34 0 -34 30q0 28 34 28z" />
    <glyph glyph-name="Obreve" unicode="&#x14e;" 
d="M181 111q44 -68 119 -68q74 0 118 68t44 175t-43 174q-44 68 -119 68t-119 -68q-43 -67 -43 -174q0 -108 43 -175zM75 286q0 130 59 215q58 84 166 84q107 0 166 -84q59 -85 59 -215q0 -131 -59 -216q-59 -84 -166 -84q-108 0 -166 84q-59 85 -59 216zM399 761
q7 18 21 18q20 0 20 -24t-13 -47q-40 -73 -127 -73t-127 73q-13 23 -13 47t20 24q14 0 21 -18q27 -67 99 -67t99 67z" />
    <glyph glyph-name="obreve" unicode="&#x14f;" 
d="M462 52q-64 -63 -162 -63q-97 0 -163 63q-65 65 -65 161q0 97 65 160q65 64 163 64t162 -64q66 -63 66 -160t-66 -161zM182 92q50 -48 118 -48q69 0 118 48t49 121t-49 121t-118 48q-68 0 -118 -48q-49 -48 -49 -121t49 -121zM399 616q7 18 21 18q20 0 20 -24t-13 -47
q-40 -73 -127 -73t-127 73q-13 23 -13 47t20 24q14 0 21 -18q27 -67 99 -67t99 67z" />
    <glyph glyph-name="Ohungarumlaut" unicode="&#x150;" 
d="M181 111q44 -68 119 -68q74 0 118 68t44 175t-43 174q-44 68 -119 68t-119 -68q-43 -67 -43 -174q0 -108 43 -175zM75 286q0 130 59 215q58 84 166 84q107 0 166 -84q59 -85 59 -215q0 -131 -59 -216q-59 -84 -166 -84q-108 0 -166 84q-59 85 -59 216zM327 749l-95 -104
q-11 -11 -21 -11q-16 0 -20 11t10 37l77 115q10 16 27 16q15 0 25.5 -9t10.5 -23q0 -15 -14 -32zM498 749l-95 -104q-11 -11 -21 -11q-16 0 -20 11t10 37l77 115q10 16 27 16q15 0 25.5 -9t10.5 -23q0 -15 -14 -32z" />
    <glyph glyph-name="ohungarumlaut" unicode="&#x151;" 
d="M462 52q-64 -63 -162 -63q-97 0 -163 63q-65 65 -65 161q0 97 65 160q65 64 163 64t162 -64q66 -63 66 -160t-66 -161zM182 92q50 -48 118 -48q69 0 118 48t49 121t-49 121t-118 48q-68 0 -118 -48q-49 -48 -49 -121t49 -121zM327 604l-95 -104q-11 -11 -21 -11
q-16 0 -20 11t10 37l77 115q10 16 27 16q15 0 25.5 -9t10.5 -23q0 -15 -14 -32zM498 604l-95 -104q-11 -11 -21 -11q-16 0 -20 11t10 37l77 115q10 16 27 16q15 0 25.5 -9t10.5 -23q0 -15 -14 -32z" />
    <glyph glyph-name="OE" unicode="&#x152;" 
d="M547 58q33 0 33 -29t-33 -29h-270q-127 0 -193 78q-66 80 -66 207q0 129 66 207q66 79 193 79h270q33 0 33 -29t-33 -29q-44 0 -200 4v-200q32 0 54 1q16 0 38 0.5t33.5 1t16.5 0.5q33 0 33 -29t-33 -29h-32q-93 3 -110 3v-211q156 4 200 4zM286 56v459
q-104 0 -154.5 -61.5t-50.5 -168.5t50.5 -168t154.5 -61z" />
    <glyph glyph-name="oe" unicode="&#x153;" 
d="M432 -11q-92 0 -132 81q-39 -82 -128 -82q-76 0 -115.5 60t-39.5 164q0 105 39.5 165t115.5 60q88 0 129 -84q41 84 126 84q73 0 114 -54.5t41 -151.5q0 -32 -24 -32h-231q5 -155 105 -155q50 0 92 47q16 16 29 16q11 0 18.5 -7t7.5 -19q0 -15 -18 -36q-50 -56 -129 -56z
M427 382q-86 0 -98 -130h192q-7 130 -94 130zM173 382q-48 0 -74.5 -45.5t-26.5 -124.5q0 -169 101 -169q100 0 100 169q0 170 -100 170z" />
    <glyph glyph-name="Racute" unicode="&#x154;" 
d="M121 20v519q0 32 32 32h141q90 0 152 -42t62 -127q0 -67 -40 -108.5t-109 -54.5l135 -192q13 -19 13 -34q0 -12 -8 -19.5t-20 -7.5q-18 0 -36 26l-149 221h-112v-213q0 -34 -31 -34q-30 0 -30 34zM294 515h-112v-226h112q70 0 110.5 30t40.5 83t-40.5 83t-110.5 30z
M404 750l-122 -103q-13 -10 -23 -10q-8 0 -14 6t-6 14q0 11 12 25l103 115q13 16 32 16q14 0 24 -9.5t10 -23.5q0 -17 -16 -30z" />
    <glyph glyph-name="racute" unicode="&#x155;" 
d="M482 55q33 0 33 -27q0 -28 -33 -28h-358q-33 0 -33 28q0 27 33 27q5 0 59 -2q12 0 23.5 -0.5t17 -1t6.5 -0.5v324l-44 -2q-60 -2 -62 -2q-33 0 -33 28q0 27 33 27h133q32 0 32 -32v-29q17 34 54 53t81 19q63 0 101 -28q19 -13 19 -32q0 -12 -8 -20t-19 -8q-17 0 -39 13
q-34 20 -71 20q-53 0 -85.5 -42.5t-32.5 -110.5v-178q160 4 193 4zM402 605l-122 -103q-13 -10 -23 -10q-8 0 -14 6t-6 14q0 12 12 25l103 115q13 16 32 16q14 0 24 -9.5t10 -23.5q0 -17 -16 -30z" />
    <glyph glyph-name="Rcommaaccent" unicode="&#x156;" 
d="M121 20v519q0 32 32 32h141q90 0 152 -42t62 -127q0 -67 -40 -108.5t-109 -54.5l135 -192q13 -19 13 -34q0 -12 -8 -19.5t-20 -7.5q-18 0 -36 26l-149 221h-112v-213q0 -34 -31 -34q-30 0 -30 34zM294 515h-112v-226h112q70 0 110.5 30t40.5 83t-40.5 83t-110.5 30z
M287 -302q-11 -7 -20 -7q-5 0 -9 4.5t-4 9.5q0 9 12 18q27 19 41.5 46t10.5 50q-31 -8 -52.5 7.5t-21.5 43.5q0 22 15.5 36.5t38.5 14.5q65 0 65 -79q0 -45 -21.5 -85t-54.5 -59z" />
    <glyph glyph-name="rcommaaccent" unicode="&#x157;" 
d="M482 55q33 0 33 -27q0 -28 -33 -28h-358q-33 0 -33 28q0 27 33 27q5 0 59 -2q12 0 23.5 -0.5t17 -1t6.5 -0.5v324l-44 -2q-60 -2 -62 -2q-33 0 -33 28q0 27 33 27h133q32 0 32 -32v-29q17 34 54 53t81 19q63 0 101 -28q19 -13 19 -32q0 -12 -8 -20t-19 -8q-17 0 -39 13
q-34 20 -71 20q-53 0 -85.5 -42.5t-32.5 -110.5v-178q160 4 193 4zM265 -302q-11 -7 -20 -7q-5 0 -9 4.5t-4 9.5q0 9 12 18q27 19 41.5 46t10.5 50q-31 -8 -52.5 7.5t-21.5 43.5q0 22 15.5 36.5t38.5 14.5q65 0 65 -79q0 -45 -21.5 -85t-54.5 -59z" />
    <glyph glyph-name="Rcaron" unicode="&#x158;" 
d="M121 20v519q0 32 32 32h141q90 0 152 -42t62 -127q0 -67 -40 -108.5t-109 -54.5l135 -192q13 -19 13 -34q0 -12 -8 -19.5t-20 -7.5q-18 0 -36 26l-149 221h-112v-213q0 -34 -31 -34q-30 0 -30 34zM294 515h-112v-226h112q70 0 110.5 30t40.5 83t-40.5 83t-110.5 30z
M197 788l106 -91l106 91q10 7 19 7q19 0 19 -20q0 -11 -16 -27l-102 -108q-26 -26 -52 0l-102 108q-16 16 -16 27q0 20 19 20q9 0 19 -7z" />
    <glyph glyph-name="rcaron" unicode="&#x159;" 
d="M482 55q33 0 33 -27q0 -28 -33 -28h-358q-33 0 -33 28q0 27 33 27q5 0 59 -2q12 0 23.5 -0.5t17 -1t6.5 -0.5v324l-44 -2q-60 -2 -62 -2q-33 0 -33 28q0 27 33 27h133q32 0 32 -32v-29q17 34 54 53t81 19q63 0 101 -28q19 -13 19 -32q0 -12 -8 -20t-19 -8q-17 0 -39 13
q-34 20 -71 20q-53 0 -85.5 -42.5t-32.5 -110.5v-178q160 4 193 4zM193 643l106 -91l106 91q10 7 19 7q19 0 19 -20q0 -11 -16 -27l-102 -108q-26 -26 -52 0l-102 108q-16 16 -16 27q0 20 19 20q9 0 19 -7z" />
    <glyph glyph-name="Sacute" unicode="&#x15a;" 
d="M297 -14q-105 0 -178 48q-22 15 -30 24t-8 23q0 11 8.5 19t19.5 8q14 0 49 -24q61 -41 138 -41q65 0 111 28t46 81q0 43 -36.5 67.5t-120.5 45.5q-109 27 -157 65t-48 106q0 66 56 107q57 42 140 42q112 0 182 -55q20 -15 20 -31q0 -21 -16.5 -27t-48.5 13
q-62 43 -138 43q-61 0 -96.5 -25.5t-35.5 -68.5q0 -42 35 -65.5t115 -43.5q113 -29 161 -64q51 -34 51 -107q0 -79 -62 -124q-62 -44 -157 -44zM389 750l-122 -103q-13 -10 -23 -10q-8 0 -14 6t-6 14q0 11 12 25l103 115q13 16 32 16q14 0 24 -9.5t10 -23.5q0 -17 -16 -30z
" />
    <glyph glyph-name="sacute" unicode="&#x15b;" 
d="M311 -11q-104 0 -183 43q-31 16 -31 38q0 12 8 20t20 8q8 0 15 -2.5t17.5 -9t15.5 -9.5q61 -34 138 -34q64 0 99 20t35 53t-31 48.5t-113 27.5q-98 13 -143.5 41t-45.5 84q0 62 52 90q52 30 129 30q88 0 160 -35q22 -10 22 -30q0 -12 -8 -20t-20 -8q-11 0 -31 9
q-66 30 -125 30q-55 0 -87.5 -17.5t-32.5 -47.5t33.5 -46t108.5 -26q106 -16 148.5 -42.5t42.5 -83.5q0 -62 -52.5 -96.5t-140.5 -34.5zM394 605l-122 -103q-13 -10 -23 -10q-8 0 -14 6t-6 14q0 12 12 25l103 115q13 16 32 16q14 0 24 -9.5t10 -23.5q0 -17 -16 -30z" />
    <glyph glyph-name="Scircumflex" unicode="&#x15c;" 
d="M297 -14q-105 0 -178 48q-22 15 -30 24t-8 23q0 11 8.5 19t19.5 8q14 0 49 -24q61 -41 138 -41q65 0 111 28t46 81q0 43 -36.5 67.5t-120.5 45.5q-109 27 -157 65t-48 106q0 66 56 107q57 42 140 42q112 0 182 -55q20 -15 20 -31q0 -21 -16.5 -27t-48.5 13
q-62 43 -138 43q-61 0 -96.5 -25.5t-35.5 -68.5q0 -42 35 -65.5t115 -43.5q113 -29 161 -64q51 -34 51 -107q0 -79 -62 -124q-62 -44 -157 -44zM394 635l-106 91l-106 -91q-10 -7 -19 -7q-19 0 -19 20q0 11 16 27l102 108q26 26 52 0l102 -108q16 -16 16 -27q0 -20 -19 -20
q-9 0 -19 7z" />
    <glyph glyph-name="scircumflex" unicode="&#x15d;" 
d="M311 -11q-104 0 -183 43q-31 16 -31 38q0 12 8 20t20 8q8 0 15 -2.5t17.5 -9t15.5 -9.5q61 -34 138 -34q64 0 99 20t35 53t-31 48.5t-113 27.5q-98 13 -143.5 41t-45.5 84q0 62 52 90q52 30 129 30q88 0 160 -35q22 -10 22 -30q0 -12 -8 -20t-20 -8q-11 0 -31 9
q-66 30 -125 30q-55 0 -87.5 -17.5t-32.5 -47.5t33.5 -46t108.5 -26q106 -16 148.5 -42.5t42.5 -83.5q0 -62 -52.5 -96.5t-140.5 -34.5zM399 490l-106 91l-106 -91q-10 -7 -19 -7q-19 0 -19 20q0 11 16 27l102 108q26 26 52 0l102 -108q16 -16 16 -27q0 -20 -19 -20
q-9 0 -19 7z" />
    <glyph glyph-name="Scedilla" unicode="&#x15e;" 
d="M516 154q0 -69 -49 -113t-131 -53q35 -29 35 -72q0 -36 -25.5 -57.5t-67.5 -21.5q-34 0 -57 11t-23 29q0 23 24 23q4 0 24.5 -6t29.5 -6q45 0 45 41q0 46 -44 54q-109 18 -158 51q-22 15 -30 24t-8 23q0 11 8.5 19t19.5 8q14 0 49 -24q61 -41 138 -41q65 0 111 28t46 81
q0 43 -36.5 67.5t-120.5 45.5q-109 27 -157 65t-48 106q0 66 56 107q57 42 140 42q112 0 182 -55q20 -15 20 -31q0 -21 -16.5 -27t-48.5 13q-62 43 -138 43q-61 0 -96.5 -25.5t-35.5 -68.5q0 -42 35 -65.5t115 -43.5q113 -29 161 -64q51 -34 51 -107z" />
    <glyph glyph-name="scedilla" unicode="&#x15f;" 
d="M332 -10q40 -27 40 -74q0 -36 -25.5 -57.5t-67.5 -21.5q-34 0 -57 11t-23 29q0 23 24 23q4 0 24.5 -6t29.5 -6q45 0 45 39q0 50 -64 63q-90 20 -130 42q-31 16 -31 38q0 12 8 20t20 8q8 0 15 -2.5t17.5 -9t15.5 -9.5q61 -34 138 -34q64 0 99 20t35 53t-31 48.5t-113 27.5
q-98 13 -143.5 41t-45.5 84q0 62 52 90q52 30 129 30q88 0 160 -35q22 -10 22 -30q0 -12 -8 -20t-20 -8q-11 0 -31 9q-66 30 -125 30q-55 0 -87.5 -17.5t-32.5 -47.5t33.5 -46t108.5 -26q106 -16 148.5 -42.5t42.5 -83.5q0 -58 -46 -92t-126 -38z" />
    <glyph glyph-name="Scaron" unicode="&#x160;" 
d="M297 -14q-105 0 -178 48q-22 15 -30 24t-8 23q0 11 8.5 19t19.5 8q14 0 49 -24q61 -41 138 -41q65 0 111 28t46 81q0 43 -36.5 67.5t-120.5 45.5q-109 27 -157 65t-48 106q0 66 56 107q57 42 140 42q112 0 182 -55q20 -15 20 -31q0 -21 -16.5 -27t-48.5 13
q-62 43 -138 43q-61 0 -96.5 -25.5t-35.5 -68.5q0 -42 35 -65.5t115 -43.5q113 -29 161 -64q51 -34 51 -107q0 -79 -62 -124q-62 -44 -157 -44zM183 788l106 -91l106 91q10 7 19 7q19 0 19 -20q0 -11 -16 -27l-102 -108q-26 -26 -52 0l-102 108q-16 16 -16 27q0 20 19 20
q9 0 19 -7z" />
    <glyph glyph-name="scaron" unicode="&#x161;" 
d="M311 -11q-104 0 -183 43q-31 16 -31 38q0 12 8 20t20 8q8 0 15 -2.5t17.5 -9t15.5 -9.5q61 -34 138 -34q64 0 99 20t35 53t-31 48.5t-113 27.5q-98 13 -143.5 41t-45.5 84q0 62 52 90q52 30 129 30q88 0 160 -35q22 -10 22 -30q0 -12 -8 -20t-20 -8q-11 0 -31 9
q-66 30 -125 30q-55 0 -87.5 -17.5t-32.5 -47.5t33.5 -46t108.5 -26q106 -16 148.5 -42.5t42.5 -83.5q0 -62 -52.5 -96.5t-140.5 -34.5zM187 643l106 -91l106 91q10 7 19 7q19 0 19 -20q0 -11 -16 -27l-102 -108q-26 -26 -52 0l-102 108q-16 16 -16 27q0 20 19 20q9 0 19 -7
z" />
    <glyph glyph-name="Tcommaaccent" unicode="&#x162;" 
d="M270 20v497q-135 -4 -182 -4q-33 0 -33 29t33 29h425q33 0 33 -29t-33 -29q-43 0 -182 4v-497q0 -34 -31 -34q-30 0 -30 34zM273 -302q-11 -7 -20 -7q-5 0 -9 4.5t-4 9.5q0 9 12 18q27 19 41.5 46t10.5 50q-31 -8 -52.5 7.5t-21.5 43.5q0 22 15.5 36.5t38.5 14.5
q65 0 65 -79q0 -45 -21.5 -85t-54.5 -59z" />
    <glyph glyph-name="tcommaaccent" unicode="&#x163;" 
d="M268 576v-150h197q33 0 33 -27q0 -28 -33 -28q-41 0 -197 4v-188q0 -75 25 -109t79 -34q40 0 70 13q33 13 44 13q25 0 25 -25q0 -21 -36 -38q-42 -18 -103 -18q-86 0 -124.5 47t-38.5 150v189q-10 0 -59 -2t-59 -2q-33 0 -33 28q0 27 33 27h118v150q0 32 30 32
q13 0 21 -8.5t8 -23.5zM314 -302q-11 -7 -20 -7q-5 0 -9 4.5t-4 9.5q0 9 12 18q27 19 41.5 46t10.5 50q-31 -8 -52.5 7.5t-21.5 43.5q0 22 15.5 36.5t38.5 14.5q65 0 65 -79q0 -45 -21.5 -85t-54.5 -59z" />
    <glyph glyph-name="Tcaron" unicode="&#x164;" 
d="M270 20v497q-135 -4 -182 -4q-33 0 -33 29t33 29h425q33 0 33 -29t-33 -29q-43 0 -182 4v-497q0 -34 -31 -34q-30 0 -30 34zM191 788l106 -91l106 91q10 7 19 7q19 0 19 -20q0 -11 -16 -27l-102 -108q-26 -26 -52 0l-102 108q-16 16 -16 27q0 20 19 20q9 0 19 -7z" />
    <glyph glyph-name="tcaron" unicode="&#x165;" 
d="M268 576v-150h197q33 0 33 -27q0 -28 -33 -28q-41 0 -197 4v-188q0 -75 25 -109t79 -34q40 0 70 13q33 13 44 13q25 0 25 -25q0 -21 -36 -38q-42 -18 -103 -18q-86 0 -124.5 47t-38.5 150v189q-10 0 -59 -2t-59 -2q-33 0 -33 28q0 27 33 27h118v150q0 32 30 32
q13 0 21 -8.5t8 -23.5zM451 663l-44 -143q-8 -26 -25 -26q-23 0 -23 24l1 2q0 2 0.5 6t0.5 8l23 143q3 15 12.5 24t21.5 9q16 0 26 -8.5t10 -22.5q0 -7 -3 -16z" />
    <glyph glyph-name="Tbar" unicode="&#x166;" 
d="M270 20v232h-104q-31 0 -31 26t31 26h104v213q-117 -4 -182 -4q-33 0 -33 29t33 29h425q33 0 33 -29t-33 -29q-69 0 -182 4v-213h105q31 0 31 -26t-31 -26h-105v-232q0 -34 -31 -34q-30 0 -30 34z" />
    <glyph glyph-name="tbar" unicode="&#x167;" 
d="M268 576v-150h197q33 0 33 -27q0 -28 -33 -28q-58 0 -197 4v-126h124q29 0 29 -24q0 -26 -29 -26h-124v-12q0 -75 25 -109t79 -34q40 0 70 13q33 13 44 13q25 0 25 -25q0 -21 -36 -38q-42 -18 -103 -18q-86 0 -124.5 47t-38.5 150v13h-90q-29 0 -29 26q0 24 29 24h90v126
q-1 0 -6.5 -0.5t-18.5 -1t-27 -0.5q-12 0 -28 -0.5t-24.5 -1t-13.5 -0.5q-33 0 -33 28q0 27 33 27h118v150q0 32 30 32q13 0 21 -8.5t8 -23.5z" />
    <glyph glyph-name="Utilde" unicode="&#x168;" 
d="M299 -14q-94 0 -143 57t-49 162v346q0 34 30 34q31 0 31 -34v-346q0 -162 131 -162q133 0 133 162v346q0 34 30 34q31 0 31 -34v-346q0 -105 -49.5 -162t-144.5 -57zM369 647q-25 0 -74 30q-49 31 -61 31q-21 0 -36 -38q-7 -19 -21 -19q-21 0 -21 22q0 33 21 62
q23 29 54 29q25 0 74 -31q50 -30 61 -30q21 0 36 38q7 19 21 19q21 0 21 -22q0 -35 -22 -63q-21 -28 -53 -28z" />
    <glyph glyph-name="utilde" unicode="&#x169;" 
d="M144 437q13 0 21 -8.5t8 -23.5v-220q0 -75 32 -108t94 -33q51 0 84 36t33 103v222q0 32 30 32q13 0 21 -8.5t8 -23.5v-384q0 -32 -30 -32q-13 0 -21 8.5t-8 23.5v29q-46 -61 -136 -61q-78 0 -122 46.5t-44 133.5v236q0 32 30 32zM364 502q-24 0 -74 30q-49 31 -61 31
q-21 0 -36 -38q-7 -19 -21 -19q-21 0 -21 22q0 34 21 62q23 29 54 29q25 0 74 -31q49 -30 61 -30q21 0 36 38q7 19 21 19q21 0 21 -22q0 -35 -22 -63q-21 -28 -53 -28z" />
    <glyph glyph-name="Umacron" unicode="&#x16a;" 
d="M299 -14q-94 0 -143 57t-49 162v346q0 34 30 34q31 0 31 -34v-346q0 -162 131 -162q133 0 133 162v346q0 34 30 34q31 0 31 -34v-346q0 -105 -49.5 -162t-144.5 -57zM190 730h221q34 0 34 -28q0 -30 -34 -30h-221q-34 0 -34 30q0 28 34 28z" />
    <glyph glyph-name="umacron" unicode="&#x16b;" 
d="M144 437q13 0 21 -8.5t8 -23.5v-220q0 -75 32 -108t94 -33q51 0 84 36t33 103v222q0 32 30 32q13 0 21 -8.5t8 -23.5v-384q0 -32 -30 -32q-13 0 -21 8.5t-8 23.5v29q-46 -61 -136 -61q-78 0 -122 46.5t-44 133.5v236q0 32 30 32zM182 585h221q34 0 34 -28q0 -30 -34 -30
h-221q-34 0 -34 30q0 28 34 28z" />
    <glyph glyph-name="Ubreve" unicode="&#x16c;" 
d="M299 -14q-94 0 -143 57t-49 162v346q0 34 30 34q31 0 31 -34v-346q0 -162 131 -162q133 0 133 162v346q0 34 30 34q31 0 31 -34v-346q0 -105 -49.5 -162t-144.5 -57zM399 761q7 18 21 18q20 0 20 -24t-13 -47q-40 -73 -127 -73t-127 73q-13 23 -13 47t20 24q14 0 21 -18
q27 -67 99 -67t99 67z" />
    <glyph glyph-name="ubreve" unicode="&#x16d;" 
d="M144 437q13 0 21 -8.5t8 -23.5v-220q0 -75 32 -108t94 -33q51 0 84 36t33 103v222q0 32 30 32q13 0 21 -8.5t8 -23.5v-384q0 -32 -30 -32q-13 0 -21 8.5t-8 23.5v29q-46 -61 -136 -61q-78 0 -122 46.5t-44 133.5v236q0 32 30 32zM390 616q8 18 21 18q20 0 20 -24t-13 -47
q-40 -73 -127 -73t-127 73q-13 23 -13 47t20 24q13 0 21 -18q27 -67 99 -67t99 67z" />
    <glyph glyph-name="Uring" unicode="&#x16e;" 
d="M299 -14q-94 0 -143 57t-49 162v346q0 34 30 34q31 0 31 -34v-346q0 -162 131 -162q133 0 133 162v346q0 34 30 34q31 0 31 -34v-346q0 -105 -49.5 -162t-144.5 -57zM375 780q30 -26 30 -71t-30 -72q-31 -26 -75 -26t-75 26q-30 27 -30 72t30 71q30 27 75 27t75 -27z
M339 670q16 16 16 39t-16 38q-16 16 -39 16t-39 -16q-16 -15 -16 -38t16 -39q16 -15 39 -15t39 15z" />
    <glyph glyph-name="uring" unicode="&#x16f;" 
d="M144 437q13 0 21 -8.5t8 -23.5v-220q0 -75 32 -108t94 -33q51 0 84 36t33 103v222q0 32 30 32q13 0 21 -8.5t8 -23.5v-384q0 -32 -30 -32q-13 0 -21 8.5t-8 23.5v29q-46 -61 -136 -61q-78 0 -122 46.5t-44 133.5v236q0 32 30 32zM371 635q30 -26 30 -71t-30 -72
q-31 -26 -75 -26t-75 26q-30 27 -30 72q0 46 30 71q30 27 75 27t75 -27zM335 525q16 16 16 39t-16 38q-16 16 -39 16t-39 -16q-16 -15 -16 -38t16 -39q16 -15 39 -15t39 15z" />
    <glyph glyph-name="Uhungarumlaut" unicode="&#x170;" 
d="M299 -14q-94 0 -143 57t-49 162v346q0 34 30 34q31 0 31 -34v-346q0 -162 131 -162q133 0 133 162v346q0 34 30 34q31 0 31 -34v-346q0 -105 -49.5 -162t-144.5 -57zM326 749l-95 -104q-11 -11 -21 -11q-16 0 -20 11t10 37l77 115q10 16 27 16q15 0 25.5 -9t10.5 -23
q0 -15 -14 -32zM497 749l-95 -104q-11 -11 -21 -11q-16 0 -20 11t10 37l77 115q10 16 27 16q15 0 25.5 -9t10.5 -23q0 -15 -14 -32z" />
    <glyph glyph-name="uhungarumlaut" unicode="&#x171;" 
d="M144 437q13 0 21 -8.5t8 -23.5v-220q0 -75 32 -108t94 -33q51 0 84 36t33 103v222q0 32 30 32q13 0 21 -8.5t8 -23.5v-384q0 -32 -30 -32q-13 0 -21 8.5t-8 23.5v29q-46 -61 -136 -61q-78 0 -122 46.5t-44 133.5v236q0 32 30 32zM322 604l-95 -104q-11 -11 -21 -11
q-16 0 -20 11t10 37l77 115q10 16 27 16q15 0 25.5 -9t10.5 -23q0 -15 -14 -32zM493 604l-95 -104q-11 -11 -21 -11q-16 0 -20 11t10 37l77 115q10 16 27 16q15 0 25.5 -9t10.5 -23q0 -15 -14 -32z" />
    <glyph glyph-name="Uogonek" unicode="&#x172;" 
d="M493 551v-346q0 -188 -160 -221q-19 -4 -33.5 -20.5t-14.5 -36.5q0 -39 45 -39q9 0 29.5 6t24.5 6q24 0 24 -23q0 -18 -23 -29t-57 -11q-42 0 -67.5 21.5t-25.5 57.5q0 46 43 71q-84 6 -127.5 63t-43.5 155v346q0 34 30 34q31 0 31 -34v-346q0 -162 131 -162
q133 0 133 162v346q0 34 30 34q31 0 31 -34z" />
    <glyph glyph-name="uogonek" unicode="&#x173;" 
d="M144 437q13 0 21 -8.5t8 -23.5v-220q0 -75 32 -108t94 -33q51 0 84 36t33 103v222q0 32 30 32q13 0 21 -8.5t8 -23.5v-384q0 -8 -1.5 -13.5t-5 -9.5t-6.5 -6t-10 -6.5t-11 -6.5q-31 -19 -31 -52q0 -39 45 -39q9 0 29.5 6t24.5 6q24 0 24 -23q0 -18 -23 -29t-57 -11
q-42 0 -67.5 21.5t-25.5 57.5q0 49 56 85v49q-46 -61 -136 -61q-78 0 -122 46.5t-44 133.5v236q0 32 30 32z" />
    <glyph glyph-name="Wcircumflex" unicode="&#x174;" 
d="M331 386l91 -273l76 431q8 41 33 41q28 0 28 -31q0 -2 -2 -24l-95 -515q-5 -29 -30 -29q-23 0 -33 25l-99 294l-99 -294q-10 -25 -33 -25q-25 0 -30 29l-95 515q-2 22 -2 24q0 31 28 31q25 0 33 -41l76 -431l91 273q10 27 31 27t31 -27zM406 635l-106 91l-106 -91
q-10 -7 -19 -7q-19 0 -19 20q0 11 16 27l102 108q26 26 52 0l102 -108q16 -16 16 -27q0 -20 -19 -20q-9 0 -19 7z" />
    <glyph glyph-name="wcircumflex" unicode="&#x175;" 
d="M338 295l82 -213l74 324q7 31 30 31q29 0 29 -31q0 -4 -6 -30l-85 -352q-5 -20 -13 -27.5t-22 -7.5q-21 0 -35 32l-92 232l-92 -232q-14 -32 -35 -32q-14 0 -22 7.5t-13 27.5l-85 352q-6 26 -6 30q0 31 29 31q23 0 30 -31l74 -324l82 213q13 35 38 35t38 -35zM405 490
l-106 91l-106 -91q-10 -7 -19 -7q-19 0 -19 20q0 11 16 27l102 108q26 26 52 0l102 -108q16 -16 16 -27q0 -20 -19 -20q-9 0 -19 7z" />
    <glyph glyph-name="Ycircumflex" unicode="&#x176;" 
d="M300 -14q-30 0 -30 34v188l-206 313q-13 19 -13 35q0 13 8.5 21t20.5 8q16 0 31 -22l190 -296l189 296q15 22 31 22q12 0 20.5 -8t8.5 -21q0 -16 -13 -35l-206 -313v-188q0 -34 -31 -34zM407 635l-106 91l-106 -91q-10 -7 -19 -7q-19 0 -19 20q0 11 16 27l102 108
q26 26 52 0l102 -108q16 -16 16 -27q0 -20 -19 -20q-9 0 -19 7z" />
    <glyph glyph-name="ycircumflex" unicode="&#x177;" 
d="M105 -209q-90 0 -90 39q0 41 61 22q20 -6 39 -6q45 0 77 24q23 17 46.5 52t35.5 66l-178 387q-12 26 -12 35q0 27 30 27q20 0 33 -30l158 -358l158 358q13 30 33 30q30 0 30 -27q0 -10 -12 -35l-177 -385q-47 -105 -99 -152q-50 -47 -133 -47zM410 490l-106 91l-106 -91
q-10 -7 -19 -7q-19 0 -19 20q0 11 16 27l102 108q26 26 52 0l102 -108q16 -16 16 -27q0 -20 -19 -20q-9 0 -19 7z" />
    <glyph glyph-name="Ydieresis" unicode="&#x178;" 
d="M300 -14q-30 0 -30 34v188l-206 313q-13 19 -13 35q0 13 8.5 21t20.5 8q16 0 31 -22l190 -296l189 296q15 22 31 22q12 0 20.5 -8t8.5 -21q0 -16 -13 -35l-206 -313v-188q0 -34 -31 -34zM250 663q-17 -14 -41 -14t-42 14q-17 15 -17 40t17 39q18 15 42 15t41 -15
q18 -14 18 -39t-18 -40zM435 663q-17 -14 -41 -14t-42 14q-17 15 -17 40t17 39q18 15 42 15t41 -15q18 -14 18 -39t-18 -40z" />
    <glyph glyph-name="Zacute" unicode="&#x179;" 
d="M492 0h-375q-14 0 -23 9t-9 21q0 15 19 41l334 446q-267 -4 -311 -4q-33 0 -33 29t33 29h361q13 0 22 -8.5t9 -21.5q0 -15 -19 -41l-334 -446q199 4 326 4q33 0 33 -29t-33 -29zM408 750l-122 -103q-13 -10 -23 -10q-8 0 -14 6t-6 14q0 11 12 25l103 115q13 16 32 16
q14 0 24 -9.5t10 -23.5q0 -17 -16 -30z" />
    <glyph glyph-name="zacute" unicode="&#x17a;" 
d="M473 55q33 0 33 -27q0 -28 -33 -28h-338q-35 0 -35 32q0 20 35 55l285 288q-156 -4 -282 -4q-33 0 -33 28q0 27 33 27h325q35 0 35 -32q0 -20 -35 -55l-285 -288q153 4 295 4zM405 605l-122 -103q-13 -10 -23 -10q-8 0 -14 6t-6 14q0 12 12 25l103 115q13 16 32 16
q14 0 24 -9.5t10 -23.5q0 -17 -16 -30z" />
    <glyph glyph-name="Zdotaccent" unicode="&#x17b;" 
d="M492 0h-375q-14 0 -23 9t-9 21q0 15 19 41l334 446q-267 -4 -311 -4q-33 0 -33 29t33 29h361q13 0 22 -8.5t9 -21.5q0 -15 -19 -41l-334 -446q199 4 326 4q33 0 33 -29t-33 -29zM351 664q-17 -15 -44 -15t-45 15q-17 15 -17 40t17 40q18 15 45 15t44 -15q18 -15 18 -40
t-18 -40z" />
    <glyph glyph-name="zdotaccent" unicode="&#x17c;" 
d="M473 55q33 0 33 -27q0 -28 -33 -28h-338q-35 0 -35 32q0 20 35 55l285 288q-156 -4 -282 -4q-33 0 -33 28q0 27 33 27h325q35 0 35 -32q0 -20 -35 -55l-285 -288q153 4 295 4zM348 519q-17 -15 -44 -15t-45 15q-17 15 -17 40t17 40q18 15 45 15t44 -15q18 -15 18 -40
t-18 -40z" />
    <glyph glyph-name="Zcaron" unicode="&#x17d;" 
d="M492 0h-375q-14 0 -23 9t-9 21q0 15 19 41l334 446q-267 -4 -311 -4q-33 0 -33 29t33 29h361q13 0 22 -8.5t9 -21.5q0 -15 -19 -41l-334 -446q199 4 326 4q33 0 33 -29t-33 -29zM201 788l106 -91l106 91q10 7 19 7q19 0 19 -20q0 -11 -16 -27l-102 -108q-26 -26 -52 0
l-102 108q-16 16 -16 27q0 20 19 20q9 0 19 -7z" />
    <glyph glyph-name="zcaron" unicode="&#x17e;" 
d="M473 55q33 0 33 -27q0 -28 -33 -28h-338q-35 0 -35 32q0 20 35 55l285 288q-156 -4 -282 -4q-33 0 -33 28q0 27 33 27h325q35 0 35 -32q0 -20 -35 -55l-285 -288q153 4 295 4zM198 643l106 -91l106 91q10 7 19 7q19 0 19 -20q0 -11 -16 -27l-102 -108q-26 -26 -52 0
l-102 108q-16 16 -16 27q0 20 19 20q9 0 19 -7z" />
    <glyph glyph-name="uni0180" unicode="&#x180;" 
d="M322 -11q-100 0 -143 70v-38q0 -32 -30 -32q-13 0 -21 8.5t-8 23.5v484h-36q-29 0 -29 25t29 25h36v73q0 32 30 32q13 0 21 -8.5t8 -23.5v-73h106q29 0 29 -25t-29 -25h-106v-138q46 70 143 70q92 0 147 -63q57 -62 57 -161t-57 -162q-56 -62 -147 -62zM213 90
q40 -46 106 -46q65 0 105 46q41 47 41 123q0 75 -41 122t-105 47q-65 0 -106 -47q-40 -46 -40 -122q0 -77 40 -123z" />
    <glyph glyph-name="Schwa" unicode="&#x18f;" 
d="M109 323h351q-8 94 -51 149.5t-110 55.5q-85 0 -142 -67q-14 -17 -32 -17q-12 0 -20.5 7.5t-8.5 19.5q0 14 11 28q75 86 192 86q108 0 166 -84q59 -85 59 -215q0 -131 -59 -216q-58 -84 -166 -84t-166 85t-58 223q0 29 34 29zM461 266h-323q5 -102 47.5 -162.5
t113.5 -60.5t114.5 61.5t47.5 161.5z" />
    <glyph glyph-name="florin" unicode="&#x192;" 
d="M278 -4v287q-68 -4 -117 -4q-33 0 -33 28q0 27 33 27h117v53q0 199 164 199q50 0 89 -13q29 -11 29 -32q0 -12 -8 -19t-20 -7q-7 0 -31 6q-36 10 -60 10q-54 0 -79 -34.5t-25 -109.5v-53h170q33 0 33 -27q0 -28 -33 -28q-63 0 -170 4v-290q0 -100 -47 -151t-135 -51
q-58 0 -103 17q-27 10 -27 32q0 11 8 18.5t20 7.5q8 0 29 -7q42 -13 74 -13q65 0 93.5 37t28.5 113z" />
    <glyph glyph-name="uni01A0" unicode="&#x1a0;" 
d="M75 286q0 130 59 215q58 84 166 84q56 0 96 -23q20 -11 42 -11q31 0 51 17.5t20 49.5q0 9 -5 28t-5 25q0 26 24 26q19 0 29 -16q13 -22 13 -55q0 -51 -30 -81t-79 -31q69 -84 69 -228q0 -131 -59 -216q-59 -84 -166 -84q-108 0 -166 84q-59 85 -59 216zM181 111
q44 -68 119 -68q74 0 118 68t44 175t-43 174q-44 68 -119 68t-119 -68q-43 -67 -43 -174q0 -108 43 -175z" />
    <glyph glyph-name="uni01A1" unicode="&#x1a1;" 
d="M514 518q0 26 24 26q19 0 29 -16q13 -22 13 -55q0 -50 -28.5 -80t-77.5 -32q54 -61 54 -148q0 -97 -66 -161q-64 -63 -162 -63q-97 0 -163 63q-65 65 -65 161q0 97 65 160q65 64 163 64q60 0 113 -28q17 -9 39 -9q32 0 52 16.5t20 48.5q0 9 -5 28t-5 25zM182 92
q50 -48 118 -48q69 0 118 48t49 121t-49 121t-118 48q-68 0 -118 -48q-49 -48 -49 -121t49 -121z" />
    <glyph glyph-name="uni01AF" unicode="&#x1af;" 
d="M300 -14q-94 0 -143 57t-49 162v346q0 34 30 34q31 0 31 -34v-346q0 -162 131 -162q133 0 133 162v346q0 33 27 34h28q32 0 52 16.5t20 48.5q0 9 -5 28t-5 25q0 26 24 26q19 0 29 -16q13 -22 13 -55q0 -54 -31.5 -83t-90.5 -29v-341q0 -105 -49.5 -162t-144.5 -57z" />
    <glyph glyph-name="uni01B0" unicode="&#x1b0;" 
d="M533 555q0 26 24 26q19 0 29 -16q13 -22 13 -55q0 -52 -30.5 -82t-81.5 -30h-12v-377q0 -32 -30 -32q-13 0 -21 8.5t-8 23.5v29q-46 -61 -136 -61q-78 0 -122 46.5t-44 133.5v236q0 32 30 32q13 0 21 -8.5t8 -23.5v-220q0 -75 32 -108t94 -33q51 0 84 36t33 103v222
q0 31 27 32h28q32 0 52 16.5t20 48.5q0 9 -5 28t-5 25z" />
    <glyph glyph-name="uni01CD" unicode="&#x1cd;" 
d="M138 -14q-31 0 -31 34v346q0 104 49 161.5t144 57.5t144 -57.5t49 -161.5v-346q0 -34 -31 -34q-30 0 -30 34v176h-264v-176q0 -34 -30 -34zM168 365v-114h264v114q0 164 -132 164t-132 -164zM194 784l106 -91l106 91q10 7 19 7q19 0 19 -20q0 -11 -16 -27l-102 -108
q-26 -26 -52 0l-102 108q-16 16 -16 27q0 20 19 20q9 0 19 -7z" />
    <glyph glyph-name="uni01CE" unicode="&#x1ce;" 
d="M278 -11q-80 0 -133 37q-53 38 -53 100q0 61 53 99q55 38 133 38q95 0 154 -42v37q0 58 -37.5 91t-105.5 33q-57 0 -106 -25q-31 -16 -41 -16q-13 0 -21 8t-8 21q0 19 31 35q59 32 145 32q201 0 201 -178v-238q0 -32 -29 -32q-13 0 -21 8.5t-8 23.5v10q-59 -42 -154 -42z
M192 64q39 -24 103 -24q65 0 102 24q39 25 39 62t-39 61q-37 25 -102 25t-103 -25q-38 -24 -38 -61t38 -62zM189 643l106 -91l106 91q10 7 19 7q19 0 19 -20q0 -11 -16 -27l-102 -108q-26 -26 -52 0l-102 108q-16 16 -16 27q0 20 19 20q9 0 19 -7z" />
    <glyph glyph-name="uni01CF" unicode="&#x1cf;" 
d="M268 54v463q-121 -4 -137 -4q-33 0 -33 29t33 29h335q33 0 33 -29t-33 -29h-39l-56 2q-8 0 -18 0.5t-15.5 1t-8.5 0.5v-463q21 0 42 1q41 3 95 3q33 0 33 -29t-33 -29h-335q-33 0 -33 29t33 29q16 0 137 -4zM193 784l106 -91l106 91q10 7 19 7q19 0 19 -20q0 -11 -16 -27
l-102 -108q-26 -26 -52 0l-102 108q-16 16 -16 27q0 20 19 20q9 0 19 -7z" />
    <glyph glyph-name="uni01D0" unicode="&#x1d0;" 
d="M477 55q33 0 33 -27q0 -28 -33 -28h-355q-33 0 -33 28q0 27 33 27q27 0 170 -4v324q-121 -4 -160 -4q-33 0 -33 28q0 27 33 27h187q32 0 32 -32v-343q107 4 126 4zM209 643l106 -91l106 91q10 7 19 7q19 0 19 -20q0 -11 -16 -27l-102 -108q-26 -26 -52 0l-102 108
q-16 16 -16 27q0 20 19 20q9 0 19 -7z" />
    <glyph glyph-name="uni01D1" unicode="&#x1d1;" 
d="M181 111q44 -68 119 -68q74 0 118 68t44 175t-43 174q-44 68 -119 68t-119 -68q-43 -67 -43 -174q0 -108 43 -175zM75 286q0 130 59 215q58 84 166 84q107 0 166 -84q59 -85 59 -215q0 -131 -59 -216q-59 -84 -166 -84q-108 0 -166 84q-59 85 -59 216zM194 784l106 -91
l106 91q10 7 19 7q19 0 19 -20q0 -11 -16 -27l-102 -108q-26 -26 -52 0l-102 108q-16 16 -16 27q0 20 19 20q9 0 19 -7z" />
    <glyph glyph-name="uni01D2" unicode="&#x1d2;" 
d="M462 52q-64 -63 -162 -63q-97 0 -163 63q-65 65 -65 161q0 97 65 160q65 64 163 64t162 -64q66 -63 66 -160t-66 -161zM182 92q50 -48 118 -48q69 0 118 48t49 121t-49 121t-118 48q-68 0 -118 -48q-49 -48 -49 -121t49 -121zM194 643l106 -91l106 91q10 7 19 7
q19 0 19 -20q0 -11 -16 -27l-102 -108q-26 -26 -52 0l-102 108q-16 16 -16 27q0 20 19 20q9 0 19 -7z" />
    <glyph glyph-name="uni01D3" unicode="&#x1d3;" 
d="M299 -14q-94 0 -143 57t-49 162v346q0 34 30 34q31 0 31 -34v-346q0 -162 131 -162q133 0 133 162v346q0 34 30 34q31 0 31 -34v-346q0 -105 -49.5 -162t-144.5 -57zM194 784l106 -91l106 91q10 7 19 7q19 0 19 -20q0 -11 -16 -27l-102 -108q-26 -26 -52 0l-102 108
q-16 16 -16 27q0 20 19 20q9 0 19 -7z" />
    <glyph glyph-name="uni01D4" unicode="&#x1d4;" 
d="M144 437q13 0 21 -8.5t8 -23.5v-220q0 -75 32 -108t94 -33q51 0 84 36t33 103v222q0 32 30 32q13 0 21 -8.5t8 -23.5v-384q0 -32 -30 -32q-13 0 -21 8.5t-8 23.5v29q-46 -61 -136 -61q-78 0 -122 46.5t-44 133.5v236q0 32 30 32zM189 643l106 -91l106 91q10 7 19 7
q19 0 19 -20q0 -11 -16 -27l-102 -108q-26 -26 -52 0l-102 108q-16 16 -16 27q0 20 19 20q9 0 19 -7z" />
    <glyph glyph-name="uni01D5" unicode="&#x1d5;" 
d="M299 -14q-94 0 -143 57t-49 162v346q0 34 30 34q31 0 31 -34v-346q0 -162 131 -162q133 0 133 162v346q0 34 30 34q31 0 31 -34v-346q0 -105 -49.5 -162t-144.5 -57zM249 633q-17 -14 -41 -14t-42 14q-17 15 -17 40t17 39q18 15 42 15t41 -15q18 -14 18 -39t-18 -40z
M434 633q-17 -14 -41 -14t-42 14q-17 15 -17 40t17 39q18 15 42 15t41 -15q18 -14 18 -39t-18 -40zM414 772h-226q-20 0 -28 14.5t0 29t28 14.5h226q20 0 28 -14.5t0 -29t-28 -14.5z" />
    <glyph glyph-name="uni01D6" unicode="&#x1d6;" 
d="M144 437q13 0 21 -8.5t8 -23.5v-220q0 -75 32 -108t94 -33q51 0 84 36t33 103v222q0 32 30 32q13 0 21 -8.5t8 -23.5v-384q0 -32 -30 -32q-13 0 -21 8.5t-8 23.5v29q-46 -61 -136 -61q-78 0 -122 46.5t-44 133.5v236q0 32 30 32zM245 508q-17 -14 -41 -14t-42 14
q-17 15 -17 40t17 39q18 15 42 15t41 -15q18 -14 18 -39t-18 -40zM429 508q-17 -14 -41 -14t-42 14q-17 15 -17 40t17 39q18 15 42 15t41 -15q18 -14 18 -39t-18 -40zM409 667h-226q-20 0 -28 14.5t0 29t28 14.5h226q20 0 28 -14.5t0 -29t-28 -14.5z" />
    <glyph glyph-name="uni01D7" unicode="&#x1d7;" 
d="M299 -14q-94 0 -143 57t-49 162v346q0 34 30 34q31 0 31 -34v-346q0 -162 131 -162q133 0 133 162v346q0 34 30 34q31 0 31 -34v-346q0 -105 -49.5 -162t-144.5 -57zM434 633q-17 -14 -41 -14t-42 14q-17 15 -17 40t17 39q18 15 42 15t41 -15q18 -14 18 -39t-18 -40z
M249 633q-17 -14 -41 -14t-42 14q-17 15 -17 40t17 39q18 15 42 15t41 -15q18 -14 18 -39t-18 -40zM426 828l-102 -83q-13 -10 -23 -10q-8 0 -14 6t-6 14q0 11 12 25l83 95q13 16 32 16q14 0 24 -9.5t10 -23.5q0 -17 -16 -30z" />
    <glyph glyph-name="uni01D8" unicode="&#x1d8;" 
d="M144 437q13 0 21 -8.5t8 -23.5v-220q0 -75 32 -108t94 -33q51 0 84 36t33 103v222q0 32 30 32q13 0 21 -8.5t8 -23.5v-384q0 -32 -30 -32q-13 0 -21 8.5t-8 23.5v29q-46 -61 -136 -61q-78 0 -122 46.5t-44 133.5v236q0 32 30 32zM245 508q-17 -14 -41 -14t-42 14
q-17 15 -17 40t17 39q18 15 42 15t41 -15q18 -14 18 -39t-18 -40zM429 508q-17 -14 -41 -14t-42 14q-17 15 -17 40t17 39q18 15 42 15t41 -15q18 -14 18 -39t-18 -40zM441 753l-122 -103q-13 -10 -23 -10q-8 0 -14 6t-6 14q0 11 12 25l103 115q13 16 31 16q16 0 25.5 -9
t9.5 -24q0 -17 -16 -30z" />
    <glyph glyph-name="uni01D9" unicode="&#x1d9;" 
d="M299 -14q-94 0 -143 57t-49 162v346q0 34 30 34q31 0 31 -34v-346q0 -162 131 -162q133 0 133 162v346q0 34 30 34q31 0 31 -34v-346q0 -105 -49.5 -162t-144.5 -57zM249 633q-17 -14 -41 -14t-42 14q-17 15 -17 40t17 39q18 15 42 15t41 -15q18 -14 18 -39t-18 -40z
M434 633q-17 -14 -41 -14t-42 14q-17 15 -17 40t17 39q18 15 42 15t41 -15q18 -14 18 -39t-18 -40zM191 883l111 -76l111 76q10 7 19 7q19 0 19 -20q0 -11 -16 -27l-108 -93q-25 -25 -50 0l-108 93q-16 16 -16 27q0 20 19 20q9 0 19 -7z" />
    <glyph glyph-name="uni01DA" unicode="&#x1da;" 
d="M144 437q13 0 21 -8.5t8 -23.5v-220q0 -75 32 -108t94 -33q51 0 84 36t33 103v222q0 32 30 32q13 0 21 -8.5t8 -23.5v-384q0 -32 -30 -32q-13 0 -21 8.5t-8 23.5v29q-46 -61 -136 -61q-78 0 -122 46.5t-44 133.5v236q0 32 30 32zM245 508q-17 -14 -41 -14t-42 14
q-17 15 -17 40t17 39q18 15 42 15t41 -15q18 -14 18 -39t-18 -40zM429 508q-17 -14 -41 -14t-42 14q-17 15 -17 40t17 39q18 15 42 15t41 -15q18 -14 18 -39t-18 -40zM185 808l111 -86l111 86q10 7 19 7q19 0 19 -20q0 -11 -16 -27l-108 -103q-25 -25 -50 0l-108 103
q-16 16 -16 27q0 20 19 20q9 0 19 -7z" />
    <glyph glyph-name="uni01DB" unicode="&#x1db;" 
d="M299 -14q-94 0 -143 57t-49 162v346q0 34 30 34q31 0 31 -34v-346q0 -162 131 -162q133 0 133 162v346q0 34 30 34q31 0 31 -34v-346q0 -105 -49.5 -162t-144.5 -57zM249 633q-17 -14 -41 -14t-42 14q-17 15 -17 40t17 39q18 15 42 15t41 -15q18 -14 18 -39t-18 -40z
M434 633q-17 -14 -41 -14t-42 14q-17 15 -17 40t17 39q18 15 42 15t41 -15q18 -14 18 -39t-18 -40zM277 745l-102 83q-16 13 -16 30q0 14 10 23.5t24 9.5q19 0 32 -16l83 -95q12 -14 12 -25q0 -8 -6 -14t-14 -6q-10 0 -23 10z" />
    <glyph glyph-name="uni01DC" unicode="&#x1dc;" 
d="M144 437q13 0 21 -8.5t8 -23.5v-220q0 -75 32 -108t94 -33q51 0 84 36t33 103v222q0 32 30 32q13 0 21 -8.5t8 -23.5v-384q0 -32 -30 -32q-13 0 -21 8.5t-8 23.5v29q-46 -61 -136 -61q-78 0 -122 46.5t-44 133.5v236q0 32 30 32zM245 508q-17 -14 -41 -14t-42 14
q-17 15 -17 40t17 39q18 15 42 15t41 -15q18 -14 18 -39t-18 -40zM429 508q-17 -14 -41 -14t-42 14q-17 15 -17 40t17 39q18 15 42 15t41 -15q18 -14 18 -39t-18 -40zM272 650l-122 103q-16 13 -16 30q0 15 9.5 24t25.5 9q18 0 31 -16l103 -115q12 -14 12 -25q0 -8 -6 -14
t-14 -6q-10 0 -23 10z" />
    <glyph glyph-name="uni01E6" unicode="&#x1e6;" 
d="M320 -14q-114 0 -181 81q-66 83 -66 219q0 139 64 219t178 80q50 0 97 -17.5t76 -43.5q21 -20 23 -36t-7.5 -23t-22.5 -7t-27 13q-62 57 -139 57q-85 0 -132 -65t-47 -177q0 -110 49 -177t135 -67q82 0 132 33v165q-3 0 -47 -2q-22 -1 -50 -1q-33 0 -33 29t33 29h124
q32 0 32 -32v-197q0 -26 -18 -36q-73 -44 -173 -44zM200 784l106 -91l106 91q10 7 19 7q19 0 19 -20q0 -11 -16 -27l-102 -108q-26 -26 -52 0l-102 108q-16 16 -16 27q0 20 19 20q9 0 19 -7z" />
    <glyph glyph-name="uni01E7" unicode="&#x1e7;" 
d="M161 99q0 -33 30 -46q43 10 93 10q104 0 163 -37q61 -37 61 -99t-61 -99q-59 -37 -163 -37q-103 0 -163.5 37t-60.5 99q0 71 77 109q-31 22 -31 63q0 46 41 69q-71 45 -71 118q0 66 57 108q58 43 140 43q41 0 85 -15q139 4 170 4q33 0 33 -27q0 -28 -33 -28q-36 0 -94 3
q36 -38 36 -88q0 -66 -58 -109q-57 -42 -139 -42q-38 0 -77 11q-35 -12 -35 -47zM165 -133q45 -24 119 -24t119 24q45 23 45 60t-45 61q-46 23 -119 23t-119 -23q-45 -24 -45 -61t45 -60zM174 214q39 -27 99 -27q61 0 98 27q39 28 39 72t-39 71q-37 28 -98 28t-99 -28
q-38 -27 -38 -71q0 -43 38 -72zM178 643l106 -91l106 91q10 7 19 7q19 0 19 -20q0 -11 -16 -27l-102 -108q-26 -26 -52 0l-102 108q-16 16 -16 27q0 20 19 20q9 0 19 -7z" />
    <glyph glyph-name="uni01EA" unicode="&#x1ea;" 
d="M181 111q44 -68 119 -68q74 0 118 68t44 175t-43 174q-44 68 -119 68t-119 -68q-43 -67 -43 -174q0 -108 43 -175zM278 -13q-98 9 -151 93q-52 83 -52 206q0 130 59 215q58 84 166 84q107 0 166 -84q59 -85 59 -215q0 -126 -51 -205t-144 -94q-18 -3 -31.5 -20.5
t-13.5 -39.5q0 -39 45 -39q9 0 29.5 6t24.5 6q24 0 24 -23q0 -18 -23 -29t-57 -11q-42 0 -67.5 21.5t-25.5 57.5q0 46 43 71z" />
    <glyph glyph-name="uni01EB" unicode="&#x1eb;" 
d="M298 -163q-42 0 -67.5 21.5t-25.5 57.5q0 53 44 79q-79 15 -128 75q-49 59 -49 143q0 97 65 160q65 64 163 64t162 -64q66 -63 66 -160q0 -93 -60 -155q-61 -62 -154 -71q-29 -3 -44 -18t-15 -37q0 -44 45 -44q9 0 29.5 6t23.5 6q25 0 25 -23q0 -18 -23 -29t-57 -11z
M182 92q50 -48 118 -48q69 0 118 48t49 121t-49 121t-118 48q-68 0 -118 -48q-49 -48 -49 -121t49 -121z" />
    <glyph glyph-name="uni01F8" unicode="&#x1f8;" 
d="M497 551v-530q0 -35 -27 -35q-20 0 -36 28l-270 436v-430q0 -34 -31 -34q-30 0 -30 34v530q0 35 27 35q20 0 36 -28l270 -437v431q0 34 31 34q30 0 30 -34zM321 647l-122 103q-16 13 -16 30q0 14 10 23.5t24 9.5q19 0 32 -16l103 -115q12 -14 12 -25q0 -8 -6 -14t-14 -6
q-10 0 -23 10z" />
    <glyph glyph-name="uni01F9" unicode="&#x1f9;" 
d="M456 -11q-13 0 -21 8.5t-8 23.5v223q0 69 -31 103.5t-86 34.5q-59 0 -92.5 -34.5t-33.5 -104.5v-222q0 -32 -30 -32q-13 0 -21 8.5t-8 23.5v384q0 32 30 32q13 0 21 -8.5t8 -23.5v-29q42 61 136 61q78 0 122 -46.5t44 -133.5v-236q0 -32 -30 -32zM306 502l-122 103
q-16 13 -16 30q0 15 9.5 24t25.5 9q18 0 31 -16l103 -115q12 -13 12 -25q0 -8 -6 -14t-14 -6q-10 0 -23 10z" />
    <glyph glyph-name="AEacute" unicode="&#x1fc;" 
d="M78 -14q-31 0 -31 34v333q0 104 49 161t144 57h307q33 0 33 -29t-33 -29q-44 0 -200 4v-199q102 3 142 3q33 0 33 -29t-33 -29q-40 0 -142 3v-212q121 4 200 4q33 0 33 -29t-33 -29h-231q-30 0 -30 34v162h-178v-176q0 -34 -30 -34zM108 352v-101h178v265h-46
q-132 0 -132 -164zM404 750l-122 -103q-13 -10 -23 -10q-8 0 -14 6t-6 14q0 11 12 25l103 115q13 16 32 16q14 0 24 -9.5t10 -23.5q0 -17 -16 -30z" />
    <glyph glyph-name="aeacute" unicode="&#x1fd;" 
d="M168 -11q-63 0 -106 37t-43 100q0 62 43 99q44 38 106 38q65 0 105 -32v27q0 124 -106 124q-36 0 -73 -20q-22 -13 -39 -13q-11 0 -18 7.5t-7 18.5q0 20 26 34q53 28 113 28q105 0 136 -75q42 75 122 75q73 0 114 -54.5t41 -151.5q0 -32 -24 -32h-231q5 -155 105 -155
q50 0 92 47q16 16 29 16q11 0 18.5 -7t7.5 -19q0 -15 -18 -36q-50 -56 -129 -56q-84 0 -124 67q-42 -67 -140 -67zM175 40q47 0 74 23.5t27 62.5t-27 62.5t-74 23.5q-44 0 -69.5 -23.5t-25.5 -62.5t25.5 -62.5t69.5 -23.5zM427 382q-86 0 -98 -130h192q-7 130 -94 130z
M407 605l-122 -103q-13 -10 -23 -10q-8 0 -14 6t-6 14q0 12 12 25l103 115q13 16 32 16q14 0 24 -9.5t10 -23.5q0 -17 -16 -30z" />
    <glyph glyph-name="Oslashacute" unicode="&#x1fe;" 
d="M401 750l-122 -103q-13 -10 -23 -10q-8 0 -14 6t-6 14q0 11 12 25l103 115q13 16 32 16q14 0 24 -9.5t10 -23.5q0 -17 -16 -30zM300 43q74 0 118 68t44 175q0 75 -22 132l-256 -312q44 -63 116 -63zM73 -14q-12 0 -19.5 7.5t-7.5 18.5q0 10 7 20l60 72q-38 74 -38 182
q0 130 59 215q58 84 166 84q95 0 154 -69l48 57q12 12 23 12q12 0 19.5 -7.5t7.5 -18.5q0 -10 -7 -20l-59 -71q39 -75 39 -182q0 -131 -59 -216q-59 -84 -166 -84q-97 0 -155 70l-49 -58q-12 -12 -23 -12zM138 286q0 -75 21 -132l256 312q-45 62 -115 62q-75 0 -119 -68
q-43 -67 -43 -174z" />
    <glyph glyph-name="oslashacute" unicode="&#x1ff;" 
d="M300 -11q-88 0 -152 54l-53 -46q-8 -8 -19 -8q-10 0 -19 7.5t-9 18.5q0 14 12 25l50 44q-38 58 -38 129q0 97 65 160q65 64 163 64q88 0 152 -54l53 46q8 8 19 8q10 0 19 -7.5t9 -18.5q0 -15 -12 -25l-51 -45q39 -55 39 -128q0 -97 -66 -161q-64 -63 -162 -63zM133 213
q0 -52 25 -92l251 221q-46 40 -109 40q-68 0 -118 -48q-49 -48 -49 -121zM300 44q69 0 118 48t49 121q0 49 -25 90l-251 -219q46 -40 109 -40zM401 605l-122 -103q-13 -10 -23 -10q-8 0 -14 6t-6 14q0 12 12 25l103 115q13 16 32 16q14 0 24 -9.5t10 -23.5q0 -17 -16 -30z
" />
    <glyph glyph-name="Scommaaccent" unicode="&#x218;" 
d="M297 -14q-105 0 -178 48q-22 15 -30 24t-8 23q0 11 8.5 19t19.5 8q14 0 49 -24q61 -41 138 -41q65 0 111 28t46 81q0 43 -36.5 67.5t-120.5 45.5q-109 27 -157 65t-48 106q0 66 56 107q57 42 140 42q112 0 182 -55q20 -15 20 -31q0 -21 -16.5 -27t-48.5 13
q-62 43 -138 43q-61 0 -96.5 -25.5t-35.5 -68.5q0 -42 35 -65.5t115 -43.5q113 -29 161 -64q51 -34 51 -107q0 -79 -62 -124q-62 -44 -157 -44zM272 -302q-11 -7 -20 -7q-5 0 -9 4.5t-4 9.5q0 9 12 18q27 19 41.5 46t10.5 50q-31 -8 -52.5 7.5t-21.5 43.5q0 22 15.5 36.5
t38.5 14.5q65 0 65 -79q0 -45 -21.5 -85t-54.5 -59z" />
    <glyph glyph-name="scommaaccent" unicode="&#x219;" 
d="M311 -11q-104 0 -183 43q-31 16 -31 38q0 12 8 20t20 8q8 0 15 -2.5t17.5 -9t15.5 -9.5q61 -34 138 -34q64 0 99 20t35 53t-31 48.5t-113 27.5q-98 13 -143.5 41t-45.5 84q0 62 52 90q52 30 129 30q88 0 160 -35q22 -10 22 -30q0 -12 -8 -20t-20 -8q-11 0 -31 9
q-66 30 -125 30q-55 0 -87.5 -17.5t-32.5 -47.5t33.5 -46t108.5 -26q106 -16 148.5 -42.5t42.5 -83.5q0 -62 -52.5 -96.5t-140.5 -34.5zM277 -302q-11 -7 -20 -7q-5 0 -9 4.5t-4 9.5q0 9 12 18q27 19 41.5 46t10.5 50q-31 -8 -52.5 7.5t-21.5 43.5q0 22 15.5 36.5t38.5 14.5
q65 0 65 -79q0 -45 -21.5 -85t-54.5 -59z" />
    <glyph glyph-name="uni021A" unicode="&#x21a;" 
d="M270 20v497q-135 -4 -182 -4q-33 0 -33 29t33 29h425q33 0 33 -29t-33 -29q-43 0 -182 4v-497q0 -34 -31 -34q-30 0 -30 34zM273 -302q-11 -7 -20 -7q-5 0 -9 4.5t-4 9.5q0 9 12 18q27 19 41.5 46t10.5 50q-31 -8 -52.5 7.5t-21.5 43.5q0 22 15.5 36.5t38.5 14.5
q65 0 65 -79q0 -45 -21.5 -85t-54.5 -59z" />
    <glyph glyph-name="uni021B" unicode="&#x21b;" 
d="M268 576v-150h197q33 0 33 -27q0 -28 -33 -28q-41 0 -197 4v-188q0 -75 25 -109t79 -34q40 0 70 13q33 13 44 13q25 0 25 -25q0 -21 -36 -38q-42 -18 -103 -18q-86 0 -124.5 47t-38.5 150v189q-10 0 -59 -2t-59 -2q-33 0 -33 28q0 27 33 27h118v150q0 32 30 32
q13 0 21 -8.5t8 -23.5zM314 -302q-11 -7 -20 -7q-5 0 -9 4.5t-4 9.5q0 9 12 18q27 19 41.5 46t10.5 50q-31 -8 -52.5 7.5t-21.5 43.5q0 22 15.5 36.5t38.5 14.5q65 0 65 -79q0 -45 -21.5 -85t-54.5 -59z" />
    <glyph glyph-name="uni0226" unicode="&#x226;" 
d="M138 -14q-31 0 -31 34v346q0 104 49 161.5t144 57.5t144 -57.5t49 -161.5v-346q0 -34 -31 -34q-30 0 -30 34v176h-264v-176q0 -34 -30 -34zM168 365v-114h264v114q0 164 -132 164t-132 -164zM344 667q-17 -15 -44 -15t-45 15q-17 15 -17 40t17 40q18 15 45 15t44 -15
q18 -15 18 -40t-18 -40z" />
    <glyph glyph-name="uni0227" unicode="&#x227;" 
d="M278 -11q-80 0 -133 37q-53 38 -53 100q0 61 53 99q55 38 133 38q95 0 154 -42v37q0 58 -37.5 91t-105.5 33q-57 0 -106 -25q-31 -16 -41 -16q-13 0 -21 8t-8 21q0 19 31 35q59 32 145 32q201 0 201 -178v-238q0 -32 -29 -32q-13 0 -21 8.5t-8 23.5v10q-59 -42 -154 -42z
M192 64q39 -24 103 -24q65 0 102 24q39 25 39 62t-39 61q-37 25 -102 25t-103 -25q-38 -24 -38 -61t38 -62zM339 522q-17 -15 -44 -15t-45 15q-17 15 -17 40t17 40q18 15 45 15t44 -15q18 -15 18 -40t-18 -40z" />
    <glyph glyph-name="uni022E" unicode="&#x22e;" 
d="M181 111q44 -68 119 -68q74 0 118 68t44 175t-43 174q-44 68 -119 68t-119 -68q-43 -67 -43 -174q0 -108 43 -175zM75 286q0 130 59 215q58 84 166 84q107 0 166 -84q59 -85 59 -215q0 -131 -59 -216q-59 -84 -166 -84q-108 0 -166 84q-59 85 -59 216zM344 667
q-17 -15 -44 -15t-45 15q-17 15 -17 40t17 40q18 15 45 15t44 -15q18 -15 18 -40t-18 -40z" />
    <glyph glyph-name="uni022F" unicode="&#x22f;" 
d="M462 52q-64 -63 -162 -63q-97 0 -163 63q-65 65 -65 161q0 97 65 160q65 64 163 64t162 -64q66 -63 66 -160t-66 -161zM182 92q50 -48 118 -48q69 0 118 48t49 121t-49 121t-118 48q-68 0 -118 -48q-49 -48 -49 -121t49 -121zM344 522q-17 -15 -44 -15t-45 15
q-17 15 -17 40t17 40q18 15 45 15t44 -15q18 -15 18 -40t-18 -40z" />
    <glyph glyph-name="dotlessj" unicode="&#x237;" 
d="M142 426h227q32 0 32 -32v-401q0 -100 -47 -151t-135 -51q-60 0 -103 17q-27 10 -27 32q0 11 8 18.5t20 7.5q8 0 29 -7q42 -13 74 -13q65 0 93.5 37t28.5 113v379q-143 -4 -200 -4q-33 0 -33 28q0 27 33 27z" />
    <glyph glyph-name="uni0243" unicode="&#x243;" 
d="M297 0h-144q-32 0 -32 32v98h-33q-31 0 -31 26t31 26h33v357q0 32 32 32h136q100 0 155 -40.5t55 -107.5q0 -89 -87 -124q109 -36 109 -135q0 -79 -60 -121.5t-164 -42.5zM289 515h-107v-196h107q70 0 108.5 25t38.5 73t-38.5 73t-108.5 25zM296 263h-114v-81h113
q31 0 31 -26t-31 -26h-113v-74h115q161 0 161 107q0 100 -162 100z" />
    <glyph glyph-name="schwa" unicode="&#x259;" 
d="M292 437q102 0 167 -62q66 -61 66 -161q0 -99 -65 -162q-64 -63 -162 -63q-95 0 -157 58q-63 59 -63 148q0 32 33 32h352q-5 69 -52.5 112t-121.5 43q-75 0 -143 -47q-25 -16 -34 -16q-12 0 -20 8t-8 19q0 18 23 35q71 56 185 56zM298 44q58 0 103 36t58 94h-319
q4 -56 51 -94q47 -36 107 -36z" />
    <glyph glyph-name="circumflex" unicode="&#x2c6;" 
d="M406 490l-106 91l-106 -91q-10 -7 -19 -7q-19 0 -19 20q0 11 16 27l102 108q26 26 52 0l102 -108q16 -16 16 -27q0 -20 -19 -20q-9 0 -19 7z" />
    <glyph glyph-name="caron" unicode="&#x2c7;" 
d="M194 643l106 -91l106 91q10 7 19 7q19 0 19 -20q0 -11 -16 -27l-102 -108q-26 -26 -52 0l-102 108q-16 16 -16 27q0 20 19 20q9 0 19 -7z" />
    <glyph glyph-name="breve" unicode="&#x2d8;" 
d="M399 616q7 18 21 18q20 0 20 -24t-13 -47q-40 -73 -127 -73t-127 73q-13 23 -13 47t20 24q14 0 21 -18q27 -67 99 -67t99 67z" />
    <glyph glyph-name="dotaccent" unicode="&#x2d9;" 
d="M344 519q-17 -15 -44 -15t-45 15q-17 15 -17 40t17 40q18 15 45 15t44 -15q18 -15 18 -40t-18 -40z" />
    <glyph glyph-name="ring" unicode="&#x2da;" 
d="M375 635q30 -26 30 -71t-30 -72q-31 -26 -75 -26t-75 26q-30 27 -30 72q0 46 30 71q30 27 75 27t75 -27zM339 525q16 16 16 39t-16 38q-16 16 -39 16t-39 -16q-16 -15 -16 -38t16 -39q16 -15 39 -15t39 15z" />
    <glyph glyph-name="ogonek" unicode="&#x2db;" 
d="M263 18l31 -10q-56 -41 -56 -81q0 -39 45 -39q9 0 29.5 6t24.5 6q24 0 24 -23q0 -18 -23 -29t-57 -11q-42 0 -67.5 21.5t-25.5 57.5q0 62 75 102z" />
    <glyph glyph-name="tilde" unicode="&#x2dc;" 
d="M369 502q-25 0 -74 30q-49 31 -61 31q-21 0 -36 -38q-7 -19 -21 -19q-21 0 -21 22q0 34 21 62q23 29 54 29q25 0 74 -31q50 -30 61 -30q21 0 36 38q7 19 21 19q21 0 21 -22q0 -35 -22 -63q-21 -28 -53 -28z" />
    <glyph glyph-name="hungarumlaut" unicode="&#x2dd;" 
d="M297 604l-95 -104q-11 -11 -21 -11q-16 0 -20 11t10 37l77 115q10 16 27 16q15 0 25.5 -9t10.5 -23q0 -15 -14 -32zM468 604l-95 -104q-11 -11 -21 -11q-16 0 -20 11t10 37l77 115q10 16 27 16q15 0 25.5 -9t10.5 -23q0 -15 -14 -32z" />
    <glyph glyph-name="uni0300" unicode="&#x300;" 
d="M326 502l-122 103q-16 13 -16 30q0 15 9.5 24t25.5 9q18 0 31 -16l103 -115q12 -13 12 -25q0 -8 -6 -14t-14 -6q-10 0 -23 10z" />
    <glyph glyph-name="uni0301" unicode="&#x301;" 
d="M400 605l-122 -103q-13 -10 -23 -10q-8 0 -14 6t-6 14q0 12 12 25l103 115q13 16 31 16q16 0 25.5 -9t9.5 -24q0 -17 -16 -30z" />
    <glyph glyph-name="uni0302" unicode="&#x302;" 
d="M406 490l-106 91l-106 -91q-10 -7 -19 -7q-19 0 -19 20q0 11 16 27l102 108q26 26 52 0l102 -108q16 -16 16 -27q0 -20 -19 -20q-9 0 -19 7z" />
    <glyph glyph-name="uni0303" unicode="&#x303;" 
d="M368 502q-24 0 -74 30q-49 31 -61 31q-21 0 -36 -38q-7 -19 -21 -19q-21 0 -21 22q0 34 21 62q23 29 54 29q25 0 74 -31q50 -30 61 -30q21 0 36 38q7 19 21 19q21 0 21 -22q0 -35 -22 -63q-21 -28 -53 -28z" />
    <glyph glyph-name="uni0304" unicode="&#x304;" 
d="M413 527h-226q-20 0 -28 14.5t0 29t28 14.5h226q20 0 28 -14.5t0 -29t-28 -14.5z" />
    <glyph glyph-name="uni0306" unicode="&#x306;" 
d="M173 563q-13 23 -13 49q0 21 20 21q13 0 21 -17q28 -67 99 -67t99 67q8 17 21 17q20 0 20 -21q0 -26 -13 -49q-40 -73 -127 -73t-127 73z" />
    <glyph glyph-name="uni0307" unicode="&#x307;" 
d="M343 522q-17 -15 -44 -15t-45 15q-17 15 -17 40t17 40q18 15 45 15t44 -15q18 -15 18 -40t-18 -40z" />
    <glyph glyph-name="uni0308" unicode="&#x308;" 
d="M248 508q-17 -14 -41 -14t-42 14q-17 15 -17 40t17 39q18 15 42 15t41 -15q18 -14 18 -39t-18 -40zM433 508q-17 -14 -41 -14t-42 14q-17 15 -17 40t17 39q18 15 42 15t41 -15q18 -14 18 -39t-18 -40z" />
    <glyph glyph-name="uni0309" unicode="&#x309;" 
d="M320 479q-10 -5 -17 -5q-18 0 -18 16q0 10 12 22q45 39 45 69q0 38 -48 38q-10 0 -30.5 -6t-23.5 -6q-26 0 -26 22q0 18 24 29.5t58 11.5q46 0 74 -22.5t28 -58.5q0 -62 -78 -110z" />
    <glyph glyph-name="uni030A" unicode="&#x30a;" 
d="M374 635q30 -26 30 -71t-30 -72q-31 -26 -75 -26t-75 26q-30 27 -30 72q0 46 30 71q30 27 75 27t75 -27zM338 525q16 16 16 39t-16 38q-16 16 -39 16t-39 -16q-16 -15 -16 -38t16 -39q16 -15 39 -15t39 15z" />
    <glyph glyph-name="uni030B" unicode="&#x30b;" 
d="M297 604l-95 -104q-11 -11 -21 -11q-16 0 -20 11t10 37l77 115q10 16 27 16q15 0 25.5 -9t10.5 -23q0 -15 -14 -32zM468 604l-95 -104q-11 -11 -21 -11q-16 0 -20 11t10 37l77 115q10 16 27 16q15 0 25.5 -9t10.5 -23q0 -15 -14 -32z" />
    <glyph glyph-name="uni030C" unicode="&#x30c;" 
d="M195 643l106 -91l106 91q10 7 19 7q19 0 19 -20q0 -11 -16 -27l-102 -108q-26 -26 -52 0l-102 108q-16 16 -16 27q0 20 19 20q9 0 19 -7z" />
    <glyph glyph-name="uni030F" unicode="&#x30f;" 
d="M268 500l-95 104q-14 17 -14 32q0 14 10.5 23t25.5 9q17 0 27 -16l77 -115q14 -26 10 -37t-20 -11q-10 0 -21 11zM439 500l-95 104q-14 17 -14 32q0 14 10.5 23t25.5 9q17 0 27 -16l77 -115q14 -26 10 -37t-20 -11q-10 0 -21 11z" />
    <glyph glyph-name="commaturnedabovecmb" unicode="&#x312;" 
d="M316 705q11 7 19 7q15 0 15 -14q0 -10 -14 -19q-24 -15 -39.5 -42.5t-11.5 -53.5q27 9 50.5 -6t23.5 -44q0 -23 -16.5 -37.5t-41.5 -14.5q-30 0 -45.5 22t-15.5 57q0 47 20.5 86t55.5 59z" />
    <glyph glyph-name="uni0313" unicode="&#x313;" 
d="M284 488q-11 -7 -20 -7q-14 0 -14 15q0 9 14 18q24 15 39.5 42.5t11.5 53.5q-27 -9 -50.5 6t-23.5 44q0 23 16.5 37.5t41.5 14.5q30 0 45.5 -22t15.5 -57q0 -47 -20.5 -86t-55.5 -59z" />
    <glyph glyph-name="uni031B" unicode="&#x31b;" 
d="M309 546q0 26 24 26q42 0 42 -71q0 -54 -30.5 -85t-81.5 -31q-58 0 -58 25q0 18 17 18h25q32 0 52 16.5t20 48.5q0 9 -5 28t-5 25z" />
    <glyph glyph-name="uni0323" unicode="&#x323;" 
d="M344 -181q-17 -15 -44 -15t-45 15q-17 15 -17 40t17 40q18 15 45 15t44 -15q18 -15 18 -40t-18 -40z" />
    <glyph glyph-name="uni0324" unicode="&#x324;" 
d="M248 -178q-17 -15 -41 -15t-42 15q-17 14 -17 39t17 40q18 14 42 14t41 -14q18 -15 18 -40t-18 -39zM433 -178q-17 -15 -41 -15t-42 15q-17 14 -17 39t17 40q18 14 42 14t41 -14q18 -15 18 -40t-18 -39z" />
    <glyph glyph-name="uni0327" unicode="&#x327;" 
d="M292 -163q-34 0 -57 11t-23 29q0 23 25 23q3 0 23.5 -6t29.5 -6q45 0 45 39q0 42 -58 82l33 9q75 -40 75 -102q0 -36 -25.5 -57.5t-67.5 -21.5z" />
    <glyph glyph-name="uni0328" unicode="&#x328;" 
d="M281 -163q-42 0 -67.5 21.5t-25.5 57.5q0 62 75 102l36 -5q-61 -45 -61 -86q0 -39 45 -39q9 0 29.5 6t23.5 6q25 0 25 -23q0 -18 -23 -29t-57 -11z" />
    <glyph glyph-name="uni032E" unicode="&#x32e;" 
d="M172 -130q-13 23 -13 49q0 20 20 20q14 0 21 -16q28 -67 99 -67t99 67q7 16 21 16q20 0 20 -20q0 -26 -13 -49q-40 -73 -127 -73t-127 73z" />
    <glyph glyph-name="uni0331" unicode="&#x331;" 
d="M413 -166h-226q-20 0 -28 14.5t0 29t28 14.5h226q20 0 28 -14.5t0 -29t-28 -14.5z" />
    <glyph glyph-name="tonos" unicode="&#x384;" 
d="M279 522l-17 102q-4 21 6.5 36t30.5 15t30.5 -15t6.5 -36l-17 -102q-5 -33 -20 -33t-20 33z" />
    <glyph glyph-name="dieresistonos" unicode="&#x385;" 
d="M280 522l-17 102q-4 21 6.5 36t30.5 15t30.5 -15t6.5 -36l-17 -102q-5 -33 -20 -33t-20 33zM219 518q-17 -14 -41 -14t-42 14q-17 15 -17 40t17 39q18 15 42 15t41 -15q18 -14 18 -39t-18 -40zM463 518q-17 -14 -41 -14t-42 14q-17 15 -17 40t17 39q18 15 42 15t41 -15
q18 -14 18 -39t-18 -40z" />
    <glyph glyph-name="Alphatonos" unicode="&#x386;" 
d="M513 359v-339q0 -34 -31 -34q-30 0 -30 34v176h-223v-176q0 -34 -31 -34q-30 0 -30 34v339q0 226 171 226q174 0 174 -226zM229 366v-115h223v115q0 163 -113 163q-110 0 -110 -163zM33 432l-17 102q-4 21 6.5 36t30.5 15t30.5 -15t6.5 -36l-17 -102q-5 -33 -20 -33
t-20 33z" />
    <glyph glyph-name="Epsilontonos" unicode="&#x388;" 
d="M428 263q-4 0 -172 3v-212q199 4 248 4q33 0 33 -28q0 -30 -33 -30h-279q-30 0 -30 34v505q0 32 32 32h279q33 0 33 -29t-33 -29q-51 0 -250 4v-199q168 3 172 3q33 0 33 -29t-33 -29zM55 432l-17 102q-4 21 6.5 36t30.5 15t30.5 -15t6.5 -36l-17 -102q-5 -33 -20 -33
t-20 33z" />
    <glyph glyph-name="Etatonos" unicode="&#x389;" 
d="M522 551v-531q0 -34 -31 -34q-30 0 -30 34v252h-222v-252q0 -34 -31 -34q-30 0 -30 34v531q0 34 30 34q31 0 31 -34v-223h222v223q0 34 30 34q31 0 31 -34zM55 432l-17 102q-4 21 6.5 36t30.5 15t30.5 -15t6.5 -36l-17 -102q-5 -33 -20 -33t-20 33z" />
    <glyph glyph-name="Iotatonos" unicode="&#x38a;" 
d="M318 54v463q-10 0 -56 -2t-51 -2q-33 0 -33 29t33 29h275q33 0 33 -29t-33 -29q-10 -1 -107 4v-463q89 4 107 4q33 0 33 -29t-33 -29h-275q-33 0 -33 29t33 29q39 0 107 -4zM55 432l-17 102q-4 21 6.5 36t30.5 15t30.5 -15t6.5 -36l-17 -102q-5 -33 -20 -33t-20 33z" />
    <glyph glyph-name="Omicrontonos" unicode="&#x38c;" 
d="M544 286q0 -136 -48 -218t-147 -82t-147 82t-48 218q0 134 48 216q48 83 147 83t147 -83q48 -82 48 -216zM449 110q33 66 33 176t-33 176t-100 66t-100 -66q-32 -67 -32 -176t32 -176q33 -66 100 -66t100 66zM55 432l-17 102q-4 21 6.5 36t30.5 15t30.5 -15t6.5 -36
l-17 -102q-5 -33 -20 -33t-20 33z" />
    <glyph glyph-name="Upsilontonos" unicode="&#x38e;" 
d="M358 -14q-30 0 -30 34v157l-167 342q-15 34 -9.5 50t26.5 16t30 -20l150 -329l150 329q9 20 30 20t26.5 -16t-9.5 -50l-166 -340v-159q0 -34 -31 -34zM55 432l-17 102q-4 21 6.5 36t30.5 15t30.5 -15t6.5 -36l-17 -102q-5 -33 -20 -33t-20 33z" />
    <glyph glyph-name="Omegatonos" unicode="&#x38f;" 
d="M544 316q0 -161 -106 -267q81 9 94 9q33 0 33 -29t-33 -29h-126q-15 0 -24 9t-9 23q0 20 31 51q77 86 77 233q0 99 -33.5 155.5t-98.5 56.5t-98.5 -56.5t-33.5 -155.5q0 -147 77 -233q31 -31 31 -51q0 -14 -9 -23t-24 -9h-126q-33 0 -33 29t33 29q8 0 94 -9
q-106 106 -106 267q0 116 49 192q50 77 146 77q95 0 145 -77t50 -192zM55 432l-17 102q-4 21 6.5 36t30.5 15t30.5 -15t6.5 -36l-17 -102q-5 -33 -20 -33t-20 33z" />
    <glyph glyph-name="iotadieresistonos" unicode="&#x390;" 
d="M420 -11q-76 0 -112 42t-36 134v212q-138 -6 -150 -6q-33 0 -33 28q0 27 33 27h178q31 0 31 -31v-228q0 -65 21.5 -94t67.5 -29q26 0 65 14q36 14 44 14q12 0 19.5 -7.5t7.5 -20.5q0 -11 -8.5 -19t-29.5 -18q-40 -18 -98 -18zM281 522l-17 102q-4 21 6.5 36t30.5 15
t30.5 -15t6.5 -36l-17 -102q-5 -33 -20 -33t-20 33zM220 518q-17 -14 -41 -14t-42 14q-17 15 -17 40t17 39q18 15 42 15t41 -15q18 -14 18 -39t-18 -40zM464 518q-17 -14 -41 -14t-42 14q-17 15 -17 40t17 39q18 15 42 15t41 -15q18 -14 18 -39t-18 -40z" />
    <glyph glyph-name="Alpha" unicode="&#x391;" 
d="M138 -14q-31 0 -31 34v346q0 104 49 161.5t144 57.5t144 -57.5t49 -161.5v-346q0 -34 -31 -34q-30 0 -30 34v176h-264v-176q0 -34 -30 -34zM168 365v-114h264v114q0 164 -132 164t-132 -164z" />
    <glyph glyph-name="Beta" unicode="&#x392;" 
d="M297 0h-144q-32 0 -32 32v507q0 32 32 32h136q100 0 155 -40.5t55 -107.5q0 -89 -87 -124q109 -36 109 -135q0 -79 -60 -121.5t-164 -42.5zM296 263h-114v-207h115q161 0 161 107q0 100 -162 100zM289 515h-107v-196h107q70 0 108.5 25t38.5 73t-38.5 73t-108.5 25z" />
    <glyph glyph-name="Gamma" unicode="&#x393;" 
d="M151 -14q-30 0 -30 34v517q0 34 30 34h341q33 0 33 -29t-33 -29q-65 0 -310 4v-497q0 -34 -31 -34z" />
    <glyph glyph-name="uni0394" unicode="&#x394;" 
d="M59 30q0 14 7 31l196 485q9 23 16.5 31t21.5 8t21.5 -8t16.5 -31l196 -485q7 -17 7 -31q0 -12 -8.5 -21t-23.5 -9h-418q-15 0 -23.5 9t-8.5 21zM133 56h334l-167 435z" />
    <glyph glyph-name="Epsilon" unicode="&#x395;" 
d="M476 0h-329q-32 0 -32 32v507q0 32 32 32h329q33 0 33 -29t-33 -29q-55 0 -300 4v-199q207 3 222 3q33 0 33 -29t-33 -29h-52l-91 2q-36 1 -79 1v-212q46 0 95 1q97 3 205 3q33 0 33 -29t-33 -29z" />
    <glyph glyph-name="Zeta" unicode="&#x396;" 
d="M492 0h-375q-14 0 -23 9t-9 21q0 15 19 41l334 446q-267 -4 -311 -4q-33 0 -33 29t33 29h361q13 0 22 -8.5t9 -21.5q0 -15 -19 -41l-334 -446q199 4 326 4q33 0 33 -29t-33 -29z" />
    <glyph glyph-name="Eta" unicode="&#x397;" 
d="M134 -14q-30 0 -30 34v531q0 34 30 34q31 0 31 -34v-228h270v228q0 34 30 34q31 0 31 -34v-531q0 -34 -31 -34q-30 0 -30 34v247h-270v-247q0 -34 -31 -34z" />
    <glyph glyph-name="Theta" unicode="&#x398;" 
d="M382 252h-165q-32 0 -32 28t32 28h165q32 0 32 -28t-32 -28zM181 111q44 -68 119 -68q74 0 118 68t44 175t-43 174q-44 68 -119 68t-119 -68q-43 -67 -43 -174q0 -108 43 -175zM75 286q0 130 59 215q58 84 166 84q107 0 166 -84q59 -85 59 -215q0 -131 -59 -216
q-59 -84 -166 -84q-108 0 -166 84q-59 85 -59 216z" />
    <glyph glyph-name="Iota" unicode="&#x399;" 
d="M268 54v463q-121 -4 -137 -4q-33 0 -33 29t33 29h335q33 0 33 -29t-33 -29h-39l-56 2q-8 0 -18 0.5t-15.5 1t-8.5 0.5v-463q21 0 42 1q41 3 95 3q33 0 33 -29t-33 -29h-335q-33 0 -33 29t33 29q16 0 137 -4z" />
    <glyph glyph-name="Kappa" unicode="&#x39a;" 
d="M509 -14q-16 0 -34 24l-212 280l-83 -84v-186q0 -34 -31 -34q-30 0 -30 34v531q0 34 30 34q31 0 31 -34v-271l266 283q19 22 38 22q12 0 20 -7.5t8 -20.5t-17 -33l-191 -193l223 -286q13 -16 13 -31q0 -11 -9 -19.5t-22 -8.5z" />
    <glyph glyph-name="Lambda" unicode="&#x39b;" 
d="M477 23l-177 462l-177 -462q-8 -21 -16 -29t-21 -8q-12 0 -20 8.5t-8 20.5q0 10 8 32l196 499q9 23 16.5 31t21.5 8t21.5 -8t16.5 -31l196 -499q8 -22 8 -32q0 -12 -8 -20.5t-20 -8.5q-13 0 -21 8t-16 29z" />
    <glyph glyph-name="Mu" unicode="&#x39c;" 
d="M80 20v530q0 35 30 35q20 0 37 -33l153 -291l153 291q17 33 37 33q30 0 30 -35v-530q0 -34 -30 -34q-31 0 -31 34v426l-126 -242q-14 -26 -33 -26t-33 26l-126 242v-426q0 -34 -30 -34q-31 0 -31 34z" />
    <glyph glyph-name="Nu" unicode="&#x39d;" 
d="M497 551v-530q0 -35 -27 -35q-20 0 -36 28l-270 436v-430q0 -34 -31 -34q-30 0 -30 34v530q0 35 27 35q20 0 36 -28l270 -437v431q0 34 31 34q30 0 30 -34z" />
    <glyph glyph-name="Xi" unicode="&#x39e;" 
d="M136 58h328q33 0 33 -29t-33 -29h-328q-33 0 -33 29t33 29zM136 571h328q33 0 33 -29t-33 -29h-328q-33 0 -33 29t33 29zM176 317h248q33 0 33 -29t-33 -29h-248q-33 0 -33 29t33 29z" />
    <glyph glyph-name="Omicron" unicode="&#x39f;" 
d="M181 111q44 -68 119 -68q74 0 118 68t44 175t-43 174q-44 68 -119 68t-119 -68q-43 -67 -43 -174q0 -108 43 -175zM75 286q0 130 59 215q58 84 166 84q107 0 166 -84q59 -85 59 -215q0 -131 -59 -216q-59 -84 -166 -84q-108 0 -166 84q-59 85 -59 216z" />
    <glyph glyph-name="Pi" unicode="&#x3a0;" 
d="M138 -14q-30 0 -30 34v519q0 32 32 32h320q32 0 32 -32v-519q0 -34 -31 -34q-30 0 -30 34v495h-262v-495q0 -34 -31 -34z" />
    <glyph glyph-name="Rho" unicode="&#x3a1;" 
d="M121 20v519q0 32 32 32h140q99 0 163 -44q63 -43 63 -140q0 -95 -64 -140q-63 -45 -162 -45h-111v-182q0 -34 -31 -34q-30 0 -30 34zM295 515h-113v-257h113q74 0 117.5 33t43.5 96q0 64 -43 96t-118 32z" />
    <glyph glyph-name="Sigma" unicode="&#x3a3;" 
d="M476 0h-337q-40 0 -40 34q0 20 28 47l211 207l-211 202q-28 27 -28 47q0 34 40 34h337q33 0 33 -29t-33 -29q-67 0 -295 4l205 -200q33 -29 2 -59l-207 -204q209 4 295 4q33 0 33 -29t-33 -29z" />
    <glyph glyph-name="Tau" unicode="&#x3a4;" 
d="M270 20v497q-135 -4 -182 -4q-33 0 -33 29t33 29h425q33 0 33 -29t-33 -29q-43 0 -182 4v-497q0 -34 -31 -34q-30 0 -30 34z" />
    <glyph glyph-name="Upsilon" unicode="&#x3a5;" 
d="M300 -14q-30 0 -30 34v188l-206 313q-13 19 -13 35q0 13 8.5 21t20.5 8q16 0 31 -22l190 -296l189 296q15 22 31 22q12 0 20.5 -8t8.5 -21q0 -16 -13 -35l-206 -313v-188q0 -34 -31 -34z" />
    <glyph glyph-name="Phi" unicode="&#x3a6;" 
d="M270 20v27q-111 7 -173 73q-62 67 -62 166t62 164q63 66 173 75v26q0 34 30 34q31 0 31 -34v-26q111 -9 172 -75q62 -65 62 -164q0 -98 -62 -165q-62 -65 -172 -74v-27q0 -34 -31 -34q-30 0 -30 34zM98 286q0 -79 45 -128.5t127 -57.5v371q-82 -8 -127 -57.5t-45 -127.5z
M331 471v-371q82 9 127 58.5t45 127.5t-45 127.5t-127 57.5z" />
    <glyph glyph-name="Chi" unicode="&#x3a7;" 
d="M103 -14q-13 0 -21.5 8.5t-8.5 21.5t17 35l182 234l-182 235q-17 22 -17 35t8.5 21.5t21.5 8.5q15 0 29 -17l176 -237l176 237q14 17 29 17q13 0 21.5 -8.5t8.5 -21.5t-17 -35l-183 -235l183 -234q17 -22 17 -35t-8.5 -21.5t-21.5 -8.5q-15 0 -29 17l-176 235l-176 -235
q-14 -17 -29 -17z" />
    <glyph glyph-name="Psi" unicode="&#x3a8;" 
d="M270 20v166q-214 13 -214 212v153q0 34 31 34q30 0 30 -34v-153q0 -72 36.5 -110t116.5 -44v307q0 34 30 34q31 0 31 -34v-307q79 6 115.5 44t36.5 110v153q0 34 30 34q31 0 31 -34v-153q0 -198 -213 -211v-167q0 -34 -31 -34q-30 0 -30 34z" />
    <glyph glyph-name="uni03A9" unicode="&#x3a9;" 
d="M525 312q0 -163 -119 -261q74 7 112 7q33 0 33 -29t-33 -29h-150q-35 0 -35 32q0 19 35 51q94 85 94 229q0 98 -42.5 157t-119.5 59t-119.5 -59t-42.5 -157q0 -144 94 -229q35 -32 35 -51q0 -32 -35 -32h-150q-33 0 -33 29t33 29q38 0 112 -7q-119 98 -119 261
q0 116 59 195q60 78 166 78t165 -78q60 -78 60 -195z" />
    <glyph glyph-name="Iotadieresis" unicode="&#x3aa;" 
d="M268 54v463q-121 -4 -137 -4q-33 0 -33 29t33 29h335q33 0 33 -29t-33 -29h-39l-56 2q-8 0 -18 0.5t-15.5 1t-8.5 0.5v-463q21 0 42 1q41 3 95 3q33 0 33 -29t-33 -29h-335q-33 0 -33 29t33 29q16 0 137 -4zM248 648q-17 -14 -41 -14t-42 14q-17 15 -17 40t17 39
q18 15 42 15t41 -15q18 -14 18 -39t-18 -40zM433 648q-17 -14 -41 -14t-42 14q-17 15 -17 40t17 39q18 15 42 15t41 -15q18 -14 18 -39t-18 -40z" />
    <glyph glyph-name="Upsilondieresis" unicode="&#x3ab;" 
d="M300 -14q-30 0 -30 34v188l-206 313q-13 19 -13 35q0 13 8.5 21t20.5 8q16 0 31 -22l190 -296l189 296q15 22 31 22q12 0 20.5 -8t8.5 -21q0 -16 -13 -35l-206 -313v-188q0 -34 -31 -34zM250 648q-17 -14 -41 -14t-42 14q-17 15 -17 40t17 39q18 15 42 15t41 -15
q18 -14 18 -39t-18 -40zM435 648q-17 -14 -41 -14t-42 14q-17 15 -17 40t17 39q18 15 42 15t41 -15q18 -14 18 -39t-18 -40z" />
    <glyph glyph-name="alphatonos" unicode="&#x3ac;" 
d="M278 -11q-91 0 -148 62q-56 64 -56 162q0 99 56 161q57 63 148 63q95 0 143 -64v32q0 15 8 23.5t21 8.5q30 0 30 -32v-384q0 -15 -8 -23.5t-21 -8.5q-30 0 -30 32v32q-48 -64 -143 -64zM281 45q67 0 106.5 45.5t39.5 122.5t-39.5 122.5t-106.5 45.5q-64 0 -105 -47
t-41 -121t41 -121t105 -47zM264 522l-17 102q-4 21 6.5 36t30.5 15t30.5 -15t6.5 -36l-17 -102q-5 -33 -20 -33t-20 33z" />
    <glyph glyph-name="epsilontonos" unicode="&#x3ad;" 
d="M301 -11q-89 0 -142 34t-53 91q0 35 28 63.5t77 39.5q-48 11 -74.5 36.5t-26.5 61.5q0 55 50.5 88.5t134.5 33.5q94 0 176 -49q29 -17 29 -37q0 -12 -7.5 -19.5t-18.5 -7.5q-17 0 -40 16q-65 41 -140 41q-56 0 -89.5 -18t-33.5 -48q0 -70 147 -70q34 0 34 -28
q0 -27 -34 -28q-151 0 -151 -74q0 -32 35.5 -51t97.5 -19q78 0 145 41q23 16 40 16q11 0 18.5 -7.5t7.5 -19.5q0 -20 -29 -37q-83 -49 -181 -49zM289 522l-17 102q-4 21 6.5 36t30.5 15t30.5 -15t6.5 -36l-17 -102q-5 -33 -20 -33t-20 33z" />
    <glyph glyph-name="etatonos" unicode="&#x3ae;" 
d="M125 21v384q0 32 30 32q13 0 21 -8.5t8 -23.5v-29q42 61 136 61q78 0 122 -46.5t44 -133.5v-434q0 -32 -30 -32q-13 0 -21 8.5t-8 23.5v421q0 69 -31 103.5t-86 34.5q-59 0 -92.5 -34.5t-33.5 -104.5v-222q0 -32 -30 -32q-13 0 -21 8.5t-8 23.5zM279 522l-17 102
q-4 21 6.5 36t30.5 15t30.5 -15t6.5 -36l-17 -102q-5 -33 -20 -33t-20 33z" />
    <glyph glyph-name="iotatonos" unicode="&#x3af;" 
d="M420 -11q-76 0 -112 42t-36 134v212q-138 -6 -150 -6q-33 0 -33 28q0 27 33 27h178q31 0 31 -31v-228q0 -65 21.5 -94t67.5 -29q26 0 65 14q36 14 44 14q12 0 19.5 -7.5t7.5 -20.5q0 -11 -8.5 -19t-29.5 -18q-40 -18 -98 -18zM279 522l-17 102q-4 21 6.5 36t30.5 15
t30.5 -15t6.5 -36l-17 -102q-5 -33 -20 -33t-20 33z" />
    <glyph glyph-name="upsilondieresistonos" unicode="&#x3b0;" 
d="M120 172v233q0 32 30 32q13 0 21 -8.5t8 -23.5v-227q0 -63 30.5 -99t90.5 -36q61 0 91 36t30 99v227q0 15 8 23.5t21 8.5q30 0 30 -32v-233q0 -89 -46.5 -136.5t-133.5 -47.5t-133.5 47.5t-46.5 136.5zM280 522l-17 102q-4 21 6.5 36t30.5 15t30.5 -15t6.5 -36l-17 -102
q-5 -33 -20 -33t-20 33zM219 518q-17 -14 -41 -14t-42 14q-17 15 -17 40t17 39q18 15 42 15t41 -15q18 -14 18 -39t-18 -40zM463 518q-17 -14 -41 -14t-42 14q-17 15 -17 40t17 39q18 15 42 15t41 -15q18 -14 18 -39t-18 -40z" />
    <glyph glyph-name="alpha" unicode="&#x3b1;" 
d="M278 -11q-91 0 -148 62q-56 64 -56 162q0 99 56 161q57 63 148 63q95 0 143 -64v32q0 15 8 23.5t21 8.5q30 0 30 -32v-384q0 -15 -8 -23.5t-21 -8.5q-30 0 -30 32v32q-48 -64 -143 -64zM281 45q67 0 106.5 45.5t39.5 122.5t-39.5 122.5t-106.5 45.5q-64 0 -105 -47
t-41 -121t41 -121t105 -47z" />
    <glyph glyph-name="beta" unicode="&#x3b2;" 
d="M117 -177v608q0 103 49 159t141 56q87 0 136 -46t49 -118q0 -64 -31.5 -106.5t-82.5 -55.5q58 -16 101 -59q44 -44 44 -113q0 -71 -53.5 -115t-144.5 -44q-88 0 -149 36v-202q0 -32 -30 -32q-13 0 -21 8.5t-8 23.5zM324 42q65 0 101.5 28.5t36.5 75.5q0 58 -45 96
t-123 50q-30 5 -30 28q0 27 34 30q61 5 97 41t36 90q0 51 -33.5 80.5t-91.5 29.5q-130 0 -130 -158v-351q67 -40 148 -40z" />
    <glyph glyph-name="gamma" unicode="&#x3b3;" 
d="M142 407l158 -345l158 345q14 30 33 30q30 0 30 -27q0 -10 -12 -35l-179 -375v-175q0 -34 -30 -34q-29 0 -29 34v173l-180 377q-12 26 -12 35q0 27 30 27q19 0 33 -30z" />
    <glyph glyph-name="delta" unicode="&#x3b4;" 
d="M449 595l-238 4l219 -199q88 -81 88 -187q0 -99 -61 -161q-61 -63 -157 -63t-157 63q-61 62 -61 161q0 97 61 158q62 62 157 62q10 0 20 -3l-179 161q-19 16 -19 31q0 28 32 28h295q33 0 33 -27q0 -28 -33 -28zM412 91q45 48 45 122q0 75 -45 121q-44 48 -112 48
t-113 -48q-44 -47 -44 -121q0 -73 44 -122q45 -47 113 -47t112 47z" />
    <glyph glyph-name="epsilon" unicode="&#x3b5;" 
d="M301 -11q-89 0 -142 34t-53 91q0 35 28 63.5t77 39.5q-48 11 -74.5 36.5t-26.5 61.5q0 55 50.5 88.5t134.5 33.5q94 0 176 -49q29 -17 29 -37q0 -12 -7.5 -19.5t-18.5 -7.5q-17 0 -40 16q-65 41 -140 41q-56 0 -89.5 -18t-33.5 -48q0 -70 147 -70q34 0 34 -28
q0 -27 -34 -28q-151 0 -151 -74q0 -32 35.5 -51t97.5 -19q78 0 145 41q23 16 40 16q11 0 18.5 -7.5t7.5 -19.5q0 -20 -29 -37q-83 -49 -181 -49z" />
    <glyph glyph-name="zeta" unicode="&#x3b6;" 
d="M170 650h329q35 0 35 -32q0 -20 -35 -55l-227 -232q-69 -69 -69 -128q0 -49 34.5 -76t108.5 -49q49 -15 52 -16q16 -5 43 -18q34 -15 49 -37t19 -60q0 -69 -65 -113q-13 -8 -22 -8q-11 0 -19 7.5t-8 17.5q0 15 12 25q41 32 41 69q0 29 -25 45q-26 16 -94 35
q-98 28 -142.5 67.5t-44.5 108.5q0 81 92 173l223 225q-171 -4 -287 -4q-33 0 -33 28q0 27 33 27z" />
    <glyph glyph-name="eta" unicode="&#x3b7;" 
d="M125 21v384q0 32 30 32q13 0 21 -8.5t8 -23.5v-29q42 61 136 61q78 0 122 -46.5t44 -133.5v-434q0 -32 -30 -32q-13 0 -21 8.5t-8 23.5v421q0 69 -31 103.5t-86 34.5q-59 0 -92.5 -34.5t-33.5 -104.5v-222q0 -32 -30 -32q-13 0 -21 8.5t-8 23.5z" />
    <glyph glyph-name="theta" unicode="&#x3b8;" 
d="M300 660q205 0 205 -337t-205 -337t-205 337t205 337zM154 350h292q-3 130 -38.5 192.5t-107.5 62.5t-107.5 -62.5t-38.5 -192.5zM446 296h-292q3 -130 38.5 -192.5t107.5 -62.5t107.5 62.5t38.5 192.5z" />
    <glyph glyph-name="iota" unicode="&#x3b9;" 
d="M420 -11q-76 0 -112 42t-36 134v212q-138 -6 -150 -6q-33 0 -33 28q0 27 33 27h178q31 0 31 -31v-228q0 -65 21.5 -94t67.5 -29q26 0 65 14q36 14 44 14q12 0 19.5 -7.5t7.5 -20.5q0 -11 -8.5 -19t-29.5 -18q-40 -18 -98 -18z" />
    <glyph glyph-name="kappa" unicode="&#x3ba;" 
d="M498 -11q-17 0 -31 17l-182 215l-101 -75v-125q0 -32 -30 -32q-13 0 -21 8.5t-8 23.5v384q0 32 30 32q13 0 21 -8.5t8 -23.5v-192l272 206q40 29 56 10q21 -31 -18 -56l-161 -117l176 -205q22 -30 16 -46t-27 -16z" />
    <glyph glyph-name="lambda" unicode="&#x3bb;" 
d="M139 -11q-30 0 -30 27q0 10 12 35l178 387q-13 36 -40 77q-29 45 -51 63q-31 24 -77 24q-14 0 -39 -6t-32 -6q-12 0 -20.5 8t-8.5 20q0 39 90 39q83 0 133 -47q52 -47 99 -152l186 -407q12 -25 12 -35q0 -27 -30 -27q-19 0 -33 30l-158 358l-158 -358q-14 -30 -33 -30z
" />
    <glyph glyph-name="uni03BC" unicode="&#x3bc;" 
d="M114 -177v582q0 32 30 32q13 0 21 -8.5t8 -23.5v-220q0 -75 32 -108t94 -33q51 0 84 36t33 103v222q0 32 30 32q13 0 21 -8.5t8 -23.5v-384q0 -32 -30 -32q-13 0 -21 8.5t-8 23.5v29q-20 -27 -55 -44t-73 -17q-80 0 -115 42v-208q0 -15 -8 -23.5t-21 -8.5q-30 0 -30 32z
" />
    <glyph glyph-name="nu" unicode="&#x3bd;" 
d="M140 407l158 -345l158 345q14 30 33 30q30 0 30 -27q0 -10 -12 -35l-166 -349q-7 -14 -11 -20.5t-12.5 -11.5t-19.5 -5q-15 0 -24 8.5t-19 28.5l-166 349q-12 26 -12 35q0 27 30 27q19 0 33 -30z" />
    <glyph glyph-name="xi" unicode="&#x3be;" 
d="M117 200q0 58 34.5 101t91.5 54q-113 26 -113 128q0 55 49 101q50 47 127 47q61 0 109.5 -21t75.5 -51q15 -16 15 -31q0 -13 -8 -20.5t-20 -7.5q-15 0 -34 19q-57 57 -134 57q-52 0 -85.5 -26.5t-33.5 -68.5q0 -98 156 -98h56q36 0 36 -28t-35 -28h-58q-78 0 -123 -34
t-45 -94q0 -53 45 -81q35 -21 98 -40q49 -15 52 -16q16 -5 43 -18q34 -15 49 -37t19 -60q0 -69 -65 -113q-13 -8 -22 -8q-11 0 -19 7.5t-8 17.5q0 15 12 25q41 32 41 69q0 29 -25 45q-26 16 -94 35q-97 28 -142 68t-45 107z" />
    <glyph glyph-name="omicron" unicode="&#x3bf;" 
d="M462 52q-64 -63 -162 -63q-97 0 -163 63q-65 65 -65 161q0 97 65 160q65 64 163 64t162 -64q66 -63 66 -160t-66 -161zM182 92q50 -48 118 -48q69 0 118 48t49 121t-49 121t-118 48q-68 0 -118 -48q-49 -48 -49 -121t49 -121z" />
    <glyph glyph-name="pi" unicode="&#x3c0;" 
d="M508 372h-46v-351q0 -32 -30 -32q-13 0 -21 8.5t-8 23.5v351h-206v-351q0 -32 -30 -32q-13 0 -21 8.5t-8 23.5v351h-46q-32 0 -32 27t32 27h416q32 0 32 -27t-32 -27z" />
    <glyph glyph-name="rho" unicode="&#x3c1;" 
d="M324 381q-61 0 -101 -47t-40 -121q0 -78 37.5 -123t103.5 -45q64 0 105 47t41 121t-41 121t-105 47zM125 -177v390q0 101 55 162q56 62 147 62q95 0 149 -62q55 -61 55 -162q0 -99 -57 -162q-56 -62 -147 -62q-95 0 -143 64v-230q0 -15 -8 -23.5t-21 -8.5q-30 0 -30 32z
" />
    <glyph glyph-name="sigma1" unicode="&#x3c2;" 
d="M297 382q-68 0 -108.5 -37.5t-40.5 -106.5q0 -115 167 -160q77 -22 114 -43q49 -28 49 -88q0 -69 -65 -113q-13 -8 -22 -8q-11 0 -19 7.5t-8 17.5q0 15 12 25q41 32 41 69q0 29 -25 45q-26 16 -94 35q-88 26 -144 69q-67 51 -67 144q0 92 56.5 145.5t153.5 53.5
q101 0 180 -66q22 -18 22 -36q0 -10 -8 -18t-19 -8q-16 0 -38 19q-63 54 -137 54z" />
    <glyph glyph-name="sigma" unicode="&#x3c3;" 
d="M547 371q-31 0 -105 3q73 -63 73 -166q0 -95 -62 -157t-155 -62t-155 62t-62 157q0 94 60 156q62 62 152 62h254q33 0 33 -27q0 -28 -33 -28zM409 90q46 46 46 118t-46 118q-45 46 -111 46t-112 -46q-45 -46 -45 -118t45 -118q46 -46 112 -46t111 46z" />
    <glyph glyph-name="tau" unicode="&#x3c4;" 
d="M91 426h374q33 0 33 -27q0 -28 -33 -28q-58 0 -207 4v-188q0 -75 27.5 -109t86.5 -34q40 0 70 13q33 13 44 13q25 0 25 -25q0 -23 -36 -38q-42 -18 -103 -18q-90 0 -131.5 47t-41.5 150v189q-68 -4 -108 -4q-33 0 -33 28q0 27 33 27z" />
    <glyph glyph-name="upsilon" unicode="&#x3c5;" 
d="M120 172v233q0 32 30 32q13 0 21 -8.5t8 -23.5v-227q0 -63 30.5 -99t90.5 -36q61 0 91 36t30 99v227q0 15 8 23.5t21 8.5q30 0 30 -32v-233q0 -89 -46.5 -136.5t-133.5 -47.5t-133.5 47.5t-46.5 136.5z" />
    <glyph glyph-name="phi" unicode="&#x3c6;" 
d="M57 222q0 104 52 195q12 20 29 20q12 0 19.5 -7.5t7.5 -18.5t-7 -24q-40 -70 -40 -166q0 -77 40.5 -123t111.5 -54v206q0 187 126 187q70 0 108 -51.5t38 -152.5q0 -108 -57.5 -171t-155.5 -71v-166q0 -34 -29 -34q-30 0 -30 34v166q-97 9 -155 70t-58 161zM329 248v-205
q71 9 111.5 58t40.5 132q0 75 -22.5 114t-62.5 39q-67 0 -67 -138z" />
    <glyph glyph-name="chi" unicode="&#x3c7;" 
d="M104 -97l163 235l-163 234q-18 26 -18 37q0 12 8 20t19 8q18 0 30 -18l157 -234l157 234q12 18 30 18q11 0 19 -8t8 -20q0 -11 -18 -37l-164 -234l164 -235q42 -54 -9 -65q-18 0 -30 18l-157 234l-157 -234q-12 -18 -30 -18q-51 10 -9 65z" />
    <glyph glyph-name="psi" unicode="&#x3c8;" 
d="M270 -175v165q-116 7 -159 88q-35 67 -35 185v140q0 34 30 34q29 0 29 -34v-145q0 -63 11 -112q24 -91 124 -102v359q0 34 29 34q30 0 30 -34v-360q68 7 103 53q13 19 21 49q12 44 12 113v145q0 34 29 34q30 0 30 -34v-140q0 -116 -36 -185q-42 -81 -159 -88v-165
q0 -34 -30 -34q-29 0 -29 34z" />
    <glyph glyph-name="omega" unicode="&#x3c9;" 
d="M108 211q0 -165 86 -165q76 0 76 113v130q0 34 29 34q30 0 30 -34v-130q0 -60 23 -86.5t55 -26.5q84 0 84 176q0 85 -41 162q-7 10 -7 25q0 26 27 26q15 0 29 -16t23 -42q30 -89 30 -172q0 -105 -37.5 -160t-106.5 -55q-76 0 -108 74q-32 -75 -110 -75q-69 0 -106 58
t-37 165q0 114 52 205q12 20 29 20q12 0 19.5 -7.5t7.5 -18.5t-7 -24q-40 -73 -40 -176z" />
    <glyph glyph-name="iotadieresis" unicode="&#x3ca;" 
d="M420 -11q-76 0 -112 42t-36 134v212q-138 -6 -150 -6q-33 0 -33 28q0 27 33 27h178q31 0 31 -31v-228q0 -65 21.5 -94t67.5 -29q26 0 65 14q36 14 44 14q12 0 19.5 -7.5t7.5 -20.5q0 -11 -8.5 -19t-29.5 -18q-40 -18 -98 -18zM252 518q-17 -14 -41 -14t-42 14
q-17 15 -17 40t17 39q18 15 42 15t41 -15q18 -14 18 -39t-18 -40zM437 518q-17 -14 -41 -14t-42 14q-17 15 -17 40t17 39q18 15 42 15t41 -15q18 -14 18 -39t-18 -40z" />
    <glyph glyph-name="upsilondieresis" unicode="&#x3cb;" 
d="M120 172v233q0 32 30 32q13 0 21 -8.5t8 -23.5v-227q0 -63 30.5 -99t90.5 -36q61 0 91 36t30 99v227q0 15 8 23.5t21 8.5q30 0 30 -32v-233q0 -89 -46.5 -136.5t-133.5 -47.5t-133.5 47.5t-46.5 136.5zM249 518q-17 -14 -41 -14t-42 14q-17 15 -17 40t17 39q18 15 42 15
t41 -15q18 -14 18 -39t-18 -40zM434 518q-17 -14 -41 -14t-42 14q-17 15 -17 40t17 39q18 15 42 15t41 -15q18 -14 18 -39t-18 -40z" />
    <glyph glyph-name="omicrontonos" unicode="&#x3cc;" 
d="M462 52q-64 -63 -162 -63q-97 0 -163 63q-65 65 -65 161q0 97 65 160q65 64 163 64t162 -64q66 -63 66 -160t-66 -161zM182 92q50 -48 118 -48q69 0 118 48t49 121t-49 121t-118 48q-68 0 -118 -48q-49 -48 -49 -121t49 -121zM280 522l-17 102q-4 21 6.5 36t30.5 15
t30.5 -15t6.5 -36l-17 -102q-5 -33 -20 -33t-20 33z" />
    <glyph glyph-name="upsilontonos" unicode="&#x3cd;" 
d="M120 172v233q0 32 30 32q13 0 21 -8.5t8 -23.5v-227q0 -63 30.5 -99t90.5 -36q61 0 91 36t30 99v227q0 15 8 23.5t21 8.5q30 0 30 -32v-233q0 -89 -46.5 -136.5t-133.5 -47.5t-133.5 47.5t-46.5 136.5zM280 522l-17 102q-4 21 6.5 36t30.5 15t30.5 -15t6.5 -36l-17 -102
q-5 -33 -20 -33t-20 33z" />
    <glyph glyph-name="omegatonos" unicode="&#x3ce;" 
d="M108 211q0 -165 86 -165q76 0 76 113v130q0 34 29 34q30 0 30 -34v-130q0 -60 23 -86.5t55 -26.5q84 0 84 176q0 85 -41 162q-7 10 -7 25q0 26 27 26q15 0 29 -16t23 -42q30 -89 30 -172q0 -105 -37.5 -160t-106.5 -55q-76 0 -108 74q-32 -75 -110 -75q-69 0 -106 58
t-37 165q0 114 52 205q12 20 29 20q12 0 19.5 -7.5t7.5 -18.5t-7 -24q-40 -73 -40 -176zM279 522l-17 102q-4 21 6.5 36t30.5 15t30.5 -15t6.5 -36l-17 -102q-5 -33 -20 -33t-20 33z" />
    <glyph glyph-name="uni0400" unicode="&#x400;" 
d="M476 0h-329q-32 0 -32 32v507q0 32 32 32h329q33 0 33 -29t-33 -29q-55 0 -300 4v-199q207 3 222 3q33 0 33 -29t-33 -29h-52l-91 2q-36 1 -79 1v-212q46 0 95 1q97 3 205 3q33 0 33 -29t-33 -29zM334 647l-122 103q-16 13 -16 30q0 14 10 23.5t24 9.5q19 0 32 -16
l103 -115q12 -14 12 -25q0 -8 -6 -14t-14 -6q-10 0 -23 10z" />
    <glyph glyph-name="uni0401" unicode="&#x401;" 
d="M476 0h-329q-32 0 -32 32v507q0 32 32 32h329q33 0 33 -29t-33 -29q-55 0 -300 4v-199q207 3 222 3q33 0 33 -29t-33 -29h-52l-91 2q-36 1 -79 1v-212q46 0 95 1q97 3 205 3q33 0 33 -29t-33 -29zM261 663q-17 -14 -41 -14t-42 14q-17 15 -17 40t17 39q18 15 42 15
t41 -15q18 -14 18 -39t-18 -40zM446 663q-17 -14 -41 -14t-42 14q-17 15 -17 40t17 39q18 15 42 15t41 -15q18 -14 18 -39t-18 -40z" />
    <glyph glyph-name="uni0402" unicode="&#x402;" 
d="M469 168q0 104 -156 104h-71v-240q0 -32 -31 -32q-13 0 -21.5 8.5t-8.5 23.5v484q-60 -3 -112 -3q-33 0 -33 29t33 29h295q33 0 33 -29t-33 -29q-65 0 -122 3v-188h71q103 0 161 -41t58 -118q0 -83 -52 -126q-50 -43 -127 -43q-53 0 -53 31q0 13 8 20t19 7q2 0 12 -1
t14 -1q53 0 84.5 28.5t31.5 83.5z" />
    <glyph glyph-name="uni0403" unicode="&#x403;" 
d="M492 513q-61 0 -310 4v-497q0 -34 -31 -34q-30 0 -30 34v519q0 32 32 32h339q33 0 33 -29t-33 -29zM413 776l-122 -103q-13 -10 -23 -10q-8 0 -14 6t-6 14q0 11 12 25l103 115q13 16 32 16q14 0 24 -9.5t10 -23.5q0 -17 -16 -30z" />
    <glyph glyph-name="uni0404" unicode="&#x404;" 
d="M378 263l-239 2q4 -105 51 -163.5t125 -58.5q85 0 142 67q14 17 32 17q12 0 20.5 -7.5t8.5 -19.5q0 -14 -11 -28q-75 -86 -192 -86q-110 0 -175 81q-64 82 -64 219q0 138 64 218q65 81 175 81q117 0 192 -86q11 -14 11 -28q0 -12 -8.5 -19.5t-20.5 -7.5q-18 0 -32 17
q-57 67 -142 67q-76 0 -122 -55t-53 -156l238 4q33 0 33 -29t-33 -29z" />
    <glyph glyph-name="uni0405" unicode="&#x405;" 
d="M297 -14q-105 0 -178 48q-22 15 -30 24t-8 23q0 11 8.5 19t19.5 8q14 0 49 -24q61 -41 138 -41q65 0 111 28t46 81q0 43 -36.5 67.5t-120.5 45.5q-109 27 -157 65t-48 106q0 66 56 107q57 42 140 42q112 0 182 -55q20 -15 20 -31q0 -21 -16.5 -27t-48.5 13
q-62 43 -138 43q-61 0 -96.5 -25.5t-35.5 -68.5q0 -42 35 -65.5t115 -43.5q113 -29 161 -64q51 -34 51 -107q0 -79 -62 -124q-62 -44 -157 -44z" />
    <glyph glyph-name="uni0406" unicode="&#x406;" 
d="M268 54v463q-121 -4 -137 -4q-33 0 -33 29t33 29h335q33 0 33 -29t-33 -29h-39l-56 2q-8 0 -18 0.5t-15.5 1t-8.5 0.5v-463q21 0 42 1q41 3 95 3q33 0 33 -29t-33 -29h-335q-33 0 -33 29t33 29q16 0 137 -4z" />
    <glyph glyph-name="uni0407" unicode="&#x407;" 
d="M268 54v463q-121 -4 -137 -4q-33 0 -33 29t33 29h335q33 0 33 -29t-33 -29h-39l-56 2q-8 0 -18 0.5t-15.5 1t-8.5 0.5v-463q21 0 42 1q41 3 95 3q33 0 33 -29t-33 -29h-335q-33 0 -33 29t33 29q16 0 137 -4zM248 663q-17 -14 -41 -14t-42 14q-17 15 -17 40t17 39
q18 15 42 15t41 -15q18 -14 18 -39t-18 -40zM433 663q-17 -14 -41 -14t-42 14q-17 15 -17 40t17 39q18 15 42 15t41 -15q18 -14 18 -39t-18 -40z" />
    <glyph glyph-name="uni0408" unicode="&#x408;" 
d="M77 221q0 42 32 42q30 0 30 -40q0 -89 37 -134.5t107 -45.5q69 0 106 43.5t37 121.5v343q0 34 30 34q31 0 31 -34v-343q0 -105 -53 -163.5t-151 -58.5q-99 0 -152.5 60.5t-53.5 174.5z" />
    <glyph glyph-name="uni0409" unicode="&#x409;" 
d="M178 571h166q32 0 32 -32v-211q103 -1 161.5 -43t58.5 -121q0 -80 -59.5 -122t-164.5 -42h-27q-30 0 -30 34v481h-107l-16 -324q-5 -109 -36 -155.5t-106 -46.5q-35 0 -35 28q0 27 35 27q41 0 58.5 35t22.5 123l16 335q1 34 31 34zM533 163q0 108 -157 109v-216
q157 1 157 107z" />
    <glyph glyph-name="uni040A" unicode="&#x40a;" 
d="M360 0h-47q-30 0 -30 34v238h-170v-252q0 -34 -31 -34q-30 0 -30 34v531q0 34 30 34q31 0 31 -34v-223h170v223q0 34 30 34q31 0 31 -34v-223h16q105 0 164.5 -42t59.5 -122t-59.5 -122t-164.5 -42zM521 163q0 109 -161 109h-16v-216h16q161 0 161 107z" />
    <glyph glyph-name="uni040B" unicode="&#x40b;" 
d="M72 571h285q33 0 33 -29t-33 -29q-49 0 -112 3v-215q59 21 116 21q80 0 123.5 -42.5t43.5 -127.5v-131q0 -32 -31 -32q-13 0 -21.5 8.5t-8.5 23.5v118q0 70 -27 98t-89 28q-57 0 -106 -21v-223q0 -32 -31 -32q-13 0 -21.5 8.5t-8.5 23.5v495q-57 -3 -112 -3q-33 0 -33 29
t33 29z" />
    <glyph glyph-name="uni040C" unicode="&#x40c;" 
d="M509 -14q-16 0 -34 24l-212 280l-83 -84v-186q0 -34 -31 -34q-30 0 -30 34v531q0 34 30 34q31 0 31 -34v-271l266 283q19 22 38 22q12 0 20 -7.5t8 -20.5t-17 -33l-191 -193l223 -286q13 -16 13 -31q0 -11 -9 -19.5t-22 -8.5zM439 750l-122 -103q-13 -10 -23 -10
q-8 0 -14 6t-6 14q0 11 12 25l103 115q13 16 32 16q14 0 24 -9.5t10 -23.5q0 -17 -16 -30z" />
    <glyph glyph-name="uni040D" unicode="&#x40d;" 
d="M321 647l-122 103q-16 13 -16 30q0 14 10 23.5t24 9.5q19 0 32 -16l103 -115q12 -14 12 -25q0 -8 -6 -14t-14 -6q-10 0 -23 10zM103 21v530q0 34 30 34q31 0 31 -34v-431l270 437q16 28 36 28q27 0 27 -35v-530q0 -34 -30 -34q-31 0 -31 34v430l-270 -436
q-16 -28 -36 -28q-27 0 -27 35z" />
    <glyph glyph-name="uni040E" unicode="&#x40e;" 
d="M145 558l190 -311l170 311q15 27 35 27q20 -2 26 -16.5t-9 -42.5l-192 -341q-18 -32 -35 -60q-10 -19 -30 -48q-19 -27 -34 -40q-56 -56 -126 -51q-95 0 -95 41q0 12 8 20t19 8q12 0 33 -7q19 -6 42 -6q35 0 70 30q43 37 83 117l-208 337q-11 17 -11 31q0 12 7.5 20
t21.5 8q18 0 35 -27zM424 761q8 18 21 18q20 0 20 -24t-13 -47q-40 -73 -127 -73t-127 73q-13 23 -13 47t20 24q13 0 21 -18q27 -67 99 -67t99 67z" />
    <glyph glyph-name="uni040F" unicode="&#x40f;" 
d="M454 0h-124v-104q0 -34 -31 -34q-30 0 -30 34v104h-123q-32 0 -32 32v519q0 34 30 34q31 0 31 -34v-495h250v495q0 34 30 34q31 0 31 -34v-519q0 -32 -32 -32z" />
    <glyph glyph-name="uni0410" unicode="&#x410;" 
d="M138 -14q-31 0 -31 34v346q0 104 49 161.5t144 57.5t144 -57.5t49 -161.5v-346q0 -34 -31 -34q-30 0 -30 34v176h-264v-176q0 -34 -30 -34zM168 365v-114h264v114q0 164 -132 164t-132 -164z" />
    <glyph glyph-name="uni0411" unicode="&#x411;" 
d="M287 272h-95v-216h95q161 0 161 108t-161 108zM131 32v507q0 32 32 32h299q33 0 33 -29t-33 -29q-8 0 -25 0.5t-49 1t-60 0.5t-60 0.5t-49.5 1t-26.5 0.5v-189h95q105 0 164.5 -42t59.5 -122t-59.5 -122t-164.5 -42h-124q-32 0 -32 32z" />
    <glyph glyph-name="uni0412" unicode="&#x412;" 
d="M297 0h-144q-32 0 -32 32v507q0 32 32 32h136q100 0 155 -40.5t55 -107.5q0 -89 -87 -124q109 -36 109 -135q0 -79 -60 -121.5t-164 -42.5zM296 263h-114v-207h115q161 0 161 107q0 100 -162 100zM289 515h-107v-196h107q70 0 108.5 25t38.5 73t-38.5 73t-108.5 25z" />
    <glyph glyph-name="uni0413" unicode="&#x413;" 
d="M492 513q-61 0 -310 4v-497q0 -34 -31 -34q-30 0 -30 34v519q0 32 32 32h339q33 0 33 -29t-33 -29z" />
    <glyph glyph-name="uni0414" unicode="&#x414;" 
d="M176 56h244v446h-160l-46 -326q-14 -91 -38 -120zM153 185l48 339q4 34 31 34h215q34 0 34 -34v-469h45q31 0 31 -34v-125q0 -34 -31 -34q-30 0 -30 34v104h-413v-104q0 -34 -30 -34q-31 0 -31 34v125q0 34 31 34q48 0 69 28.5t31 101.5z" />
    <glyph glyph-name="uni0415" unicode="&#x415;" 
d="M476 0h-329q-32 0 -32 32v507q0 32 32 32h329q33 0 33 -29t-33 -29q-55 0 -300 4v-199q207 3 222 3q33 0 33 -29t-33 -29h-52l-91 2q-36 1 -79 1v-212q46 0 95 1q97 3 205 3q33 0 33 -29t-33 -29z" />
    <glyph glyph-name="uni0416" unicode="&#x416;" 
d="M527 6l-134 291l-63 -91v-186q0 -34 -30 -34q-29 0 -29 34v186l-63 91l-134 -291q-11 -20 -30 -20q-12 0 -20 7t-8 18q0 14 4 22l151 317l-125 182q-9 14 -9 25q0 13 8.5 20.5t21.5 7.5q18 0 28 -16l176 -281v263q0 34 29 34q30 0 30 -34v-263l176 281q10 16 28 16
q13 0 21.5 -7.5t8.5 -20.5q0 -11 -9 -25l-126 -182l152 -317q4 -8 4 -22q0 -11 -8 -18t-20 -7q-19 0 -30 20z" />
    <glyph glyph-name="uni0417" unicode="&#x417;" 
d="M124 442q-13 0 -21 7.5t-8 20.5q0 16 14 30q82 85 205 85q77 0 133 -44t56 -114q0 -48 -28.5 -83.5t-78.5 -48.5q57 -7 93.5 -44.5t36.5 -90.5q0 -75 -61 -124q-62 -50 -162 -50q-131 0 -208 83q-18 19 -18 35q0 12 8.5 20.5t20.5 8.5q16 0 35 -21q61 -69 162 -69
q66 0 113 32t47 84q0 49 -42.5 75t-113.5 27q-36 0 -36 29q0 24 35 29q134 17 134 108q0 46 -37.5 73.5t-91.5 27.5q-89 0 -156 -70q-16 -16 -31 -16z" />
    <glyph glyph-name="uni0418" unicode="&#x418;" 
d="M103 21v530q0 34 30 34q31 0 31 -34v-431l270 437q16 28 36 28q27 0 27 -35v-530q0 -34 -30 -34q-31 0 -31 34v430l-270 -436q-16 -28 -36 -28q-27 0 -27 35z" />
    <glyph glyph-name="uni0419" unicode="&#x419;" 
d="M399 761q7 18 21 18q20 0 20 -24t-13 -47q-40 -73 -127 -73t-127 73q-13 23 -13 47t20 24q14 0 21 -18q27 -67 99 -67t99 67zM103 21v530q0 34 30 34q31 0 31 -34v-431l270 437q16 28 36 28q27 0 27 -35v-530q0 -34 -30 -34q-31 0 -31 34v430l-270 -436q-16 -28 -36 -28
q-27 0 -27 35z" />
    <glyph glyph-name="uni041A" unicode="&#x41a;" 
d="M509 -14q-16 0 -34 24l-212 280l-83 -84v-186q0 -34 -31 -34q-30 0 -30 34v531q0 34 30 34q31 0 31 -34v-271l266 283q19 22 38 22q12 0 20 -7.5t8 -20.5t-17 -33l-191 -193l223 -286q13 -16 13 -31q0 -11 -9 -19.5t-22 -8.5z" />
    <glyph glyph-name="uni041B" unicode="&#x41b;" 
d="M221 571h221q34 0 34 -34v-503q0 -34 -31 -34q-30 0 -30 34v481h-167l-46 -324q-15 -108 -51 -155t-111 -47q-34 0 -34 28q0 27 34 27q41 0 65.5 37.5t35.5 120.5l46 335q4 34 34 34z" />
    <glyph glyph-name="uni041C" unicode="&#x41c;" 
d="M80 20v530q0 35 30 35q20 0 37 -33l153 -291l153 291q17 33 37 33q30 0 30 -35v-530q0 -34 -30 -34q-31 0 -31 34v426l-126 -242q-14 -26 -33 -26t-33 26l-126 242v-426q0 -34 -30 -34q-31 0 -31 34z" />
    <glyph glyph-name="uni041D" unicode="&#x41d;" 
d="M134 -14q-30 0 -30 34v531q0 34 30 34q31 0 31 -34v-228h270v228q0 34 30 34q31 0 31 -34v-531q0 -34 -31 -34q-30 0 -30 34v247h-270v-247q0 -34 -31 -34z" />
    <glyph glyph-name="uni041E" unicode="&#x41e;" 
d="M181 111q44 -68 119 -68q74 0 118 68t44 175t-43 174q-44 68 -119 68t-119 -68q-43 -67 -43 -174q0 -108 43 -175zM75 286q0 130 59 215q58 84 166 84q107 0 166 -84q59 -85 59 -215q0 -131 -59 -216q-59 -84 -166 -84q-108 0 -166 84q-59 85 -59 216z" />
    <glyph glyph-name="uni041F" unicode="&#x41f;" 
d="M138 -14q-30 0 -30 34v519q0 32 32 32h320q32 0 32 -32v-519q0 -34 -31 -34q-30 0 -30 34v495h-262v-495q0 -34 -31 -34z" />
    <glyph glyph-name="uni0420" unicode="&#x420;" 
d="M121 20v519q0 32 32 32h140q99 0 163 -44q63 -43 63 -140q0 -95 -64 -140q-63 -45 -162 -45h-111v-182q0 -34 -31 -34q-30 0 -30 34zM295 515h-113v-257h113q74 0 117.5 33t43.5 96q0 64 -43 96t-118 32z" />
    <glyph glyph-name="uni0421" unicode="&#x421;" 
d="M315 43q85 0 142 67q14 17 32 17q12 0 20.5 -7.5t8.5 -19.5q0 -14 -11 -28q-75 -86 -192 -86q-110 0 -175 81q-64 82 -64 219q0 138 64 218q65 81 175 81q117 0 192 -86q11 -14 11 -28q0 -12 -8.5 -19.5t-20.5 -7.5q-18 0 -32 17q-57 67 -142 67q-82 0 -129 -63.5
t-47 -178.5t47.5 -179t128.5 -64z" />
    <glyph glyph-name="uni0422" unicode="&#x422;" 
d="M270 20v497q-135 -4 -182 -4q-33 0 -33 29t33 29h425q33 0 33 -29t-33 -29q-43 0 -182 4v-497q0 -34 -31 -34q-30 0 -30 34z" />
    <glyph glyph-name="uni0423" unicode="&#x423;" 
d="M145 558l190 -311l170 311q15 27 35 27q20 -2 26 -16.5t-9 -42.5l-192 -341q-18 -32 -35 -60q-10 -19 -30 -48q-19 -27 -34 -40q-56 -56 -126 -51q-95 0 -95 41q0 12 8 20t19 8q12 0 33 -7q19 -6 42 -6q35 0 70 30q43 37 83 117l-208 337q-11 17 -11 31q0 12 7.5 20
t21.5 8q18 0 35 -27z" />
    <glyph glyph-name="uni0424" unicode="&#x424;" 
d="M33 285q0 88 64 146q65 59 173 60v60q0 34 30 34q31 0 31 -34v-60q109 -1 172 -60q64 -58 64 -146q0 -89 -64 -147q-62 -57 -172 -59v-59q0 -34 -31 -34q-30 0 -30 34v59q-111 2 -174 59q-63 58 -63 147zM270 131v308q-84 -1 -129 -43t-45 -111t45 -111t129 -43zM504 285
q0 68 -45.5 110.5t-127.5 43.5v-308q83 1 128 43t45 111z" />
    <glyph glyph-name="uni0425" unicode="&#x425;" 
d="M95 -14q-13 0 -21.5 8.5t-8.5 21.5t17 35l182 234l-182 235q-17 22 -17 35t8.5 21.5t21.5 8.5q15 0 29 -17l176 -237l176 237q14 17 29 17q13 0 21.5 -8.5t8.5 -21.5t-17 -35l-183 -235l183 -234q17 -22 17 -35t-8.5 -21.5t-21.5 -8.5q-15 0 -29 17l-176 235l-176 -235
q-14 -17 -29 -17z" />
    <glyph glyph-name="uni0426" unicode="&#x426;" 
d="M496 -138q-30 0 -30 34v104h-320q-32 0 -32 32v519q0 34 30 34q31 0 31 -34v-495h250v495q0 34 30 34q31 0 31 -34v-496h10q31 0 31 -34v-125q0 -34 -31 -34z" />
    <glyph glyph-name="uni0427" unicode="&#x427;" 
d="M412 320v233q0 32 31 32q13 0 21.5 -8.5t8.5 -23.5v-532q0 -32 -31 -32q-13 0 -21.5 8.5t-8.5 23.5v242q-58 -21 -126 -21q-80 0 -123.5 42.5t-43.5 127.5v141q0 32 31 32q13 0 21.5 -8.5t8.5 -23.5v-128q0 -70 27 -98t89 -28q72 0 116 21z" />
    <glyph glyph-name="uni0428" unicode="&#x428;" 
d="M508 0h-415q-32 0 -32 32v519q0 34 30 34q31 0 31 -34v-495h148v495q0 34 30 34q31 0 31 -34v-495h148v495q0 34 31 34q30 0 30 -34v-519q0 -32 -32 -32z" />
    <glyph glyph-name="uni0429" unicode="&#x429;" 
d="M61 32v519q0 34 30 34q31 0 31 -34v-495h148v495q0 34 30 34q31 0 31 -34v-495h148v495q0 34 31 34q30 0 30 -34v-496h10q31 0 31 -34v-125q0 -34 -31 -34q-30 0 -30 34v104h-427q-32 0 -32 32z" />
    <glyph glyph-name="uni042A" unicode="&#x42a;" 
d="M458 163q0 109 -161 109h-15v-216h15q161 0 161 107zM87 571h163q32 0 32 -32v-211h15q105 0 164.5 -42t59.5 -122t-59.5 -122t-164.5 -42h-44q-32 0 -32 32v483q-96 -2 -134 -2q-15 0 -24 8.5t-9 21.5q0 28 33 28z" />
    <glyph glyph-name="uni042B" unicode="&#x42b;" 
d="M517 551v-531q0 -34 -31 -34q-30 0 -30 34v531q0 34 30 34q31 0 31 -34zM320 163q0 109 -161 109h-15v-216h15q161 0 161 107zM83 32v519q0 34 30 34q31 0 31 -34v-223h15q105 0 164.5 -42t59.5 -122t-59.5 -122t-164.5 -42h-44q-32 0 -32 32z" />
    <glyph glyph-name="uni042C" unicode="&#x42c;" 
d="M453 163q0 109 -161 109h-95v-216h95q161 0 161 107zM136 32v519q0 34 30 34q31 0 31 -34v-223h95q105 0 164.5 -42t59.5 -122t-59.5 -122t-164.5 -42h-124q-32 0 -32 32z" />
    <glyph glyph-name="uni042D" unicode="&#x42d;" 
d="M455 265l-239 -2q-33 0 -33 29t33 29l238 -4q-7 101 -53 156t-122 55q-85 0 -142 -67q-14 -17 -32 -17q-12 0 -20.5 7.5t-8.5 19.5q0 14 11 28q75 86 192 86q110 0 175 -81q64 -80 64 -218q0 -136 -65 -219q-65 -81 -174 -81q-117 0 -192 86q-11 14 -11 28q0 12 8.5 19.5
t20.5 7.5q18 0 32 -17q57 -67 142 -67q78 0 125 58.5t51 163.5z" />
    <glyph glyph-name="uni042E" unicode="&#x42e;" 
d="M388 -14q-82 0 -124.5 74t-45.5 207h-98v-247q0 -34 -31 -34q-30 0 -30 34v531q0 34 30 34q31 0 31 -34v-228h99q5 124 47.5 193t121.5 69q88 0 128 -82q42 -83 42 -217q0 -136 -41.5 -218t-128.5 -82zM388 43q108 0 108 243q0 242 -108 242q-107 0 -107 -242
q0 -243 107 -243z" />
    <glyph glyph-name="uni042F" unicode="&#x42f;" 
d="M474 539v-519q0 -34 -30 -34q-31 0 -31 34v213h-112l-149 -221q-18 -26 -36 -26q-12 0 -20 7.5t-8 19.5q0 15 13 34l135 192q-69 13 -109 54.5t-40 108.5q0 85 61 127q62 42 153 42h141q32 0 32 -32zM301 289h112v226h-112q-70 0 -110.5 -30t-40.5 -83t40.5 -83
t110.5 -30z" />
    <glyph glyph-name="uni0430" unicode="&#x430;" 
d="M278 -11q-80 0 -133 37q-53 38 -53 100q0 61 53 99q55 38 133 38q95 0 154 -42v37q0 58 -37.5 91t-105.5 33q-57 0 -106 -25q-31 -16 -41 -16q-13 0 -21 8t-8 21q0 19 31 35q59 32 145 32q201 0 201 -178v-238q0 -32 -29 -32q-13 0 -21 8.5t-8 23.5v10q-59 -42 -154 -42z
M192 64q39 -24 103 -24q65 0 102 24q39 25 39 62t-39 61q-37 25 -102 25t-103 -25q-38 -24 -38 -61t38 -62z" />
    <glyph glyph-name="uni0431" unicode="&#x431;" 
d="M314 382q-71 0 -116 -48q-45 -46 -45 -121q0 -73 41 -122q41 -47 106 -47q68 0 112.5 46t44.5 123t-40.5 123t-102.5 46zM314 437q89 0 146 -61q58 -59 58 -163q0 -102 -62 -164q-62 -60 -156 -60q-97 0 -153 68q-55 67 -55 176q0 158 40.5 240.5t135.5 109.5l172 48
q10 2 16 2q12 0 19.5 -7.5t7.5 -20.5q0 -23 -27 -30l-169 -46q-61 -16 -93 -59.5t-41 -120.5q52 88 161 88z" />
    <glyph glyph-name="uni0432" unicode="&#x432;" 
d="M122 32v362q0 32 30 32h144q87 0 130 -30t43 -83q0 -63 -64 -90q86 -21 86 -101q0 -122 -195 -122h-145q-29 0 -29 32zM293 191h-112v-137h116q131 0 131 68q0 37 -32 53t-103 16zM294 372h-113v-128h112q60 0 86.5 15t26.5 49q0 35 -26 49.5t-86 14.5z" />
    <glyph glyph-name="uni0433" unicode="&#x433;" 
d="M201 375v-354q0 -32 -30 -32q-13 0 -21 8.5t-8 23.5v373q0 32 30 32h288q32 0 32 -27q0 -28 -33 -28q-59 0 -258 4z" />
    <glyph glyph-name="uni0434" unicode="&#x434;" 
d="M189 55h228v316h-162l-31 -195q-17 -98 -35 -121zM166 185l33 207q4 34 31 34h213q33 0 33 -32v-340h45q30 0 30 -33v-115q0 -34 -30 -34q-29 0 -29 34v94h-390v-94q0 -34 -29 -34q-30 0 -30 34v115q0 33 30 33q39 0 60 26t33 105z" />
    <glyph glyph-name="uni0435" unicode="&#x435;" 
d="M311 -11q-101 0 -168 62q-65 62 -65 161t65 162t162 63q95 0 157 -58q63 -58 63 -148q0 -32 -33 -32h-353q5 -68 53 -112q47 -43 122 -43t143 47q25 16 34 16q12 0 20 -8t8 -19q0 -18 -23 -35q-71 -56 -185 -56zM305 382q-59 0 -104 -36t-58 -94h319q-4 57 -51 93
q-46 37 -106 37z" />
    <glyph glyph-name="uni0436" unicode="&#x436;" 
d="M272 21v122l-64 67l-138 -203q-10 -18 -28 -18q-25 0 -25 26q0 12 7 22l144 213l-123 139q-9 9 -9 22q0 10 7 18t19 8q16 0 30 -18l180 -209v195q0 32 28 32t28 -32v-195l180 209q14 18 30 18q12 0 19 -8t7 -18q0 -13 -9 -22l-123 -139l144 -213q7 -10 7 -22
q0 -26 -25 -26q-18 0 -28 18l-138 203l-64 -67v-122q0 -32 -28 -32t-28 32z" />
    <glyph glyph-name="uni0437" unicode="&#x437;" 
d="M492 114q0 -57 -53 -91t-142 -34q-98 0 -181 49q-29 17 -29 37q0 12 7.5 19.5t18.5 7.5q17 0 40 -16q67 -41 145 -41q62 0 97.5 19t35.5 51q0 74 -151 74q-34 1 -34 28q0 28 34 28q147 0 147 70q0 30 -33.5 48t-89.5 18q-75 0 -140 -41q-23 -16 -40 -16q-11 0 -18.5 7.5
t-7.5 19.5q0 20 29 37q82 49 176 49q84 0 134.5 -33.5t50.5 -88.5q0 -36 -26.5 -61.5t-74.5 -36.5q49 -11 77 -39.5t28 -63.5z" />
    <glyph glyph-name="uni0438" unicode="&#x438;" 
d="M458 437q28 0 28 -32v-384q0 -15 -8 -23.5t-21 -8.5q-30 0 -30 32v310l-243 -310q-24 -32 -41 -32q-28 0 -28 32v384q0 15 8 23.5t21 8.5q30 0 30 -32v-309l243 309q24 32 41 32z" />
    <glyph glyph-name="uni0439" unicode="&#x439;" 
d="M458 437q28 0 28 -32v-384q0 -15 -8 -23.5t-21 -8.5q-30 0 -30 32v310l-243 -310q-24 -32 -41 -32q-28 0 -28 32v384q0 15 8 23.5t21 8.5q30 0 30 -32v-309l243 309q24 32 41 32zM400 616q8 18 21 18q20 0 20 -24t-13 -47q-40 -73 -127 -73t-127 73q-13 23 -13 47t20 24
q13 0 21 -18q27 -67 99 -67t99 67z" />
    <glyph glyph-name="uni043A" unicode="&#x43a;" 
d="M498 -11q-17 0 -31 17l-182 215l-101 -75v-125q0 -32 -30 -32q-13 0 -21 8.5t-8 23.5v384q0 32 30 32q13 0 21 -8.5t8 -23.5v-192l272 206q40 29 56 10q21 -31 -18 -56l-161 -117l176 -205q22 -30 16 -46t-27 -16z" />
    <glyph glyph-name="uni043B" unicode="&#x43b;" 
d="M422 371h-168l-31 -209q-13 -88 -46 -128q-32 -38 -108 -38q-32 0 -32 28q0 27 32 27q42 0 64.5 25.5t31.5 93.5l30 224q5 32 30 32h226q30 0 30 -32v-373q0 -15 -8 -23.5t-21 -8.5q-30 0 -30 32v350z" />
    <glyph glyph-name="uni043C" unicode="&#x43c;" 
d="M85 23v379q0 35 34 35q24 0 45 -33l135 -223l135 223q21 33 45 33q34 0 34 -35v-379q0 -34 -29 -34q-30 0 -30 34v312l-122 -204q-14 -26 -33 -26t-33 26l-122 204v-312q0 -34 -29 -34q-30 0 -30 34z" />
    <glyph glyph-name="uni043D" unicode="&#x43d;" 
d="M120 21v384q0 15 8 23.5t21 8.5q30 0 30 -32v-164h242v164q0 32 30 32q13 0 21 -8.5t8 -23.5v-384q0 -15 -8 -23.5t-21 -8.5q-30 0 -30 32v165h-242v-165q0 -32 -30 -32q-13 0 -21 8.5t-8 23.5z" />
    <glyph glyph-name="uni043E" unicode="&#x43e;" 
d="M462 52q-64 -63 -162 -63q-97 0 -163 63q-65 65 -65 161q0 97 65 160q65 64 163 64t162 -64q66 -63 66 -160t-66 -161zM182 92q50 -48 118 -48q69 0 118 48t49 121t-49 121t-118 48q-68 0 -118 -48q-49 -48 -49 -121t49 -121z" />
    <glyph glyph-name="uni043F" unicode="&#x43f;" 
d="M152 426h296q32 0 32 -32v-373q0 -15 -8 -23.5t-21 -8.5q-30 0 -30 32v350h-242v-350q0 -32 -30 -32q-13 0 -21 8.5t-8 23.5v373q0 32 32 32z" />
    <glyph glyph-name="uni0440" unicode="&#x440;" 
d="M322 437q92 0 147 -63q57 -62 57 -161t-57 -162q-56 -62 -147 -62q-97 0 -143 70v-236q0 -15 -8 -23.5t-21 -8.5q-30 0 -30 32v582q0 15 8 23.5t21 8.5q30 0 30 -32v-38q43 70 143 70zM424 335q-41 47 -105 47q-65 0 -106 -47q-40 -46 -40 -122q0 -77 40 -123t106 -46
q65 0 105 46q41 47 41 123q0 75 -41 122z" />
    <glyph glyph-name="uni0441" unicode="&#x441;" 
d="M307 44q74 0 137 54q22 19 38 19q11 0 19 -8t8 -18q0 -18 -22 -36q-79 -66 -180 -66q-99 0 -163 63q-65 63 -65 161t65 161q64 63 163 63q101 0 180 -66q22 -18 22 -36q0 -10 -8 -18t-19 -8q-16 0 -38 19q-63 54 -137 54q-67 0 -117 -47t-50 -122t50 -122t117 -47z" />
    <glyph glyph-name="uni0442" unicode="&#x442;" 
d="M104 426h394q33 0 33 -27q0 -28 -33 -28q-39 0 -167 4v-354q0 -32 -30 -32t-30 32v354q-121 -4 -167 -4q-33 0 -33 28q0 27 33 27z" />
    <glyph glyph-name="uni0443" unicode="&#x443;" 
d="M105 -209q-90 0 -90 39q0 41 61 22q20 -6 39 -6q45 0 77 24q23 17 46.5 52t35.5 66l-178 387q-12 26 -12 35q0 27 30 27q20 0 33 -30l158 -358l158 358q13 30 33 30q30 0 30 -27q0 -10 -12 -35l-177 -385q-47 -105 -99 -152q-50 -47 -133 -47z" />
    <glyph glyph-name="uni0444" unicode="&#x444;" 
d="M271 -177v226q-10 -27 -36 -43.5t-56 -16.5q-71 0 -109.5 59t-38.5 165t38.5 165t109.5 59q31 0 57 -16.5t36 -43.5v251q0 32 28 32t28 -32v-251q10 27 36 43.5t57 16.5q71 0 109.5 -59t38.5 -165t-38.5 -165t-109.5 -59q-30 0 -56 16.5t-36 43.5v-226q0 -32 -29 -32
t-29 32zM328 312v-198q9 -34 32 -54t53 -20q45 0 70.5 46.5t25.5 126.5t-25.5 126.5t-70.5 46.5q-30 0 -53 -20t-32 -54zM272 114v198q-9 34 -32 54t-53 20q-45 0 -70.5 -46.5t-25.5 -126.5t25.5 -126.5t70.5 -46.5q30 0 53 20t32 54z" />
    <glyph glyph-name="uni0445" unicode="&#x445;" 
d="M102 50l160 163l-160 163q-19 19 -19 34q0 18 16.5 25t42.5 -15l157 -169l158 169q25 22 42 15t17 -25q0 -15 -19 -34l-161 -163l161 -163q19 -19 19 -34q0 -18 -17 -25t-42 15l-158 168l-157 -168q-26 -22 -42.5 -15t-16.5 25q0 15 19 34z" />
    <glyph glyph-name="uni0446" unicode="&#x446;" 
d="M524 23v-119q0 -32 -30 -32q-13 0 -21 8.5t-8 23.5v96h-308q-32 0 -32 32v373q0 15 8 23.5t21 8.5q30 0 30 -32v-350h242v350q0 32 30 32q13 0 21 -8.5t8 -23.5v-350h10q13 0 21 -8.5t8 -23.5z" />
    <glyph glyph-name="uni0447" unicode="&#x447;" 
d="M427 237v168q0 32 30 32q13 0 21 -8.5t8 -23.5v-384q0 -32 -30 -32q-13 0 -21 8.5t-8 23.5v163q-57 -21 -136 -21q-80 0 -123 42.5t-43 127.5v72q0 32 30 32q13 0 21 -8.5t8 -23.5v-59q0 -70 28 -100t89 -30q69 0 126 21z" />
    <glyph glyph-name="uni0448" unicode="&#x448;" 
d="M508 0h-415q-31 0 -31 34v369q0 34 29 34q30 0 30 -34v-349h150v349q0 34 29 34q30 0 30 -34v-349h150v349q0 34 30 34q29 0 29 -34v-369q0 -34 -31 -34z" />
    <glyph glyph-name="uni0449" unicode="&#x449;" 
d="M519 0h-428q-29 0 -29 34v369q0 34 29 34q30 0 30 -34v-349h150v349q0 34 29 34q30 0 30 -34v-349h150v349q0 34 30 34q29 0 29 -34v-348h10q13 0 21 -8.5t8 -23.5v-119q0 -32 -30 -32q-13 0 -21 8.5t-8 23.5v96z" />
    <glyph glyph-name="uni044A" unicode="&#x44a;" 
d="M210 32v338q-86 -2 -112 -2q-15 0 -24 8.5t-9 21.5q0 28 33 28h142q13 0 21 -8.5t8 -23.5v-150h47q103 0 148 -29.5t45 -92.5t-45 -92.5t-148 -29.5h-76q-30 0 -30 32zM302 190h-33v-136h33q81 0 112.5 14t31.5 54t-31.5 54t-112.5 14z" />
    <glyph glyph-name="uni044B" unicode="&#x44b;" 
d="M190 0h-74q-32 0 -32 32v373q0 32 30 32q13 0 21 -8.5t8 -23.5v-161h47q103 0 148 -29.5t45 -92.5t-45 -92.5t-148 -29.5zM456 21v384q0 32 30 32q13 0 21 -8.5t8 -23.5v-384q0 -15 -8 -23.5t-21 -8.5q-30 0 -30 32zM176 190h-33v-136h33q81 0 112.5 14t31.5 54t-31.5 54
t-112.5 14z" />
    <glyph glyph-name="uni044C" unicode="&#x44c;" 
d="M301 0h-145q-32 0 -32 32v373q0 32 30 32q13 0 21 -8.5t8 -23.5v-161h118q103 0 148 -29.5t45 -92.5t-45 -92.5t-148 -29.5zM292 190h-109v-136h109q78 0 108.5 14.5t30.5 53.5t-31 53.5t-108 14.5z" />
    <glyph glyph-name="uni044D" unicode="&#x44d;" 
d="M236 246q99 0 210 -3q-11 64 -58 101q-47 38 -107 38q-74 0 -137 -54q-22 -19 -38 -19q-11 0 -19 8t-8 18q0 18 22 36q79 66 180 66q99 0 163 -63q65 -63 65 -161t-65 -161q-64 -63 -163 -63q-101 0 -180 66q-22 18 -22 36q0 10 8 18t19 8q16 0 38 -19q63 -54 137 -54
q61 0 110 41q48 40 56 107q-47 0 -107 -1q-59 -1 -104 -1q-21 0 -29.5 14t0 28t29.5 14z" />
    <glyph glyph-name="uni044E" unicode="&#x44e;" 
d="M384 437q73 0 115 -63q43 -61 43 -161t-43 -162q-42 -62 -115 -62q-68 0 -110 53.5t-47 143.5h-103v-165q0 -32 -30 -32q-13 0 -21 8.5t-8 23.5v384q0 15 8 23.5t21 8.5q30 0 30 -32v-164h103q6 89 48 142.5t109 53.5zM313 90q25 -46 71 -46t71 46q26 47 26 123
q0 75 -26 122t-71 47t-71 -47t-26 -122q0 -76 26 -123z" />
    <glyph glyph-name="uni044F" unicode="&#x44f;" 
d="M126 304q0 63 45 92.5t148 29.5h143q15 0 24.5 -8.5t9.5 -23.5v-373q0 -32 -30 -32q-13 0 -21 8.5t-8 23.5v161h-138l-113 -170q-18 -26 -36 -26q-12 0 -20 7.5t-8 19.5q0 15 13 34l98 141q-107 21 -107 116zM333 236h104v136h-104q-81 0 -112.5 -14t-31.5 -54t31.5 -54
t112.5 -14z" />
    <glyph glyph-name="uni0450" unicode="&#x450;" 
d="M311 -11q-101 0 -168 62q-65 62 -65 161t65 162t162 63q95 0 157 -58q63 -58 63 -148q0 -32 -33 -32h-353q5 -68 53 -112q47 -43 122 -43t143 47q25 16 34 16q12 0 20 -8t8 -19q0 -18 -23 -35q-71 -56 -185 -56zM305 382q-59 0 -104 -36t-58 -94h319q-4 57 -51 93
q-46 37 -106 37zM327 502l-122 103q-16 13 -16 30q0 14 10 23.5t24 9.5q19 0 32 -16l103 -115q12 -13 12 -25q0 -8 -6 -14t-14 -6q-10 0 -23 10z" />
    <glyph glyph-name="uni0451" unicode="&#x451;" 
d="M254 518q-17 -14 -41 -14t-42 14q-17 15 -17 40t17 39q18 15 42 15t41 -15q18 -14 18 -39t-18 -40zM439 518q-17 -14 -41 -14t-42 14q-17 15 -17 40t17 39q18 15 42 15t41 -15q18 -14 18 -39t-18 -40zM311 -11q-101 0 -168 62q-65 62 -65 161t65 162t162 63q95 0 157 -58
q63 -58 63 -148q0 -32 -33 -32h-353q5 -68 53 -112q47 -43 122 -43t143 47q25 16 34 16q12 0 20 -8t8 -19q0 -18 -23 -35q-71 -56 -185 -56zM305 382q-59 0 -104 -36t-58 -94h319q-4 57 -51 93q-46 37 -106 37z" />
    <glyph glyph-name="uni0452" unicode="&#x452;" 
d="M304 -209q-58 0 -103 17q-26 11 -26 31q0 11 8 19t21 8q6 0 27 -7q41 -12 71 -12q67 0 96 36t29 112v249q0 69 -31 103.5t-86 34.5q-59 0 -92.5 -34.5t-33.5 -104.5v-222q0 -32 -30 -32q-13 0 -21 8.5t-8 23.5v484h-36q-29 0 -29 26q0 24 29 24h36v73q0 32 30 32
q13 0 21 -8.5t8 -23.5v-73h106q29 0 29 -24q0 -26 -29 -26h-106v-129q42 61 136 61q78 0 122 -46.5t44 -133.5v-264q0 -99 -48 -150.5t-134 -51.5z" />
    <glyph glyph-name="uni0453" unicode="&#x453;" 
d="M201 375v-354q0 -32 -30 -32q-13 0 -21 8.5t-8 23.5v373q0 32 30 32h288q32 0 32 -27q0 -28 -33 -28q-59 0 -258 4zM415 605l-122 -103q-13 -10 -23 -10q-8 0 -14 6t-6 14q0 12 12 25l103 115q13 16 32 16q14 0 24 -9.5t10 -23.5q0 -17 -16 -30z" />
    <glyph glyph-name="uni0454" unicode="&#x454;" 
d="M307 -11q-99 0 -163 63q-65 63 -65 161t65 161q64 63 163 63q101 0 180 -66q22 -18 22 -36q0 -10 -8 -18t-19 -8q-16 0 -38 19q-63 54 -137 54q-59 0 -108 -38q-46 -37 -57 -101q111 3 210 3q21 0 29.5 -14t0 -28t-29.5 -14q-45 0 -105 1q-59 1 -106 1q8 -67 55 -107
q50 -41 111 -41q74 0 137 54q22 19 38 19q11 0 19 -8t8 -18q0 -18 -22 -36q-79 -66 -180 -66z" />
    <glyph glyph-name="uni0455" unicode="&#x455;" 
d="M311 -11q-104 0 -183 43q-31 16 -31 38q0 12 8 20t20 8q8 0 15 -2.5t17.5 -9t15.5 -9.5q61 -34 138 -34q64 0 99 20t35 53t-31 48.5t-113 27.5q-98 13 -143.5 41t-45.5 84q0 62 52 90q52 30 129 30q88 0 160 -35q22 -10 22 -30q0 -12 -8 -20t-20 -8q-11 0 -31 9
q-66 30 -125 30q-55 0 -87.5 -17.5t-32.5 -47.5t33.5 -46t108.5 -26q106 -16 148.5 -42.5t42.5 -83.5q0 -62 -52.5 -96.5t-140.5 -34.5z" />
    <glyph glyph-name="uni0456" unicode="&#x456;" 
d="M363 537q-17 -15 -44 -15t-45 15q-17 15 -17 40t17 40q18 15 45 15t44 -15q18 -15 18 -40t-18 -40zM477 55q33 0 33 -27q0 -28 -33 -28h-355q-33 0 -33 28q0 27 33 27q22 0 43 -1q123 -3 127 -3v324q-30 0 -56 -1q-22 0 -46.5 -1t-39.5 -1.5t-18 -0.5q-33 0 -33 28
q0 27 33 27h187q32 0 32 -32v-343q96 4 126 4z" />
    <glyph glyph-name="uni0457" unicode="&#x457;" 
d="M284 518q-17 -14 -41 -14t-42 14q-17 15 -17 40t17 39q18 15 42 15t41 -15q18 -14 18 -39t-18 -40zM469 518q-17 -14 -41 -14t-42 14q-17 15 -17 40t17 39q18 15 42 15t41 -15q18 -14 18 -39t-18 -40zM477 55q33 0 33 -27q0 -28 -33 -28h-355q-33 0 -33 28q0 27 33 27
q27 0 170 -4v324q-121 -4 -160 -4q-33 0 -33 28q0 27 33 27h187q32 0 32 -32v-343q107 4 126 4z" />
    <glyph glyph-name="uni0458" unicode="&#x458;" 
d="M414 537q-17 -15 -44 -15t-45 15q-17 15 -17 40t17 40q18 15 45 15t44 -15q18 -15 18 -40t-18 -40zM142 426h227q32 0 32 -32v-401q0 -100 -47 -151t-135 -51q-60 0 -103 17q-27 10 -27 32q0 11 8 18.5t20 7.5q8 0 29 -7q42 -13 74 -13q65 0 93.5 37t28.5 113v379
l-114 -3q-49 -1 -86 -1q-33 0 -33 28q0 27 33 27z" />
    <glyph glyph-name="uni0459" unicode="&#x459;" 
d="M39 -4q-32 0 -32 28q0 27 32 27q42 0 64.5 25.5t31.5 93.5l31 224q5 32 30 32h153q32 0 32 -32v-150h20q103 0 148 -29.5t45 -92.5t-45 -92.5t-148 -29.5h-49q-30 0 -30 32v339h-97l-32 -209q-13 -88 -46 -128q-32 -38 -108 -38zM387 190h-6v-136h6q81 0 112.5 14
t31.5 54t-31.5 54t-112.5 14z" />
    <glyph glyph-name="uni045A" unicode="&#x45a;" 
d="M394 0h-88q-30 0 -30 32v154h-170v-165q0 -32 -30 -32q-13 0 -21 8.5t-8 23.5v384q0 15 8 23.5t21 8.5q30 0 30 -32v-164h170v164q0 32 30 32q13 0 21 -8.5t8 -23.5v-161h59q103 0 148 -29.5t45 -92.5t-45 -92.5t-148 -29.5zM380 190h-45v-136h45q81 0 112.5 14t31.5 54
t-31.5 54t-112.5 14z" />
    <glyph glyph-name="uni045B" unicode="&#x45b;" 
d="M89 555h36v73q0 32 30 32q13 0 21 -8.5t8 -23.5v-73h106q29 0 29 -25t-29 -25h-106v-129q42 61 136 61q78 0 122 -46.5t44 -133.5v-236q0 -32 -30 -32q-13 0 -21 8.5t-8 23.5v223q0 69 -31 103.5t-86 34.5q-59 0 -92.5 -34.5t-33.5 -104.5v-222q0 -32 -30 -32
q-13 0 -21 8.5t-8 23.5v484h-36q-29 0 -29 25t29 25z" />
    <glyph glyph-name="uni045C" unicode="&#x45c;" 
d="M498 -11q-17 0 -31 17l-182 215l-101 -75v-125q0 -32 -30 -32q-13 0 -21 8.5t-8 23.5v384q0 32 30 32q13 0 21 -8.5t8 -23.5v-192l272 206q40 29 56 10q21 -31 -18 -56l-161 -117l176 -205q22 -30 16 -46t-27 -16zM426 591l-122 -103q-13 -10 -23 -10q-8 0 -14 6t-6 14
q0 12 12 25l103 115q13 16 32 16q14 0 24 -9.5t10 -23.5q0 -17 -16 -30z" />
    <glyph glyph-name="uni045D" unicode="&#x45d;" 
d="M458 437q28 0 28 -32v-384q0 -15 -8 -23.5t-21 -8.5q-30 0 -30 32v310l-243 -310q-24 -32 -41 -32q-28 0 -28 32v384q0 15 8 23.5t21 8.5q30 0 30 -32v-309l243 309q24 32 41 32zM315 501l-122 103q-16 13 -16 30q0 14 10 23.5t24 9.5q19 0 32 -16l103 -115
q12 -14 12 -25q0 -8 -6 -14t-14 -6q-10 0 -23 10z" />
    <glyph glyph-name="uni045E" unicode="&#x45e;" 
d="M105 -209q-90 0 -90 39q0 41 61 22q20 -6 39 -6q45 0 77 24q23 17 46.5 52t35.5 66l-178 387q-12 26 -12 35q0 27 30 27q20 0 33 -30l158 -358l158 358q13 30 33 30q30 0 30 -27q0 -10 -12 -35l-177 -385q-47 -105 -99 -152q-50 -47 -133 -47zM404 616q8 18 21 18
q20 0 20 -24t-13 -47q-40 -73 -127 -73t-127 73q-13 23 -13 47t20 24q13 0 21 -18q27 -67 99 -67t99 67z" />
    <glyph glyph-name="uni045F" unicode="&#x45f;" 
d="M448 0h-119v-96q0 -32 -30 -32q-13 0 -21 8.5t-8 23.5v96h-118q-32 0 -32 32v373q0 15 8 23.5t21 8.5q30 0 30 -32v-350h242v350q0 32 30 32q13 0 21 -8.5t8 -23.5v-373q0 -32 -32 -32z" />
    <glyph glyph-name="uni0472" unicode="&#x472;" 
d="M468 70q-60 -84 -168 -84t-168 84t-60 215t60 215q60 85 168 85t168 -85q60 -84 60 -215t-60 -215zM404 286q60 0 60 63q0 62 -47 121q-47 60 -120 60q-70 0 -114 -59q-45 -60 -49 -155q25 31 70 31q36 0 104 -31q70 -30 96 -30zM304 41q70 0 114 59q45 61 49 156
q-25 -31 -70 -31q-35 0 -105 30q-68 31 -95 31q-60 0 -60 -63t46 -122q47 -60 121 -60z" />
    <glyph glyph-name="uni0473" unicode="&#x473;" 
d="M462 52q-64 -63 -162 -63q-97 0 -163 63q-65 65 -65 161q0 97 65 160q65 64 163 64t162 -64q66 -63 66 -160t-66 -161zM300 43q63 0 110 40q48 40 58 103q-25 -31 -73 -31q-29 0 -103 30q-72 31 -96 31q-26 0 -43.5 -18t-13.5 -39q11 -53 57 -84q47 -32 104 -32zM403 210
q26 0 44 18t14 39q-11 53 -57 84q-47 32 -104 32q-62 0 -111 -41q-48 -41 -57 -103q26 32 72 32q31 0 103 -31q73 -30 96 -30z" />
    <glyph glyph-name="uni0490" unicode="&#x490;" 
d="M151 -14q-30 0 -30 34v517q0 34 32 34h312v101q0 34 30 34q31 0 31 -34v-125q0 -34 -29 -34q-36 0 -79 1l-143 3q-22 0 -44 0.5t-33.5 1t-15.5 0.5v-499q0 -34 -31 -34z" />
    <glyph glyph-name="uni0491" unicode="&#x491;" 
d="M201 375v-354q0 -32 -30 -32q-13 0 -21 8.5t-8 23.5v373q0 32 32 32h260v89q0 32 30 32q13 0 21 -8.5t8 -23.5v-111q0 -33 -34 -33q-123 0 -258 4z" />
    <glyph glyph-name="uni0492" unicode="&#x492;" 
d="M181 -14q-30 0 -30 34v244q-22 0 -42.5 -0.5t-30.5 -1t-13 -0.5q-33 0 -33 29t33 29q28 0 86 -2v219q0 34 30 34h311q33 0 33 -29t-33 -29h-69l-121 2q-17 0 -38.5 0.5t-33 1t-18.5 0.5v-200q96 3 197 3q33 0 33 -29t-33 -29q-69 0 -197 4v-246q0 -34 -31 -34z" />
    <glyph glyph-name="uni0493" unicode="&#x493;" 
d="M477 371q-49 0 -258 4v-156q113 4 187 4q33 0 33 -28t-33 -28q-66 0 -187 4v-150q0 -32 -30 -32q-13 0 -21 8.5t-8 23.5v149q-48 -2 -58 -2q-33 0 -33 27t33 27q10 0 58 -2v174q0 32 32 32h285q33 0 33 -27q0 -28 -33 -28z" />
    <glyph glyph-name="uni0496" unicode="&#x496;" 
d="M579 -138q-29 0 -29 34v91q-16 4 -23 19l-134 291l-63 -91v-186q0 -34 -30 -34q-29 0 -29 34v186l-63 91l-134 -291q-11 -20 -30 -20q-12 0 -20 7t-8 18q0 14 4 22l151 317l-125 182q-9 14 -9 25q0 13 8.5 20.5t21.5 7.5q18 0 28 -16l176 -281v263q0 34 29 34
q30 0 30 -34v-263l176 281q10 16 28 16q13 0 21.5 -7.5t8.5 -20.5q0 -11 -9 -25l-126 -182l141 -295h8q31 0 31 -34v-125q0 -34 -30 -34z" />
    <glyph glyph-name="uni0497" unicode="&#x497;" 
d="M272 21v122l-64 67l-138 -203q-10 -18 -28 -18q-25 0 -25 26q0 12 7 22l144 213l-123 139q-9 9 -9 22q0 10 7 18t19 8q16 0 30 -18l180 -209v195q0 32 28 32t28 -32v-195l180 209q14 18 30 18q12 0 19 -8t7 -18q0 -13 -9 -22l-123 -139l132 -195h4q28 0 28 -32v-119
q0 -32 -29 -32q-28 0 -28 32v92q-7 5 -9 11l-138 203l-64 -67v-122q0 -32 -28 -32t-28 32z" />
    <glyph glyph-name="uni0498" unicode="&#x498;" 
d="M316 -138q-30 0 -30 34v91q-122 6 -191 82q-18 19 -18 35q0 12 8.5 20.5t20.5 8.5q16 0 35 -21q61 -69 162 -69q66 0 113 32t47 84q0 49 -42.5 75t-113.5 27q-36 0 -36 29q0 24 35 29q134 17 134 108q0 46 -37.5 73.5t-91.5 27.5q-89 0 -156 -70q-16 -16 -31 -16
q-13 0 -21 7.5t-8 20.5q0 16 14 30q82 85 205 85q77 0 133 -44t56 -114q0 -48 -28.5 -83.5t-78.5 -48.5q57 -7 93.5 -44.5t36.5 -90.5q0 -66 -48.5 -113t-130.5 -58v-93q0 -34 -31 -34z" />
    <glyph glyph-name="uni0499" unicode="&#x499;" 
d="M494 114q0 -47 -37.5 -79.5t-104.5 -41.5v-89q0 -32 -30 -32q-13 0 -21 8.5t-8 23.5v85q-95 2 -175 49q-29 17 -29 37q0 12 7.5 19.5t18.5 7.5q17 0 40 -16q67 -41 145 -41q62 0 97.5 19t35.5 51q0 74 -151 74q-34 1 -34 28q0 28 34 28q147 0 147 70q0 30 -33.5 48
t-89.5 18q-75 0 -140 -41q-23 -16 -40 -16q-11 0 -18.5 7.5t-7.5 19.5q0 20 29 37q82 49 176 49q84 0 134.5 -33.5t50.5 -88.5q0 -36 -26.5 -61.5t-74.5 -36.5q49 -11 77 -39.5t28 -63.5z" />
    <glyph glyph-name="uni049A" unicode="&#x49a;" 
d="M514 -104v90q-21 0 -39 24l-212 280l-83 -84v-186q0 -34 -31 -34q-30 0 -30 34v531q0 34 30 34q31 0 31 -34v-271l266 283q19 22 38 22q12 0 20 -7.5t8 -20.5t-17 -33l-191 -193l220 -283h20q31 0 31 -34v-118q0 -34 -31 -34q-30 0 -30 34z" />
    <glyph glyph-name="uni049B" unicode="&#x49b;" 
d="M548 23v-119q0 -32 -30 -32q-13 0 -21 8.5t-8 23.5v86q-12 4 -22 16l-182 215l-101 -75v-125q0 -32 -30 -32q-13 0 -21 8.5t-8 23.5v384q0 32 30 32q13 0 21 -8.5t8 -23.5v-192l272 206q40 29 56 10q21 -31 -18 -56l-161 -117l172 -201h14q13 0 21 -8.5t8 -23.5z" />
    </font>
</defs>
</svg>
