<?xml version="1.0" encoding="UTF-8" standalone="no"?><!DOCTYPE svg PUBLIC "-//W3C//DTD SVG 1.1//EN" "http://www.w3.org/Graphics/SVG/1.1/DTD/svg11.dtd"><svg width="100%" height="100%" viewBox="0 0 448 512" version="1.1" xmlns="http://www.w3.org/2000/svg" xmlns:xlink="http://www.w3.org/1999/xlink" xml:space="preserve" xmlns:serif="http://www.serif.com/" style="fill-rule:evenodd;clip-rule:evenodd;stroke-linejoin:round;stroke-miterlimit:2;"><path d="M448,209.91c-44.019,0.105 -86.976,-13.628 -122.77,-39.25l0,178.72c-0.033,89.15 -73.4,162.49 -162.55,162.49c-89.172,0 -162.55,-73.377 -162.55,-162.55c0,-89.172 73.378,-162.55 162.55,-162.55c7.467,0 14.924,0.515 22.32,1.54l0,89.89c-7.245,-2.279 -14.795,-3.438 -22.39,-3.438c-40.935,-0 -74.62,33.684 -74.62,74.62c0,40.935 33.685,74.62 74.62,74.62c40.935,-0 74.62,-33.685 74.62,-74.62c0,-0.001 0,-0.001 0,-0.002l-0,-349.38l88,0c-0.061,7.431 0.561,14.853 1.86,22.17c6.177,32.999 25.69,62.034 53.91,80.22c19.872,13.139 43.177,20.145 67,20.14l-0,87.38Z" style="fill:#fff;fill-rule:nonzero;"/></svg>