<?xml version="1.0" encoding="UTF-8" standalone="no"?><!DOCTYPE svg PUBLIC "-//W3C//DTD SVG 1.1//EN" "http://www.w3.org/Graphics/SVG/1.1/DTD/svg11.dtd"><svg width="100%" height="100%" viewBox="0 0 1025 140" version="1.1" xmlns="http://www.w3.org/2000/svg" xmlns:xlink="http://www.w3.org/1999/xlink" xml:space="preserve" xmlns:serif="http://www.serif.com/" style="fill-rule:evenodd;clip-rule:evenodd;stroke-linejoin:round;stroke-miterlimit:2;"><g><path d="M1025,0l-1025,0l0,140l1025,0l0,-140Zm-72.452,72.933c-0,4.676 -0.326,9.506 -0.978,14.489c-0.652,4.984 -1.878,9.545 -3.68,13.685c-1.802,4.14 -4.313,7.533 -7.533,10.178c-3.22,2.645 -7.36,3.967 -12.42,3.967c-5.06,0 -9.18,-1.322 -12.362,-3.967c-3.182,-2.645 -5.693,-6.038 -7.533,-10.178c-1.84,-4.14 -3.085,-8.701 -3.737,-13.685c-0.652,-4.983 -0.978,-9.813 -0.978,-14.49c0,-4.676 0.326,-9.506 0.978,-14.49c0.652,-4.983 1.897,-9.545 3.737,-13.685c1.84,-4.14 4.351,-7.532 7.533,-10.177c3.182,-2.645 7.302,-3.968 12.362,-3.968c5.06,0 9.2,1.323 12.42,3.968c3.22,2.645 5.731,6.037 7.533,10.177c1.802,4.14 3.028,8.702 3.68,13.685c0.652,4.984 0.977,9.814 0.977,14.49Zm-369.495,14.375c0,4.6 -0.613,8.625 -1.839,12.075c-1.227,3.45 -2.895,6.364 -5.003,8.74c-2.108,2.377 -4.619,4.16 -7.532,5.348c-2.914,1.188 -6.057,1.782 -9.43,1.782c-5.75,0 -10.638,-1.533 -14.663,-4.6c-4.025,-3.066 -6.804,-7.551 -8.337,-13.455l11.845,-3.91c0.92,2.914 2.28,5.271 4.082,7.073c1.802,1.802 4.044,2.702 6.728,2.702c3.373,0 5.999,-1.399 7.877,-4.197c1.878,-2.798 2.818,-6.498 2.818,-11.098c-0,-4.983 -1.189,-8.816 -3.565,-11.5c-2.377,-2.683 -5.559,-4.025 -9.545,-4.025c-2.3,0 -4.888,0.346 -7.763,1.035c-2.875,0.691 -5.309,1.572 -7.302,2.645l1.38,-43.7l37.375,0.001l-0,12.075l-25.645,-0l-0.805,18.975c1.073,-0.537 2.319,-0.94 3.737,-1.208c1.418,-0.268 2.664,-0.403 3.738,-0.403c3.526,0 6.65,0.614 9.372,1.84c2.722,1.227 5.003,2.971 6.843,5.233c1.84,2.262 3.239,4.964 4.197,8.108c0.958,3.143 1.438,6.631 1.438,10.465Zm196.765,-0.116c-0,4.37 -0.614,8.3 -1.84,11.788c-1.227,3.488 -2.914,6.44 -5.06,8.855c-2.147,2.415 -4.715,4.255 -7.705,5.52c-2.99,1.265 -6.249,1.897 -9.775,1.897c-3.604,0 -6.9,-0.632 -9.89,-1.897c-2.99,-1.265 -5.559,-3.086 -7.705,-5.463c-2.147,-2.376 -3.815,-5.29 -5.003,-8.74c-1.188,-3.45 -1.782,-7.321 -1.782,-11.615c-0,-4.446 0.594,-8.605 1.782,-12.477c1.188,-3.872 2.741,-7.648 4.658,-11.328l16.1,-31.51l15.065,0l-16.56,31.05l0.115,0.115c0.843,-0.766 1.935,-1.341 3.277,-1.725c1.342,-0.383 2.626,-0.575 3.853,-0.575c2.683,0 5.27,0.518 7.762,1.553c2.492,1.035 4.677,2.607 6.555,4.715c1.878,2.108 3.373,4.811 4.485,8.108c1.112,3.296 1.668,7.206 1.668,11.729Zm-139.265,0.115c-0,4.6 -0.614,8.626 -1.84,12.075c-1.227,3.45 -2.895,6.364 -5.003,8.74c-2.108,2.377 -4.619,4.16 -7.532,5.348c-2.914,1.188 -6.057,1.782 -9.43,1.782c-5.75,0.001 -10.638,-1.533 -14.663,-4.599c-4.025,-3.067 -6.804,-7.552 -8.337,-13.456l11.845,-3.909c0.92,2.913 2.28,5.27 4.082,7.072c1.802,1.802 4.044,2.703 6.728,2.703c3.373,-0 5.999,-1.4 7.877,-4.198c1.878,-2.798 2.818,-6.497 2.818,-11.097c-0,-4.984 -1.189,-8.817 -3.565,-11.5c-2.377,-2.684 -5.559,-4.025 -9.545,-4.025c-2.3,-0 -4.888,0.345 -7.763,1.035c-2.875,0.69 -5.309,1.571 -7.302,2.645l1.38,-43.7l37.375,-0l-0,12.075l-25.645,-0l-0.805,18.975c1.073,-0.537 2.319,-0.94 3.737,-1.208c1.418,-0.268 2.664,-0.402 3.738,-0.402c3.526,-0 6.65,0.613 9.372,1.84c2.722,1.226 5.003,2.97 6.843,5.232c1.84,2.262 3.239,4.964 4.197,8.108c0.958,3.143 1.438,6.631 1.438,10.465Zm-252.425,-0c-0,4.6 -0.614,8.625 -1.84,12.075c-1.227,3.45 -2.895,6.363 -5.003,8.74c-2.108,2.376 -4.619,4.159 -7.532,5.347c-2.914,1.188 -6.057,1.783 -9.43,1.783c-5.75,-0 -10.638,-1.534 -14.663,-4.6c-4.025,-3.067 -6.804,-7.552 -8.337,-13.456l11.845,-3.909c0.92,2.913 2.28,5.27 4.082,7.072c1.802,1.802 4.044,2.703 6.728,2.703c3.373,-0 5.999,-1.4 7.877,-4.198c1.878,-2.798 2.818,-6.497 2.818,-11.097c-0,-4.984 -1.189,-8.817 -3.565,-11.5c-2.377,-2.684 -5.559,-4.025 -9.545,-4.025c-2.3,-0 -4.888,0.345 -7.763,1.035c-2.875,0.69 -5.309,1.571 -7.302,2.645l1.38,-43.7l37.375,-0l-0,12.075l-25.645,-0l-0.805,18.975c1.073,-0.537 2.319,-0.94 3.737,-1.208c1.418,-0.268 2.664,-0.402 3.738,-0.402c3.526,-0 6.65,0.613 9.372,1.84c2.722,1.226 5.003,2.97 6.843,5.232c1.84,2.262 3.239,4.964 4.197,8.108c0.958,3.143 1.438,6.631 1.438,10.465Zm447.35,-0c-0,4.6 -0.614,8.625 -1.84,12.075c-1.227,3.45 -2.895,6.363 -5.003,8.74c-2.108,2.376 -4.619,4.159 -7.532,5.347c-2.914,1.188 -6.057,1.783 -9.43,1.783c-5.75,-0 -10.638,-1.534 -14.663,-4.6c-4.025,-3.067 -6.804,-7.552 -8.337,-13.456l11.845,-3.909c0.92,2.913 2.28,5.27 4.082,7.072c1.802,1.802 4.044,2.703 6.728,2.703c3.373,-0 5.999,-1.4 7.877,-4.198c1.878,-2.798 2.818,-6.497 2.818,-11.097c-0,-4.984 -1.189,-8.817 -3.565,-11.5c-2.377,-2.684 -5.559,-4.025 -9.545,-4.025c-2.3,-0 -4.888,0.345 -7.763,1.035c-2.875,0.69 -5.309,1.571 -7.302,2.645l1.38,-43.7l37.375,-0l-0,12.075l-25.645,-0l-0.805,18.975c1.073,-0.537 2.319,-0.94 3.737,-1.208c1.418,-0.268 2.664,-0.402 3.738,-0.402c3.526,-0 6.65,0.613 9.372,1.84c2.722,1.226 5.003,2.97 6.843,5.232c1.84,2.262 3.239,4.964 4.197,8.108c0.958,3.143 1.438,6.631 1.438,10.465Zm-529.575,26.335l-0,-65.436l-13.57,10.236l-6.21,-10.696l20.93,-15.525l12.305,0l-0,81.421l-13.455,-0.001Zm-119.025,-17.709l-0,17.71l-12.42,-0.001l-0,-17.709l-29.44,-0l-0,-12.075l24.61,-51.635l17.25,-0l-0,52.21l8.97,-0l-0,11.5l-8.97,-0Zm234.025,17.71l-0,-65.436l-13.57,10.236l-6.21,-10.696l20.93,-15.525l12.305,0l-0,81.421l-13.455,-0.001Zm445.97,0.001l-14.605,-0.001l25.185,-69.114l-29.9,-0l-0,-12.305l44.275,-0l-0,10.81l-24.955,70.61Zm-364.435,-59.916c-0,2.607 -0.326,5.041 -0.978,7.303c-0.652,2.262 -1.552,4.447 -2.702,6.555c-1.15,2.108 -2.473,4.178 -3.968,6.21c-1.495,2.032 -3.047,4.121 -4.657,6.268l-16.79,21.505l28.06,-0l-0,12.075l-43.93,-0l-0,-12.535l23.575,-29.786c2.3,-3.066 4.14,-5.999 5.52,-8.797c1.38,-2.798 2.07,-5.578 2.07,-8.337c-0,-3.22 -0.729,-5.942 -2.185,-8.165c-1.457,-2.224 -3.68,-3.335 -6.67,-3.335c-2.684,-0 -4.907,0.996 -6.67,2.99c-1.764,1.993 -2.914,4.868 -3.45,8.625l-12.995,-1.265c0.996,-7.437 3.603,-13.034 7.82,-16.791c4.216,-3.756 9.506,-5.634 15.87,-5.634c3.526,-0 6.65,0.575 9.372,1.725c2.722,1.15 5.022,2.759 6.9,4.83c1.878,2.07 3.316,4.523 4.313,7.36c0.996,2.836 1.495,5.903 1.495,9.2Zm189.29,42.205l-0,17.71l-12.42,-0.001l-0,-17.709l-29.44,-0l-0,-12.075l24.61,-51.635l17.25,-0l-0,52.21l8.97,-0l-0,11.5l-8.97,-0Zm-487.83,-37.835c-0,-4.294 0.613,-8.146 1.84,-11.558c1.226,-3.412 2.913,-6.287 5.06,-8.625c2.146,-2.338 4.715,-4.14 7.705,-5.405c2.99,-1.265 6.248,-1.897 9.775,-1.897c3.603,-0 6.9,0.613 9.89,1.84c2.99,1.226 5.558,3.009 7.705,5.347c2.146,2.338 3.814,5.213 5.002,8.625c1.188,3.412 1.783,7.264 1.783,11.558c-0,4.446 -0.595,8.625 -1.783,12.535c-1.188,3.909 -2.741,7.704 -4.657,11.385l-16.1,31.739l-15.065,0l17.25,-32.085l-0.115,-0.115c-1.074,0.844 -2.262,1.438 -3.565,1.783c-1.304,0.345 -2.684,0.517 -4.14,0.517c-2.684,0 -5.271,-0.517 -7.763,-1.552c-2.492,-1.035 -4.696,-2.607 -6.612,-4.715c-1.917,-2.108 -3.431,-4.773 -4.543,-7.993c-1.112,-3.22 -1.667,-7.015 -1.667,-11.385Zm-106.145,14.835l-0,-25.3l11.73,0l-0,25.3l25.3,0l-0,11.73l-25.3,0l-0,25.3l-11.73,0l-0,-25.3l-25.3,0l-0,-11.73l25.3,0Zm668.955,14.145c-0,-4.753 -0.92,-8.663 -2.76,-11.73c-1.84,-3.066 -4.6,-4.6 -8.28,-4.6c-1.764,0 -3.335,0.422 -4.715,1.265c-1.38,0.844 -2.569,2.013 -3.565,3.508c-0.997,1.495 -1.764,3.239 -2.3,5.232c-0.537,1.994 -0.805,4.179 -0.805,6.555c-0,4.984 0.996,8.99 2.99,12.018c1.993,3.028 4.753,4.542 8.28,4.542c3.526,0 6.267,-1.552 8.222,-4.657c1.955,-3.105 2.933,-7.149 2.933,-12.133Zm171.925,-14.145c-0,-2.76 -0.115,-5.884 -0.345,-9.372c-0.23,-3.488 -0.71,-6.747 -1.438,-9.775c-0.728,-3.028 -1.802,-5.597 -3.22,-7.705c-1.418,-2.108 -3.316,-3.163 -5.692,-3.163c-2.377,0 -4.275,1.055 -5.693,3.163c-1.418,2.108 -2.492,4.677 -3.22,7.705c-0.728,3.028 -1.207,6.287 -1.437,9.775c-0.23,3.488 -0.345,6.612 -0.345,9.372c-0,2.76 0.115,5.885 0.345,9.373c0.23,3.488 0.709,6.766 1.437,9.832c0.728,3.067 1.802,5.635 3.22,7.705c1.418,2.07 3.316,3.105 5.693,3.105c2.376,0 4.274,-1.035 5.692,-3.105c1.418,-2.07 2.492,-4.638 3.22,-7.705c0.728,-3.066 1.208,-6.344 1.438,-9.832c0.23,-3.488 0.345,-6.613 0.345,-9.373Zm-258.98,-27.255l-0.23,0l-17.365,38.755l17.595,0l-0,-38.755Zm-504.85,0l-0.23,0l-17.365,38.755l17.595,0l-0,-38.755Zm42.205,12.19c-0,4.677 0.92,8.51 2.76,11.5c1.84,2.99 4.6,4.485 8.28,4.485c3.45,0 6.21,-1.533 8.28,-4.6c2.07,-3.066 3.105,-6.9 3.105,-11.5c-0,-4.83 -0.997,-8.701 -2.99,-11.615c-1.994,-2.913 -4.754,-4.37 -8.28,-4.37c-3.527,0 -6.268,1.495 -8.223,4.485c-1.955,2.99 -2.932,6.862 -2.932,11.615Z" style="fill:#fff;"/></g></svg>