<?xml version="1.0" encoding="UTF-8" standalone="no"?><!DOCTYPE svg PUBLIC "-//W3C//DTD SVG 1.1//EN" "http://www.w3.org/Graphics/SVG/1.1/DTD/svg11.dtd"><svg width="100%" height="100%" viewBox="0 0 499 141" version="1.1" xmlns="http://www.w3.org/2000/svg" xmlns:xlink="http://www.w3.org/1999/xlink" xml:space="preserve" xmlns:serif="http://www.serif.com/" style="fill-rule:evenodd;clip-rule:evenodd;stroke-linejoin:round;stroke-miterlimit:2;"><rect id="Artboard1" x="0" y="0" width="498.3" height="140.357" style="fill:none;"/><clipPath id="_clip1"><rect x="0" y="0" width="498.3" height="140.357"/></clipPath><g clip-path="url(#_clip1)"><path d="M498.313,0l-498.313,0l0,140.357l498.313,-0l-0,-140.357Zm-350.476,78.675c-0,6.399 -0.787,12.3 -2.36,17.702c-1.574,5.403 -3.803,10.045 -6.688,13.926c-2.885,3.881 -6.451,6.924 -10.7,9.126c-4.248,2.203 -9.047,3.305 -14.397,3.305c-5.35,-0 -10.123,-1.102 -14.319,-3.305c-4.196,-2.202 -7.789,-5.245 -10.779,-9.126c-2.99,-3.881 -5.271,-8.523 -6.845,-13.926c-1.573,-5.402 -2.36,-11.303 -2.36,-17.702c-0,-6.399 0.787,-12.326 2.36,-17.78c1.574,-5.455 3.829,-10.123 6.766,-14.005c2.938,-3.881 6.53,-6.923 10.779,-9.126c4.248,-2.203 9.048,-3.305 14.398,-3.305c5.35,0 10.149,1.102 14.397,3.305c4.249,2.203 7.815,5.245 10.7,9.126c2.885,3.882 5.114,8.55 6.688,14.005c1.573,5.454 2.36,11.381 2.36,17.78Zm-72.539,34.775c-2.203,2.727 -5.035,4.878 -8.497,6.451c-3.462,1.574 -7.448,2.361 -11.959,2.361c-5.245,-0 -9.861,-1.075 -13.847,-3.226c-3.986,-2.15 -7.343,-5.166 -10.07,-9.048c-2.728,-3.881 -4.8,-8.497 -6.216,-13.847c-1.416,-5.35 -2.124,-11.224 -2.124,-17.623c-0,-6.399 0.734,-12.247 2.203,-17.545c1.468,-5.297 3.566,-9.887 6.294,-13.768c2.727,-3.881 6.11,-6.897 10.149,-9.048c4.039,-2.15 8.681,-3.225 13.926,-3.225c4.615,-0 8.602,0.839 11.958,2.517c3.357,1.679 5.98,3.567 7.868,5.665l-9.913,19.197c-0.944,-1.469 -2.098,-2.623 -3.462,-3.462c-1.364,-0.839 -2.885,-1.259 -4.563,-1.259c-3.042,0 -5.586,1.836 -7.632,5.508c-2.045,3.671 -3.068,8.811 -3.068,15.42c0,6.609 0.997,11.723 2.99,15.342c1.993,3.619 4.72,5.428 8.182,5.428c1.783,0 3.331,-0.445 4.642,-1.337c1.311,-0.892 2.386,-2.072 3.226,-3.54l9.913,19.039Zm342.397,0c-2.203,2.727 -5.035,4.878 -8.497,6.451c-3.462,1.574 -7.448,2.361 -11.959,2.361c-5.245,-0 -9.86,-1.075 -13.846,-3.226c-3.987,-2.15 -7.344,-5.166 -10.071,-9.048c-2.727,-3.881 -4.799,-8.497 -6.215,-13.847c-1.417,-5.35 -2.125,-11.224 -2.125,-17.623c0,-6.399 0.735,-12.247 2.203,-17.545c1.469,-5.297 3.567,-9.887 6.294,-13.768c2.728,-3.881 6.111,-6.897 10.15,-9.048c4.038,-2.15 8.68,-3.225 13.925,-3.225c4.616,-0 8.602,0.839 11.959,2.517c3.357,1.679 5.979,3.567 7.867,5.665l-9.913,19.197c-0.944,-1.469 -2.098,-2.623 -3.461,-3.462c-1.364,-0.839 -2.885,-1.259 -4.564,-1.259c-3.042,0 -5.586,1.836 -7.631,5.508c-2.046,3.671 -3.069,8.811 -3.069,15.42c0,6.609 0.997,11.723 2.99,15.342c1.993,3.619 4.721,5.428 8.182,5.428c1.784,0 3.331,-0.445 4.642,-1.337c1.312,-0.892 2.387,-2.072 3.226,-3.54l9.913,19.039Zm-132.175,5.665c-1.364,0.734 -3.305,1.363 -5.822,1.888c-2.518,0.524 -5.036,0.787 -7.553,0.787c-8.287,-0 -14.319,-2.229 -18.096,-6.688c-3.776,-4.458 -5.664,-11.145 -5.664,-20.062l-0,-38.394l-9.913,0l-0,-19.197l9.755,0l0,-19.826l23.918,-0l-0,19.826l14.161,0l0,19.197l-14.161,0l-0,32.729c-0,3.986 0.629,6.897 1.888,8.733c1.259,1.836 3.252,2.754 5.979,2.754c2.203,-0 4.039,-0.367 5.508,-1.102l-0,19.355Zm179.538,-0c-1.364,0.734 -3.304,1.363 -5.822,1.888c-2.518,0.524 -5.035,0.787 -7.553,0.787c-8.287,-0 -14.319,-2.229 -18.095,-6.688c-3.777,-4.458 -5.665,-11.145 -5.665,-20.062l0,-38.394l-9.913,0l-0,-19.197l9.756,0l-0,-19.826l23.917,-0l0,19.826l14.162,0l-0,19.197l-14.162,0l0,32.729c0,3.986 0.63,6.897 1.888,8.733c1.259,1.836 3.252,2.754 5.98,2.754c2.203,-0 4.038,-0.367 5.507,-1.102l0,19.355Zm-134.064,-9.599c-1.049,3.672 -3.12,6.635 -6.215,8.891c-3.095,2.255 -7.107,3.383 -12.037,3.383c-2.413,-0 -4.878,-0.42 -7.396,-1.259c-2.518,-0.839 -4.825,-2.229 -6.923,-4.17c-2.098,-1.941 -3.829,-4.511 -5.193,-7.71c-1.364,-3.2 -2.046,-7.16 -2.046,-11.88c0,-5.665 1.023,-10.333 3.069,-14.005c2.045,-3.671 4.72,-6.608 8.025,-8.811c3.304,-2.203 7.054,-3.75 11.25,-4.642c4.196,-0.892 8.445,-1.338 12.746,-1.338l3.147,0l-0,-1.258c-0,-3.987 -0.918,-6.871 -2.754,-8.655c-1.836,-1.783 -4.275,-2.675 -7.317,-2.675c-3.042,0 -5.795,0.682 -8.261,2.046c-2.465,1.364 -4.589,3.094 -6.372,5.192l-10.858,-15.105c3.357,-3.987 7.527,-7.081 12.51,-9.284c4.983,-2.203 9.939,-3.304 14.87,-3.304c5.559,-0 10.28,0.839 14.161,2.517c3.882,1.679 7.029,4.144 9.441,7.396c2.413,3.252 4.144,7.212 5.193,11.88c1.049,4.668 1.573,10.044 1.573,16.128l0,46.891l-20.298,0l0,-10.228l-0.315,0Zm-144.606,-72.067l0,11.644l0.315,0c1.364,-3.986 3.776,-7.422 7.238,-10.306c3.462,-2.885 7.763,-4.328 12.903,-4.328c4.72,0 8.497,0.971 11.329,2.911c2.832,1.941 5.035,4.537 6.609,7.789c1.573,3.252 2.622,6.976 3.147,11.172c0.524,4.196 0.787,8.55 0.787,13.061l-0,50.352l-24.704,0l-0,-50.51c-0,-3.462 -0.499,-6.504 -1.495,-9.126c-0.997,-2.623 -2.964,-3.934 -5.901,-3.934c-3.042,0 -5.402,1.39 -7.081,4.17c-1.678,2.78 -2.517,6.425 -2.517,10.936l-0,48.464l-24.705,0l0,-82.295l24.075,0Zm143.82,46.419l-4.406,-0c-1.784,-0 -3.514,0.157 -5.193,0.472c-1.678,0.315 -3.147,0.918 -4.406,1.81c-1.259,0.891 -2.255,2.045 -2.989,3.461c-0.735,1.416 -1.102,3.226 -1.102,5.429c0,3.252 0.708,5.638 2.124,7.159c1.417,1.521 3.121,2.282 5.114,2.282c1.889,0 3.541,-0.472 4.957,-1.416c1.416,-0.944 2.544,-2.177 3.383,-3.698c0.839,-1.521 1.469,-3.252 1.888,-5.193c0.42,-1.94 0.63,-3.855 0.63,-5.743l-0,-4.563Zm-205.974,-5.35c0,-3.147 -0.21,-6.058 -0.629,-8.733c-0.42,-2.675 -1.049,-5.035 -1.888,-7.081c-0.84,-2.045 -1.915,-3.645 -3.226,-4.799c-1.311,-1.154 -2.911,-1.731 -4.799,-1.731c-1.784,0 -3.331,0.577 -4.642,1.731c-1.312,1.154 -2.387,2.754 -3.226,4.799c-0.839,2.046 -1.469,4.406 -1.888,7.081c-0.42,2.675 -0.63,5.586 -0.63,8.733c0,3.147 0.21,6.058 0.63,8.733c0.419,2.675 1.049,5.035 1.888,7.081c0.839,2.045 1.914,3.645 3.226,4.799c1.311,1.154 2.858,1.731 4.642,1.731c1.888,-0 3.488,-0.577 4.799,-1.731c1.311,-1.154 2.386,-2.754 3.226,-4.799c0.839,-2.046 1.468,-4.406 1.888,-7.081c0.419,-2.675 0.629,-5.586 0.629,-8.733Z" style="fill:#fff;"/></g></svg>