<?xml version="1.0" encoding="UTF-8" standalone="no"?><!DOCTYPE svg PUBLIC "-//W3C//DTD SVG 1.1//EN" "http://www.w3.org/Graphics/SVG/1.1/DTD/svg11.dtd"><svg width="100%" height="100%" viewBox="0 0 1025 140" version="1.1" xmlns="http://www.w3.org/2000/svg" xmlns:xlink="http://www.w3.org/1999/xlink" xml:space="preserve" xmlns:serif="http://www.serif.com/" style="fill-rule:evenodd;clip-rule:evenodd;stroke-linejoin:round;stroke-miterlimit:2;"><g><path d="M1025,0l-1025,0l0,140l1025,0l0,-140Zm-535.787,67.297c-0,3.987 -0.422,7.686 -1.265,11.098c-0.844,3.412 -2.032,6.363 -3.565,8.855c-1.534,2.492 -3.412,4.447 -5.635,5.865c-2.224,1.418 -4.715,2.127 -7.475,2.127c-2.454,0.001 -4.447,-0.651 -5.98,-1.954c-1.534,-1.304 -2.377,-3.412 -2.53,-6.325l-0.23,-0c-0.844,2.223 -2.128,4.159 -3.853,5.807c-1.725,1.648 -3.929,2.472 -6.612,2.472c-1.994,0.001 -3.776,-0.498 -5.348,-1.494c-1.572,-0.997 -2.894,-2.377 -3.967,-4.14c-1.074,-1.764 -1.898,-3.834 -2.473,-6.21c-0.575,-2.377 -0.862,-4.907 -0.862,-7.59c-0,-3.297 0.364,-6.536 1.092,-9.718c0.728,-3.182 1.783,-6.018 3.163,-8.51c1.38,-2.492 3.085,-4.504 5.117,-6.037c2.032,-1.534 4.351,-2.3 6.958,-2.3c2.453,-0.001 4.35,0.709 5.692,2.127c1.342,1.418 2.204,3.009 2.588,4.773l0.23,-0.001l0.805,-3.91l9.43,0l-2.645,15.41c-0.384,2.684 -0.729,5.118 -1.035,7.303c-0.307,2.185 -0.46,3.814 -0.46,4.888c-0,1.149 0.172,2.185 0.517,3.105c0.345,0.919 1.131,1.379 2.358,1.379c1.84,0 3.507,-1.418 5.002,-4.255c1.495,-2.836 2.243,-7.015 2.243,-12.535c-0,-8.97 -2.051,-15.965 -6.153,-20.987c-4.102,-5.022 -9.756,-7.533 -16.962,-7.533c-3.68,0 -7.015,0.901 -10.005,2.703c-2.99,1.802 -5.54,4.236 -7.648,7.302c-2.108,3.067 -3.737,6.651 -4.887,10.753c-1.15,4.102 -1.725,8.491 -1.725,13.167c-0,4.907 0.575,9.411 1.725,13.513c1.15,4.102 2.817,7.647 5.002,10.637c2.185,2.99 4.849,5.31 7.993,6.958c3.143,1.648 6.708,2.472 10.695,2.472c3.833,0 7.494,-0.766 10.982,-2.3c3.488,-1.533 6.536,-3.641 9.143,-6.325l5.06,7.705c-3.527,3.45 -7.456,6 -11.788,7.648c-4.332,1.648 -9.104,2.472 -14.317,2.472c-5.444,0.001 -10.293,-1.054 -14.548,-3.162c-4.255,-2.108 -7.839,-5.06 -10.752,-8.855c-2.914,-3.795 -5.137,-8.299 -6.67,-13.512c-1.534,-5.214 -2.3,-10.926 -2.3,-17.135c-0,-6.057 0.805,-11.711 2.415,-16.963c1.61,-5.252 3.89,-9.794 6.842,-13.627c2.952,-3.834 6.517,-6.843 10.695,-9.028c4.178,-2.185 8.874,-3.277 14.088,-3.277c4.906,-0 9.334,0.805 13.282,2.415c3.948,1.61 7.303,3.986 10.063,7.13c2.76,3.143 4.868,7.034 6.325,11.672c1.456,4.638 2.185,9.948 2.185,15.927Zm338.675,42.896c-1.61,1.686 -3.565,3.009 -5.865,3.967c-2.3,0.958 -4.907,1.438 -7.82,1.438c-3.604,-0.001 -6.785,-0.767 -9.545,-2.3c-2.76,-1.534 -5.06,-3.7 -6.9,-6.498c-1.84,-2.798 -3.22,-6.114 -4.14,-9.948c-0.92,-3.833 -1.38,-8.05 -1.38,-12.65c-0,-4.6 0.479,-8.816 1.437,-12.649c0.958,-3.834 2.377,-7.13 4.255,-9.891c1.878,-2.759 4.178,-4.887 6.9,-6.382c2.722,-1.495 5.884,-2.243 9.488,-2.243c3.143,0 5.845,0.537 8.107,1.61c2.262,1.074 4.044,2.262 5.348,3.566l-5.865,9.774c-0.844,-0.919 -1.821,-1.686 -2.933,-2.299c-1.112,-0.614 -2.472,-0.92 -4.082,-0.92c-3.22,-0 -5.655,1.782 -7.303,5.347c-1.648,3.565 -2.472,8.261 -2.472,14.088c-0,5.826 0.843,10.503 2.53,14.03c1.686,3.526 4.255,5.29 7.705,5.29c1.61,-0 2.99,-0.307 4.14,-0.92c1.15,-0.614 2.146,-1.457 2.99,-2.53l5.405,10.12Zm-266.225,-0c-1.61,1.686 -3.565,3.009 -5.865,3.967c-2.3,0.958 -4.907,1.438 -7.82,1.438c-3.604,-0 -6.785,-0.767 -9.545,-2.3c-2.76,-1.534 -5.06,-3.7 -6.9,-6.498c-1.84,-2.798 -3.22,-6.114 -4.14,-9.947c-0.92,-3.834 -1.38,-8.05 -1.38,-12.65c-0,-4.6 0.479,-8.817 1.437,-12.65c0.958,-3.834 2.377,-7.13 4.255,-9.89c1.878,-2.76 4.178,-4.888 6.9,-6.383c2.722,-1.495 5.884,-2.242 9.488,-2.242c3.143,-0 5.845,0.536 8.107,1.61c2.262,1.073 4.044,2.261 5.348,3.565l-5.865,9.775c-0.844,-0.92 -1.821,-1.687 -2.933,-2.3c-1.112,-0.614 -2.472,-0.92 -4.082,-0.92c-3.22,-0 -5.655,1.782 -7.303,5.347c-1.648,3.565 -2.472,8.261 -2.472,14.088c-0,5.826 0.843,10.503 2.53,14.03c1.686,3.526 4.255,5.29 7.705,5.29c1.61,-0 2.99,-0.307 4.14,-0.92c1.15,-0.614 2.146,-1.457 2.99,-2.53l5.405,10.12Zm-406.295,-22.54c-0,2.3 0.23,4.465 0.69,6.497c0.46,2.032 1.13,3.795 2.012,5.29c0.882,1.495 1.955,2.683 3.22,3.565c1.265,0.882 2.741,1.323 4.428,1.323c2.376,-0 4.274,-0.767 5.692,-2.3c1.418,-1.534 2.549,-3.297 3.393,-5.29l9.545,5.52c-1.687,4.063 -4.083,7.302 -7.188,9.717c-3.105,2.415 -7.072,3.623 -11.902,3.623c-6.824,-0 -12.305,-2.684 -16.445,-8.05c-4.14,-5.367 -6.21,-13.072 -6.21,-23.115c-0,-4.677 0.536,-8.951 1.61,-12.823c1.073,-3.872 2.606,-7.187 4.6,-9.947c1.993,-2.76 4.35,-4.888 7.072,-6.383c2.722,-1.495 5.769,-2.242 9.143,-2.242c3.756,-0 6.957,0.766 9.602,2.3c2.645,1.533 4.792,3.622 6.44,6.267c1.648,2.645 2.856,5.769 3.623,9.373c0.766,3.603 1.15,7.513 1.15,11.73l-0,4.945l-30.475,-0Zm182.85,25.99l-0,-9.316l-0.23,0.001c-1.074,3.143 -2.856,5.807 -5.348,7.992c-2.492,2.185 -5.577,3.277 -9.257,3.277c-3.22,0 -5.808,-0.67 -7.763,-2.012c-1.955,-1.342 -3.469,-3.124 -4.542,-5.348c-1.074,-2.223 -1.802,-4.772 -2.185,-7.647c-0.384,-2.875 -0.575,-5.808 -0.575,-8.798l-0,-36.8l12.995,0.001l-0,36.799c-0,1.534 0.076,3.029 0.23,4.486c0.153,1.456 0.479,2.779 0.977,3.967c0.498,1.188 1.227,2.147 2.185,2.875c0.958,0.728 2.204,1.093 3.738,1.093c2.913,-0.001 5.232,-1.438 6.957,-4.313c1.725,-2.875 2.588,-6.536 2.588,-10.983l-0,-33.925l12.995,0l-0,58.65l-12.765,0.001Zm343.62,-0.001l-0,-9.314l-0.23,-0.001c-1.074,3.144 -2.856,5.808 -5.348,7.993c-2.492,2.185 -5.577,3.278 -9.257,3.278c-3.22,-0.001 -5.808,-0.671 -7.763,-2.013c-1.955,-1.342 -3.469,-3.124 -4.542,-5.347c-1.074,-2.224 -1.802,-4.773 -2.185,-7.648c-0.384,-2.875 -0.575,-5.808 -0.575,-8.798l-0,-36.8l12.995,0.001l-0,36.799c-0,1.534 0.076,3.029 0.23,4.486c0.153,1.456 0.479,2.779 0.977,3.967c0.498,1.188 1.227,2.147 2.185,2.875c0.958,0.728 2.204,1.093 3.738,1.093c2.913,-0.001 5.232,-1.438 6.957,-4.313c1.725,-2.875 2.588,-6.536 2.588,-10.983l-0,-33.925l12.995,0l-0,58.65l-12.765,0.001Zm57.5,-0.001l-0,-8.394l-0.23,-0c-0.844,2.913 -2.281,5.366 -4.313,7.36c-2.032,1.993 -4.964,2.99 -8.797,2.99c-2.99,-0 -5.674,-0.805 -8.05,-2.415c-2.377,-1.61 -4.37,-3.853 -5.98,-6.728c-1.61,-2.875 -2.837,-6.248 -3.68,-10.12c-0.844,-3.872 -1.265,-8.069 -1.265,-12.592c-0,-4.447 0.402,-8.549 1.207,-12.305c0.805,-3.757 2.013,-6.996 3.623,-9.718c1.61,-2.722 3.584,-4.849 5.922,-6.382c2.338,-1.534 5.079,-2.3 8.223,-2.3c3.22,-0 5.941,0.9 8.165,2.702c2.223,1.802 3.756,4.044 4.6,6.728l0.345,-0l-0,-35.765l12.765,-0l-0,86.94l-12.535,-0Zm-99.13,-29.21c-0,4.6 -0.518,8.816 -1.553,12.65c-1.035,3.833 -2.53,7.11 -4.485,9.832c-1.955,2.722 -4.312,4.849 -7.072,6.383c-2.76,1.533 -5.904,2.3 -9.43,2.3c-3.527,-0 -6.67,-0.767 -9.43,-2.3c-2.76,-1.534 -5.118,-3.661 -7.073,-6.383c-1.955,-2.722 -3.45,-5.999 -4.485,-9.832c-1.035,-3.834 -1.552,-8.05 -1.552,-12.65c-0,-4.677 0.517,-8.951 1.552,-12.823c1.035,-3.872 2.511,-7.187 4.428,-9.947c1.916,-2.76 4.274,-4.888 7.072,-6.383c2.798,-1.495 5.961,-2.242 9.488,-2.242c3.526,-0 6.67,0.747 9.43,2.242c2.76,1.495 5.117,3.623 7.072,6.383c1.955,2.76 3.45,6.075 4.485,9.947c1.035,3.872 1.553,8.146 1.553,12.823Zm237.475,-0c-0,4.6 -0.518,8.816 -1.553,12.65c-1.035,3.833 -2.53,7.11 -4.485,9.832c-1.955,2.722 -4.312,4.849 -7.072,6.383c-2.76,1.533 -5.904,2.3 -9.43,2.3c-3.527,-0 -6.67,-0.767 -9.43,-2.3c-2.76,-1.534 -5.118,-3.661 -7.073,-6.383c-1.955,-2.722 -3.45,-5.999 -4.485,-9.832c-1.035,-3.834 -1.552,-8.05 -1.552,-12.65c-0,-4.677 0.517,-8.951 1.552,-12.823c1.035,-3.872 2.511,-7.187 4.428,-9.947c1.916,-2.76 4.274,-4.888 7.072,-6.383c2.798,-1.495 5.961,-2.242 9.488,-2.242c3.526,-0 6.67,0.747 9.43,2.242c2.76,1.495 5.117,3.623 7.072,6.383c1.955,2.76 3.45,6.075 4.485,9.947c1.035,3.872 1.553,8.146 1.553,12.823Zm-786.141,20.47c-0.843,3.22 -2.376,5.73 -4.6,7.532c-2.223,1.802 -5.175,2.703 -8.855,2.703c-1.686,-0 -3.411,-0.307 -5.175,-0.92c-1.763,-0.614 -3.354,-1.63 -4.772,-3.048c-1.418,-1.418 -2.588,-3.258 -3.508,-5.52c-0.92,-2.262 -1.38,-5.002 -1.38,-8.222c0,-4.141 0.748,-7.533 2.243,-10.178c1.495,-2.645 3.412,-4.734 5.75,-6.268c2.338,-1.533 4.945,-2.587 7.82,-3.162c2.875,-0.575 5.692,-0.862 8.452,-0.862l3.22,-0.001l0,-1.84c0,-3.909 -0.785,-6.727 -2.357,-8.452c-1.572,-1.725 -3.661,-2.587 -6.268,-2.587c-2.223,-0 -4.235,0.517 -6.037,1.552c-1.802,1.035 -3.354,2.396 -4.658,4.083l-6.21,-8.165c2.147,-2.684 4.869,-4.773 8.165,-6.268c3.297,-1.495 6.555,-2.242 9.775,-2.242c3.604,-0.001 6.651,0.575 9.143,1.724c2.492,1.151 4.504,2.818 6.037,5.003c1.534,2.185 2.626,4.888 3.278,8.108c0.652,3.22 0.977,6.861 0.977,10.925l0,34.845l-10.81,-0l0,-8.74l-0.23,-0Zm690.116,1.265c-0,2.376 -0.748,4.37 -2.243,5.98c-1.495,1.609 -3.392,2.415 -5.692,2.415c-2.3,-0.001 -4.179,-0.806 -5.635,-2.416c-1.457,-1.61 -2.185,-3.603 -2.185,-5.98c-0,-2.3 0.728,-4.293 2.185,-5.98c1.456,-1.686 3.335,-2.529 5.635,-2.529c2.3,-0.001 4.197,0.843 5.692,2.529c1.495,1.687 2.243,3.68 2.243,5.981Zm-522.216,-0c0,2.376 -0.747,4.37 -2.242,5.98c-1.495,1.609 -3.392,2.415 -5.692,2.415c-2.3,-0.001 -4.179,-0.806 -5.635,-2.416c-1.457,-1.61 -2.185,-3.603 -2.185,-5.98c-0,-2.3 0.728,-4.293 2.185,-5.98c1.456,-1.686 3.334,-2.529 5.635,-2.529c2.3,-0.001 4.197,0.843 5.692,2.529c1.495,1.687 2.243,3.68 2.243,5.981Zm643.655,-41.86c0.843,-3.144 2.472,-5.808 4.887,-7.993c2.415,-2.185 5.539,-3.277 9.373,-3.277c2.07,-0 3.871,0.306 5.405,0.92c1.533,0.613 2.836,1.437 3.91,2.472c1.073,1.035 1.974,2.243 2.702,3.623c0.728,1.38 1.284,2.798 1.668,4.255l0.23,-0c0.46,-1.38 1.13,-2.741 2.012,-4.083c0.882,-1.342 1.955,-2.549 3.22,-3.622c1.265,-1.074 2.741,-1.936 4.428,-2.588c1.686,-0.652 3.603,-0.977 5.75,-0.977c3.22,-0.001 5.807,0.67 7.762,2.012c1.955,1.342 3.469,3.124 4.543,5.347c1.073,2.224 1.801,4.773 2.185,7.648c0.383,2.875 0.575,5.807 0.575,8.798l-0,36.799l-12.995,0.001l-0,-36.801c-0,-1.456 -0.077,-2.932 -0.23,-4.427c-0.154,-1.495 -0.48,-2.856 -0.978,-4.082c-0.498,-1.227 -1.227,-2.205 -2.185,-2.933c-0.958,-0.728 -2.204,-1.092 -3.737,-1.092c-2.914,-0 -5.233,1.456 -6.958,4.37c-1.725,2.913 -2.587,6.593 -2.587,11.04l-0,33.924l-12.765,0.001l-0,-36.801c-0,-1.456 -0.077,-2.932 -0.231,-4.427c-0.153,-1.495 -0.479,-2.856 -0.977,-4.082c-0.498,-1.227 -1.207,-2.205 -2.128,-2.933c-0.919,-0.728 -2.146,-1.092 -3.679,-1.092c-2.914,-0 -5.195,1.456 -6.843,4.37c-1.648,2.913 -2.473,6.554 -2.473,10.924l0,34.04l-12.88,0.001l0,-58.651l12.765,0.001l0,9.315l0.23,-0Zm-785.795,49.335l0,-86.941l13.11,0.001l0,86.94l-13.11,-0.001Zm383.64,0.001l0,-58.651l12.88,0.001l0,58.65l-12.88,-0.001Zm-110.055,-77.855c-0.996,-0.383 -2.146,-0.575 -3.45,-0.575c-1.456,0.001 -2.645,0.326 -3.565,0.978c-0.92,0.652 -1.648,1.514 -2.185,2.587c-0.536,1.074 -0.92,2.301 -1.15,3.681c-0.23,1.38 -0.345,2.798 -0.345,4.255l0,8.28l9.43,-0l0,10.35l-9.315,-0l0,48.3l-12.65,-0.001l0,-48.299l-7.36,-0l0,-10.35l7.36,-0l0,-8.51c0,-3.067 0.326,-5.961 0.978,-8.683c0.652,-2.722 1.687,-5.079 3.105,-7.072c1.418,-1.994 3.277,-3.566 5.577,-4.715c2.3,-1.15 5.06,-1.725 8.28,-1.725c0.92,-0 1.955,0.076 3.105,0.23c1.15,0.153 2.147,0.383 2.99,0.69l-0.805,10.58Zm-168.475,77.855l-9.085,-21.391l-9.315,21.391l-14.26,-0.001l15.18,-30.704l-13.8,-27.945l14.145,-0l8.165,19.09l8.05,-19.09l14.03,-0l-13.685,27.945l14.95,30.705l-14.375,-0Zm64.285,-47.381c0.997,-4.369 2.569,-7.666 4.715,-9.889c2.147,-2.224 4.677,-3.335 7.59,-3.335l0.978,-0c0.268,-0 0.594,0.076 0.977,0.23l-0.69,13.34c-0.843,-0.23 -1.763,-0.346 -2.76,-0.346c-1.686,0.001 -3.181,0.518 -4.485,1.553c-1.303,1.035 -2.415,2.396 -3.335,4.083c-0.92,1.686 -1.61,3.603 -2.07,5.75c-0.46,2.146 -0.69,4.331 -0.69,6.555l0,29.44l-13.225,-0l0,-58.65l12.765,-0l0,11.27l0.23,-0Zm133.745,-30.475c-0.996,-0.384 -2.146,-0.575 -3.45,-0.575c-1.456,-0 -2.645,0.325 -3.565,0.977c-0.92,0.652 -1.648,1.514 -2.185,2.588c-0.536,1.073 -0.92,2.3 -1.15,3.68c-0.23,1.38 -0.345,2.798 -0.345,4.255l0,8.28l9.43,-0l0,10.35l-9.315,-0l0,48.3l-12.65,-0l0,-48.3l-7.36,-0l0,-10.35l7.36,-0l0,-8.51c0,-3.067 0.326,-5.961 0.978,-8.683c0.652,-2.722 1.687,-5.079 3.105,-7.072c1.418,-1.994 3.277,-3.565 5.577,-4.715c2.3,-1.15 5.06,-1.725 8.28,-1.725c0.92,-0 1.955,0.076 3.105,0.23c1.15,0.153 2.147,0.383 2.99,0.69l-0.805,10.58Zm149.385,77.855l0,-86.94l13.11,-0l0,86.94l-13.11,-0Zm-478.745,-27.485l-3.795,-0c-1.61,-0 -3.162,0.134 -4.657,0.402c-1.495,0.268 -2.818,0.786 -3.968,1.553c-1.15,0.766 -2.07,1.82 -2.76,3.162c-0.69,1.342 -1.035,3.048 -1.035,5.118c0,3.066 0.671,5.328 2.013,6.785c1.342,1.456 2.894,2.185 4.657,2.185c1.764,-0 3.259,-0.499 4.485,-1.495c1.227,-0.997 2.205,-2.262 2.933,-3.795c0.728,-1.534 1.265,-3.24 1.61,-5.118c0.345,-1.878 0.517,-3.699 0.517,-5.462l0,-3.335Zm648.485,-1.84c0,-2.837 -0.21,-5.463 -0.632,-7.878c-0.422,-2.415 -1.035,-4.523 -1.84,-6.325c-0.805,-1.802 -1.84,-3.22 -3.105,-4.255c-1.265,-1.035 -2.703,-1.552 -4.313,-1.552c-1.686,-0 -3.143,0.517 -4.37,1.552c-1.226,1.035 -2.223,2.453 -2.99,4.255c-0.766,1.802 -1.341,3.91 -1.725,6.325c-0.383,2.415 -0.575,5.041 -0.575,7.878c0,2.76 0.192,5.347 0.576,7.762c0.383,2.415 0.958,4.523 1.724,6.325c0.767,1.802 1.764,3.22 2.99,4.255c1.227,1.035 2.684,1.553 4.37,1.553c1.687,-0 3.144,-0.518 4.37,-1.553c1.227,-1.035 2.243,-2.453 3.048,-4.255c0.805,-1.802 1.418,-3.91 1.84,-6.325c0.422,-2.415 0.632,-5.002 0.632,-7.762Zm-112.24,-0c0,-2.837 -0.191,-5.463 -0.575,-7.878c-0.383,-2.415 -0.977,-4.523 -1.782,-6.325c-0.805,-1.802 -1.802,-3.22 -2.99,-4.255c-1.188,-1.035 -2.626,-1.552 -4.313,-1.552c-1.686,-0 -3.124,0.517 -4.312,1.552c-1.188,1.035 -2.166,2.453 -2.933,4.255c-0.766,1.802 -1.341,3.91 -1.725,6.325c-0.383,2.415 -0.575,5.041 -0.575,7.878c0,2.76 0.192,5.366 0.576,7.82c0.383,2.453 0.958,4.561 1.724,6.325c0.767,1.763 1.745,3.162 2.933,4.197c1.188,1.035 2.626,1.553 4.312,1.553c1.687,-0 3.144,-0.518 4.37,-1.553c1.227,-1.035 2.224,-2.434 2.99,-4.197c0.767,-1.764 1.342,-3.872 1.725,-6.325c0.384,-2.454 0.575,-5.06 0.575,-7.82Zm237.475,-0c0,-2.837 -0.191,-5.463 -0.575,-7.878c-0.383,-2.415 -0.977,-4.523 -1.782,-6.325c-0.805,-1.802 -1.802,-3.22 -2.99,-4.255c-1.188,-1.035 -2.626,-1.552 -4.313,-1.552c-1.686,-0 -3.124,0.517 -4.312,1.552c-1.188,1.035 -2.166,2.453 -2.933,4.255c-0.766,1.802 -1.341,3.91 -1.725,6.325c-0.383,2.415 -0.575,5.041 -0.575,7.878c0,2.76 0.192,5.366 0.576,7.82c0.383,2.453 0.958,4.561 1.724,6.325c0.767,1.763 1.745,3.162 2.933,4.197c1.188,1.035 2.626,1.553 4.312,1.553c1.687,-0 3.144,-0.518 4.37,-1.553c1.227,-1.035 2.224,-2.434 2.99,-4.197c0.767,-1.764 1.342,-3.872 1.725,-6.325c0.384,-2.454 0.575,-5.06 0.575,-7.82Zm-402.96,-15.755c0,-2.454 -0.325,-4.524 -0.977,-6.21c-0.652,-1.687 -1.859,-2.53 -3.623,-2.53c-1.073,-0 -2.05,0.479 -2.932,1.437c-0.882,0.958 -1.629,2.185 -2.243,3.68c-0.613,1.495 -1.073,3.201 -1.38,5.118c-0.306,1.916 -0.46,3.833 -0.46,5.75c0,2.453 0.365,4.485 1.093,6.095c0.728,1.61 1.974,2.415 3.737,2.415c1.15,-0 2.147,-0.537 2.99,-1.61c0.844,-1.074 1.553,-2.415 2.128,-4.025c0.575,-1.61 0.997,-3.316 1.265,-5.118c0.268,-1.802 0.402,-3.469 0.402,-5.002Zm-288.42,9.66c0,-4.37 -0.69,-7.916 -2.07,-10.638c-1.38,-2.722 -3.526,-4.082 -6.44,-4.082c-1.686,-0 -3.124,0.498 -4.312,1.495c-1.188,0.996 -2.147,2.242 -2.875,3.737c-0.728,1.495 -1.284,3.105 -1.668,4.83c-0.383,1.725 -0.575,3.278 -0.575,4.658l17.94,-0Zm341.55,-40.25c0,2.3 -0.728,4.216 -2.185,5.75c-1.456,1.533 -3.258,2.3 -5.405,2.3c-2.223,-0 -4.044,-0.767 -5.462,-2.3c-1.418,-1.534 -2.128,-3.45 -2.128,-5.75c0,-2.224 0.71,-4.14 2.128,-5.75c1.418,-1.61 3.239,-2.415 5.462,-2.415c2.224,-0 4.045,0.805 5.463,2.415c1.418,1.61 2.127,3.526 2.127,5.75Z" style="fill:#fff;"/></g></svg>