<?xml version="1.0" encoding="UTF-8" standalone="no"?><!DOCTYPE svg PUBLIC "-//W3C//DTD SVG 1.1//EN" "http://www.w3.org/Graphics/SVG/1.1/DTD/svg11.dtd"><svg width="100%" height="100%" viewBox="0 0 1025 140" version="1.1" xmlns="http://www.w3.org/2000/svg" xmlns:xlink="http://www.w3.org/1999/xlink" xml:space="preserve" xmlns:serif="http://www.serif.com/" style="fill-rule:evenodd;clip-rule:evenodd;stroke-linejoin:round;stroke-miterlimit:2;"><g><g><path d="M1025,0l-1025,0l0,140l1025,0l0,-140Zm-672.695,67.425c0,3.987 -0.422,7.705 -1.265,11.155c-0.843,3.45 -2.051,6.44 -3.622,8.97c-1.572,2.53 -3.47,4.504 -5.693,5.922c-2.223,1.419 -4.715,2.128 -7.475,2.128c-2.453,0 -4.427,-0.652 -5.922,-1.955c-1.495,-1.303 -2.281,-3.297 -2.358,-5.98l-0.23,0c-0.383,0.92 -0.882,1.84 -1.495,2.76c-0.613,0.92 -1.361,1.763 -2.242,2.53c-0.882,0.767 -1.879,1.399 -2.99,1.897c-1.112,0.499 -2.396,0.748 -3.853,0.748c-1.993,-0 -3.757,-0.498 -5.29,-1.495c-1.533,-0.997 -2.817,-2.338 -3.852,-4.025c-1.035,-1.687 -1.821,-3.661 -2.358,-5.922c-0.537,-2.262 -0.805,-4.658 -0.805,-7.188c0,-3.297 0.364,-6.574 1.093,-9.833c0.728,-3.258 1.782,-6.171 3.162,-8.74c1.38,-2.568 3.105,-4.657 5.175,-6.267c2.07,-1.61 4.447,-2.415 7.13,-2.415c2.53,-0 4.504,0.747 5.923,2.243c1.418,1.495 2.28,3.239 2.587,5.232l0.345,0l0.92,-4.6l8.28,0l-3.335,17.365c-0.46,2.453 -0.805,4.753 -1.035,6.9c-0.23,2.147 -0.345,3.757 -0.345,4.83c0,1.38 0.23,2.53 0.69,3.45c0.46,0.92 1.342,1.38 2.645,1.38c2.377,0 4.389,-1.725 6.038,-5.175c1.648,-3.45 2.472,-8.012 2.472,-13.685c0,-4.523 -0.537,-8.606 -1.61,-12.248c-1.073,-3.641 -2.645,-6.746 -4.715,-9.314c-2.07,-2.569 -4.581,-4.543 -7.532,-5.923c-2.952,-1.38 -6.306,-2.07 -10.063,-2.07c-3.91,0 -7.437,0.939 -10.58,2.817c-3.143,1.879 -5.827,4.428 -8.05,7.648c-2.223,3.22 -3.929,6.957 -5.117,11.212c-1.189,4.255 -1.783,8.76 -1.783,13.513c0,5.06 0.594,9.717 1.783,13.972c1.188,4.255 2.913,7.935 5.175,11.04c2.261,3.105 5.021,5.52 8.28,7.245c3.258,1.725 6.995,2.588 11.212,2.588c4.14,-0 7.993,-0.862 11.558,-2.588c3.565,-1.725 6.65,-4.005 9.257,-6.842l4.485,6.67c-3.45,3.603 -7.283,6.287 -11.5,8.05c-4.217,1.763 -9.085,2.645 -14.605,2.645c-5.52,-0 -10.388,-1.054 -14.605,-3.163c-4.217,-2.108 -7.782,-5.06 -10.695,-8.855c-2.913,-3.795 -5.117,-8.299 -6.612,-13.512c-1.495,-5.213 -2.243,-10.925 -2.243,-17.135c0,-6.057 0.805,-11.692 2.415,-16.905c1.61,-5.213 3.891,-9.756 6.843,-13.628c2.951,-3.871 6.516,-6.9 10.695,-9.085c4.178,-2.184 8.874,-3.277 14.087,-3.277c9.967,0 17.729,3.201 23.288,9.603c5.558,6.401 8.337,15.505 8.337,27.312Zm400.66,46.575l0,-8.395l-0.23,0c-0.843,2.913 -2.281,5.367 -4.312,7.36c-2.032,1.993 -4.965,2.99 -8.798,2.99c-2.99,0 -5.673,-0.805 -8.05,-2.415c-2.377,-1.61 -4.37,-3.852 -5.98,-6.727c-1.61,-2.875 -2.837,-6.249 -3.68,-10.12c-0.843,-3.872 -1.265,-8.07 -1.265,-12.593c0,-4.447 0.403,-8.548 1.208,-12.305c0.805,-3.757 2.012,-6.996 3.622,-9.717c1.61,-2.722 3.584,-4.85 5.923,-6.383c2.338,-1.533 5.079,-2.3 8.222,-2.3c3.22,0 5.942,0.901 8.165,2.703c2.223,1.801 3.757,4.044 4.6,6.727l0.345,0l0,-35.765l12.765,0l0,86.94l-12.535,0Zm-300.84,-25.99c0,2.3 0.23,4.466 0.69,6.498c0.46,2.031 1.131,3.794 2.013,5.29c0.881,1.495 1.955,2.683 3.22,3.564c1.265,0.882 2.74,1.323 4.427,1.323c2.377,0 4.274,-0.767 5.693,-2.3c1.418,-1.533 2.549,-3.297 3.392,-5.29l9.545,5.52c-1.687,4.063 -4.082,7.303 -7.187,9.718c-3.105,2.415 -7.073,3.622 -11.903,3.622c-6.823,0 -12.305,-2.683 -16.445,-8.05c-4.14,-5.367 -6.21,-13.072 -6.21,-23.115c0,-4.677 0.537,-8.951 1.61,-12.822c1.073,-3.872 2.607,-7.188 4.6,-9.948c1.993,-2.76 4.351,-4.887 7.073,-6.382c2.721,-1.495 5.769,-2.243 9.142,-2.243c3.757,0 6.958,0.767 9.603,2.3c2.645,1.533 4.791,3.623 6.44,6.268c1.648,2.645 2.855,5.769 3.622,9.372c0.767,3.603 1.15,7.513 1.15,11.73l0,4.945l-30.475,0Zm338.33,0c0,2.3 0.23,4.466 0.69,6.498c0.46,2.031 1.131,3.794 2.013,5.29c0.881,1.495 1.955,2.683 3.22,3.564c1.265,0.882 2.74,1.323 4.427,1.323c2.377,0 4.274,-0.767 5.693,-2.3c1.418,-1.533 2.549,-3.297 3.392,-5.29l9.545,5.52c-1.687,4.063 -4.082,7.303 -7.187,9.718c-3.105,2.415 -7.073,3.622 -11.903,3.622c-6.823,0 -12.305,-2.683 -16.445,-8.05c-4.14,-5.367 -6.21,-13.072 -6.21,-23.115c0,-4.677 0.537,-8.951 1.61,-12.822c1.073,-3.872 2.607,-7.188 4.6,-9.948c1.993,-2.76 4.351,-4.887 7.073,-6.382c2.721,-1.495 5.769,-2.243 9.142,-2.243c3.757,0 6.958,0.767 9.603,2.3c2.645,1.533 4.791,3.623 6.44,6.268c1.648,2.645 2.855,5.769 3.622,9.372c0.767,3.603 1.15,7.513 1.15,11.73l0,4.945l-30.475,0Zm-183.655,25.99l0,-9.315l-0.23,0c-1.073,3.143 -2.856,5.808 -5.347,7.992c-2.492,2.185 -5.578,3.278 -9.258,3.278c-3.22,-0 -5.807,-0.671 -7.762,-2.013c-1.955,-1.341 -3.47,-3.124 -4.543,-5.347c-1.073,-2.223 -1.802,-4.773 -2.185,-7.648c-0.383,-2.875 -0.575,-5.807 -0.575,-8.797l0,-36.8l12.995,-0l0,36.8c0,1.533 0.077,3.028 0.23,4.485c0.153,1.457 0.479,2.779 0.978,3.967c0.498,1.189 1.226,2.147 2.185,2.875c0.958,0.729 2.204,1.093 3.737,1.093c2.913,-0 5.233,-1.438 6.958,-4.313c1.725,-2.875 2.587,-6.535 2.587,-10.982l0,-33.925l12.995,-0l0,58.65l-12.765,-0Zm-218.5,-8.74c-0.843,3.22 -2.377,5.731 -4.6,7.532c-2.223,1.802 -5.175,2.703 -8.855,2.703c-1.687,-0 -3.412,-0.307 -5.175,-0.92c-1.763,-0.613 -3.354,-1.629 -4.772,-3.048c-1.419,-1.418 -2.588,-3.258 -3.508,-5.52c-0.92,-2.261 -1.38,-5.002 -1.38,-8.222c0,-4.14 0.748,-7.533 2.243,-10.178c1.495,-2.645 3.411,-4.734 5.75,-6.267c2.338,-1.533 4.945,-2.588 7.82,-3.163c2.875,-0.575 5.692,-0.862 8.452,-0.862l3.22,-0l0,-1.84c0,-3.91 -0.786,-6.728 -2.357,-8.453c-1.572,-1.725 -3.661,-2.587 -6.268,-2.587c-2.223,-0 -4.236,0.517 -6.037,1.552c-1.802,1.035 -3.355,2.396 -4.658,4.083l-6.21,-8.165c2.147,-2.683 4.868,-4.773 8.165,-6.268c3.297,-1.495 6.555,-2.242 9.775,-2.242c3.603,-0 6.651,0.575 9.143,1.725c2.491,1.15 4.504,2.817 6.037,5.002c1.533,2.185 2.626,4.888 3.278,8.108c0.651,3.22 0.977,6.862 0.977,10.925l0,34.845l-10.81,-0l0,-8.74l-0.23,-0Zm321.77,1.265c0,2.377 -0.747,4.37 -2.242,5.98c-1.495,1.61 -3.393,2.415 -5.693,2.415c-2.3,-0 -4.178,-0.805 -5.635,-2.415c-1.457,-1.61 -2.185,-3.603 -2.185,-5.98c0,-2.3 0.728,-4.293 2.185,-5.98c1.457,-1.687 3.335,-2.53 5.635,-2.53c2.3,-0 4.198,0.843 5.693,2.53c1.495,1.687 2.242,3.68 2.242,5.98Zm-50.6,-70.38c-0.997,-0.383 -2.147,-0.575 -3.45,-0.575c-1.457,-0 -2.645,0.326 -3.565,0.977c-0.92,0.652 -1.648,1.515 -2.185,2.588c-0.537,1.073 -0.92,2.3 -1.15,3.68c-0.23,1.38 -0.345,2.798 -0.345,4.255l0,8.28l9.43,-0l0,10.35l-9.315,-0l0,48.3l-12.65,-0l0,-48.3l-7.36,-0l0,-10.35l7.36,-0l0,-8.51c0,-3.067 0.326,-5.961 0.978,-8.683c0.651,-2.721 1.686,-5.079 3.105,-7.072c1.418,-1.993 3.277,-3.565 5.577,-4.715c2.3,-1.15 5.06,-1.725 8.28,-1.725c0.92,-0 1.955,0.077 3.105,0.23c1.15,0.153 2.147,0.383 2.99,0.69l-0.805,10.58Zm29.555,-0c-0.997,-0.383 -2.147,-0.575 -3.45,-0.575c-1.457,-0 -2.645,0.326 -3.565,0.977c-0.92,0.652 -1.648,1.515 -2.185,2.588c-0.537,1.073 -0.92,2.3 -1.15,3.68c-0.23,1.38 -0.345,2.798 -0.345,4.255l0,8.28l9.43,-0l0,10.35l-9.315,-0l0,48.3l-12.65,-0l0,-48.3l-7.36,-0l0,-10.35l7.36,-0l0,-8.51c0,-3.067 0.326,-5.961 0.978,-8.683c0.651,-2.721 1.686,-5.079 3.105,-7.072c1.418,-1.993 3.277,-3.565 5.577,-4.715c2.3,-1.15 5.06,-1.725 8.28,-1.725c0.92,-0 1.955,0.077 3.105,0.23c1.15,0.153 2.147,0.383 2.99,0.69l-0.805,10.58Zm-455.285,77.855l0,-36.8c0,-1.457 -0.077,-2.933 -0.23,-4.428c-0.153,-1.495 -0.479,-2.855 -0.977,-4.082c-0.499,-1.227 -1.227,-2.204 -2.185,-2.933c-0.959,-0.728 -2.205,-1.092 -3.738,-1.092c-2.913,-0 -5.232,1.457 -6.957,4.37c-1.725,2.913 -2.588,6.593 -2.588,11.04l0,33.925l-12.995,-0l0,-86.94l12.995,-0l0,37.375l0.23,-0c0.997,-2.99 2.703,-5.578 5.118,-7.763c2.415,-2.185 5.462,-3.277 9.142,-3.277c3.22,-0 5.827,0.671 7.82,2.012c1.993,1.342 3.527,3.125 4.6,5.348c1.073,2.223 1.802,4.772 2.185,7.647c0.383,2.875 0.575,5.808 0.575,8.798l0,36.8l-12.995,-0Zm285.43,-0l-9.085,-21.39l-9.315,21.39l-14.26,-0l15.18,-30.705l-13.8,-27.945l14.145,-0l8.165,19.09l8.05,-19.09l14.03,-0l-13.685,27.945l14.95,30.705l-14.375,-0Zm-105.11,-0l0,-86.94l13.11,-0l0,86.94l-13.11,-0Zm-152.145,-0l0,-58.65l12.88,-0l0,58.65l-12.88,-0Zm293.365,-47.38c0.997,-4.37 2.568,-7.667 4.715,-9.89c2.147,-2.223 4.677,-3.335 7.59,-3.335l0.978,-0c0.268,-0 0.594,0.077 0.977,0.23l-0.69,13.34c-0.843,-0.23 -1.763,-0.345 -2.76,-0.345c-1.687,-0 -3.182,0.517 -4.485,1.552c-1.303,1.035 -2.415,2.396 -3.335,4.083c-0.92,1.687 -1.61,3.603 -2.07,5.75c-0.46,2.147 -0.69,4.332 -0.69,6.555l0,29.44l-13.225,-0l0,-58.65l12.765,-0l0,11.27l0.23,-0Zm-167.44,19.895l-3.795,-0c-1.61,-0 -3.162,0.134 -4.657,0.402c-1.495,0.269 -2.818,0.786 -3.968,1.553c-1.15,0.767 -2.07,1.821 -2.76,3.162c-0.69,1.342 -1.035,3.048 -1.035,5.118c0,3.067 0.671,5.328 2.013,6.785c1.341,1.457 2.894,2.185 4.657,2.185c1.763,-0 3.258,-0.498 4.485,-1.495c1.227,-0.997 2.204,-2.262 2.933,-3.795c0.728,-1.533 1.265,-3.239 1.61,-5.118c0.345,-1.878 0.517,-3.699 0.517,-5.462l0,-3.335Zm365.355,-1.84c0,-2.837 -0.211,-5.463 -0.632,-7.878c-0.422,-2.415 -1.035,-4.523 -1.84,-6.325c-0.805,-1.801 -1.84,-3.22 -3.105,-4.255c-1.265,-1.035 -2.703,-1.552 -4.313,-1.552c-1.687,-0 -3.143,0.517 -4.37,1.552c-1.227,1.035 -2.223,2.454 -2.99,4.255c-0.767,1.802 -1.342,3.91 -1.725,6.325c-0.383,2.415 -0.575,5.041 -0.575,7.878c0,2.76 0.192,5.347 0.575,7.762c0.383,2.415 0.958,4.524 1.725,6.325c0.767,1.802 1.763,3.22 2.99,4.255c1.227,1.035 2.683,1.553 4.37,1.553c1.687,-0 3.143,-0.518 4.37,-1.553c1.227,-1.035 2.243,-2.453 3.048,-4.255c0.805,-1.801 1.418,-3.91 1.84,-6.325c0.421,-2.415 0.632,-5.002 0.632,-7.762Zm-427.225,-16.675c0,-2.53 -0.364,-4.715 -1.092,-6.555c-0.729,-1.84 -2.128,-2.76 -4.198,-2.76c-1.38,-0 -2.607,0.556 -3.68,1.667c-1.073,1.112 -1.974,2.55 -2.702,4.313c-0.729,1.763 -1.285,3.757 -1.668,5.98c-0.383,2.223 -0.575,4.408 -0.575,6.555c0,2.683 0.441,4.907 1.323,6.67c0.881,1.763 2.357,2.645 4.427,2.645c1.38,-0 2.588,-0.671 3.623,-2.013c1.035,-1.341 1.878,-2.951 2.53,-4.83c0.651,-1.878 1.15,-3.89 1.495,-6.037c0.345,-2.147 0.517,-4.025 0.517,-5.635Zm482.54,10.58c0,-4.37 -0.69,-7.916 -2.07,-10.638c-1.38,-2.721 -3.527,-4.082 -6.44,-4.082c-1.687,-0 -3.124,0.498 -4.312,1.495c-1.189,0.997 -2.147,2.242 -2.875,3.737c-0.729,1.495 -1.285,3.105 -1.668,4.83c-0.383,1.725 -0.575,3.278 -0.575,4.658l17.94,-0Zm-338.33,-0c0,-4.37 -0.69,-7.916 -2.07,-10.638c-1.38,-2.721 -3.527,-4.082 -6.44,-4.082c-1.687,-0 -3.124,0.498 -4.312,1.495c-1.189,0.997 -2.147,2.242 -2.875,3.737c-0.729,1.496 -1.285,3.105 -1.668,4.831c-0.383,1.724 -0.575,3.277 -0.575,4.657l17.94,0Zm-194.235,-40.25c0,2.3 -0.728,4.217 -2.185,5.75c-1.457,1.533 -3.258,2.3 -5.405,2.3c-2.223,0 -4.044,-0.767 -5.462,-2.3c-1.419,-1.533 -2.128,-3.45 -2.128,-5.75c0,-2.223 0.709,-4.14 2.128,-5.75c1.418,-1.61 3.239,-2.415 5.462,-2.415c2.223,0 4.044,0.805 5.463,2.415c1.418,1.61 2.127,3.527 2.127,5.75Z" style="fill:#fff;"/></g></g></svg>