<?xml version="1.0" encoding="UTF-8" standalone="no"?><!DOCTYPE svg PUBLIC "-//W3C//DTD SVG 1.1//EN" "http://www.w3.org/Graphics/SVG/1.1/DTD/svg11.dtd"><svg width="100%" height="100%" viewBox="0 0 732 141" version="1.1" xmlns="http://www.w3.org/2000/svg" xmlns:xlink="http://www.w3.org/1999/xlink" xml:space="preserve" xmlns:serif="http://www.serif.com/" style="fill-rule:evenodd;clip-rule:evenodd;stroke-linejoin:round;stroke-miterlimit:2;"><rect id="Artboard1" x="0" y="0" width="731.6" height="140.357" style="fill:none;"/><clipPath id="_clip1"><rect x="0" y="0" width="731.6" height="140.357"/></clipPath><g clip-path="url(#_clip1)"><path d="M731.6,0l-731.6,0l0,140.57l731.6,0l-0,-140.57Zm-607.293,93.372c-0,2.311 0.289,4.491 0.867,6.54c0.578,2.049 1.339,3.835 2.285,5.358c0.945,1.524 2.101,2.732 3.467,3.625c1.366,0.893 2.889,1.339 4.57,1.339c2.731,0 4.938,-0.893 6.619,-2.679c1.681,-1.786 2.994,-3.887 3.939,-6.303l18.123,10.243c-2.731,6.094 -6.54,10.926 -11.425,14.498c-4.885,3.573 -10.952,5.359 -18.202,5.359c-4.832,-0 -9.324,-0.946 -13.474,-2.837c-4.15,-1.891 -7.774,-4.702 -10.873,-8.431c-3.1,-3.73 -5.516,-8.326 -7.25,-13.789c-1.733,-5.464 -2.6,-11.767 -2.6,-18.911c0,-6.724 0.814,-12.844 2.443,-18.36c1.628,-5.515 3.94,-10.191 6.934,-14.025c2.994,-3.835 6.54,-6.803 10.637,-8.904c4.098,-2.101 8.615,-3.152 13.553,-3.152c5.673,0 10.506,1.103 14.498,3.309c3.993,2.207 7.276,5.227 9.85,9.062c2.574,3.835 4.439,8.405 5.594,13.71c1.156,5.306 1.734,11.11 1.734,17.414l-0,6.934l-41.289,0Zm408.003,0c0,2.311 0.289,4.491 0.867,6.54c0.578,2.049 1.339,3.835 2.285,5.358c0.945,1.524 2.101,2.732 3.467,3.625c1.366,0.893 2.889,1.339 4.57,1.339c2.732,0 4.938,-0.893 6.619,-2.679c1.681,-1.786 2.994,-3.887 3.94,-6.303l18.123,10.243c-2.732,6.094 -6.54,10.926 -11.426,14.498c-4.885,3.573 -10.952,5.359 -18.201,5.359c-4.833,-0 -9.325,-0.946 -13.475,-2.837c-4.149,-1.891 -7.774,-4.702 -10.873,-8.431c-3.1,-3.73 -5.516,-8.326 -7.249,-13.789c-1.734,-5.464 -2.601,-11.767 -2.601,-18.911c0,-6.724 0.814,-12.844 2.443,-18.36c1.628,-5.515 3.94,-10.191 6.934,-14.025c2.994,-3.835 6.54,-6.803 10.637,-8.904c4.098,-2.101 8.615,-3.152 13.553,-3.152c5.673,0 10.506,1.103 14.499,3.309c3.992,2.207 7.275,5.227 9.849,9.062c2.574,3.835 4.439,8.405 5.594,13.71c1.156,5.306 1.734,11.11 1.734,17.414l-0,6.934l-41.289,0Zm127.806,0c0,2.311 0.289,4.491 0.867,6.54c0.578,2.049 1.34,3.835 2.285,5.358c0.946,1.524 2.101,2.732 3.467,3.625c1.366,0.893 2.889,1.339 4.57,1.339c2.732,0 4.938,-0.893 6.619,-2.679c1.681,-1.786 2.994,-3.887 3.94,-6.303l18.123,10.243c-2.732,6.094 -6.54,10.926 -11.425,14.498c-4.886,3.573 -10.953,5.359 -18.202,5.359c-4.833,-0 -9.324,-0.946 -13.474,-2.837c-4.15,-1.891 -7.775,-4.702 -10.874,-8.431c-3.099,-3.73 -5.516,-8.326 -7.249,-13.789c-1.734,-5.464 -2.6,-11.767 -2.6,-18.911c-0,-6.724 0.814,-12.844 2.442,-18.36c1.629,-5.515 3.94,-10.191 6.934,-14.025c2.994,-3.835 6.54,-6.803 10.638,-8.904c4.097,-2.101 8.615,-3.152 13.552,-3.152c5.674,0 10.507,1.103 14.499,3.309c3.992,2.207 7.275,5.227 9.849,9.062c2.574,3.835 4.439,8.405 5.595,13.71c1.155,5.306 1.733,11.11 1.733,17.414l0,6.934l-41.289,0Zm-327.159,-6.146c0,6.409 -0.788,12.318 -2.363,17.729c-1.576,5.411 -3.809,10.06 -6.698,13.947c-2.889,3.887 -6.461,6.934 -10.716,9.14c-4.255,2.206 -9.062,3.31 -14.42,3.31c-5.358,-0 -10.138,-1.104 -14.341,-3.31c-4.202,-2.206 -7.8,-5.253 -10.795,-9.14c-2.994,-3.887 -5.279,-8.536 -6.855,-13.947c-1.576,-5.411 -2.364,-11.32 -2.364,-17.729c0,-6.409 0.788,-12.345 2.364,-17.808c1.576,-5.463 3.835,-10.138 6.777,-14.025c2.941,-3.888 6.54,-6.934 10.795,-9.141c4.255,-2.206 9.061,-3.309 14.419,-3.309c5.358,0 10.165,1.103 14.42,3.309c4.255,2.207 7.827,5.253 10.716,9.141c2.889,3.887 5.122,8.562 6.698,14.025c1.575,5.463 2.363,11.399 2.363,17.808Zm84.312,40.501c-1.366,0.735 -3.31,1.366 -5.831,1.891c-2.522,0.525 -5.043,0.788 -7.565,0.788c-8.299,0 -14.34,-2.233 -18.123,-6.698c-3.782,-4.465 -5.673,-11.162 -5.673,-20.092l0,-38.453l-9.928,0l-0,-19.226l9.771,0l-0,-19.856l23.953,-0l0,19.856l14.184,0l-0,19.226l-14.184,0l0,32.779c0,3.993 0.631,6.908 1.892,8.747c1.26,1.838 3.256,2.757 5.988,2.757c2.206,0 4.045,-0.367 5.516,-1.103l-0,19.384Zm-237.332,0.63l-0,-119.138l25.214,-0l0,119.138l-25.214,0Zm44.755,0l0,-119.138l25.215,-0l-0,119.138l-25.215,0Zm363.248,-82.42l24.111,0l0,13.868l0.158,0c2.941,-10.926 8.457,-16.389 16.547,-16.389c0.84,-0 1.523,0.026 2.048,0.079c0.526,0.052 1.156,0.183 1.892,0.394l-1.576,24.741c-0.841,-0.21 -1.655,-0.394 -2.443,-0.551c-0.788,-0.158 -1.76,-0.237 -2.915,-0.237c-2.102,0 -3.94,0.552 -5.516,1.655c-1.576,1.103 -2.916,2.548 -4.019,4.334c-1.103,1.786 -1.943,3.887 -2.521,6.303c-0.578,2.417 -0.867,4.886 -0.867,7.407l0,40.816l-24.899,0l-0,-82.42Zm-542.901,82.42l-24.742,0l-0,-119.138l24.742,-0l-0,47.75l0.472,-0c1.261,-3.678 3.546,-6.934 6.856,-9.771c3.309,-2.837 7.485,-4.255 12.528,-4.255c4.728,0 8.536,0.972 11.425,2.915c2.89,1.944 5.122,4.544 6.698,7.801c1.576,3.257 2.627,6.987 3.152,11.189c0.525,4.203 0.788,8.563 0.788,13.08l-0,50.429l-24.742,0l0,-50.586c0,-3.467 -0.499,-6.514 -1.497,-9.141c-0.998,-2.626 -3.021,-3.939 -6.067,-3.939c-3.047,-0 -5.411,1.392 -7.092,4.176c-1.681,2.784 -2.521,6.435 -2.521,10.952l-0,48.538Zm408.003,0l-24.742,0l0,-119.138l24.742,-0l-0,47.75l0.473,-0c1.26,-3.678 3.545,-6.934 6.855,-9.771c3.309,-2.837 7.485,-4.255 12.528,-4.255c4.728,0 8.536,0.972 11.426,2.915c2.889,1.944 5.121,4.544 6.697,7.801c1.576,3.257 2.627,6.987 3.152,11.189c0.525,4.203 0.788,8.563 0.788,13.08l0,50.429l-24.742,0l0,-50.586c0,-3.467 -0.499,-6.514 -1.497,-9.141c-0.998,-2.626 -3.02,-3.939 -6.067,-3.939c-3.047,-0 -5.411,1.392 -7.092,4.176c-1.681,2.784 -2.521,6.435 -2.521,10.952l-0,48.538Zm-143.723,-41.289c-0,-3.151 -0.21,-6.067 -0.631,-8.746c-0.42,-2.679 -1.05,-5.043 -1.891,-7.091c-0.84,-2.049 -1.917,-3.651 -3.23,-4.807c-1.314,-1.156 -2.916,-1.733 -4.807,-1.733c-1.786,-0 -3.335,0.577 -4.649,1.733c-1.313,1.156 -2.39,2.758 -3.23,4.807c-0.841,2.048 -1.471,4.412 -1.891,7.091c-0.421,2.679 -0.631,5.595 -0.631,8.746c0,3.152 0.21,6.068 0.631,8.747c0.42,2.679 1.05,5.043 1.891,7.091c0.84,2.049 1.917,3.651 3.23,4.807c1.314,1.156 2.863,1.733 4.649,1.733c1.891,0 3.493,-0.577 4.807,-1.733c1.313,-1.156 2.39,-2.758 3.23,-4.807c0.841,-2.048 1.471,-4.412 1.891,-7.091c0.421,-2.679 0.631,-5.595 0.631,-8.747Zm-166.416,-9.77c-0,-4.413 -0.683,-8.09 -2.049,-11.032c-1.366,-2.941 -3.625,-4.412 -6.776,-4.412c-1.681,-0 -3.126,0.499 -4.334,1.497c-1.208,0.998 -2.233,2.259 -3.073,3.782c-0.841,1.524 -1.471,3.205 -1.891,5.043c-0.421,1.839 -0.631,3.546 -0.631,5.122l18.754,-0Zm408.003,-0c-0,-4.413 -0.683,-8.09 -2.049,-11.032c-1.366,-2.941 -3.624,-4.412 -6.776,-4.412c-1.681,-0 -3.126,0.499 -4.334,1.497c-1.208,0.998 -2.233,2.259 -3.073,3.782c-0.841,1.524 -1.471,3.205 -1.891,5.043c-0.42,1.839 -0.63,3.546 -0.63,5.122l18.753,-0Zm127.806,-0c0,-4.413 -0.683,-8.09 -2.049,-11.032c-1.365,-2.941 -3.624,-4.412 -6.776,-4.412c-1.681,-0 -3.125,0.499 -4.334,1.497c-1.208,0.998 -2.232,2.259 -3.073,3.782c-0.84,1.524 -1.471,3.205 -1.891,5.043c-0.42,1.839 -0.63,3.546 -0.63,5.122l18.753,-0Z" style="fill:#fff;"/></g></svg>