<?xml version="1.0" encoding="UTF-8" standalone="no"?><!DOCTYPE svg PUBLIC "-//W3C//DTD SVG 1.1//EN" "http://www.w3.org/Graphics/SVG/1.1/DTD/svg11.dtd"><svg width="100%" height="100%" viewBox="0 0 351 141" version="1.1" xmlns="http://www.w3.org/2000/svg" xmlns:xlink="http://www.w3.org/1999/xlink" xml:space="preserve" xmlns:serif="http://www.serif.com/" style="fill-rule:evenodd;clip-rule:evenodd;stroke-linejoin:round;stroke-miterlimit:2;"><rect id="Artboard1" x="0" y="0" width="350.2" height="140.357" style="fill:none;"/><clipPath id="_clip1"><rect x="0" y="0" width="350.2" height="140.357"/></clipPath><g clip-path="url(#_clip1)"><path d="M350.222,0l-350.222,0l0,140.357l350.222,-0l0,-140.357Zm-153.554,87.094c0,6.399 -0.786,12.299 -2.36,17.702c-1.573,5.402 -3.803,10.044 -6.687,13.925c-2.885,3.882 -6.452,6.924 -10.7,9.127c-4.249,2.203 -9.048,3.304 -14.398,3.304c-5.35,0 -10.123,-1.101 -14.319,-3.304c-4.196,-2.203 -7.789,-5.245 -10.779,-9.127c-2.989,-3.881 -5.271,-8.523 -6.844,-13.925c-1.574,-5.403 -2.361,-11.303 -2.361,-17.702c0,-6.399 0.787,-12.326 2.361,-17.781c1.573,-5.455 3.829,-10.123 6.766,-14.004c2.937,-3.882 6.53,-6.924 10.778,-9.127c4.249,-2.203 9.048,-3.304 14.398,-3.304c5.35,-0 10.149,1.101 14.398,3.304c4.248,2.203 7.815,5.245 10.7,9.127c2.884,3.881 5.114,8.549 6.687,14.004c1.574,5.455 2.36,11.382 2.36,17.781Zm14.477,-41.227l24.075,0l-0,13.847l0.157,0c2.937,-10.909 8.444,-16.364 16.522,-16.364c0.839,-0 1.521,0.026 2.045,0.079c0.525,0.052 1.154,0.183 1.889,0.393l-1.574,24.704c-0.839,-0.21 -1.652,-0.393 -2.439,-0.551c-0.787,-0.157 -1.757,-0.236 -2.911,-0.236c-2.098,0 -3.934,0.551 -5.507,1.653c-1.574,1.101 -2.911,2.543 -4.013,4.327c-1.101,1.783 -1.94,3.881 -2.517,6.294c-0.577,2.413 -0.866,4.878 -0.866,7.395l0,40.754l-24.861,0l-0,-82.295Zm95.04,82.295l-16.05,-37.764l-0.314,0l-0,37.764l-24.547,0l-0,-118.957l24.547,-0l-0,69.864l0.314,-0l15.106,-33.202l28.953,0l-20.771,37.765l21.243,44.53l-28.481,0Zm-202.197,0l-25.019,0l-10.385,-47.205l-0.315,-0l-10.228,47.205l-24.232,0l-18.252,-82.295l25.176,0l8.025,51.455l0.314,-0l9.442,-51.455l21.085,0l9.755,51.455l0.315,-0l8.025,-51.455l24.862,0l-18.568,82.295Zm69.078,-41.226c-0,-3.147 -0.21,-6.058 -0.63,-8.733c-0.419,-2.675 -1.049,-5.035 -1.888,-7.081c-0.839,-2.045 -1.914,-3.645 -3.226,-4.799c-1.311,-1.154 -2.911,-1.731 -4.799,-1.731c-1.783,0 -3.331,0.577 -4.642,1.731c-1.311,1.154 -2.386,2.754 -3.226,4.799c-0.839,2.046 -1.468,4.406 -1.888,7.081c-0.419,2.675 -0.629,5.586 -0.629,8.733c-0,3.147 0.21,6.058 0.629,8.733c0.42,2.675 1.049,5.036 1.888,7.081c0.84,2.046 1.915,3.645 3.226,4.799c1.311,1.154 2.859,1.731 4.642,1.731c1.888,0 3.488,-0.577 4.799,-1.731c1.312,-1.154 2.387,-2.753 3.226,-4.799c0.839,-2.045 1.469,-4.406 1.888,-7.081c0.42,-2.675 0.63,-5.586 0.63,-8.733Z" style="fill:#fff;"/></g></svg>